<svg width="180" height="100" viewBox="0 0 180 100" fill="none" xmlns="http://www.w3.org/2000/svg">
<path d="M0 91.5254H8.33333" stroke="#10226B"/>
<path d="M4.40497 63.2422L12.3304 65.861" stroke="#10226B"/>
<path d="M17.1887 37.7285L23.9305 42.7097" stroke="#10226B"/>
<path d="M37.0993 17.4795L41.9975 24.3356" stroke="#10226B"/>
<path d="M62.1886 4.47949L64.7637 12.5393" stroke="#10226B"/>
<path d="M90 0V8.47458" stroke="#10226B"/>
<path d="M117.812 4.47949L115.236 12.5393" stroke="#10226B"/>
<path d="M142.901 17.4795L138.003 24.3356" stroke="#10226B"/>
<path d="M162.812 37.7285L156.07 42.7097" stroke="#10226B"/>
<path d="M175.595 63.2422L167.67 65.861" stroke="#10226B"/>
<path d="M180 91.5254H171.667" stroke="#10226B"/>
<path d="M0.177734 85.7783L6.83125 86.204" stroke="#549ABF"/>
<path d="M0.709717 80.0547L7.32382 80.9044" stroke="#549ABF"/>
<path d="M1.59418 74.375L8.14276 75.6454" stroke="#549ABF"/>
<path d="M2.82758 68.7637L9.2848 70.4497" stroke="#549ABF"/>
<path d="M6.32037 57.833L12.5189 60.3288" stroke="#549ABF"/>
<path d="M8.56543 52.5557L14.5976 55.4423" stroke="#549ABF"/>
<path d="M11.1323 47.4326L16.9743 50.6987" stroke="#549ABF"/>
<path d="M14.0104 42.4834L19.6393 46.1161" stroke="#549ABF"/>
<path d="M20.6538 33.1846L25.7906 37.5061" stroke="#549ABF"/>
<path d="M24.3928 28.8721L29.2526 33.5131" stroke="#549ABF"/>
<path d="M28.3907 24.8066L32.9544 29.7488" stroke="#549ABF"/>
<path d="M32.6318 21.0039L36.8813 26.2277" stroke="#549ABF"/>
<path d="M41.7754 14.248L45.3476 19.9723" stroke="#549ABF"/>
<path d="M46.6422 11.3213L49.8538 17.2624" stroke="#549ABF"/>
<path d="M51.6798 8.71094L54.5183 14.8454" stroke="#549ABF"/>
<path d="M56.8685 6.42773L59.3227 12.7313" stroke="#549ABF"/>
<path d="M67.618 2.875L69.2759 9.44167" stroke="#549ABF"/>
<path d="M73.1358 1.62109L74.385 8.28067" stroke="#549ABF"/>
<path d="M78.7199 0.72168L79.5555 7.44788" stroke="#549ABF"/>
<path d="M84.3486 0.180664L84.7672 6.94695" stroke="#549ABF"/>
<path d="M95.6509 0.180664L95.2323 6.94695" stroke="#549ABF"/>
<path d="M101.28 0.72168L100.444 7.44788" stroke="#549ABF"/>
<path d="M106.864 1.62109L105.615 8.28067" stroke="#549ABF"/>
<path d="M112.382 2.875L110.724 9.44167" stroke="#549ABF"/>
<path d="M123.131 6.42773L120.677 12.7313" stroke="#549ABF"/>
<path d="M128.32 8.71094L125.481 14.8454" stroke="#549ABF"/>
<path d="M133.358 11.3213L130.146 17.2624" stroke="#549ABF"/>
<path d="M138.224 14.248L134.652 19.9723" stroke="#549ABF"/>
<path d="M147.368 21.0039L143.119 26.2277" stroke="#549ABF"/>
<path d="M151.609 24.8066L147.046 29.7488" stroke="#549ABF"/>
<path d="M155.607 28.8721L150.747 33.5131" stroke="#549ABF"/>
<path d="M159.346 33.1846L154.209 37.5061" stroke="#549ABF"/>
<path d="M165.989 42.4834L160.361 46.1161" stroke="#549ABF"/>
<path d="M168.868 47.4326L163.026 50.6987" stroke="#549ABF"/>
<path d="M171.434 52.5557L165.402 55.4423" stroke="#549ABF"/>
<path d="M173.68 57.833L167.481 60.3288" stroke="#549ABF"/>
<path d="M177.173 68.7637L170.715 70.4497" stroke="#549ABF"/>
<path d="M178.406 74.375L171.857 75.6454" stroke="#549ABF"/>
<path d="M179.29 80.0547L172.676 80.9044" stroke="#549ABF"/>
<path d="M179.822 85.7783L173.169 86.204" stroke="#549ABF"/>
<path d="M18.0746 91.625V92.709C18.0746 93.2917 18.0225 93.7832 17.9184 94.1836C17.8142 94.584 17.6645 94.9062 17.4692 95.1504C17.2738 95.3945 17.0378 95.5719 16.7611 95.6826C16.4877 95.79 16.1785 95.8438 15.8334 95.8438C15.56 95.8438 15.3077 95.8096 15.0766 95.7412C14.8455 95.6729 14.6371 95.5638 14.4516 95.4141C14.2693 95.2611 14.113 95.0625 13.9828 94.8184C13.8526 94.5742 13.7533 94.278 13.685 93.9297C13.6166 93.5814 13.5824 93.1745 13.5824 92.709V91.625C13.5824 91.0423 13.6345 90.554 13.7387 90.1602C13.8461 89.7663 13.9975 89.4505 14.1928 89.2129C14.3881 88.972 14.6225 88.7995 14.8959 88.6953C15.1726 88.5911 15.4819 88.5391 15.8236 88.5391C16.1003 88.5391 16.3542 88.5732 16.5854 88.6416C16.8197 88.7067 17.0281 88.8125 17.2104 88.959C17.3927 89.1022 17.5473 89.2943 17.6742 89.5352C17.8044 89.7728 17.9037 90.0641 17.9721 90.4092C18.0404 90.7542 18.0746 91.1595 18.0746 91.625ZM17.1664 92.8555V91.4736C17.1664 91.1546 17.1469 90.8747 17.1078 90.6338C17.072 90.3896 17.0183 90.1813 16.9467 90.0088C16.8751 89.8363 16.7839 89.6963 16.6733 89.5889C16.5658 89.4814 16.4405 89.4033 16.2973 89.3545C16.1573 89.3024 15.9994 89.2764 15.8236 89.2764C15.6088 89.2764 15.4184 89.3171 15.2524 89.3984C15.0863 89.4766 14.9464 89.6019 14.8324 89.7744C14.7218 89.9469 14.6371 90.1732 14.5785 90.4531C14.5199 90.7331 14.4906 91.0732 14.4906 91.4736V92.8555C14.4906 93.1745 14.5085 93.4561 14.5444 93.7002C14.5834 93.9443 14.6404 94.1559 14.7153 94.335C14.7901 94.5107 14.8813 94.6556 14.9887 94.7695C15.0961 94.8835 15.2198 94.9681 15.3598 95.0234C15.503 95.0755 15.6609 95.1016 15.8334 95.1016C16.0548 95.1016 16.2485 95.0592 16.4145 94.9746C16.5805 94.89 16.7188 94.7581 16.8295 94.5791C16.9434 94.3968 17.0281 94.1641 17.0834 93.8809C17.1388 93.5944 17.1664 93.2526 17.1664 92.8555Z" fill="#333333"/>
<path d="M20.6092 66.0762V73.2246H19.7059V67.2041L17.8846 67.8682V67.0527L20.4676 66.0762H20.6092ZM27.7283 69.1035V70.1875C27.7283 70.7702 27.6762 71.2617 27.5721 71.6621C27.4679 72.0625 27.3182 72.3848 27.1229 72.6289C26.9276 72.873 26.6915 73.0505 26.4149 73.1611C26.1414 73.2686 25.8322 73.3223 25.4871 73.3223C25.2137 73.3223 24.9614 73.2881 24.7303 73.2197C24.4992 73.1514 24.2908 73.0423 24.1053 72.8926C23.923 72.7396 23.7667 72.541 23.6365 72.2969C23.5063 72.0527 23.407 71.7565 23.3387 71.4082C23.2703 71.0599 23.2361 70.653 23.2361 70.1875V69.1035C23.2361 68.5208 23.2882 68.0326 23.3924 67.6387C23.4998 67.2448 23.6512 66.929 23.8465 66.6914C24.0418 66.4505 24.2762 66.278 24.5496 66.1738C24.8263 66.0697 25.1356 66.0176 25.4774 66.0176C25.754 66.0176 26.008 66.0518 26.2391 66.1201C26.4734 66.1852 26.6818 66.291 26.8641 66.4375C27.0464 66.5807 27.201 66.7728 27.3279 67.0137C27.4582 67.2513 27.5574 67.5426 27.6258 67.8877C27.6942 68.2327 27.7283 68.638 27.7283 69.1035ZM26.8201 70.334V68.9521C26.8201 68.6331 26.8006 68.3532 26.7615 68.1123C26.7257 67.8682 26.672 67.6598 26.6004 67.4873C26.5288 67.3148 26.4376 67.1748 26.327 67.0674C26.2195 66.96 26.0942 66.8818 25.951 66.833C25.811 66.7809 25.6531 66.7549 25.4774 66.7549C25.2625 66.7549 25.0721 66.7956 24.9061 66.877C24.7401 66.9551 24.6001 67.0804 24.4861 67.2529C24.3755 67.4255 24.2908 67.6517 24.2322 67.9316C24.1736 68.2116 24.1443 68.5518 24.1443 68.9521V70.334C24.1443 70.653 24.1623 70.9346 24.1981 71.1787C24.2371 71.4229 24.2941 71.6344 24.369 71.8135C24.4438 71.9893 24.535 72.1341 24.6424 72.248C24.7498 72.362 24.8735 72.4466 25.0135 72.502C25.1567 72.554 25.3146 72.5801 25.4871 72.5801C25.7085 72.5801 25.9022 72.5378 26.0682 72.4531C26.2342 72.3685 26.3725 72.2367 26.4832 72.0576C26.5971 71.8753 26.6818 71.6426 26.7371 71.3594C26.7925 71.0729 26.8201 70.7311 26.8201 70.334Z" fill="#333333"/>
<path d="M32.4779 52.165V52.9072H27.8246V52.2578L30.1537 49.665C30.4401 49.346 30.6615 49.0758 30.8177 48.8545C30.9773 48.6299 31.0879 48.4297 31.1498 48.2539C31.2149 48.0749 31.2474 47.8926 31.2474 47.707C31.2474 47.4727 31.1986 47.2611 31.101 47.0723C31.0066 46.8802 30.8666 46.7272 30.681 46.6133C30.4955 46.4993 30.2709 46.4424 30.0072 46.4424C29.6914 46.4424 29.4278 46.5042 29.2162 46.6279C29.0079 46.7484 28.8516 46.9176 28.7474 47.1357C28.6433 47.3538 28.5912 47.6045 28.5912 47.8877H27.6879C27.6879 47.4873 27.7758 47.1211 27.9515 46.7891C28.1273 46.457 28.3877 46.1934 28.7328 45.998C29.0778 45.7995 29.5026 45.7002 30.0072 45.7002C30.4564 45.7002 30.8405 45.7799 31.1595 45.9395C31.4786 46.0957 31.7227 46.3171 31.892 46.6035C32.0645 46.8867 32.1508 47.2188 32.1508 47.5996C32.1508 47.8079 32.1149 48.0195 32.0433 48.2344C31.975 48.446 31.8789 48.6576 31.7552 48.8691C31.6348 49.0807 31.4932 49.2891 31.3304 49.4941C31.1709 49.6992 31 49.901 30.8177 50.0996L28.9135 52.165H32.4779ZM37.9076 48.7861V49.8701C37.9076 50.4528 37.8555 50.9443 37.7513 51.3447C37.6472 51.7451 37.4974 52.0674 37.3021 52.3115C37.1068 52.5557 36.8708 52.7331 36.5941 52.8438C36.3207 52.9512 36.0114 53.0049 35.6664 53.0049C35.3929 53.0049 35.1407 52.9707 34.9095 52.9023C34.6784 52.834 34.4701 52.7249 34.2845 52.5752C34.1023 52.4222 33.946 52.2236 33.8158 51.9795C33.6856 51.7354 33.5863 51.4391 33.5179 51.0908C33.4496 50.7425 33.4154 50.3356 33.4154 49.8701V48.7861C33.4154 48.2035 33.4675 47.7152 33.5717 47.3213C33.6791 46.9274 33.8304 46.6117 34.0258 46.374C34.2211 46.1331 34.4554 45.9606 34.7289 45.8564C35.0056 45.7523 35.3148 45.7002 35.6566 45.7002C35.9333 45.7002 36.1872 45.7344 36.4183 45.8027C36.6527 45.8678 36.861 45.9736 37.0433 46.1201C37.2256 46.2633 37.3802 46.4554 37.5072 46.6963C37.6374 46.9339 37.7367 47.2253 37.8051 47.5703C37.8734 47.9154 37.9076 48.3206 37.9076 48.7861ZM36.9994 50.0166V48.6348C36.9994 48.3158 36.9799 48.0358 36.9408 47.7949C36.905 47.5508 36.8513 47.3424 36.7797 47.1699C36.708 46.9974 36.6169 46.8574 36.5062 46.75C36.3988 46.6426 36.2735 46.5645 36.1302 46.5156C35.9903 46.4635 35.8324 46.4375 35.6566 46.4375C35.4418 46.4375 35.2513 46.4782 35.0853 46.5596C34.9193 46.6377 34.7793 46.763 34.6654 46.9355C34.5547 47.1081 34.4701 47.3343 34.4115 47.6143C34.3529 47.8942 34.3236 48.2344 34.3236 48.6348V50.0166C34.3236 50.3356 34.3415 50.6172 34.3773 50.8613C34.4164 51.1055 34.4733 51.3171 34.5482 51.4961C34.6231 51.6719 34.7142 51.8167 34.8217 51.9307C34.9291 52.0446 35.0528 52.1292 35.1927 52.1846C35.336 52.2367 35.4939 52.2627 35.6664 52.2627C35.8877 52.2627 36.0814 52.2204 36.2474 52.1357C36.4135 52.0511 36.5518 51.9193 36.6625 51.7402C36.7764 51.5579 36.861 51.3252 36.9164 51.042C36.9717 50.7555 36.9994 50.4137 36.9994 50.0166Z" fill="#333333"/>
<path d="M44.9929 32.7842H45.6374C45.9531 32.7842 46.2136 32.7321 46.4186 32.6279C46.627 32.5205 46.7816 32.3757 46.8825 32.1934C46.9867 32.0078 47.0388 31.7995 47.0388 31.5684C47.0388 31.2949 46.9932 31.0654 46.902 30.8799C46.8109 30.6943 46.6742 30.5544 46.4919 30.46C46.3096 30.3656 46.0785 30.3184 45.7985 30.3184C45.5446 30.3184 45.32 30.3688 45.1247 30.4697C44.9326 30.5674 44.7813 30.7074 44.6706 30.8896C44.5632 31.0719 44.5095 31.2868 44.5095 31.5342H43.6061C43.6061 31.1729 43.6973 30.8441 43.8796 30.5479C44.0619 30.2516 44.3174 30.0156 44.6462 29.8398C44.9782 29.6641 45.3623 29.5762 45.7985 29.5762C46.2282 29.5762 46.6042 29.6527 46.9265 29.8057C47.2487 29.9554 47.4994 30.18 47.6784 30.4795C47.8574 30.7757 47.947 31.1452 47.947 31.5879C47.947 31.7669 47.9046 31.959 47.82 32.1641C47.7386 32.3659 47.61 32.5547 47.4343 32.7305C47.2617 32.9062 47.0371 33.0511 46.7604 33.165C46.4837 33.2757 46.1517 33.3311 45.7643 33.3311H44.9929V32.7842ZM44.9929 33.5264V32.9844H45.7643C46.2168 32.9844 46.5912 33.0381 46.8874 33.1455C47.1836 33.2529 47.4164 33.3962 47.5856 33.5752C47.7582 33.7542 47.8786 33.9512 47.947 34.166C48.0186 34.3776 48.0544 34.5892 48.0544 34.8008C48.0544 35.1328 47.9974 35.4274 47.8835 35.6846C47.7728 35.9417 47.6149 36.1598 47.4099 36.3389C47.208 36.5179 46.9704 36.653 46.697 36.7441C46.4235 36.8353 46.1257 36.8809 45.8034 36.8809C45.4942 36.8809 45.2028 36.8369 44.9294 36.749C44.6592 36.6611 44.4199 36.5342 44.2116 36.3682C44.0033 36.1989 43.8405 35.9922 43.7233 35.748C43.6061 35.5007 43.5475 35.2191 43.5475 34.9033H44.4509C44.4509 35.1507 44.5046 35.3672 44.612 35.5527C44.7227 35.7383 44.8789 35.8831 45.0807 35.9873C45.2858 36.0882 45.5267 36.1387 45.8034 36.1387C46.0801 36.1387 46.3177 36.0915 46.5163 35.9971C46.7181 35.8994 46.8727 35.7529 46.9802 35.5576C47.0908 35.3623 47.1462 35.1165 47.1462 34.8203C47.1462 34.5241 47.0843 34.2816 46.9606 34.0928C46.8369 33.9007 46.6612 33.7591 46.4333 33.668C46.2087 33.5736 45.9434 33.5264 45.6374 33.5264H44.9929ZM53.7624 32.6621V33.7461C53.7624 34.3288 53.7103 34.8203 53.6061 35.2207C53.502 35.6211 53.3522 35.9434 53.1569 36.1875C52.9616 36.4316 52.7256 36.609 52.4489 36.7197C52.1755 36.8271 51.8662 36.8809 51.5212 36.8809C51.2477 36.8809 50.9955 36.8467 50.7643 36.7783C50.5332 36.71 50.3249 36.6009 50.1393 36.4512C49.9571 36.2982 49.8008 36.0996 49.6706 35.8555C49.5404 35.6113 49.4411 35.3151 49.3727 34.9668C49.3044 34.6185 49.2702 34.2116 49.2702 33.7461V32.6621C49.2702 32.0794 49.3223 31.5911 49.4265 31.1973C49.5339 30.8034 49.6852 30.4876 49.8806 30.25C50.0759 30.0091 50.3102 29.8366 50.5837 29.7324C50.8604 29.6283 51.1696 29.5762 51.5114 29.5762C51.7881 29.5762 52.042 29.6104 52.2731 29.6787C52.5075 29.7438 52.7158 29.8496 52.8981 29.9961C53.0804 30.1393 53.235 30.3314 53.362 30.5723C53.4922 30.8099 53.5915 31.1012 53.6599 31.4463C53.7282 31.7913 53.7624 32.1966 53.7624 32.6621ZM52.8542 33.8926V32.5107C52.8542 32.1917 52.8347 31.9118 52.7956 31.6709C52.7598 31.4268 52.7061 31.2184 52.6345 31.0459C52.5628 30.8734 52.4717 30.7334 52.361 30.626C52.2536 30.5186 52.1283 30.4404 51.985 30.3916C51.8451 30.3395 51.6872 30.3135 51.5114 30.3135C51.2966 30.3135 51.1061 30.3542 50.9401 30.4355C50.7741 30.5137 50.6341 30.639 50.5202 30.8115C50.4095 30.984 50.3249 31.2103 50.2663 31.4902C50.2077 31.7702 50.1784 32.1104 50.1784 32.5107V33.8926C50.1784 34.2116 50.1963 34.4932 50.2321 34.7373C50.2712 34.9814 50.3281 35.193 50.403 35.3721C50.4779 35.5479 50.569 35.6927 50.6765 35.8066C50.7839 35.9206 50.9076 36.0052 51.0475 36.0605C51.1908 36.1126 51.3487 36.1387 51.5212 36.1387C51.7425 36.1387 51.9362 36.0964 52.1022 36.0117C52.2682 35.9271 52.4066 35.7952 52.5173 35.6162C52.6312 35.4339 52.7158 35.2012 52.7712 34.918C52.8265 34.6315 52.8542 34.2897 52.8542 33.8926Z" fill="#333333"/>
<path d="M68.4578 24.0391V24.7812H63.3211V24.249L66.5047 19.3223H67.242L66.451 20.748L64.3465 24.0391H68.4578ZM67.4666 19.3223V26.4316H66.5633V19.3223H67.4666ZM73.741 22.3105V23.3945C73.741 23.9772 73.6889 24.4688 73.5848 24.8691C73.4806 25.2695 73.3309 25.5918 73.1356 25.8359C72.9402 26.0801 72.7042 26.2575 72.4276 26.3682C72.1541 26.4756 71.8449 26.5293 71.4998 26.5293C71.2264 26.5293 70.9741 26.4951 70.743 26.4268C70.5119 26.3584 70.3035 26.2493 70.118 26.0996C69.9357 25.9466 69.7794 25.748 69.6492 25.5039C69.519 25.2598 69.4197 24.9635 69.3514 24.6152C69.283 24.2669 69.2488 23.86 69.2488 23.3945V22.3105C69.2488 21.7279 69.3009 21.2396 69.4051 20.8457C69.5125 20.4518 69.6639 20.1361 69.8592 19.8984C70.0545 19.6576 70.2889 19.485 70.5623 19.3809C70.839 19.2767 71.1483 19.2246 71.4901 19.2246C71.7667 19.2246 72.0207 19.2588 72.2518 19.3271C72.4861 19.3923 72.6945 19.498 72.8768 19.6445C73.0591 19.7878 73.2137 19.9798 73.3406 20.2207C73.4708 20.4583 73.5701 20.7497 73.6385 21.0947C73.7068 21.4398 73.741 21.8451 73.741 22.3105ZM72.8328 23.541V22.1592C72.8328 21.8402 72.8133 21.5602 72.7742 21.3193C72.7384 21.0752 72.6847 20.8669 72.6131 20.6943C72.5415 20.5218 72.4503 20.3818 72.3397 20.2744C72.2322 20.167 72.1069 20.0889 71.9637 20.04C71.8237 19.988 71.6658 19.9619 71.4901 19.9619C71.2752 19.9619 71.0848 20.0026 70.9188 20.084C70.7527 20.1621 70.6128 20.2874 70.4988 20.46C70.3882 20.6325 70.3035 20.8587 70.2449 21.1387C70.1863 21.4186 70.157 21.7588 70.157 22.1592V23.541C70.157 23.86 70.1749 24.1416 70.2108 24.3857C70.2498 24.6299 70.3068 24.8415 70.3817 25.0205C70.4565 25.1963 70.5477 25.3411 70.6551 25.4551C70.7625 25.569 70.8862 25.6536 71.0262 25.709C71.1694 25.7611 71.3273 25.7871 71.4998 25.7871C71.7212 25.7871 71.9149 25.7448 72.0809 25.6602C72.2469 25.5755 72.3852 25.4437 72.4959 25.2646C72.6098 25.0824 72.6945 24.8496 72.7498 24.5664C72.8052 24.2799 72.8328 23.9382 72.8328 23.541Z" fill="#333333"/>
<path d="M86.9417 19.4805L86.2191 19.2949L86.5755 15.7549H90.223V16.5898H87.3421L87.1273 18.5234C87.2575 18.4486 87.4219 18.3786 87.6204 18.3135C87.8222 18.2484 88.0534 18.2158 88.3138 18.2158C88.6426 18.2158 88.9372 18.2728 89.1976 18.3867C89.458 18.4974 89.6793 18.6569 89.8616 18.8652C90.0472 19.0736 90.1888 19.3242 90.2864 19.6172C90.3841 19.9102 90.4329 20.2373 90.4329 20.5986C90.4329 20.9404 90.3857 21.2546 90.2913 21.541C90.2002 21.8275 90.0618 22.0781 89.8763 22.293C89.6907 22.5046 89.4564 22.6689 89.1732 22.7861C88.8932 22.9033 88.5628 22.9619 88.1819 22.9619C87.8955 22.9619 87.6237 22.9229 87.3665 22.8447C87.1126 22.7633 86.8847 22.6413 86.6829 22.4785C86.4844 22.3125 86.3216 22.1074 86.1946 21.8633C86.0709 21.6159 85.9928 21.3262 85.9603 20.9941H86.8196C86.8587 21.2611 86.9368 21.4857 87.054 21.668C87.1712 21.8503 87.3242 21.9886 87.513 22.083C87.7051 22.1742 87.928 22.2197 88.1819 22.2197C88.3968 22.2197 88.5872 22.1823 88.7532 22.1074C88.9193 22.0326 89.0592 21.9251 89.1732 21.7852C89.2871 21.6452 89.3734 21.4759 89.4319 21.2773C89.4938 21.0788 89.5247 20.8558 89.5247 20.6084C89.5247 20.3838 89.4938 20.1755 89.4319 19.9834C89.3701 19.7913 89.2773 19.6237 89.1536 19.4805C89.0332 19.3372 88.8851 19.2266 88.7093 19.1484C88.5335 19.0671 88.3317 19.0264 88.1038 19.0264C87.8011 19.0264 87.5716 19.0671 87.4153 19.1484C87.2623 19.2298 87.1045 19.3405 86.9417 19.4805ZM95.887 18.7432V19.8271C95.887 20.4098 95.8349 20.9014 95.7308 21.3018C95.6266 21.7021 95.4769 22.0244 95.2816 22.2686C95.0862 22.5127 94.8502 22.6901 94.5735 22.8008C94.3001 22.9082 93.9909 22.9619 93.6458 22.9619C93.3724 22.9619 93.1201 22.9277 92.889 22.8594C92.6579 22.791 92.4495 22.682 92.264 22.5322C92.0817 22.3792 91.9254 22.1807 91.7952 21.9365C91.665 21.6924 91.5657 21.3962 91.4974 21.0479C91.429 20.6995 91.3948 20.2926 91.3948 19.8271V18.7432C91.3948 18.1605 91.4469 17.6722 91.5511 17.2783C91.6585 16.8844 91.8099 16.5687 92.0052 16.3311C92.2005 16.0902 92.4349 15.9176 92.7083 15.8135C92.985 15.7093 93.2943 15.6572 93.636 15.6572C93.9127 15.6572 94.1666 15.6914 94.3978 15.7598C94.6321 15.8249 94.8405 15.9307 95.0228 16.0771C95.2051 16.2204 95.3597 16.4124 95.4866 16.6533C95.6168 16.891 95.7161 17.1823 95.7845 17.5273C95.8528 17.8724 95.887 18.2777 95.887 18.7432ZM94.9788 19.9736V18.5918C94.9788 18.2728 94.9593 17.9928 94.9202 17.752C94.8844 17.5078 94.8307 17.2995 94.7591 17.127C94.6875 16.9544 94.5963 16.8145 94.4857 16.707C94.3782 16.5996 94.2529 16.5215 94.1097 16.4727C93.9697 16.4206 93.8118 16.3945 93.636 16.3945C93.4212 16.3945 93.2308 16.4352 93.0648 16.5166C92.8987 16.5947 92.7588 16.7201 92.6448 16.8926C92.5342 17.0651 92.4495 17.2913 92.3909 17.5713C92.3323 17.8512 92.303 18.1914 92.303 18.5918V19.9736C92.303 20.2926 92.3209 20.5742 92.3568 20.8184C92.3958 21.0625 92.4528 21.2741 92.5276 21.4531C92.6025 21.6289 92.6937 21.7738 92.8011 21.8877C92.9085 22.0016 93.0322 22.0863 93.1722 22.1416C93.3154 22.1937 93.4733 22.2197 93.6458 22.2197C93.8672 22.2197 94.0609 22.1774 94.2269 22.0928C94.3929 22.0081 94.5312 21.8763 94.6419 21.6973C94.7558 21.515 94.8405 21.2822 94.8958 20.999C94.9512 20.7126 94.9788 20.3708 94.9788 19.9736Z" fill="#333333"/>
<path d="M111.412 19.3125H111.49V20.0791H111.412C110.934 20.0791 110.533 20.1572 110.211 20.3135C109.889 20.4665 109.633 20.6732 109.445 20.9336C109.256 21.1908 109.119 21.4805 109.034 21.8027C108.953 22.125 108.912 22.4521 108.912 22.7842V23.8291C108.912 24.1449 108.95 24.4248 109.025 24.6689C109.099 24.9098 109.202 25.1133 109.332 25.2793C109.462 25.4453 109.609 25.5706 109.772 25.6553C109.938 25.7399 110.11 25.7822 110.289 25.7822C110.498 25.7822 110.683 25.7432 110.846 25.665C111.009 25.5837 111.145 25.4714 111.256 25.3281C111.37 25.1816 111.456 25.0091 111.515 24.8105C111.573 24.612 111.603 24.3939 111.603 24.1562C111.603 23.9447 111.577 23.7412 111.525 23.5459C111.473 23.3473 111.393 23.1715 111.285 23.0186C111.178 22.8623 111.043 22.7402 110.88 22.6523C110.721 22.5612 110.53 22.5156 110.309 22.5156C110.058 22.5156 109.824 22.5775 109.606 22.7012C109.391 22.8216 109.213 22.9811 109.073 23.1797C108.937 23.375 108.859 23.5882 108.839 23.8193L108.361 23.8145C108.406 23.4499 108.491 23.139 108.614 22.8818C108.741 22.6214 108.898 22.4098 109.083 22.2471C109.272 22.0811 109.482 21.9606 109.713 21.8857C109.947 21.8076 110.195 21.7686 110.455 21.7686C110.81 21.7686 111.116 21.8353 111.373 21.9688C111.63 22.1022 111.842 22.2812 112.008 22.5059C112.174 22.7272 112.296 22.9779 112.374 23.2578C112.456 23.5345 112.496 23.8193 112.496 24.1123C112.496 24.4476 112.449 24.7617 112.355 25.0547C112.26 25.3477 112.119 25.6048 111.93 25.8262C111.744 26.0475 111.515 26.2201 111.241 26.3438C110.968 26.4674 110.651 26.5293 110.289 26.5293C109.905 26.5293 109.57 26.4512 109.283 26.2949C108.997 26.1354 108.759 25.9238 108.57 25.6602C108.382 25.3965 108.24 25.1035 108.146 24.7812C108.051 24.459 108.004 24.1318 108.004 23.7998V23.375C108.004 22.8737 108.055 22.3822 108.155 21.9004C108.256 21.4186 108.431 20.9824 108.678 20.5918C108.929 20.2012 109.275 19.8903 109.718 19.6592C110.161 19.4281 110.725 19.3125 111.412 19.3125ZM118.033 22.3105V23.3945C118.033 23.9772 117.981 24.4688 117.877 24.8691C117.773 25.2695 117.623 25.5918 117.428 25.8359C117.233 26.0801 116.997 26.2575 116.72 26.3682C116.446 26.4756 116.137 26.5293 115.792 26.5293C115.519 26.5293 115.266 26.4951 115.035 26.4268C114.804 26.3584 114.596 26.2493 114.41 26.0996C114.228 25.9466 114.072 25.748 113.942 25.5039C113.811 25.2598 113.712 24.9635 113.644 24.6152C113.575 24.2669 113.541 23.86 113.541 23.3945V22.3105C113.541 21.7279 113.593 21.2396 113.697 20.8457C113.805 20.4518 113.956 20.1361 114.152 19.8984C114.347 19.6576 114.581 19.485 114.855 19.3809C115.131 19.2767 115.441 19.2246 115.782 19.2246C116.059 19.2246 116.313 19.2588 116.544 19.3271C116.779 19.3923 116.987 19.498 117.169 19.6445C117.351 19.7878 117.506 19.9798 117.633 20.2207C117.763 20.4583 117.862 20.7497 117.931 21.0947C117.999 21.4398 118.033 21.8451 118.033 22.3105ZM117.125 23.541V22.1592C117.125 21.8402 117.106 21.5602 117.067 21.3193C117.031 21.0752 116.977 20.8669 116.905 20.6943C116.834 20.5218 116.743 20.3818 116.632 20.2744C116.525 20.167 116.399 20.0889 116.256 20.04C116.116 19.988 115.958 19.9619 115.782 19.9619C115.568 19.9619 115.377 20.0026 115.211 20.084C115.045 20.1621 114.905 20.2874 114.791 20.46C114.681 20.6325 114.596 20.8587 114.537 21.1387C114.479 21.4186 114.449 21.7588 114.449 22.1592V23.541C114.449 23.86 114.467 24.1416 114.503 24.3857C114.542 24.6299 114.599 24.8415 114.674 25.0205C114.749 25.1963 114.84 25.3411 114.947 25.4551C115.055 25.569 115.179 25.6536 115.319 25.709C115.462 25.7611 115.62 25.7871 115.792 25.7871C116.014 25.7871 116.207 25.7448 116.373 25.6602C116.539 25.5755 116.678 25.4437 116.788 25.2646C116.902 25.0824 116.987 24.8496 117.042 24.5664C117.098 24.2799 117.125 23.9382 117.125 23.541Z" fill="#333333"/>
<path d="M132.518 29.6738V30.1816L129.574 36.7832H128.622L131.561 30.416H127.714V29.6738H132.518ZM138.011 32.6621V33.7461C138.011 34.3288 137.959 34.8203 137.855 35.2207C137.751 35.6211 137.601 35.9434 137.406 36.1875C137.211 36.4316 136.975 36.609 136.698 36.7197C136.425 36.8271 136.115 36.8809 135.77 36.8809C135.497 36.8809 135.245 36.8467 135.013 36.7783C134.782 36.71 134.574 36.6009 134.388 36.4512C134.206 36.2982 134.05 36.0996 133.92 35.8555C133.789 35.6113 133.69 35.3151 133.622 34.9668C133.553 34.6185 133.519 34.2116 133.519 33.7461V32.6621C133.519 32.0794 133.571 31.5911 133.676 31.1973C133.783 30.8034 133.934 30.4876 134.13 30.25C134.325 30.0091 134.559 29.8366 134.833 29.7324C135.109 29.6283 135.419 29.5762 135.76 29.5762C136.037 29.5762 136.291 29.6104 136.522 29.6787C136.757 29.7438 136.965 29.8496 137.147 29.9961C137.33 30.1393 137.484 30.3314 137.611 30.5723C137.741 30.8099 137.841 31.1012 137.909 31.4463C137.977 31.7913 138.011 32.1966 138.011 32.6621ZM137.103 33.8926V32.5107C137.103 32.1917 137.084 31.9118 137.045 31.6709C137.009 31.4268 136.955 31.2184 136.884 31.0459C136.812 30.8734 136.721 30.7334 136.61 30.626C136.503 30.5186 136.377 30.4404 136.234 30.3916C136.094 30.3395 135.936 30.3135 135.76 30.3135C135.546 30.3135 135.355 30.3542 135.189 30.4355C135.023 30.5137 134.883 30.639 134.769 30.8115C134.659 30.984 134.574 31.2103 134.515 31.4902C134.457 31.7702 134.427 32.1104 134.427 32.5107V33.8926C134.427 34.2116 134.445 34.4932 134.481 34.7373C134.52 34.9814 134.577 35.193 134.652 35.3721C134.727 35.5479 134.818 35.6927 134.926 35.8066C135.033 35.9206 135.157 36.0052 135.297 36.0605C135.44 36.1126 135.598 36.1387 135.77 36.1387C135.992 36.1387 136.185 36.0964 136.351 36.0117C136.517 35.9271 136.656 35.7952 136.766 35.6162C136.88 35.4339 136.965 35.2012 137.02 34.918C137.076 34.6315 137.103 34.2897 137.103 33.8926Z" fill="#333333"/>
<path d="M148.261 50.9834C148.261 51.4163 148.16 51.7842 147.958 52.0869C147.76 52.3864 147.49 52.6143 147.148 52.7705C146.809 52.9268 146.427 53.0049 146 53.0049C145.574 53.0049 145.19 52.9268 144.848 52.7705C144.506 52.6143 144.236 52.3864 144.038 52.0869C143.839 51.7842 143.74 51.4163 143.74 50.9834C143.74 50.7002 143.793 50.4414 143.901 50.207C144.012 49.9694 144.166 49.7627 144.365 49.5869C144.567 49.4111 144.804 49.276 145.078 49.1816C145.354 49.084 145.659 49.0352 145.991 49.0352C146.427 49.0352 146.816 49.1198 147.158 49.2891C147.5 49.4551 147.768 49.6846 147.963 49.9775C148.162 50.2705 148.261 50.6058 148.261 50.9834ZM147.353 50.9639C147.353 50.7002 147.296 50.4674 147.182 50.2656C147.068 50.0605 146.909 49.901 146.704 49.7871C146.499 49.6732 146.261 49.6162 145.991 49.6162C145.714 49.6162 145.475 49.6732 145.273 49.7871C145.074 49.901 144.92 50.0605 144.809 50.2656C144.698 50.4674 144.643 50.7002 144.643 50.9639C144.643 51.2373 144.697 51.4717 144.804 51.667C144.915 51.859 145.071 52.0072 145.273 52.1113C145.478 52.2122 145.721 52.2627 146 52.2627C146.28 52.2627 146.521 52.2122 146.723 52.1113C146.925 52.0072 147.08 51.859 147.187 51.667C147.298 51.4717 147.353 51.2373 147.353 50.9639ZM148.095 47.6484C148.095 47.9935 148.004 48.3044 147.822 48.5811C147.639 48.8577 147.39 49.0758 147.075 49.2354C146.759 49.3949 146.401 49.4746 146 49.4746C145.594 49.4746 145.231 49.3949 144.912 49.2354C144.596 49.0758 144.348 48.8577 144.169 48.5811C143.99 48.3044 143.901 47.9935 143.901 47.6484C143.901 47.235 143.99 46.8835 144.169 46.5938C144.352 46.304 144.601 46.0827 144.917 45.9297C145.232 45.7767 145.592 45.7002 145.996 45.7002C146.403 45.7002 146.764 45.7767 147.08 45.9297C147.395 46.0827 147.643 46.304 147.822 46.5938C148.004 46.8835 148.095 47.235 148.095 47.6484ZM147.192 47.6631C147.192 47.4255 147.141 47.2155 147.041 47.0332C146.94 46.8509 146.8 46.7077 146.621 46.6035C146.442 46.4961 146.233 46.4424 145.996 46.4424C145.758 46.4424 145.55 46.4928 145.371 46.5938C145.195 46.6914 145.056 46.8314 144.956 47.0137C144.858 47.196 144.809 47.4124 144.809 47.6631C144.809 47.9072 144.858 48.1204 144.956 48.3027C145.056 48.485 145.196 48.6266 145.375 48.7275C145.555 48.8285 145.763 48.8789 146 48.8789C146.238 48.8789 146.445 48.8285 146.621 48.7275C146.8 48.6266 146.94 48.485 147.041 48.3027C147.141 48.1204 147.192 47.9072 147.192 47.6631ZM153.867 48.7861V49.8701C153.867 50.4528 153.815 50.9443 153.71 51.3447C153.606 51.7451 153.457 52.0674 153.261 52.3115C153.066 52.5557 152.83 52.7331 152.553 52.8438C152.28 52.9512 151.971 53.0049 151.625 53.0049C151.352 53.0049 151.1 52.9707 150.869 52.9023C150.638 52.834 150.429 52.7249 150.244 52.5752C150.061 52.4222 149.905 52.2236 149.775 51.9795C149.645 51.7354 149.545 51.4391 149.477 51.0908C149.409 50.7425 149.375 50.3356 149.375 49.8701V48.7861C149.375 48.2035 149.427 47.7152 149.531 47.3213C149.638 46.9274 149.79 46.6117 149.985 46.374C150.18 46.1331 150.415 45.9606 150.688 45.8564C150.965 45.7523 151.274 45.7002 151.616 45.7002C151.892 45.7002 152.146 45.7344 152.377 45.8027C152.612 45.8678 152.82 45.9736 153.002 46.1201C153.185 46.2633 153.339 46.4554 153.466 46.6963C153.597 46.9339 153.696 47.2253 153.764 47.5703C153.833 47.9154 153.867 48.3206 153.867 48.7861ZM152.958 50.0166V48.6348C152.958 48.3158 152.939 48.0358 152.9 47.7949C152.864 47.5508 152.81 47.3424 152.739 47.1699C152.667 46.9974 152.576 46.8574 152.465 46.75C152.358 46.6426 152.233 46.5645 152.089 46.5156C151.949 46.4635 151.792 46.4375 151.616 46.4375C151.401 46.4375 151.21 46.4782 151.044 46.5596C150.878 46.6377 150.738 46.763 150.625 46.9355C150.514 47.1081 150.429 47.3343 150.371 47.6143C150.312 47.8942 150.283 48.2344 150.283 48.6348V50.0166C150.283 50.3356 150.301 50.6172 150.336 50.8613C150.375 51.1055 150.432 51.3171 150.507 51.4961C150.582 51.6719 150.673 51.8167 150.781 51.9307C150.888 52.0446 151.012 52.1292 151.152 52.1846C151.295 52.2367 151.453 52.2627 151.625 52.2627C151.847 52.2627 152.041 52.2204 152.207 52.1357C152.373 52.0511 152.511 51.9193 152.622 51.7402C152.736 51.5579 152.82 51.3252 152.875 51.042C152.931 50.7555 152.958 50.4137 152.958 50.0166Z" fill="#333333"/>
<path d="M154.857 72.4678H154.949C155.47 72.4678 155.893 72.3945 156.219 72.248C156.544 72.1016 156.795 71.9046 156.971 71.6572C157.147 71.4098 157.267 71.1315 157.332 70.8223C157.397 70.5098 157.43 70.1891 157.43 69.8604V68.7715C157.43 68.4492 157.392 68.1628 157.318 67.9121C157.246 67.6615 157.145 67.4515 157.015 67.2822C156.888 67.113 156.743 66.9844 156.58 66.8965C156.418 66.8086 156.245 66.7646 156.063 66.7646C155.854 66.7646 155.667 66.807 155.501 66.8916C155.338 66.973 155.2 67.0885 155.086 67.2383C154.975 67.388 154.891 67.5638 154.832 67.7656C154.774 67.9674 154.744 68.1872 154.744 68.4248C154.744 68.6364 154.77 68.8415 154.822 69.04C154.875 69.2386 154.954 69.4176 155.062 69.5771C155.169 69.7367 155.303 69.8636 155.462 69.958C155.625 70.0492 155.815 70.0947 156.033 70.0947C156.235 70.0947 156.424 70.0557 156.6 69.9775C156.779 69.8962 156.937 69.7871 157.073 69.6504C157.213 69.5104 157.324 69.3525 157.405 69.1768C157.49 69.001 157.539 68.8171 157.552 68.625H157.982C157.982 68.8952 157.928 69.1621 157.82 69.4258C157.716 69.6862 157.57 69.9238 157.381 70.1387C157.192 70.3535 156.971 70.526 156.717 70.6562C156.463 70.7832 156.186 70.8467 155.887 70.8467C155.535 70.8467 155.231 70.7783 154.974 70.6416C154.717 70.5049 154.505 70.3226 154.339 70.0947C154.176 69.8669 154.054 69.613 153.973 69.333C153.895 69.0498 153.856 68.7633 153.856 68.4736C153.856 68.1351 153.903 67.8177 153.997 67.5215C154.092 67.2253 154.232 66.9648 154.417 66.7402C154.603 66.5124 154.832 66.335 155.106 66.208C155.382 66.0811 155.701 66.0176 156.063 66.0176C156.47 66.0176 156.816 66.099 157.103 66.2617C157.389 66.4245 157.622 66.6426 157.801 66.916C157.983 67.1895 158.117 67.4971 158.201 67.8389C158.286 68.1807 158.328 68.5322 158.328 68.8936V69.2207C158.328 69.5885 158.304 69.9629 158.255 70.3438C158.209 70.7214 158.12 71.0827 157.987 71.4277C157.856 71.7728 157.666 72.082 157.415 72.3555C157.165 72.6257 156.837 72.8405 156.434 73C156.033 73.1562 155.539 73.2344 154.949 73.2344H154.857V72.4678ZM164.046 69.1035V70.1875C164.046 70.7702 163.994 71.2617 163.89 71.6621C163.786 72.0625 163.636 72.3848 163.441 72.6289C163.245 72.873 163.009 73.0505 162.733 73.1611C162.459 73.2686 162.15 73.3223 161.805 73.3223C161.531 73.3223 161.279 73.2881 161.048 73.2197C160.817 73.1514 160.609 73.0423 160.423 72.8926C160.241 72.7396 160.084 72.541 159.954 72.2969C159.824 72.0527 159.725 71.7565 159.656 71.4082C159.588 71.0599 159.554 70.653 159.554 70.1875V69.1035C159.554 68.5208 159.606 68.0326 159.71 67.6387C159.818 67.2448 159.969 66.929 160.164 66.6914C160.36 66.4505 160.594 66.278 160.867 66.1738C161.144 66.0697 161.453 66.0176 161.795 66.0176C162.072 66.0176 162.326 66.0518 162.557 66.1201C162.791 66.1852 163 66.291 163.182 66.4375C163.364 66.5807 163.519 66.7728 163.646 67.0137C163.776 67.2513 163.875 67.5426 163.944 67.8877C164.012 68.2327 164.046 68.638 164.046 69.1035ZM163.138 70.334V68.9521C163.138 68.6331 163.118 68.3532 163.079 68.1123C163.043 67.8682 162.99 67.6598 162.918 67.4873C162.847 67.3148 162.755 67.1748 162.645 67.0674C162.537 66.96 162.412 66.8818 162.269 66.833C162.129 66.7809 161.971 66.7549 161.795 66.7549C161.58 66.7549 161.39 66.7956 161.224 66.877C161.058 66.9551 160.918 67.0804 160.804 67.2529C160.693 67.4255 160.609 67.6517 160.55 67.9316C160.491 68.2116 160.462 68.5518 160.462 68.9521V70.334C160.462 70.653 160.48 70.9346 160.516 71.1787C160.555 71.4229 160.612 71.6344 160.687 71.8135C160.762 71.9893 160.853 72.1341 160.96 72.248C161.068 72.362 161.191 72.4466 161.331 72.502C161.474 72.554 161.632 72.5801 161.805 72.5801C162.026 72.5801 162.22 72.5378 162.386 72.4531C162.552 72.3685 162.69 72.2367 162.801 72.0576C162.915 71.8753 163 71.6426 163.055 71.3594C163.11 71.0729 163.138 70.7311 163.138 70.334Z" fill="#333333"/>
<path d="M155.122 88.5977V95.7461H154.219V89.7256L152.398 90.3896V89.5742L154.981 88.5977H155.122ZM162.241 91.625V92.709C162.241 93.2917 162.189 93.7832 162.085 94.1836C161.981 94.584 161.831 94.9062 161.636 95.1504C161.44 95.3945 161.204 95.5719 160.928 95.6826C160.654 95.79 160.345 95.8438 160 95.8438C159.727 95.8438 159.474 95.8096 159.243 95.7412C159.012 95.6729 158.804 95.5638 158.618 95.4141C158.436 95.2611 158.28 95.0625 158.149 94.8184C158.019 94.5742 157.92 94.278 157.852 93.9297C157.783 93.5814 157.749 93.1745 157.749 92.709V91.625C157.749 91.0423 157.801 90.554 157.905 90.1602C158.013 89.7663 158.164 89.4505 158.359 89.2129C158.555 88.972 158.789 88.7995 159.063 88.6953C159.339 88.5911 159.648 88.5391 159.99 88.5391C160.267 88.5391 160.521 88.5732 160.752 88.6416C160.986 88.7067 161.195 88.8125 161.377 88.959C161.559 89.1022 161.714 89.2943 161.841 89.5352C161.971 89.7728 162.07 90.0641 162.139 90.4092C162.207 90.7542 162.241 91.1595 162.241 91.625ZM161.333 92.8555V91.4736C161.333 91.1546 161.314 90.8747 161.274 90.6338C161.239 90.3896 161.185 90.1813 161.113 90.0088C161.042 89.8363 160.951 89.6963 160.84 89.5889C160.732 89.4814 160.607 89.4033 160.464 89.3545C160.324 89.3024 160.166 89.2764 159.99 89.2764C159.775 89.2764 159.585 89.3171 159.419 89.3984C159.253 89.4766 159.113 89.6019 158.999 89.7744C158.888 89.9469 158.804 90.1732 158.745 90.4531C158.687 90.7331 158.657 91.0732 158.657 91.4736V92.8555C158.657 93.1745 158.675 93.4561 158.711 93.7002C158.75 93.9443 158.807 94.1559 158.882 94.335C158.957 94.5107 159.048 94.6556 159.155 94.7695C159.263 94.8835 159.386 94.9681 159.526 95.0234C159.67 95.0755 159.828 95.1016 160 95.1016C160.221 95.1016 160.415 95.0592 160.581 94.9746C160.747 94.89 160.885 94.7581 160.996 94.5791C161.11 94.3968 161.195 94.1641 161.25 93.8809C161.305 93.5944 161.333 93.2526 161.333 92.8555ZM167.866 91.625V92.709C167.866 93.2917 167.814 93.7832 167.71 94.1836C167.606 94.584 167.456 94.9062 167.261 95.1504C167.065 95.3945 166.829 95.5719 166.553 95.6826C166.279 95.79 165.97 95.8438 165.625 95.8438C165.352 95.8438 165.099 95.8096 164.868 95.7412C164.637 95.6729 164.429 95.5638 164.243 95.4141C164.061 95.2611 163.905 95.0625 163.774 94.8184C163.644 94.5742 163.545 94.278 163.477 93.9297C163.408 93.5814 163.374 93.1745 163.374 92.709V91.625C163.374 91.0423 163.426 90.554 163.53 90.1602C163.638 89.7663 163.789 89.4505 163.984 89.2129C164.18 88.972 164.414 88.7995 164.688 88.6953C164.964 88.5911 165.273 88.5391 165.615 88.5391C165.892 88.5391 166.146 88.5732 166.377 88.6416C166.611 88.7067 166.82 88.8125 167.002 88.959C167.184 89.1022 167.339 89.2943 167.466 89.5352C167.596 89.7728 167.695 90.0641 167.764 90.4092C167.832 90.7542 167.866 91.1595 167.866 91.625ZM166.958 92.8555V91.4736C166.958 91.1546 166.939 90.8747 166.899 90.6338C166.864 90.3896 166.81 90.1813 166.738 90.0088C166.667 89.8363 166.576 89.6963 166.465 89.5889C166.357 89.4814 166.232 89.4033 166.089 89.3545C165.949 89.3024 165.791 89.2764 165.615 89.2764C165.4 89.2764 165.21 89.3171 165.044 89.3984C164.878 89.4766 164.738 89.6019 164.624 89.7744C164.513 89.9469 164.429 90.1732 164.37 90.4531C164.312 90.7331 164.282 91.0732 164.282 91.4736V92.8555C164.282 93.1745 164.3 93.4561 164.336 93.7002C164.375 93.9443 164.432 94.1559 164.507 94.335C164.582 94.5107 164.673 94.6556 164.78 94.7695C164.888 94.8835 165.011 94.9681 165.151 95.0234C165.295 95.0755 165.453 95.1016 165.625 95.1016C165.846 95.1016 166.04 95.0592 166.206 94.9746C166.372 94.89 166.51 94.7581 166.621 94.5791C166.735 94.3968 166.82 94.1641 166.875 93.8809C166.93 93.5944 166.958 93.2526 166.958 92.8555Z" fill="#333333"/>
<path fill-rule="evenodd" clip-rule="evenodd" d="M131.608 56.5215L84.6881 84.996L95.3118 98.0556L131.608 56.5215Z" fill="#154BB6"/>
<path d="M98.2191 91.3507C98.2191 95.646 94.6384 99.1507 90.1928 99.1507C85.7472 99.1507 82.1665 95.646 82.1665 91.3507C82.1665 87.0555 85.7472 83.5508 90.1928 83.5508C94.6384 83.5508 98.2191 87.0555 98.2191 91.3507Z" fill="white" stroke="#2D64B5"/>
</svg>
