<svg width="152" height="131" viewBox="0 0 152 131" fill="none" xmlns="http://www.w3.org/2000/svg">
<path d="M22.9406 130L29.2446 123.603" stroke="#10226B"/>
<path d="M4.63489 99.6846L13.1138 96.8887" stroke="#10226B"/>
<path d="M1.88666 64.2393L10.6922 65.6546" stroke="#10226B"/>
<path d="M15.2936 31.3911L22.5062 36.7093" stroke="#10226B"/>
<path d="M41.9336 8.2998L45.9811 16.3614" stroke="#10226B"/>
<path d="M75.9999 0V9.04779" stroke="#10226B"/>
<path d="M110.066 8.2998L106.019 16.3614" stroke="#10226B"/>
<path d="M136.706 31.3911L129.493 36.7093" stroke="#10226B"/>
<path d="M150.113 64.2393L141.308 65.6546" stroke="#10226B"/>
<path d="M147.364 99.6846L138.885 96.8887" stroke="#10226B"/>
<path d="M129.059 130L122.755 123.603" stroke="#10226B"/>
<path d="M18.183 124.693L22.7626 120.849" stroke="#549ABF"/>
<path d="M13.9382 118.956L18.8539 115.565" stroke="#549ABF"/>
<path d="M10.2443 112.838L15.4526 109.933" stroke="#549ABF"/>
<path d="M7.13464 106.396L12.5893 104" stroke="#549ABF"/>
<path d="M2.76971 92.7641L8.5701 91.4482" stroke="#549ABF"/>
<path d="M1.55463 85.6969L7.45129 84.9409" stroke="#549ABF"/>
<path d="M1 78.5444L6.9406 78.355" stroke="#549ABF"/>
<path d="M1.11108 71.3706L7.04288 71.7493" stroke="#549ABF"/>
<path d="M3.32025 57.2139L9.07705 58.7139" stroke="#549ABF"/>
<path d="M5.3996 50.3564L10.9917 52.3997" stroke="#549ABF"/>
<path d="M8.10425 43.7285L13.4821 46.2968" stroke="#549ABF"/>
<path d="M11.4123 37.3877L16.5281 40.4582" stroke="#549ABF"/>
<path d="M19.7141 25.792L24.1724 29.7809" stroke="#549ABF"/>
<path d="M24.6335 20.6396L28.7021 25.0367" stroke="#549ABF"/>
<path d="M30.0092 15.9805L33.652 20.7466" stroke="#549ABF"/>
<path d="M35.793 11.8545L38.9777 16.9474" stroke="#549ABF"/>
<path d="M48.3771 5.34766L50.5651 10.9559" stroke="#549ABF"/>
<path d="M55.0654 3.02393L56.7236 8.81628" stroke="#549ABF"/>
<path d="M61.9396 1.34912L63.0533 7.27414" stroke="#549ABF"/>
<path d="M68.9384 0.337891L69.4978 6.34298" stroke="#549ABF"/>
<path d="M83.0615 0.337891L82.5022 6.34298" stroke="#549ABF"/>
<path d="M90.0608 1.34912L88.9471 7.27414" stroke="#549ABF"/>
<path d="M96.9347 3.02393L95.2765 8.81628" stroke="#549ABF"/>
<path d="M103.623 5.34766L101.435 10.9559" stroke="#549ABF"/>
<path d="M116.207 11.8545L113.022 16.9474" stroke="#549ABF"/>
<path d="M121.991 15.9805L118.348 20.7466" stroke="#549ABF"/>
<path d="M127.366 20.6396L123.298 25.0367" stroke="#549ABF"/>
<path d="M132.286 25.792L127.828 29.7809" stroke="#549ABF"/>
<path d="M140.588 37.3877L135.472 40.4582" stroke="#549ABF"/>
<path d="M143.896 43.7285L138.518 46.2968" stroke="#549ABF"/>
<path d="M146.601 50.3564L141.009 52.3997" stroke="#549ABF"/>
<path d="M148.68 57.2139L142.923 58.7139" stroke="#549ABF"/>
<path d="M150.889 71.3706L144.958 71.7493" stroke="#549ABF"/>
<path d="M151 78.544L145.059 78.3545" stroke="#549ABF"/>
<path d="M150.446 85.6969L144.549 84.9409" stroke="#549ABF"/>
<path d="M149.23 92.7641L143.43 91.4482" stroke="#549ABF"/>
<path d="M144.866 106.396L139.411 104" stroke="#549ABF"/>
<path d="M141.756 112.838L136.547 109.933" stroke="#549ABF"/>
<path d="M138.062 118.956L133.146 115.565" stroke="#549ABF"/>
<path d="M133.817 124.693L129.237 120.849" stroke="#549ABF"/>
<path d="M37.7897 117.052V118.136C37.7897 118.718 37.7376 119.21 37.6335 119.61C37.5293 120.011 37.3796 120.333 37.1842 120.577C36.9889 120.821 36.7529 120.999 36.4762 121.109C36.2028 121.217 35.8936 121.271 35.5485 121.271C35.2751 121.271 35.0228 121.236 34.7917 121.168C34.5605 121.1 34.3522 120.991 34.1667 120.841C33.9844 120.688 33.8281 120.489 33.6979 120.245C33.5677 120.001 33.4684 119.705 33.4001 119.356C33.3317 119.008 33.2975 118.601 33.2975 118.136V117.052C33.2975 116.469 33.3496 115.981 33.4538 115.587C33.5612 115.193 33.7126 114.877 33.9079 114.64C34.1032 114.399 34.3376 114.226 34.611 114.122C34.8877 114.018 35.1969 113.966 35.5387 113.966C35.8154 113.966 36.0693 114 36.3005 114.068C36.5348 114.133 36.7432 114.239 36.9255 114.386C37.1078 114.529 37.2624 114.721 37.3893 114.962C37.5195 115.2 37.6188 115.491 37.6872 115.836C37.7555 116.181 37.7897 116.586 37.7897 117.052ZM36.8815 118.282V116.9C36.8815 116.581 36.862 116.301 36.8229 116.061C36.7871 115.816 36.7334 115.608 36.6618 115.436C36.5902 115.263 36.499 115.123 36.3883 115.016C36.2809 114.908 36.1556 114.83 36.0124 114.781C35.8724 114.729 35.7145 114.703 35.5387 114.703C35.3239 114.703 35.1335 114.744 34.9675 114.825C34.8014 114.903 34.6615 115.029 34.5475 115.201C34.4369 115.374 34.3522 115.6 34.2936 115.88C34.235 116.16 34.2057 116.5 34.2057 116.9V118.282C34.2057 118.601 34.2236 118.883 34.2594 119.127C34.2985 119.371 34.3555 119.583 34.4303 119.762C34.5052 119.938 34.5964 120.082 34.7038 120.196C34.8112 120.31 34.9349 120.395 35.0749 120.45C35.2181 120.502 35.376 120.528 35.5485 120.528C35.7699 120.528 35.9635 120.486 36.1296 120.401C36.2956 120.317 36.4339 120.185 36.5446 120.006C36.6585 119.824 36.7432 119.591 36.7985 119.308C36.8538 119.021 36.8815 118.679 36.8815 118.282Z" fill="#333333"/>
<path d="M15.7639 94.6768L15.0412 94.4912L15.3976 90.9512H19.0451V91.7861H16.1642L15.9494 93.7197C16.0796 93.6449 16.244 93.5749 16.4426 93.5098C16.6444 93.4447 16.8755 93.4121 17.1359 93.4121C17.4647 93.4121 17.7593 93.4691 18.0197 93.583C18.2801 93.6937 18.5015 93.8532 18.6838 94.0615C18.8693 94.2699 19.0109 94.5205 19.1086 94.8135C19.2062 95.1064 19.2551 95.4336 19.2551 95.7949C19.2551 96.1367 19.2079 96.4508 19.1135 96.7373C19.0223 97.0238 18.884 97.2744 18.6984 97.4893C18.5129 97.7008 18.2785 97.8652 17.9953 97.9824C17.7154 98.0996 17.385 98.1582 17.0041 98.1582C16.7176 98.1582 16.4458 98.1191 16.1887 98.041C15.9348 97.9596 15.7069 97.8376 15.5051 97.6748C15.3065 97.5088 15.1437 97.3037 15.0168 97.0596C14.8931 96.8122 14.815 96.5225 14.7824 96.1904H15.6418C15.6809 96.4574 15.759 96.682 15.8762 96.8643C15.9934 97.0465 16.1463 97.1849 16.3351 97.2793C16.5272 97.3704 16.7502 97.416 17.0041 97.416C17.2189 97.416 17.4094 97.3786 17.5754 97.3037C17.7414 97.2288 17.8814 97.1214 17.9953 96.9814C18.1092 96.8415 18.1955 96.6722 18.2541 96.4736C18.3159 96.2751 18.3469 96.0521 18.3469 95.8047C18.3469 95.5801 18.3159 95.3717 18.2541 95.1797C18.1922 94.9876 18.0995 94.82 17.9758 94.6768C17.8553 94.5335 17.7072 94.4229 17.5314 94.3447C17.3557 94.2633 17.1538 94.2227 16.926 94.2227C16.6232 94.2227 16.3937 94.2633 16.2375 94.3447C16.0845 94.4261 15.9266 94.5368 15.7639 94.6768ZM24.7092 93.9395V95.0234C24.7092 95.6061 24.6571 96.0977 24.5529 96.498C24.4488 96.8984 24.299 97.2207 24.1037 97.4648C23.9084 97.709 23.6724 97.8864 23.3957 97.9971C23.1223 98.1045 22.813 98.1582 22.468 98.1582C22.1945 98.1582 21.9422 98.124 21.7111 98.0557C21.48 97.9873 21.2717 97.8783 21.0861 97.7285C20.9038 97.5755 20.7476 97.377 20.6174 97.1328C20.4872 96.8887 20.3879 96.5924 20.3195 96.2441C20.2512 95.8958 20.217 95.4889 20.217 95.0234V93.9395C20.217 93.3568 20.2691 92.8685 20.3732 92.4746C20.4807 92.0807 20.632 91.765 20.8273 91.5273C21.0226 91.2865 21.257 91.1139 21.5305 91.0098C21.8072 90.9056 22.1164 90.8535 22.4582 90.8535C22.7349 90.8535 22.9888 90.8877 23.2199 90.9561C23.4543 91.0212 23.6626 91.127 23.8449 91.2734C24.0272 91.4167 24.1818 91.6087 24.3088 91.8496C24.439 92.0872 24.5383 92.3786 24.6066 92.7236C24.675 93.0687 24.7092 93.474 24.7092 93.9395ZM23.801 95.1699V93.7881C23.801 93.4691 23.7814 93.1891 23.7424 92.9482C23.7066 92.7041 23.6529 92.4958 23.5812 92.3232C23.5096 92.1507 23.4185 92.0107 23.3078 91.9033C23.2004 91.7959 23.0751 91.7178 22.9318 91.6689C22.7919 91.6169 22.634 91.5908 22.4582 91.5908C22.2434 91.5908 22.0529 91.6315 21.8869 91.7129C21.7209 91.791 21.5809 91.9163 21.467 92.0889C21.3563 92.2614 21.2717 92.4876 21.2131 92.7676C21.1545 93.0475 21.1252 93.3877 21.1252 93.7881V95.1699C21.1252 95.4889 21.1431 95.7705 21.1789 96.0146C21.218 96.2588 21.2749 96.4704 21.3498 96.6494C21.4247 96.8252 21.5158 96.9701 21.6232 97.084C21.7307 97.1979 21.8544 97.2826 21.9943 97.3379C22.1376 97.39 22.2954 97.416 22.468 97.416C22.6893 97.416 22.883 97.3737 23.049 97.2891C23.215 97.2044 23.3534 97.0726 23.4641 96.8936C23.578 96.7113 23.6626 96.4785 23.718 96.1953C23.7733 95.9089 23.801 95.5671 23.801 95.1699ZM30.3342 93.9395V95.0234C30.3342 95.6061 30.2821 96.0977 30.1779 96.498C30.0738 96.8984 29.924 97.2207 29.7287 97.4648C29.5334 97.709 29.2974 97.8864 29.0207 97.9971C28.7473 98.1045 28.438 98.1582 28.093 98.1582C27.8195 98.1582 27.5672 98.124 27.3361 98.0557C27.105 97.9873 26.8967 97.8783 26.7111 97.7285C26.5288 97.5755 26.3726 97.377 26.2424 97.1328C26.1122 96.8887 26.0129 96.5924 25.9445 96.2441C25.8762 95.8958 25.842 95.4889 25.842 95.0234V93.9395C25.842 93.3568 25.8941 92.8685 25.9982 92.4746C26.1057 92.0807 26.257 91.765 26.4523 91.5273C26.6476 91.2865 26.882 91.1139 27.1555 91.0098C27.4322 90.9056 27.7414 90.8535 28.0832 90.8535C28.3599 90.8535 28.6138 90.8877 28.8449 90.9561C29.0793 91.0212 29.2876 91.127 29.4699 91.2734C29.6522 91.4167 29.8068 91.6087 29.9338 91.8496C30.064 92.0872 30.1633 92.3786 30.2316 92.7236C30.3 93.0687 30.3342 93.474 30.3342 93.9395ZM29.426 95.1699V93.7881C29.426 93.4691 29.4064 93.1891 29.3674 92.9482C29.3316 92.7041 29.2779 92.4958 29.2062 92.3232C29.1346 92.1507 29.0435 92.0107 28.9328 91.9033C28.8254 91.7959 28.7001 91.7178 28.5568 91.6689C28.4169 91.6169 28.259 91.5908 28.0832 91.5908C27.8684 91.5908 27.6779 91.6315 27.5119 91.7129C27.3459 91.791 27.2059 91.9163 27.092 92.0889C26.9813 92.2614 26.8967 92.4876 26.8381 92.7676C26.7795 93.0475 26.7502 93.3877 26.7502 93.7881V95.1699C26.7502 95.4889 26.7681 95.7705 26.8039 96.0146C26.843 96.2588 26.8999 96.4704 26.9748 96.6494C27.0497 96.8252 27.1408 96.9701 27.2482 97.084C27.3557 97.1979 27.4794 97.2826 27.6193 97.3379C27.7626 97.39 27.9204 97.416 28.093 97.416C28.3143 97.416 28.508 97.3737 28.674 97.2891C28.84 97.2044 28.9784 97.0726 29.0891 96.8936C29.203 96.7113 29.2876 96.4785 29.343 96.1953C29.3983 95.9089 29.426 95.5671 29.426 95.1699Z" fill="#333333"/>
<path d="M14.8131 63.5889V70.7373H13.9098V64.7168L12.0885 65.3809V64.5654L14.6715 63.5889H14.8131ZM21.9323 66.6162V67.7002C21.9323 68.2829 21.8802 68.7744 21.776 69.1748C21.6718 69.5752 21.5221 69.8975 21.3268 70.1416C21.1315 70.3857 20.8955 70.5632 20.6188 70.6738C20.3453 70.7812 20.0361 70.835 19.691 70.835C19.4176 70.835 19.1653 70.8008 18.9342 70.7324C18.7031 70.6641 18.4948 70.555 18.3092 70.4053C18.1269 70.2523 17.9707 70.0537 17.8405 69.8096C17.7102 69.5654 17.611 69.2692 17.5426 68.9209C17.4742 68.5726 17.4401 68.1657 17.4401 67.7002V66.6162C17.4401 66.0335 17.4922 65.5452 17.5963 65.1514C17.7037 64.7575 17.8551 64.4417 18.0504 64.2041C18.2457 63.9632 18.4801 63.7907 18.7535 63.6865C19.0302 63.5824 19.3395 63.5303 19.6813 63.5303C19.958 63.5303 20.2119 63.5645 20.443 63.6328C20.6774 63.6979 20.8857 63.8037 21.068 63.9502C21.2503 64.0934 21.4049 64.2855 21.5319 64.5264C21.6621 64.764 21.7614 65.0553 21.8297 65.4004C21.8981 65.7454 21.9323 66.1507 21.9323 66.6162ZM21.0241 67.8467V66.4648C21.0241 66.1458 21.0045 65.8659 20.9655 65.625C20.9297 65.3809 20.8759 65.1725 20.8043 65C20.7327 64.8275 20.6416 64.6875 20.5309 64.5801C20.4235 64.4727 20.2981 64.3945 20.1549 64.3457C20.0149 64.2936 19.8571 64.2676 19.6813 64.2676C19.4664 64.2676 19.276 64.3083 19.11 64.3896C18.944 64.4678 18.804 64.5931 18.6901 64.7656C18.5794 64.9382 18.4948 65.1644 18.4362 65.4443C18.3776 65.7243 18.3483 66.0645 18.3483 66.4648V67.8467C18.3483 68.1657 18.3662 68.4473 18.402 68.6914C18.441 68.9355 18.498 69.1471 18.5729 69.3262C18.6477 69.502 18.7389 69.6468 18.8463 69.7607C18.9537 69.8747 19.0774 69.9593 19.2174 70.0146C19.3606 70.0667 19.5185 70.0928 19.691 70.0928C19.9124 70.0928 20.1061 70.0505 20.2721 69.9658C20.4381 69.8812 20.5765 69.7493 20.6871 69.5703C20.8011 69.388 20.8857 69.1553 20.941 68.8721C20.9964 68.5856 21.0241 68.2438 21.0241 67.8467ZM27.5573 66.6162V67.7002C27.5573 68.2829 27.5052 68.7744 27.401 69.1748C27.2968 69.5752 27.1471 69.8975 26.9518 70.1416C26.7565 70.3857 26.5205 70.5632 26.2438 70.6738C25.9703 70.7812 25.6611 70.835 25.316 70.835C25.0426 70.835 24.7903 70.8008 24.5592 70.7324C24.3281 70.6641 24.1198 70.555 23.9342 70.4053C23.7519 70.2523 23.5957 70.0537 23.4655 69.8096C23.3352 69.5654 23.236 69.2692 23.1676 68.9209C23.0992 68.5726 23.0651 68.1657 23.0651 67.7002V66.6162C23.0651 66.0335 23.1172 65.5452 23.2213 65.1514C23.3287 64.7575 23.4801 64.4417 23.6754 64.2041C23.8707 63.9632 24.1051 63.7907 24.3785 63.6865C24.6552 63.5824 24.9645 63.5303 25.3063 63.5303C25.583 63.5303 25.8369 63.5645 26.068 63.6328C26.3024 63.6979 26.5107 63.8037 26.693 63.9502C26.8753 64.0934 27.0299 64.2855 27.1569 64.5264C27.2871 64.764 27.3864 65.0553 27.4547 65.4004C27.5231 65.7454 27.5573 66.1507 27.5573 66.6162ZM26.6491 67.8467V66.4648C26.6491 66.1458 26.6295 65.8659 26.5905 65.625C26.5547 65.3809 26.5009 65.1725 26.4293 65C26.3577 64.8275 26.2666 64.6875 26.1559 64.5801C26.0485 64.4727 25.9231 64.3945 25.7799 64.3457C25.6399 64.2936 25.4821 64.2676 25.3063 64.2676C25.0914 64.2676 24.901 64.3083 24.735 64.3896C24.569 64.4678 24.429 64.5931 24.3151 64.7656C24.2044 64.9382 24.1198 65.1644 24.0612 65.4443C24.0026 65.7243 23.9733 66.0645 23.9733 66.4648V67.8467C23.9733 68.1657 23.9912 68.4473 24.027 68.6914C24.066 68.9355 24.123 69.1471 24.1979 69.3262C24.2727 69.502 24.3639 69.6468 24.4713 69.7607C24.5787 69.8747 24.7024 69.9593 24.8424 70.0146C24.9856 70.0667 25.1435 70.0928 25.316 70.0928C25.5374 70.0928 25.7311 70.0505 25.8971 69.9658C26.0631 69.8812 26.2015 69.7493 26.3121 69.5703C26.4261 69.388 26.5107 69.1553 26.566 68.8721C26.6214 68.5856 26.6491 68.2438 26.6491 67.8467ZM33.1823 66.6162V67.7002C33.1823 68.2829 33.1302 68.7744 33.026 69.1748C32.9218 69.5752 32.7721 69.8975 32.5768 70.1416C32.3815 70.3857 32.1455 70.5632 31.8688 70.6738C31.5953 70.7812 31.2861 70.835 30.941 70.835C30.6676 70.835 30.4153 70.8008 30.1842 70.7324C29.9531 70.6641 29.7448 70.555 29.5592 70.4053C29.3769 70.2523 29.2207 70.0537 29.0905 69.8096C28.9602 69.5654 28.861 69.2692 28.7926 68.9209C28.7242 68.5726 28.6901 68.1657 28.6901 67.7002V66.6162C28.6901 66.0335 28.7422 65.5452 28.8463 65.1514C28.9537 64.7575 29.1051 64.4417 29.3004 64.2041C29.4957 63.9632 29.7301 63.7907 30.0035 63.6865C30.2802 63.5824 30.5895 63.5303 30.9313 63.5303C31.208 63.5303 31.4619 63.5645 31.693 63.6328C31.9274 63.6979 32.1357 63.8037 32.318 63.9502C32.5003 64.0934 32.6549 64.2855 32.7819 64.5264C32.9121 64.764 33.0114 65.0553 33.0797 65.4004C33.1481 65.7454 33.1823 66.1507 33.1823 66.6162ZM32.2741 67.8467V66.4648C32.2741 66.1458 32.2545 65.8659 32.2155 65.625C32.1797 65.3809 32.1259 65.1725 32.0543 65C31.9827 64.8275 31.8916 64.6875 31.7809 64.5801C31.6735 64.4727 31.5481 64.3945 31.4049 64.3457C31.2649 64.2936 31.1071 64.2676 30.9313 64.2676C30.7164 64.2676 30.526 64.3083 30.36 64.3896C30.194 64.4678 30.054 64.5931 29.9401 64.7656C29.8294 64.9382 29.7448 65.1644 29.6862 65.4443C29.6276 65.7243 29.5983 66.0645 29.5983 66.4648V67.8467C29.5983 68.1657 29.6162 68.4473 29.652 68.6914C29.691 68.9355 29.748 69.1471 29.8229 69.3262C29.8977 69.502 29.9889 69.6468 30.0963 69.7607C30.2037 69.8747 30.3274 69.9593 30.4674 70.0146C30.6106 70.0667 30.7685 70.0928 30.941 70.0928C31.1624 70.0928 31.3561 70.0505 31.5221 69.9658C31.6881 69.8812 31.8265 69.7493 31.9371 69.5703C32.0511 69.388 32.1357 69.1553 32.191 68.8721C32.2464 68.5856 32.2741 68.2438 32.2741 67.8467Z" fill="#333333"/>
<path d="M25.3026 39.0811V46.2295H24.3992V40.209L22.5779 40.873V40.0576L25.161 39.0811H25.3026ZM29.1014 42.8457L28.3787 42.6602L28.7352 39.1201H32.3826V39.9551H29.5018L29.2869 41.8887C29.4171 41.8138 29.5815 41.7438 29.7801 41.6787C29.9819 41.6136 30.213 41.5811 30.4735 41.5811C30.8022 41.5811 31.0968 41.638 31.3572 41.752C31.6177 41.8626 31.839 42.0221 32.0213 42.2305C32.2069 42.4388 32.3485 42.6895 32.4461 42.9824C32.5438 43.2754 32.5926 43.6025 32.5926 43.9639C32.5926 44.3057 32.5454 44.6198 32.451 44.9062C32.3598 45.1927 32.2215 45.4434 32.036 45.6582C31.8504 45.8698 31.616 46.0342 31.3328 46.1514C31.0529 46.2686 30.7225 46.3271 30.3416 46.3271C30.0552 46.3271 29.7833 46.2881 29.5262 46.21C29.2723 46.1286 29.0444 46.0065 28.8426 45.8438C28.644 45.6777 28.4813 45.4727 28.3543 45.2285C28.2306 44.9811 28.1525 44.6914 28.1199 44.3594H28.9793C29.0184 44.6263 29.0965 44.8509 29.2137 45.0332C29.3309 45.2155 29.4839 45.3538 29.6727 45.4482C29.8647 45.5394 30.0877 45.585 30.3416 45.585C30.5565 45.585 30.7469 45.5475 30.9129 45.4727C31.0789 45.3978 31.2189 45.2904 31.3328 45.1504C31.4468 45.0104 31.533 44.8411 31.5916 44.6426C31.6535 44.444 31.6844 44.221 31.6844 43.9736C31.6844 43.749 31.6535 43.5407 31.5916 43.3486C31.5298 43.1566 31.437 42.9889 31.3133 42.8457C31.1929 42.7025 31.0447 42.5918 30.869 42.5137C30.6932 42.4323 30.4914 42.3916 30.2635 42.3916C29.9608 42.3916 29.7313 42.4323 29.575 42.5137C29.422 42.5951 29.2641 42.7057 29.1014 42.8457ZM38.0467 42.1084V43.1924C38.0467 43.7751 37.9946 44.2666 37.8904 44.667C37.7863 45.0674 37.6365 45.3896 37.4412 45.6338C37.2459 45.8779 37.0099 46.0553 36.7332 46.166C36.4598 46.2734 36.1505 46.3271 35.8055 46.3271C35.532 46.3271 35.2798 46.293 35.0486 46.2246C34.8175 46.1562 34.6092 46.0472 34.4236 45.8975C34.2414 45.7445 34.0851 45.5459 33.9549 45.3018C33.8247 45.0576 33.7254 44.7614 33.657 44.4131C33.5887 44.0648 33.5545 43.6579 33.5545 43.1924V42.1084C33.5545 41.5257 33.6066 41.0374 33.7108 40.6436C33.8182 40.2497 33.9695 39.9339 34.1649 39.6963C34.3602 39.4554 34.5945 39.2829 34.868 39.1787C35.1447 39.0745 35.4539 39.0225 35.7957 39.0225C36.0724 39.0225 36.3263 39.0566 36.5574 39.125C36.7918 39.1901 37.0001 39.2959 37.1824 39.4424C37.3647 39.5856 37.5194 39.7777 37.6463 40.0186C37.7765 40.2562 37.8758 40.5475 37.9442 40.8926C38.0125 41.2376 38.0467 41.6429 38.0467 42.1084ZM37.1385 43.3389V41.957C37.1385 41.638 37.119 41.3581 37.0799 41.1172C37.0441 40.873 36.9904 40.6647 36.9188 40.4922C36.8472 40.3197 36.756 40.1797 36.6453 40.0723C36.5379 39.9648 36.4126 39.8867 36.2694 39.8379C36.1294 39.7858 35.9715 39.7598 35.7957 39.7598C35.5809 39.7598 35.3904 39.8005 35.2244 39.8818C35.0584 39.96 34.9184 40.0853 34.8045 40.2578C34.6938 40.4303 34.6092 40.6566 34.5506 40.9365C34.492 41.2165 34.4627 41.5566 34.4627 41.957V43.3389C34.4627 43.6579 34.4806 43.9395 34.5164 44.1836C34.5555 44.4277 34.6125 44.6393 34.6873 44.8184C34.7622 44.9941 34.8533 45.139 34.9608 45.2529C35.0682 45.3669 35.1919 45.4515 35.3319 45.5068C35.4751 45.5589 35.633 45.585 35.8055 45.585C36.0268 45.585 36.2205 45.5426 36.3865 45.458C36.5526 45.3734 36.6909 45.2415 36.8016 45.0625C36.9155 44.8802 37.0001 44.6475 37.0555 44.3643C37.1108 44.0778 37.1385 43.736 37.1385 43.3389ZM43.6717 42.1084V43.1924C43.6717 43.7751 43.6196 44.2666 43.5154 44.667C43.4113 45.0674 43.2615 45.3896 43.0662 45.6338C42.8709 45.8779 42.6349 46.0553 42.3582 46.166C42.0848 46.2734 41.7755 46.3271 41.4305 46.3271C41.157 46.3271 40.9048 46.293 40.6736 46.2246C40.4425 46.1562 40.2342 46.0472 40.0486 45.8975C39.8664 45.7445 39.7101 45.5459 39.5799 45.3018C39.4497 45.0576 39.3504 44.7614 39.282 44.4131C39.2137 44.0648 39.1795 43.6579 39.1795 43.1924V42.1084C39.1795 41.5257 39.2316 41.0374 39.3358 40.6436C39.4432 40.2497 39.5945 39.9339 39.7899 39.6963C39.9852 39.4554 40.2195 39.2829 40.493 39.1787C40.7697 39.0745 41.0789 39.0225 41.4207 39.0225C41.6974 39.0225 41.9513 39.0566 42.1824 39.125C42.4168 39.1901 42.6251 39.2959 42.8074 39.4424C42.9897 39.5856 43.1444 39.7777 43.2713 40.0186C43.4015 40.2562 43.5008 40.5475 43.5692 40.8926C43.6375 41.2376 43.6717 41.6429 43.6717 42.1084ZM42.7635 43.3389V41.957C42.7635 41.638 42.744 41.3581 42.7049 41.1172C42.6691 40.873 42.6154 40.6647 42.5438 40.4922C42.4722 40.3197 42.381 40.1797 42.2703 40.0723C42.1629 39.9648 42.0376 39.8867 41.8944 39.8379C41.7544 39.7858 41.5965 39.7598 41.4207 39.7598C41.2059 39.7598 41.0154 39.8005 40.8494 39.8818C40.6834 39.96 40.5434 40.0853 40.4295 40.2578C40.3188 40.4303 40.2342 40.6566 40.1756 40.9365C40.117 41.2165 40.0877 41.5566 40.0877 41.957V43.3389C40.0877 43.6579 40.1056 43.9395 40.1414 44.1836C40.1805 44.4277 40.2375 44.6393 40.3123 44.8184C40.3872 44.9941 40.4783 45.139 40.5858 45.2529C40.6932 45.3669 40.8169 45.4515 40.9569 45.5068C41.1001 45.5589 41.258 45.585 41.4305 45.585C41.6518 45.585 41.8455 45.5426 42.0115 45.458C42.1776 45.3734 42.3159 45.2415 42.4266 45.0625C42.5405 44.8802 42.6251 44.6475 42.6805 44.3643C42.7358 44.0778 42.7635 43.736 42.7635 43.3389Z" fill="#333333"/>
<path d="M44.8239 27.3726V28.1147H40.1706V27.4653L42.4997 24.8726C42.7862 24.5535 43.0075 24.2834 43.1638 24.062C43.3233 23.8374 43.4339 23.6372 43.4958 23.4614C43.5609 23.2824 43.5934 23.1001 43.5934 22.9146C43.5934 22.6802 43.5446 22.4686 43.447 22.2798C43.3526 22.0877 43.2126 21.9347 43.027 21.8208C42.8415 21.7069 42.6169 21.6499 42.3532 21.6499C42.0375 21.6499 41.7738 21.7118 41.5622 21.8354C41.3539 21.9559 41.1976 22.1252 41.0934 22.3433C40.9893 22.5614 40.9372 22.812 40.9372 23.0952H40.0339C40.0339 22.6948 40.1218 22.3286 40.2976 21.9966C40.4733 21.6646 40.7337 21.4009 41.0788 21.2056C41.4239 21.007 41.8487 20.9077 42.3532 20.9077C42.8024 20.9077 43.1865 20.9875 43.5056 21.147C43.8246 21.3032 44.0687 21.5246 44.238 21.811C44.4105 22.0942 44.4968 22.4263 44.4968 22.8071C44.4968 23.0155 44.461 23.2271 44.3893 23.4419C44.321 23.6535 44.225 23.8651 44.1013 24.0767C43.9808 24.2882 43.8392 24.4966 43.6765 24.7017C43.517 24.9067 43.3461 25.1086 43.1638 25.3071L41.2595 27.3726H44.8239ZM50.2536 23.9937V25.0776C50.2536 25.6603 50.2015 26.1519 50.0974 26.5522C49.9932 26.9526 49.8434 27.2749 49.6481 27.519C49.4528 27.7632 49.2168 27.9406 48.9401 28.0513C48.6667 28.1587 48.3574 28.2124 48.0124 28.2124C47.739 28.2124 47.4867 28.1782 47.2556 28.1099C47.0244 28.0415 46.8161 27.9325 46.6306 27.7827C46.4483 27.6297 46.292 27.4312 46.1618 27.187C46.0316 26.9429 45.9323 26.6466 45.864 26.2983C45.7956 25.95 45.7614 25.5431 45.7614 25.0776V23.9937C45.7614 23.411 45.8135 22.9227 45.9177 22.5288C46.0251 22.1349 46.1765 21.8192 46.3718 21.5815C46.5671 21.3407 46.8015 21.1681 47.0749 21.064C47.3516 20.9598 47.6608 20.9077 48.0026 20.9077C48.2793 20.9077 48.5332 20.9419 48.7643 21.0103C48.9987 21.0754 49.2071 21.1812 49.3893 21.3276C49.5716 21.4709 49.7263 21.6629 49.8532 21.9038C49.9834 22.1414 50.0827 22.4328 50.1511 22.7778C50.2194 23.1229 50.2536 23.5282 50.2536 23.9937ZM49.3454 25.2241V23.8423C49.3454 23.5233 49.3259 23.2433 49.2868 23.0024C49.251 22.7583 49.1973 22.55 49.1257 22.3774C49.0541 22.2049 48.9629 22.0649 48.8522 21.9575C48.7448 21.8501 48.6195 21.772 48.4763 21.7231C48.3363 21.6711 48.1784 21.645 48.0026 21.645C47.7878 21.645 47.5974 21.6857 47.4313 21.7671C47.2653 21.8452 47.1253 21.9705 47.0114 22.1431C46.9007 22.3156 46.8161 22.5418 46.7575 22.8218C46.6989 23.1017 46.6696 23.4419 46.6696 23.8423V25.2241C46.6696 25.5431 46.6875 25.8247 46.7233 26.0688C46.7624 26.313 46.8194 26.5246 46.8942 26.7036C46.9691 26.8794 47.0602 27.0243 47.1677 27.1382C47.2751 27.2521 47.3988 27.3368 47.5388 27.3921C47.682 27.4442 47.8399 27.4702 48.0124 27.4702C48.2337 27.4702 48.4274 27.4279 48.5934 27.3433C48.7595 27.2586 48.8978 27.1268 49.0085 26.9478C49.1224 26.7655 49.2071 26.5327 49.2624 26.2495C49.3177 25.9631 49.3454 25.6213 49.3454 25.2241ZM55.8786 23.9937V25.0776C55.8786 25.6603 55.8265 26.1519 55.7224 26.5522C55.6182 26.9526 55.4684 27.2749 55.2731 27.519C55.0778 27.7632 54.8418 27.9406 54.5651 28.0513C54.2917 28.1587 53.9824 28.2124 53.6374 28.2124C53.364 28.2124 53.1117 28.1782 52.8806 28.1099C52.6494 28.0415 52.4411 27.9325 52.2556 27.7827C52.0733 27.6297 51.917 27.4312 51.7868 27.187C51.6566 26.9429 51.5573 26.6466 51.489 26.2983C51.4206 25.95 51.3864 25.5431 51.3864 25.0776V23.9937C51.3864 23.411 51.4385 22.9227 51.5427 22.5288C51.6501 22.1349 51.8015 21.8192 51.9968 21.5815C52.1921 21.3407 52.4265 21.1681 52.6999 21.064C52.9766 20.9598 53.2858 20.9077 53.6276 20.9077C53.9043 20.9077 54.1582 20.9419 54.3893 21.0103C54.6237 21.0754 54.8321 21.1812 55.0143 21.3276C55.1966 21.4709 55.3513 21.6629 55.4782 21.9038C55.6084 22.1414 55.7077 22.4328 55.7761 22.7778C55.8444 23.1229 55.8786 23.5282 55.8786 23.9937ZM54.9704 25.2241V23.8423C54.9704 23.5233 54.9509 23.2433 54.9118 23.0024C54.876 22.7583 54.8223 22.55 54.7507 22.3774C54.6791 22.2049 54.5879 22.0649 54.4772 21.9575C54.3698 21.8501 54.2445 21.772 54.1013 21.7231C53.9613 21.6711 53.8034 21.645 53.6276 21.645C53.4128 21.645 53.2224 21.6857 53.0563 21.7671C52.8903 21.8452 52.7503 21.9705 52.6364 22.1431C52.5257 22.3156 52.4411 22.5418 52.3825 22.8218C52.3239 23.1017 52.2946 23.4419 52.2946 23.8423V25.2241C52.2946 25.5431 52.3125 25.8247 52.3483 26.0688C52.3874 26.313 52.4444 26.5246 52.5192 26.7036C52.5941 26.8794 52.6852 27.0243 52.7927 27.1382C52.9001 27.2521 53.0238 27.3368 53.1638 27.3921C53.307 27.4442 53.4649 27.4702 53.6374 27.4702C53.8587 27.4702 54.0524 27.4279 54.2184 27.3433C54.3845 27.2586 54.5228 27.1268 54.6335 26.9478C54.7474 26.7655 54.8321 26.5327 54.8874 26.2495C54.9427 25.9631 54.9704 25.6213 54.9704 25.2241ZM61.5036 23.9937V25.0776C61.5036 25.6603 61.4515 26.1519 61.3474 26.5522C61.2432 26.9526 61.0934 27.2749 60.8981 27.519C60.7028 27.7632 60.4668 27.9406 60.1901 28.0513C59.9167 28.1587 59.6074 28.2124 59.2624 28.2124C58.989 28.2124 58.7367 28.1782 58.5056 28.1099C58.2744 28.0415 58.0661 27.9325 57.8806 27.7827C57.6983 27.6297 57.542 27.4312 57.4118 27.187C57.2816 26.9429 57.1823 26.6466 57.114 26.2983C57.0456 25.95 57.0114 25.5431 57.0114 25.0776V23.9937C57.0114 23.411 57.0635 22.9227 57.1677 22.5288C57.2751 22.1349 57.4265 21.8192 57.6218 21.5815C57.8171 21.3407 58.0515 21.1681 58.3249 21.064C58.6016 20.9598 58.9108 20.9077 59.2526 20.9077C59.5293 20.9077 59.7832 20.9419 60.0143 21.0103C60.2487 21.0754 60.4571 21.1812 60.6393 21.3276C60.8216 21.4709 60.9763 21.6629 61.1032 21.9038C61.2334 22.1414 61.3327 22.4328 61.4011 22.7778C61.4694 23.1229 61.5036 23.5282 61.5036 23.9937ZM60.5954 25.2241V23.8423C60.5954 23.5233 60.5759 23.2433 60.5368 23.0024C60.501 22.7583 60.4473 22.55 60.3757 22.3774C60.3041 22.2049 60.2129 22.0649 60.1022 21.9575C59.9948 21.8501 59.8695 21.772 59.7263 21.7231C59.5863 21.6711 59.4284 21.645 59.2526 21.645C59.0378 21.645 58.8474 21.6857 58.6813 21.7671C58.5153 21.8452 58.3753 21.9705 58.2614 22.1431C58.1507 22.3156 58.0661 22.5418 58.0075 22.8218C57.9489 23.1017 57.9196 23.4419 57.9196 23.8423V25.2241C57.9196 25.5431 57.9375 25.8247 57.9733 26.0688C58.0124 26.313 58.0694 26.5246 58.1442 26.7036C58.2191 26.8794 58.3102 27.0243 58.4177 27.1382C58.5251 27.2521 58.6488 27.3368 58.7888 27.3921C58.932 27.4442 59.0899 27.4702 59.2624 27.4702C59.4837 27.4702 59.6774 27.4279 59.8434 27.3433C60.0095 27.2586 60.1478 27.1268 60.2585 26.9478C60.3724 26.7655 60.4571 26.5327 60.5124 26.2495C60.5677 25.9631 60.5954 25.6213 60.5954 25.2241Z" fill="#333333"/>
<path d="M71.048 20.979V21.7212H66.3947V21.0718L68.7238 18.479C69.0103 18.16 69.2316 17.8898 69.3879 17.6685C69.5474 17.4438 69.6581 17.2437 69.7199 17.0679C69.785 16.8888 69.8176 16.7065 69.8176 16.521C69.8176 16.2866 69.7687 16.075 69.6711 15.8862C69.5767 15.6942 69.4367 15.5412 69.2512 15.4272C69.0656 15.3133 68.841 15.2563 68.5773 15.2563C68.2616 15.2563 67.9979 15.3182 67.7863 15.4419C67.578 15.5623 67.4217 15.7316 67.3176 15.9497C67.2134 16.1678 67.1613 16.4185 67.1613 16.7017H66.258C66.258 16.3013 66.3459 15.9351 66.5217 15.603C66.6975 15.271 66.9579 15.0073 67.3029 14.812C67.648 14.6134 68.0728 14.5142 68.5773 14.5142C69.0266 14.5142 69.4107 14.5939 69.7297 14.7534C70.0487 14.9097 70.2928 15.131 70.4621 15.4175C70.6346 15.7007 70.7209 16.0327 70.7209 16.4136C70.7209 16.6219 70.6851 16.8335 70.6135 17.0483C70.5451 17.2599 70.4491 17.4715 70.3254 17.6831C70.2049 17.8947 70.0633 18.103 69.9006 18.3081C69.7411 18.5132 69.5702 18.715 69.3879 18.9136L67.4836 20.979H71.048ZM73.1574 18.3374L72.4348 18.1519L72.7912 14.6118H76.4387V15.4468H73.5578L73.343 17.3804C73.4732 17.3055 73.6376 17.2355 73.8361 17.1704C74.0379 17.1053 74.2691 17.0728 74.5295 17.0728C74.8583 17.0728 75.1529 17.1297 75.4133 17.2437C75.6737 17.3543 75.895 17.5138 76.0773 17.7222C76.2629 17.9305 76.4045 18.1812 76.5021 18.4741C76.5998 18.7671 76.6486 19.0942 76.6486 19.4556C76.6486 19.7974 76.6014 20.1115 76.507 20.3979C76.4159 20.6844 76.2775 20.9351 76.092 21.1499C75.9064 21.3615 75.6721 21.5259 75.3889 21.6431C75.1089 21.7603 74.7785 21.8188 74.3976 21.8188C74.1112 21.8188 73.8394 21.7798 73.5822 21.7017C73.3283 21.6203 73.1004 21.4982 72.8986 21.3354C72.7001 21.1694 72.5373 20.9644 72.4103 20.7202C72.2866 20.4728 72.2085 20.1831 72.176 19.8511H73.0353C73.0744 20.118 73.1525 20.3426 73.2697 20.5249C73.3869 20.7072 73.5399 20.8455 73.7287 20.9399C73.9208 21.0311 74.1437 21.0767 74.3976 21.0767C74.6125 21.0767 74.8029 21.0392 74.9689 20.9644C75.135 20.8895 75.2749 20.7821 75.3889 20.6421C75.5028 20.5021 75.5891 20.3328 75.6476 20.1343C75.7095 19.9357 75.7404 19.7127 75.7404 19.4653C75.7404 19.2407 75.7095 19.0324 75.6476 18.8403C75.5858 18.6483 75.493 18.4806 75.3693 18.3374C75.2489 18.1942 75.1008 18.0835 74.925 18.0054C74.7492 17.924 74.5474 17.8833 74.3195 17.8833C74.0168 17.8833 73.7873 17.924 73.631 18.0054C73.4781 18.0868 73.3202 18.1974 73.1574 18.3374ZM82.1027 17.6001V18.6841C82.1027 19.2668 82.0506 19.7583 81.9465 20.1587C81.8423 20.5591 81.6926 20.8813 81.4973 21.1255C81.3019 21.3696 81.0659 21.547 80.7892 21.6577C80.5158 21.7651 80.2066 21.8188 79.8615 21.8188C79.5881 21.8188 79.3358 21.7847 79.1047 21.7163C78.8736 21.6479 78.6652 21.5389 78.4797 21.3892C78.2974 21.2362 78.1411 21.0376 78.0109 20.7935C77.8807 20.5493 77.7814 20.2531 77.7131 19.9048C77.6447 19.5565 77.6105 19.1496 77.6105 18.6841V17.6001C77.6105 17.0174 77.6626 16.5291 77.7668 16.1353C77.8742 15.7414 78.0256 15.4256 78.2209 15.188C78.4162 14.9471 78.6506 14.7746 78.924 14.6704C79.2007 14.5662 79.51 14.5142 79.8517 14.5142C80.1284 14.5142 80.3823 14.5483 80.6135 14.6167C80.8478 14.6818 81.0562 14.7876 81.2385 14.9341C81.4208 15.0773 81.5754 15.2694 81.7023 15.5103C81.8325 15.7479 81.9318 16.0392 82.0002 16.3843C82.0685 16.7293 82.1027 17.1346 82.1027 17.6001ZM81.1945 18.8306V17.4487C81.1945 17.1297 81.175 16.8498 81.1359 16.6089C81.1001 16.3647 81.0464 16.1564 80.9748 15.9839C80.9032 15.8114 80.812 15.6714 80.7014 15.564C80.5939 15.4565 80.4686 15.3784 80.3254 15.3296C80.1854 15.2775 80.0275 15.2515 79.8517 15.2515C79.6369 15.2515 79.4465 15.2922 79.2805 15.3735C79.1144 15.4517 78.9745 15.577 78.8605 15.7495C78.7499 15.922 78.6652 16.1483 78.6066 16.4282C78.548 16.7082 78.5187 17.0483 78.5187 17.4487V18.8306C78.5187 19.1496 78.5366 19.4312 78.5725 19.6753C78.6115 19.9194 78.6685 20.131 78.7434 20.3101C78.8182 20.4858 78.9094 20.6307 79.0168 20.7446C79.1242 20.8586 79.2479 20.9432 79.3879 20.9985C79.5311 21.0506 79.689 21.0767 79.8615 21.0767C80.0829 21.0767 80.2766 21.0343 80.4426 20.9497C80.6086 20.8651 80.7469 20.7332 80.8576 20.5542C80.9715 20.3719 81.0562 20.1392 81.1115 19.856C81.1669 19.5695 81.1945 19.2277 81.1945 18.8306ZM87.7277 17.6001V18.6841C87.7277 19.2668 87.6756 19.7583 87.5715 20.1587C87.4673 20.5591 87.3176 20.8813 87.1223 21.1255C86.9269 21.3696 86.6909 21.547 86.4142 21.6577C86.1408 21.7651 85.8316 21.8188 85.4865 21.8188C85.2131 21.8188 84.9608 21.7847 84.7297 21.7163C84.4986 21.6479 84.2902 21.5389 84.1047 21.3892C83.9224 21.2362 83.7661 21.0376 83.6359 20.7935C83.5057 20.5493 83.4064 20.2531 83.3381 19.9048C83.2697 19.5565 83.2355 19.1496 83.2355 18.6841V17.6001C83.2355 17.0174 83.2876 16.5291 83.3918 16.1353C83.4992 15.7414 83.6506 15.4256 83.8459 15.188C84.0412 14.9471 84.2756 14.7746 84.549 14.6704C84.8257 14.5662 85.135 14.5142 85.4767 14.5142C85.7534 14.5142 86.0073 14.5483 86.2385 14.6167C86.4728 14.6818 86.6812 14.7876 86.8635 14.9341C87.0458 15.0773 87.2004 15.2694 87.3273 15.5103C87.4575 15.7479 87.5568 16.0392 87.6252 16.3843C87.6935 16.7293 87.7277 17.1346 87.7277 17.6001ZM86.8195 18.8306V17.4487C86.8195 17.1297 86.8 16.8498 86.7609 16.6089C86.7251 16.3647 86.6714 16.1564 86.5998 15.9839C86.5282 15.8114 86.437 15.6714 86.3264 15.564C86.2189 15.4565 86.0936 15.3784 85.9504 15.3296C85.8104 15.2775 85.6525 15.2515 85.4767 15.2515C85.2619 15.2515 85.0715 15.2922 84.9055 15.3735C84.7394 15.4517 84.5995 15.577 84.4855 15.7495C84.3749 15.922 84.2902 16.1483 84.2316 16.4282C84.173 16.7082 84.1437 17.0483 84.1437 17.4487V18.8306C84.1437 19.1496 84.1616 19.4312 84.1975 19.6753C84.2365 19.9194 84.2935 20.131 84.3684 20.3101C84.4432 20.4858 84.5344 20.6307 84.6418 20.7446C84.7492 20.8586 84.8729 20.9432 85.0129 20.9985C85.1561 21.0506 85.314 21.0767 85.4865 21.0767C85.7079 21.0767 85.9016 21.0343 86.0676 20.9497C86.2336 20.8651 86.3719 20.7332 86.4826 20.5542C86.5965 20.3719 86.6812 20.1392 86.7365 19.856C86.7919 19.5695 86.8195 19.2277 86.8195 18.8306Z" fill="#333333"/>
<path d="M93.9321 24.1157H94.5766C94.8924 24.1157 95.1528 24.0636 95.3579 23.9595C95.5662 23.8521 95.7208 23.7072 95.8217 23.5249C95.9259 23.3394 95.978 23.131 95.978 22.8999C95.978 22.6265 95.9324 22.397 95.8413 22.2114C95.7501 22.0259 95.6134 21.8859 95.4311 21.7915C95.2488 21.6971 95.0177 21.6499 94.7377 21.6499C94.4838 21.6499 94.2592 21.7004 94.0639 21.8013C93.8719 21.8989 93.7205 22.0389 93.6098 22.2212C93.5024 22.4035 93.4487 22.6183 93.4487 22.8657H92.5454C92.5454 22.5044 92.6365 22.1756 92.8188 21.8794C93.0011 21.5832 93.2566 21.3472 93.5854 21.1714C93.9174 20.9956 94.3015 20.9077 94.7377 20.9077C95.1674 20.9077 95.5434 20.9842 95.8657 21.1372C96.1879 21.2869 96.4386 21.5116 96.6176 21.811C96.7967 22.1073 96.8862 22.4767 96.8862 22.9194C96.8862 23.0985 96.8439 23.2905 96.7592 23.4956C96.6778 23.6974 96.5493 23.8862 96.3735 24.062C96.201 24.2378 95.9763 24.3826 95.6996 24.4966C95.423 24.6073 95.0909 24.6626 94.7036 24.6626H93.9321V24.1157ZM93.9321 24.8579V24.3159H94.7036C95.156 24.3159 95.5304 24.3696 95.8266 24.4771C96.1228 24.5845 96.3556 24.7277 96.5248 24.9067C96.6974 25.0858 96.8178 25.2827 96.8862 25.4976C96.9578 25.7091 96.9936 25.9207 96.9936 26.1323C96.9936 26.4644 96.9366 26.759 96.8227 27.0161C96.712 27.2733 96.5541 27.4914 96.3491 27.6704C96.1472 27.8494 95.9096 27.9845 95.6362 28.0757C95.3627 28.1668 95.0649 28.2124 94.7426 28.2124C94.4334 28.2124 94.142 28.1685 93.8686 28.0806C93.5984 27.9927 93.3592 27.8657 93.1508 27.6997C92.9425 27.5304 92.7797 27.3237 92.6625 27.0796C92.5454 26.8322 92.4868 26.5506 92.4868 26.2349H93.3901C93.3901 26.4823 93.4438 26.6987 93.5512 26.8843C93.6619 27.0698 93.8181 27.2147 94.02 27.3188C94.225 27.4198 94.4659 27.4702 94.7426 27.4702C95.0193 27.4702 95.2569 27.423 95.4555 27.3286C95.6573 27.231 95.812 27.0845 95.9194 26.8892C96.0301 26.6938 96.0854 26.4481 96.0854 26.1519C96.0854 25.8556 96.0235 25.6131 95.8998 25.4243C95.7761 25.2323 95.6004 25.0907 95.3725 24.9995C95.1479 24.9051 94.8826 24.8579 94.5766 24.8579H93.9321ZM102.702 23.9937V25.0776C102.702 25.6603 102.65 26.1519 102.545 26.5522C102.441 26.9526 102.291 27.2749 102.096 27.519C101.901 27.7632 101.665 27.9406 101.388 28.0513C101.115 28.1587 100.805 28.2124 100.46 28.2124C100.187 28.2124 99.9347 28.1782 99.7036 28.1099C99.4724 28.0415 99.2641 27.9325 99.0786 27.7827C98.8963 27.6297 98.74 27.4312 98.6098 27.187C98.4796 26.9429 98.3803 26.6466 98.312 26.2983C98.2436 25.95 98.2094 25.5431 98.2094 25.0776V23.9937C98.2094 23.411 98.2615 22.9227 98.3657 22.5288C98.4731 22.1349 98.6245 21.8192 98.8198 21.5815C99.0151 21.3407 99.2495 21.1681 99.5229 21.064C99.7996 20.9598 100.109 20.9077 100.451 20.9077C100.727 20.9077 100.981 20.9419 101.212 21.0103C101.447 21.0754 101.655 21.1812 101.837 21.3276C102.02 21.4709 102.174 21.6629 102.301 21.9038C102.431 22.1414 102.531 22.4328 102.599 22.7778C102.667 23.1229 102.702 23.5282 102.702 23.9937ZM101.793 25.2241V23.8423C101.793 23.5233 101.774 23.2433 101.735 23.0024C101.699 22.7583 101.645 22.55 101.574 22.3774C101.502 22.2049 101.411 22.0649 101.3 21.9575C101.193 21.8501 101.067 21.772 100.924 21.7231C100.784 21.6711 100.626 21.645 100.451 21.645C100.236 21.645 100.045 21.6857 99.8793 21.7671C99.7133 21.8452 99.5733 21.9705 99.4594 22.1431C99.3487 22.3156 99.2641 22.5418 99.2055 22.8218C99.1469 23.1017 99.1176 23.4419 99.1176 23.8423V25.2241C99.1176 25.5431 99.1355 25.8247 99.1713 26.0688C99.2104 26.313 99.2674 26.5246 99.3422 26.7036C99.4171 26.8794 99.5082 27.0243 99.6157 27.1382C99.7231 27.2521 99.8468 27.3368 99.9868 27.3921C100.13 27.4442 100.288 27.4702 100.46 27.4702C100.682 27.4702 100.875 27.4279 101.041 27.3433C101.207 27.2586 101.346 27.1268 101.456 26.9478C101.57 26.7655 101.655 26.5327 101.71 26.2495C101.766 25.9631 101.793 25.6213 101.793 25.2241ZM108.327 23.9937V25.0776C108.327 25.6603 108.275 26.1519 108.17 26.5522C108.066 26.9526 107.916 27.2749 107.721 27.519C107.526 27.7632 107.29 27.9406 107.013 28.0513C106.74 28.1587 106.43 28.2124 106.085 28.2124C105.812 28.2124 105.56 28.1782 105.329 28.1099C105.097 28.0415 104.889 27.9325 104.704 27.7827C104.521 27.6297 104.365 27.4312 104.235 27.187C104.105 26.9429 104.005 26.6466 103.937 26.2983C103.869 25.95 103.834 25.5431 103.834 25.0776V23.9937C103.834 23.411 103.886 22.9227 103.991 22.5288C104.098 22.1349 104.249 21.8192 104.445 21.5815C104.64 21.3407 104.874 21.1681 105.148 21.064C105.425 20.9598 105.734 20.9077 106.076 20.9077C106.352 20.9077 106.606 20.9419 106.837 21.0103C107.072 21.0754 107.28 21.1812 107.462 21.3276C107.645 21.4709 107.799 21.6629 107.926 21.9038C108.056 22.1414 108.156 22.4328 108.224 22.7778C108.292 23.1229 108.327 23.5282 108.327 23.9937ZM107.418 25.2241V23.8423C107.418 23.5233 107.399 23.2433 107.36 23.0024C107.324 22.7583 107.27 22.55 107.199 22.3774C107.127 22.2049 107.036 22.0649 106.925 21.9575C106.818 21.8501 106.692 21.772 106.549 21.7231C106.409 21.6711 106.251 21.645 106.076 21.645C105.861 21.645 105.67 21.6857 105.504 21.7671C105.338 21.8452 105.198 21.9705 105.084 22.1431C104.974 22.3156 104.889 22.5418 104.831 22.8218C104.772 23.1017 104.743 23.4419 104.743 23.8423V25.2241C104.743 25.5431 104.761 25.8247 104.796 26.0688C104.835 26.313 104.892 26.5246 104.967 26.7036C105.042 26.8794 105.133 27.0243 105.241 27.1382C105.348 27.2521 105.472 27.3368 105.612 27.3921C105.755 27.4442 105.913 27.4702 106.085 27.4702C106.307 27.4702 106.5 27.4279 106.666 27.3433C106.832 27.2586 106.971 27.1268 107.081 26.9478C107.195 26.7655 107.28 26.5327 107.335 26.2495C107.391 25.9631 107.418 25.6213 107.418 25.2241ZM113.952 23.9937V25.0776C113.952 25.6603 113.9 26.1519 113.795 26.5522C113.691 26.9526 113.541 27.2749 113.346 27.519C113.151 27.7632 112.915 27.9406 112.638 28.0513C112.365 28.1587 112.055 28.2124 111.71 28.2124C111.437 28.2124 111.185 28.1782 110.954 28.1099C110.722 28.0415 110.514 27.9325 110.329 27.7827C110.146 27.6297 109.99 27.4312 109.86 27.187C109.73 26.9429 109.63 26.6466 109.562 26.2983C109.494 25.95 109.459 25.5431 109.459 25.0776V23.9937C109.459 23.411 109.511 22.9227 109.616 22.5288C109.723 22.1349 109.874 21.8192 110.07 21.5815C110.265 21.3407 110.499 21.1681 110.773 21.064C111.05 20.9598 111.359 20.9077 111.701 20.9077C111.977 20.9077 112.231 20.9419 112.462 21.0103C112.697 21.0754 112.905 21.1812 113.087 21.3276C113.27 21.4709 113.424 21.6629 113.551 21.9038C113.681 22.1414 113.781 22.4328 113.849 22.7778C113.917 23.1229 113.952 23.5282 113.952 23.9937ZM113.043 25.2241V23.8423C113.043 23.5233 113.024 23.2433 112.985 23.0024C112.949 22.7583 112.895 22.55 112.824 22.3774C112.752 22.2049 112.661 22.0649 112.55 21.9575C112.443 21.8501 112.317 21.772 112.174 21.7231C112.034 21.6711 111.876 21.645 111.701 21.645C111.486 21.645 111.295 21.6857 111.129 21.7671C110.963 21.8452 110.823 21.9705 110.709 22.1431C110.599 22.3156 110.514 22.5418 110.456 22.8218C110.397 23.1017 110.368 23.4419 110.368 23.8423V25.2241C110.368 25.5431 110.386 25.8247 110.421 26.0688C110.46 26.313 110.517 26.5246 110.592 26.7036C110.667 26.8794 110.758 27.0243 110.866 27.1382C110.973 27.2521 111.097 27.3368 111.237 27.3921C111.38 27.4442 111.538 27.4702 111.71 27.4702C111.932 27.4702 112.125 27.4279 112.291 27.3433C112.457 27.2586 112.596 27.1268 112.706 26.9478C112.82 26.7655 112.905 26.5327 112.96 26.2495C113.016 25.9631 113.043 25.6213 113.043 25.2241Z" fill="#333333"/>
<path d="M110.715 42.2305H111.36C111.675 42.2305 111.936 42.1784 112.141 42.0742C112.349 41.9668 112.504 41.8219 112.605 41.6396C112.709 41.4541 112.761 41.2458 112.761 41.0146C112.761 40.7412 112.715 40.5117 112.624 40.3262C112.533 40.1406 112.396 40.0007 112.214 39.9062C112.032 39.8118 111.801 39.7646 111.521 39.7646C111.267 39.7646 111.042 39.8151 110.847 39.916C110.655 40.0137 110.504 40.1536 110.393 40.3359C110.285 40.5182 110.232 40.7331 110.232 40.9805H109.328C109.328 40.6191 109.42 40.2904 109.602 39.9941C109.784 39.6979 110.04 39.4619 110.368 39.2861C110.701 39.1104 111.085 39.0225 111.521 39.0225C111.951 39.0225 112.326 39.099 112.649 39.252C112.971 39.4017 113.222 39.6263 113.401 39.9258C113.58 40.222 113.669 40.5915 113.669 41.0342C113.669 41.2132 113.627 41.4053 113.542 41.6104C113.461 41.8122 113.332 42.001 113.157 42.1768C112.984 42.3525 112.759 42.4974 112.483 42.6113C112.206 42.722 111.874 42.7773 111.487 42.7773H110.715V42.2305ZM110.715 42.9727V42.4307H111.487C111.939 42.4307 112.313 42.4844 112.61 42.5918C112.906 42.6992 113.139 42.8424 113.308 43.0215C113.48 43.2005 113.601 43.3975 113.669 43.6123C113.741 43.8239 113.777 44.0355 113.777 44.2471C113.777 44.5791 113.72 44.8737 113.606 45.1309C113.495 45.388 113.337 45.6061 113.132 45.7852C112.93 45.9642 112.693 46.0993 112.419 46.1904C112.146 46.2816 111.848 46.3271 111.526 46.3271C111.216 46.3271 110.925 46.2832 110.652 46.1953C110.381 46.1074 110.142 45.9805 109.934 45.8145C109.726 45.6452 109.563 45.4385 109.446 45.1943C109.328 44.9469 109.27 44.6654 109.27 44.3496H110.173C110.173 44.597 110.227 44.8135 110.334 44.999C110.445 45.1846 110.601 45.3294 110.803 45.4336C111.008 45.5345 111.249 45.585 111.526 45.585C111.802 45.585 112.04 45.5378 112.239 45.4434C112.44 45.3457 112.595 45.1992 112.702 45.0039C112.813 44.8086 112.868 44.5628 112.868 44.2666C112.868 43.9704 112.807 43.7279 112.683 43.5391C112.559 43.347 112.383 43.2054 112.156 43.1143C111.931 43.0199 111.666 42.9727 111.36 42.9727H110.715ZM116.164 42.8457L115.442 42.6602L115.798 39.1201H119.446V39.9551H116.565L116.35 41.8887C116.48 41.8138 116.645 41.7438 116.843 41.6787C117.045 41.6136 117.276 41.5811 117.536 41.5811C117.865 41.5811 118.16 41.638 118.42 41.752C118.681 41.8626 118.902 42.0221 119.084 42.2305C119.27 42.4388 119.411 42.6895 119.509 42.9824C119.607 43.2754 119.656 43.6025 119.656 43.9639C119.656 44.3057 119.608 44.6198 119.514 44.9062C119.423 45.1927 119.284 45.4434 119.099 45.6582C118.913 45.8698 118.679 46.0342 118.396 46.1514C118.116 46.2686 117.785 46.3271 117.405 46.3271C117.118 46.3271 116.846 46.2881 116.589 46.21C116.335 46.1286 116.107 46.0065 115.906 45.8438C115.707 45.6777 115.544 45.4727 115.417 45.2285C115.294 44.9811 115.215 44.6914 115.183 44.3594H116.042C116.081 44.6263 116.159 44.8509 116.277 45.0332C116.394 45.2155 116.547 45.3538 116.736 45.4482C116.928 45.5394 117.151 45.585 117.405 45.585C117.619 45.585 117.81 45.5475 117.976 45.4727C118.142 45.3978 118.282 45.2904 118.396 45.1504C118.51 45.0104 118.596 44.8411 118.655 44.6426C118.716 44.444 118.747 44.221 118.747 43.9736C118.747 43.749 118.716 43.5407 118.655 43.3486C118.593 43.1566 118.5 42.9889 118.376 42.8457C118.256 42.7025 118.108 42.5918 117.932 42.5137C117.756 42.4323 117.554 42.3916 117.326 42.3916C117.024 42.3916 116.794 42.4323 116.638 42.5137C116.485 42.5951 116.327 42.7057 116.164 42.8457ZM125.11 42.1084V43.1924C125.11 43.7751 125.058 44.2666 124.953 44.667C124.849 45.0674 124.7 45.3896 124.504 45.6338C124.309 45.8779 124.073 46.0553 123.796 46.166C123.523 46.2734 123.214 46.3271 122.868 46.3271C122.595 46.3271 122.343 46.293 122.112 46.2246C121.881 46.1562 121.672 46.0472 121.487 45.8975C121.304 45.7445 121.148 45.5459 121.018 45.3018C120.888 45.0576 120.788 44.7614 120.72 44.4131C120.652 44.0648 120.617 43.6579 120.617 43.1924V42.1084C120.617 41.5257 120.67 41.0374 120.774 40.6436C120.881 40.2497 121.033 39.9339 121.228 39.6963C121.423 39.4554 121.658 39.2829 121.931 39.1787C122.208 39.0745 122.517 39.0225 122.859 39.0225C123.135 39.0225 123.389 39.0566 123.62 39.125C123.855 39.1901 124.063 39.2959 124.245 39.4424C124.428 39.5856 124.582 39.7777 124.709 40.0186C124.84 40.2562 124.939 40.5475 125.007 40.8926C125.076 41.2376 125.11 41.6429 125.11 42.1084ZM124.201 43.3389V41.957C124.201 41.638 124.182 41.3581 124.143 41.1172C124.107 40.873 124.053 40.6647 123.982 40.4922C123.91 40.3197 123.819 40.1797 123.708 40.0723C123.601 39.9648 123.476 39.8867 123.332 39.8379C123.192 39.7858 123.034 39.7598 122.859 39.7598C122.644 39.7598 122.453 39.8005 122.287 39.8818C122.121 39.96 121.981 40.0853 121.867 40.2578C121.757 40.4303 121.672 40.6566 121.614 40.9365C121.555 41.2165 121.526 41.5566 121.526 41.957V43.3389C121.526 43.6579 121.544 43.9395 121.579 44.1836C121.618 44.4277 121.675 44.6393 121.75 44.8184C121.825 44.9941 121.916 45.139 122.024 45.2529C122.131 45.3669 122.255 45.4515 122.395 45.5068C122.538 45.5589 122.696 45.585 122.868 45.585C123.09 45.585 123.284 45.5426 123.45 45.458C123.616 45.3734 123.754 45.2415 123.865 45.0625C123.978 44.8802 124.063 44.6475 124.118 44.3643C124.174 44.0778 124.201 43.736 124.201 43.3389ZM130.735 42.1084V43.1924C130.735 43.7751 130.683 44.2666 130.578 44.667C130.474 45.0674 130.325 45.3896 130.129 45.6338C129.934 45.8779 129.698 46.0553 129.421 46.166C129.148 46.2734 128.839 46.3271 128.493 46.3271C128.22 46.3271 127.968 46.293 127.737 46.2246C127.506 46.1562 127.297 46.0472 127.112 45.8975C126.929 45.7445 126.773 45.5459 126.643 45.3018C126.513 45.0576 126.413 44.7614 126.345 44.4131C126.277 44.0648 126.242 43.6579 126.242 43.1924V42.1084C126.242 41.5257 126.295 41.0374 126.399 40.6436C126.506 40.2497 126.658 39.9339 126.853 39.6963C127.048 39.4554 127.283 39.2829 127.556 39.1787C127.833 39.0745 128.142 39.0225 128.484 39.0225C128.76 39.0225 129.014 39.0566 129.245 39.125C129.48 39.1901 129.688 39.2959 129.87 39.4424C130.053 39.5856 130.207 39.7777 130.334 40.0186C130.465 40.2562 130.564 40.5475 130.632 40.8926C130.701 41.2376 130.735 41.6429 130.735 42.1084ZM129.826 43.3389V41.957C129.826 41.638 129.807 41.3581 129.768 41.1172C129.732 40.873 129.678 40.6647 129.607 40.4922C129.535 40.3197 129.444 40.1797 129.333 40.0723C129.226 39.9648 129.101 39.8867 128.957 39.8379C128.817 39.7858 128.659 39.7598 128.484 39.7598C128.269 39.7598 128.078 39.8005 127.912 39.8818C127.746 39.96 127.606 40.0853 127.492 40.2578C127.382 40.4303 127.297 40.6566 127.239 40.9365C127.18 41.2165 127.151 41.5566 127.151 41.957V43.3389C127.151 43.6579 127.169 43.9395 127.204 44.1836C127.243 44.4277 127.3 44.6393 127.375 44.8184C127.45 44.9941 127.541 45.139 127.649 45.2529C127.756 45.3669 127.88 45.4515 128.02 45.5068C128.163 45.5589 128.321 45.585 128.493 45.585C128.715 45.585 128.909 45.5426 129.075 45.458C129.241 45.3734 129.379 45.2415 129.49 45.0625C129.603 44.8802 129.688 44.6475 129.743 44.3643C129.799 44.0778 129.826 43.736 129.826 43.3389Z" fill="#333333"/>
<path d="M122.593 68.6455V69.3877H117.456V68.8555L120.64 63.9287H121.377L120.586 65.3545L118.482 68.6455H122.593ZM121.602 63.9287V71.0381H120.699V63.9287H121.602ZM127.876 66.917V68.001C127.876 68.5837 127.824 69.0752 127.72 69.4756C127.616 69.876 127.466 70.1982 127.271 70.4424C127.076 70.6865 126.84 70.8639 126.563 70.9746C126.289 71.082 125.98 71.1357 125.635 71.1357C125.362 71.1357 125.109 71.1016 124.878 71.0332C124.647 70.9648 124.439 70.8558 124.253 70.7061C124.071 70.5531 123.915 70.3545 123.785 70.1104C123.654 69.8662 123.555 69.57 123.487 69.2217C123.418 68.8734 123.384 68.4665 123.384 68.001V66.917C123.384 66.3343 123.436 65.846 123.54 65.4521C123.648 65.0583 123.799 64.7425 123.995 64.5049C124.19 64.264 124.424 64.0915 124.698 63.9873C124.974 63.8831 125.284 63.8311 125.625 63.8311C125.902 63.8311 126.156 63.8652 126.387 63.9336C126.622 63.9987 126.83 64.1045 127.012 64.251C127.194 64.3942 127.349 64.5863 127.476 64.8271C127.606 65.0648 127.706 65.3561 127.774 65.7012C127.842 66.0462 127.876 66.4515 127.876 66.917ZM126.968 68.1475V66.7656C126.968 66.4466 126.949 66.1667 126.91 65.9258C126.874 65.6816 126.82 65.4733 126.748 65.3008C126.677 65.1283 126.586 64.9883 126.475 64.8809C126.368 64.7734 126.242 64.6953 126.099 64.6465C125.959 64.5944 125.801 64.5684 125.625 64.5684C125.411 64.5684 125.22 64.609 125.054 64.6904C124.888 64.7686 124.748 64.8939 124.634 65.0664C124.524 65.2389 124.439 65.4652 124.38 65.7451C124.322 66.0251 124.292 66.3652 124.292 66.7656V68.1475C124.292 68.4665 124.31 68.748 124.346 68.9922C124.385 69.2363 124.442 69.4479 124.517 69.627C124.592 69.8027 124.683 69.9476 124.79 70.0615C124.898 70.1755 125.022 70.2601 125.162 70.3154C125.305 70.3675 125.463 70.3936 125.635 70.3936C125.857 70.3936 126.05 70.3512 126.216 70.2666C126.382 70.182 126.521 70.0501 126.631 69.8711C126.745 69.6888 126.83 69.4561 126.885 69.1729C126.941 68.8864 126.968 68.5446 126.968 68.1475ZM133.501 66.917V68.001C133.501 68.5837 133.449 69.0752 133.345 69.4756C133.241 69.876 133.091 70.1982 132.896 70.4424C132.701 70.6865 132.465 70.8639 132.188 70.9746C131.914 71.082 131.605 71.1357 131.26 71.1357C130.987 71.1357 130.734 71.1016 130.503 71.0332C130.272 70.9648 130.064 70.8558 129.878 70.7061C129.696 70.5531 129.54 70.3545 129.41 70.1104C129.279 69.8662 129.18 69.57 129.112 69.2217C129.043 68.8734 129.009 68.4665 129.009 68.001V66.917C129.009 66.3343 129.061 65.846 129.165 65.4521C129.273 65.0583 129.424 64.7425 129.62 64.5049C129.815 64.264 130.049 64.0915 130.323 63.9873C130.599 63.8831 130.909 63.8311 131.25 63.8311C131.527 63.8311 131.781 63.8652 132.012 63.9336C132.247 63.9987 132.455 64.1045 132.637 64.251C132.819 64.3942 132.974 64.5863 133.101 64.8271C133.231 65.0648 133.331 65.3561 133.399 65.7012C133.467 66.0462 133.501 66.4515 133.501 66.917ZM132.593 68.1475V66.7656C132.593 66.4466 132.574 66.1667 132.535 65.9258C132.499 65.6816 132.445 65.4733 132.373 65.3008C132.302 65.1283 132.211 64.9883 132.1 64.8809C131.993 64.7734 131.867 64.6953 131.724 64.6465C131.584 64.5944 131.426 64.5684 131.25 64.5684C131.036 64.5684 130.845 64.609 130.679 64.6904C130.513 64.7686 130.373 64.8939 130.259 65.0664C130.149 65.2389 130.064 65.4652 130.005 65.7451C129.947 66.0251 129.917 66.3652 129.917 66.7656V68.1475C129.917 68.4665 129.935 68.748 129.971 68.9922C130.01 69.2363 130.067 69.4479 130.142 69.627C130.217 69.8027 130.308 69.9476 130.415 70.0615C130.523 70.1755 130.647 70.2601 130.787 70.3154C130.93 70.3675 131.088 70.3936 131.26 70.3936C131.482 70.3936 131.675 70.3512 131.841 70.2666C132.007 70.182 132.146 70.0501 132.256 69.8711C132.37 69.6888 132.455 69.4561 132.51 69.1729C132.566 68.8864 132.593 68.5446 132.593 68.1475ZM139.126 66.917V68.001C139.126 68.5837 139.074 69.0752 138.97 69.4756C138.866 69.876 138.716 70.1982 138.521 70.4424C138.326 70.6865 138.09 70.8639 137.813 70.9746C137.539 71.082 137.23 71.1357 136.885 71.1357C136.612 71.1357 136.359 71.1016 136.128 71.0332C135.897 70.9648 135.689 70.8558 135.503 70.7061C135.321 70.5531 135.165 70.3545 135.035 70.1104C134.904 69.8662 134.805 69.57 134.737 69.2217C134.668 68.8734 134.634 68.4665 134.634 68.001V66.917C134.634 66.3343 134.686 65.846 134.79 65.4521C134.898 65.0583 135.049 64.7425 135.245 64.5049C135.44 64.264 135.674 64.0915 135.948 63.9873C136.224 63.8831 136.534 63.8311 136.875 63.8311C137.152 63.8311 137.406 63.8652 137.637 63.9336C137.872 63.9987 138.08 64.1045 138.262 64.251C138.444 64.3942 138.599 64.5863 138.726 64.8271C138.856 65.0648 138.956 65.3561 139.024 65.7012C139.092 66.0462 139.126 66.4515 139.126 66.917ZM138.218 68.1475V66.7656C138.218 66.4466 138.199 66.1667 138.16 65.9258C138.124 65.6816 138.07 65.4733 137.998 65.3008C137.927 65.1283 137.836 64.9883 137.725 64.8809C137.618 64.7734 137.492 64.6953 137.349 64.6465C137.209 64.5944 137.051 64.5684 136.875 64.5684C136.661 64.5684 136.47 64.609 136.304 64.6904C136.138 64.7686 135.998 64.8939 135.884 65.0664C135.774 65.2389 135.689 65.4652 135.63 65.7451C135.572 66.0251 135.542 66.3652 135.542 66.7656V68.1475C135.542 68.4665 135.56 68.748 135.596 68.9922C135.635 69.2363 135.692 69.4479 135.767 69.627C135.842 69.8027 135.933 69.9476 136.04 70.0615C136.148 70.1755 136.272 70.2601 136.412 70.3154C136.555 70.3675 136.713 70.3936 136.885 70.3936C137.107 70.3936 137.3 70.3512 137.466 70.2666C137.632 70.182 137.771 70.0501 137.881 69.8711C137.995 69.6888 138.08 69.4561 138.135 69.1729C138.191 68.8864 138.218 68.5446 138.218 68.1475Z" fill="#333333"/>
<path d="M120.495 95.668V96.4102H115.359V95.8779L118.542 90.9512H119.28L118.489 92.377L116.384 95.668H120.495ZM119.504 90.9512V98.0605H118.601V90.9512H119.504ZM122.458 94.6768L121.736 94.4912L122.092 90.9512H125.74V91.7861H122.859L122.644 93.7197C122.774 93.6449 122.938 93.5749 123.137 93.5098C123.339 93.4447 123.57 93.4121 123.83 93.4121C124.159 93.4121 124.454 93.4691 124.714 93.583C124.975 93.6937 125.196 93.8532 125.378 94.0615C125.564 94.2699 125.705 94.5205 125.803 94.8135C125.901 95.1064 125.949 95.4336 125.949 95.7949C125.949 96.1367 125.902 96.4508 125.808 96.7373C125.717 97.0238 125.578 97.2744 125.393 97.4893C125.207 97.7008 124.973 97.8652 124.69 97.9824C124.41 98.0996 124.079 98.1582 123.698 98.1582C123.412 98.1582 123.14 98.1191 122.883 98.041C122.629 97.9596 122.401 97.8376 122.199 97.6748C122.001 97.5088 121.838 97.3037 121.711 97.0596C121.587 96.8122 121.509 96.5225 121.477 96.1904H122.336C122.375 96.4574 122.453 96.682 122.571 96.8643C122.688 97.0465 122.841 97.1849 123.03 97.2793C123.222 97.3704 123.445 97.416 123.698 97.416C123.913 97.416 124.104 97.3786 124.27 97.3037C124.436 97.2288 124.576 97.1214 124.69 96.9814C124.804 96.8415 124.89 96.6722 124.948 96.4736C125.01 96.2751 125.041 96.0521 125.041 95.8047C125.041 95.5801 125.01 95.3717 124.948 95.1797C124.887 94.9876 124.794 94.82 124.67 94.6768C124.55 94.5335 124.402 94.4229 124.226 94.3447C124.05 94.2633 123.848 94.2227 123.62 94.2227C123.318 94.2227 123.088 94.2633 122.932 94.3447C122.779 94.4261 122.621 94.5368 122.458 94.6768ZM131.404 93.9395V95.0234C131.404 95.6061 131.351 96.0977 131.247 96.498C131.143 96.8984 130.993 97.2207 130.798 97.4648C130.603 97.709 130.367 97.8864 130.09 97.9971C129.817 98.1045 129.507 98.1582 129.162 98.1582C128.889 98.1582 128.637 98.124 128.406 98.0557C128.174 97.9873 127.966 97.8783 127.781 97.7285C127.598 97.5755 127.442 97.377 127.312 97.1328C127.182 96.8887 127.082 96.5924 127.014 96.2441C126.946 95.8958 126.911 95.4889 126.911 95.0234V93.9395C126.911 93.3568 126.963 92.8685 127.068 92.4746C127.175 92.0807 127.326 91.765 127.522 91.5273C127.717 91.2865 127.951 91.1139 128.225 91.0098C128.502 90.9056 128.811 90.8535 129.153 90.8535C129.429 90.8535 129.683 90.8877 129.914 90.9561C130.149 91.0212 130.357 91.127 130.539 91.2734C130.722 91.4167 130.876 91.6087 131.003 91.8496C131.133 92.0872 131.233 92.3786 131.301 92.7236C131.369 93.0687 131.404 93.474 131.404 93.9395ZM130.495 95.1699V93.7881C130.495 93.4691 130.476 93.1891 130.437 92.9482C130.401 92.7041 130.347 92.4958 130.276 92.3232C130.204 92.1507 130.113 92.0107 130.002 91.9033C129.895 91.7959 129.769 91.7178 129.626 91.6689C129.486 91.6169 129.328 91.5908 129.153 91.5908C128.938 91.5908 128.747 91.6315 128.581 91.7129C128.415 91.791 128.275 91.9163 128.161 92.0889C128.051 92.2614 127.966 92.4876 127.907 92.7676C127.849 93.0475 127.82 93.3877 127.82 93.7881V95.1699C127.82 95.4889 127.837 95.7705 127.873 96.0146C127.912 96.2588 127.969 96.4704 128.044 96.6494C128.119 96.8252 128.21 96.9701 128.318 97.084C128.425 97.1979 128.549 97.2826 128.689 97.3379C128.832 97.39 128.99 97.416 129.162 97.416C129.384 97.416 129.577 97.3737 129.743 97.2891C129.909 97.2044 130.048 97.0726 130.158 96.8936C130.272 96.7113 130.357 96.4785 130.412 96.1953C130.468 95.9089 130.495 95.5671 130.495 95.1699ZM137.029 93.9395V95.0234C137.029 95.6061 136.976 96.0977 136.872 96.498C136.768 96.8984 136.618 97.2207 136.423 97.4648C136.228 97.709 135.992 97.8864 135.715 97.9971C135.442 98.1045 135.132 98.1582 134.787 98.1582C134.514 98.1582 134.262 98.124 134.031 98.0557C133.799 97.9873 133.591 97.8783 133.406 97.7285C133.223 97.5755 133.067 97.377 132.937 97.1328C132.807 96.8887 132.707 96.5924 132.639 96.2441C132.571 95.8958 132.536 95.4889 132.536 95.0234V93.9395C132.536 93.3568 132.588 92.8685 132.693 92.4746C132.8 92.0807 132.951 91.765 133.147 91.5273C133.342 91.2865 133.576 91.1139 133.85 91.0098C134.127 90.9056 134.436 90.8535 134.778 90.8535C135.054 90.8535 135.308 90.8877 135.539 90.9561C135.774 91.0212 135.982 91.127 136.164 91.2734C136.347 91.4167 136.501 91.6087 136.628 91.8496C136.758 92.0872 136.858 92.3786 136.926 92.7236C136.994 93.0687 137.029 93.474 137.029 93.9395ZM136.12 95.1699V93.7881C136.12 93.4691 136.101 93.1891 136.062 92.9482C136.026 92.7041 135.972 92.4958 135.901 92.3232C135.829 92.1507 135.738 92.0107 135.627 91.9033C135.52 91.7959 135.394 91.7178 135.251 91.6689C135.111 91.6169 134.953 91.5908 134.778 91.5908C134.563 91.5908 134.372 91.6315 134.206 91.7129C134.04 91.791 133.9 91.9163 133.786 92.0889C133.676 92.2614 133.591 92.4876 133.532 92.7676C133.474 93.0475 133.445 93.3877 133.445 93.7881V95.1699C133.445 95.4889 133.462 95.7705 133.498 96.0146C133.537 96.2588 133.594 96.4704 133.669 96.6494C133.744 96.8252 133.835 96.9701 133.943 97.084C134.05 97.1979 134.174 97.2826 134.314 97.3379C134.457 97.39 134.615 97.416 134.787 97.416C135.009 97.416 135.202 97.3737 135.368 97.2891C135.534 97.2044 135.673 97.0726 135.783 96.8936C135.897 96.7113 135.982 96.4785 136.037 96.1953C136.093 95.9089 136.12 95.5671 136.12 95.1699Z" fill="#333333"/>
<path d="M105.755 117.789L105.033 117.604L105.389 114.063H109.037V114.898H106.156L105.941 116.832C106.071 116.757 106.235 116.687 106.434 116.622C106.636 116.557 106.867 116.524 107.127 116.524C107.456 116.524 107.751 116.581 108.011 116.695C108.272 116.806 108.493 116.965 108.675 117.174C108.861 117.382 109.002 117.633 109.1 117.926C109.198 118.219 109.246 118.546 109.246 118.907C109.246 119.249 109.199 119.563 109.105 119.85C109.014 120.136 108.875 120.387 108.69 120.602C108.504 120.813 108.27 120.978 107.987 121.095C107.707 121.212 107.376 121.271 106.995 121.271C106.709 121.271 106.437 121.231 106.18 121.153C105.926 121.072 105.698 120.95 105.496 120.787C105.298 120.621 105.135 120.416 105.008 120.172C104.884 119.924 104.806 119.635 104.774 119.303H105.633C105.672 119.57 105.75 119.794 105.868 119.977C105.985 120.159 106.138 120.297 106.327 120.392C106.519 120.483 106.742 120.528 106.995 120.528C107.21 120.528 107.401 120.491 107.567 120.416C107.733 120.341 107.873 120.234 107.987 120.094C108.101 119.954 108.187 119.785 108.245 119.586C108.307 119.387 108.338 119.164 108.338 118.917C108.338 118.692 108.307 118.484 108.245 118.292C108.184 118.1 108.091 117.932 107.967 117.789C107.847 117.646 107.699 117.535 107.523 117.457C107.347 117.376 107.145 117.335 106.917 117.335C106.615 117.335 106.385 117.376 106.229 117.457C106.076 117.538 105.918 117.649 105.755 117.789ZM114.701 117.052V118.136C114.701 118.718 114.648 119.21 114.544 119.61C114.44 120.011 114.29 120.333 114.095 120.577C113.9 120.821 113.664 120.999 113.387 121.109C113.114 121.217 112.804 121.271 112.459 121.271C112.186 121.271 111.934 121.236 111.703 121.168C111.471 121.1 111.263 120.991 111.078 120.841C110.895 120.688 110.739 120.489 110.609 120.245C110.479 120.001 110.379 119.705 110.311 119.356C110.243 119.008 110.208 118.601 110.208 118.136V117.052C110.208 116.469 110.26 115.981 110.365 115.587C110.472 115.193 110.623 114.877 110.819 114.64C111.014 114.399 111.248 114.226 111.522 114.122C111.799 114.018 112.108 113.966 112.45 113.966C112.726 113.966 112.98 114 113.211 114.068C113.446 114.133 113.654 114.239 113.836 114.386C114.019 114.529 114.173 114.721 114.3 114.962C114.43 115.2 114.53 115.491 114.598 115.836C114.666 116.181 114.701 116.586 114.701 117.052ZM113.792 118.282V116.9C113.792 116.581 113.773 116.301 113.734 116.061C113.698 115.816 113.644 115.608 113.573 115.436C113.501 115.263 113.41 115.123 113.299 115.016C113.192 114.908 113.066 114.83 112.923 114.781C112.783 114.729 112.625 114.703 112.45 114.703C112.235 114.703 112.044 114.744 111.878 114.825C111.712 114.903 111.572 115.029 111.458 115.201C111.348 115.374 111.263 115.6 111.204 115.88C111.146 116.16 111.117 116.5 111.117 116.9V118.282C111.117 118.601 111.134 118.883 111.17 119.127C111.209 119.371 111.266 119.583 111.341 119.762C111.416 119.938 111.507 120.082 111.615 120.196C111.722 120.31 111.846 120.395 111.986 120.45C112.129 120.502 112.287 120.528 112.459 120.528C112.681 120.528 112.874 120.486 113.04 120.401C113.206 120.317 113.345 120.185 113.455 120.006C113.569 119.824 113.654 119.591 113.709 119.308C113.765 119.021 113.792 118.679 113.792 118.282ZM120.326 117.052V118.136C120.326 118.718 120.273 119.21 120.169 119.61C120.065 120.011 119.915 120.333 119.72 120.577C119.525 120.821 119.289 120.999 119.012 121.109C118.739 121.217 118.429 121.271 118.084 121.271C117.811 121.271 117.559 121.236 117.328 121.168C117.096 121.1 116.888 120.991 116.703 120.841C116.52 120.688 116.364 120.489 116.234 120.245C116.104 120.001 116.004 119.705 115.936 119.356C115.868 119.008 115.833 118.601 115.833 118.136V117.052C115.833 116.469 115.885 115.981 115.99 115.587C116.097 115.193 116.248 114.877 116.444 114.64C116.639 114.399 116.873 114.226 117.147 114.122C117.424 114.018 117.733 113.966 118.075 113.966C118.351 113.966 118.605 114 118.836 114.068C119.071 114.133 119.279 114.239 119.461 114.386C119.644 114.529 119.798 114.721 119.925 114.962C120.055 115.2 120.155 115.491 120.223 115.836C120.291 116.181 120.326 116.586 120.326 117.052ZM119.417 118.282V116.9C119.417 116.581 119.398 116.301 119.359 116.061C119.323 115.816 119.269 115.608 119.198 115.436C119.126 115.263 119.035 115.123 118.924 115.016C118.817 114.908 118.691 114.83 118.548 114.781C118.408 114.729 118.25 114.703 118.075 114.703C117.86 114.703 117.669 114.744 117.503 114.825C117.337 114.903 117.197 115.029 117.083 115.201C116.973 115.374 116.888 115.6 116.829 115.88C116.771 116.16 116.742 116.5 116.742 116.9V118.282C116.742 118.601 116.759 118.883 116.795 119.127C116.834 119.371 116.891 119.583 116.966 119.762C117.041 119.938 117.132 120.082 117.24 120.196C117.347 120.31 117.471 120.395 117.611 120.45C117.754 120.502 117.912 120.528 118.084 120.528C118.306 120.528 118.499 120.486 118.665 120.401C118.831 120.317 118.97 120.185 119.08 120.006C119.194 119.824 119.279 119.591 119.334 119.308C119.39 119.021 119.417 118.679 119.417 118.282ZM125.951 117.052V118.136C125.951 118.718 125.898 119.21 125.794 119.61C125.69 120.011 125.54 120.333 125.345 120.577C125.15 120.821 124.914 120.999 124.637 121.109C124.364 121.217 124.054 121.271 123.709 121.271C123.436 121.271 123.184 121.236 122.953 121.168C122.721 121.1 122.513 120.991 122.328 120.841C122.145 120.688 121.989 120.489 121.859 120.245C121.729 120.001 121.629 119.705 121.561 119.356C121.493 119.008 121.458 118.601 121.458 118.136V117.052C121.458 116.469 121.51 115.981 121.615 115.587C121.722 115.193 121.873 114.877 122.069 114.64C122.264 114.399 122.498 114.226 122.772 114.122C123.049 114.018 123.358 113.966 123.7 113.966C123.976 113.966 124.23 114 124.461 114.068C124.696 114.133 124.904 114.239 125.086 114.386C125.269 114.529 125.423 114.721 125.55 114.962C125.68 115.2 125.78 115.491 125.848 115.836C125.916 116.181 125.951 116.586 125.951 117.052ZM125.042 118.282V116.9C125.042 116.581 125.023 116.301 124.984 116.061C124.948 115.816 124.894 115.608 124.823 115.436C124.751 115.263 124.66 115.123 124.549 115.016C124.442 114.908 124.316 114.83 124.173 114.781C124.033 114.729 123.875 114.703 123.7 114.703C123.485 114.703 123.294 114.744 123.128 114.825C122.962 114.903 122.822 115.029 122.708 115.201C122.598 115.374 122.513 115.6 122.454 115.88C122.396 116.16 122.367 116.5 122.367 116.9V118.282C122.367 118.601 122.384 118.883 122.42 119.127C122.459 119.371 122.516 119.583 122.591 119.762C122.666 119.938 122.757 120.082 122.865 120.196C122.972 120.31 123.096 120.395 123.236 120.45C123.379 120.502 123.537 120.528 123.709 120.528C123.931 120.528 124.124 120.486 124.29 120.401C124.456 120.317 124.595 120.185 124.705 120.006C124.819 119.824 124.904 119.591 124.959 119.308C125.015 119.021 125.042 118.679 125.042 118.282Z" fill="#333333"/>
<path fill-rule="evenodd" clip-rule="evenodd" d="M110.091 69.677L74.0325 68.7041L76.0583 83.4385L110.091 69.677Z" fill="#114F82"/>
<ellipse cx="75.9536" cy="76.1123" rx="7.383" ry="7.5" fill="white" stroke="#2D64B5"/>
</svg>
