<svg width="22" height="22" viewBox="0 0 22 22" fill="none" xmlns="http://www.w3.org/2000/svg">
<path fill-rule="evenodd" clip-rule="evenodd" d="M13 2C13 0.895431 12.1046 0 11 0C9.89543 0 9 0.895431 9 2V7C9 8.10457 8.10457 9 7 9H2C0.895431 9 0 9.89543 0 11C0 12.1046 0.89543 13 2 13H7C8.10457 13 9 13.8954 9 15V20C9 21.1046 9.89543 22 11 22C12.1046 22 13 21.1046 13 20V15C13 13.8954 13.8954 13 15 13H20C21.1046 13 22 12.1046 22 11C22 9.89543 21.1046 9 20 9H15C13.8954 9 13 8.10457 13 7V2Z" fill="black"/>
</svg>
