<svg width="20" height="23" viewBox="0 0 20 20" fill="none" xmlns="http://www.w3.org/2000/svg">
<path id='alarm' fill-rule="evenodd" clip-rule="evenodd" d="M10 2.25C10.8284 2.25 11.5 2.92157 11.5 3.75V4.47099C11.5 4.53932 11.4954 4.60658 11.4866 4.67249C14.2367 5.42787 16.2791 8.20695 16.2791 11.2128V13.8503H16.9767C17.2628 13.8503 17.5 14.2808 17.5 14.5717C17.5 14.8627 17.2628 15.2932 16.9767 15.2932L11.3635 15.2932C11.3635 16.09 10.753 16.7361 9.99991 16.7361C9.24679 16.7361 8.63627 16.09 8.63627 15.2932L3.02326 15.2932C2.73721 15.2932 2.5 14.8627 2.5 14.5717C2.5 14.2808 2.73721 13.8503 3.02326 13.8503H3.72093V11.2128C3.72093 8.20695 5.76333 5.42787 8.51342 4.67249C8.50457 4.60658 8.5 4.53932 8.5 4.47099V3.75C8.5 2.92157 9.17157 2.25 10 2.25Z"/>
</svg>
