<svg width="16" height="16" viewBox="0 0 16 16" fill="none" xmlns="http://www.w3.org/2000/svg">
<rect width="16" height="16" fill="#AEC4DA"/>
<path fill-rule="evenodd" clip-rule="evenodd" d="M13.1377 4.86193C13.2628 4.98695 13.333 5.15652 13.333 5.33333V6.66667H2.66634V5.33333C2.66634 5.15652 2.73658 4.98695 2.8616 4.86193C2.98663 4.7369 3.1562 4.66667 3.33301 4.66667H3.99967V5.33333C3.99967 5.51014 4.06991 5.67971 4.19494 5.80474C4.31996 5.92976 4.48953 6 4.66634 6C4.84315 6 5.01272 5.92976 5.13775 5.80474C5.26277 5.67971 5.33301 5.51014 5.33301 5.33333V4.66667H7.25V5C7.25 5.41421 7.58579 5.75 8 5.75C8.41421 5.75 8.75 5.41421 8.75 5V4.66667H10.6663V5.33333C10.6663 5.51014 10.7366 5.67971 10.8616 5.80474C10.9866 5.92976 11.1562 6 11.333 6C11.5098 6 11.6794 5.92976 11.8044 5.80474C11.9294 5.67971 11.9997 5.51014 11.9997 5.33333V4.66667H12.6663C12.8432 4.66667 13.0127 4.7369 13.1377 4.86193ZM8.75 3.33333H10.6663V2.66667C10.6663 2.48986 10.7366 2.32029 10.8616 2.19526C10.9866 2.07024 11.1562 2 11.333 2C11.5098 2 11.6794 2.07024 11.8044 2.19526C11.9294 2.32029 11.9997 2.48986 11.9997 2.66667V3.33333H12.6663C13.1968 3.33333 13.7055 3.54405 14.0806 3.91912C14.4556 4.29419 14.6663 4.8029 14.6663 5.33333V12C14.6663 12.5304 14.4556 13.0391 14.0806 13.4142C13.7055 13.7893 13.1968 14 12.6663 14H3.33301C2.80257 14 2.29387 13.7893 1.91879 13.4142C1.54372 13.0391 1.33301 12.5304 1.33301 12V5.33333C1.33301 4.8029 1.54372 4.29419 1.91879 3.91912C2.29387 3.54405 2.80257 3.33333 3.33301 3.33333H3.99967V2.66667C3.99967 2.48986 4.06991 2.32029 4.19494 2.19526C4.31996 2.07024 4.48953 2 4.66634 2C4.84315 2 5.01272 2.07024 5.13775 2.19526C5.26277 2.32029 5.33301 2.48986 5.33301 2.66667V3.33333H7.25V3C7.25 2.58579 7.58579 2.25 8 2.25C8.41421 2.25 8.75 2.58579 8.75 3V3.33333ZM2.66634 8H13.333V12C13.333 12.1768 13.2628 12.3464 13.1377 12.4714C13.0127 12.5964 12.8432 12.6667 12.6663 12.6667H3.33301C3.1562 12.6667 2.98663 12.5964 2.8616 12.4714C2.73658 12.3464 2.66634 12.1768 2.66634 12V8Z" fill="#184267"/>
</svg>
