<svg width="18" height="18" viewBox="0 0 18 18" fill="none" xmlns="http://www.w3.org/2000/svg">
<path d="M9.00006 16.2C10.9096 16.2 14.1498 16.8503 15.5 15.5C16.8503 14.1497 16.2 10.9096 16.2 9C16.2 7.09044 16.8503 3.85026 15.5 2.5C14.1498 1.14974 10.9096 1.8 9.00006 1.8C7.09052 1.8 3.85036 1.14974 2.50011 2.5C1.14985 3.85026 1.80011 7.09044 1.80011 9C1.80011 10.9096 1.14985 14.1497 2.50011 15.5C3.85036 16.8503 7.09052 16.2 9.00006 16.2ZM9.00006 18C0.00012207 18 0.000122233 18 0.000122152 9C0.00012207 -1.90735e-06 0.00012207 0 9.00006 0C18 0 18 0 18 9C18 18 18 18 9.00006 18ZM8.10007 3H9.90006V9.9H8.10007V3ZM8.10007 8.1H14.4V9.9H8.10007V8.1Z" fill="#EDF6FF"/>
</svg>
