<svg width="22" height="25" viewBox="0 0 22 25" fill="none" xmlns="http://www.w3.org/2000/svg">
<path fill-rule="evenodd" clip-rule="evenodd" d="M10.3632 1H11.6368C11.9479 1 12.2 1.25213 12.2 1.56316C12.2 1.7984 12.0557 1.99996 11.8509 2.08421H10.1491C9.94424 1.99996 9.79999 1.7984 9.79999 1.56316C9.79999 1.25213 10.0521 1 10.3632 1ZM8.88894 2.08421C8.83134 1.92124 8.79999 1.74586 8.79999 1.56316C8.79999 0.69985 9.49984 0 10.3632 0H11.6368C12.5001 0 13.2 0.69985 13.2 1.56316C13.2 1.74586 13.1686 1.92124 13.111 2.08421H20C21.1046 2.08421 22 2.97964 22 4.08421V6.33685C22 7.25066 21.3871 8.02134 20.55 8.26027V22.9684C20.55 23.9349 19.7665 24.7184 18.8 24.7184H16.5H8.79999H5.5H3.20001C2.23351 24.7184 1.45001 23.9349 1.45001 22.9684V8.26027C0.612873 8.02135 0 7.25067 0 6.33684V4.08421C0 2.97964 0.895431 2.08421 2 2.08421H8.88894ZM20 3.58421H2C1.72386 3.58421 1.5 3.80807 1.5 4.08421V6.33684C1.5 6.61299 1.72386 6.83684 2 6.83684H20C20.2761 6.83684 20.5 6.61299 20.5 6.33685V4.08421C20.5 3.80807 20.2761 3.58421 20 3.58421ZM18.8 23.2184H17.25V8.33684H19.05V22.9684C19.05 23.1065 18.9381 23.2184 18.8 23.2184ZM15.75 23.2184V8.33684H13.95V23.2184H15.75ZM12.45 23.2184H9.54999V8.33684H12.45V23.2184ZM8.04999 23.2184V8.33684H6.25V23.2184H8.04999ZM4.75 8.33684V23.2184H3.20001C3.06194 23.2184 2.95001 23.1065 2.95001 22.9684V8.33684H4.75Z" fill="black"/>
</svg>
