<svg width="20" height="18" viewBox="0 0 20 18" fill="none" xmlns="http://www.w3.org/2000/svg">
<path d="M6.81598 11.556C5.80798 12.02 5.12598 12.559 4.73198 13.154C4.34854 13.7318 3.9768 14.3172 3.61698 14.91C4.74098 15.154 5.58598 15.037 6.19498 14.629C7.04698 14.059 7.60298 13.408 7.91198 12.652L6.81598 11.556ZM8.21098 10.123L9.23098 11.143C9.97298 10.761 10.72 10.156 11.465 9.311C12.604 8.021 14.526 5.723 17.222 2.431C17.2542 2.39039 17.2704 2.33933 17.2673 2.28758C17.2643 2.23582 17.2424 2.18698 17.2057 2.15038C17.1689 2.11378 17.12 2.09199 17.0682 2.08915C17.0165 2.08631 16.9655 2.10263 16.925 2.135C13.639 4.828 11.342 6.75 10.044 7.893C9.19498 8.639 8.58998 9.384 8.21098 10.123ZM7.30798 16.291C5.69298 17.372 3.48198 17.273 0.677979 15.993C1.42117 14.647 2.21747 13.3309 3.06498 12.048C3.71998 11.061 4.77698 10.254 6.23498 9.626C6.71998 8.5 7.54998 7.423 8.72198 6.39C10.042 5.228 12.354 3.294 15.658 0.587C16.082 0.237554 16.6209 0.0585668 17.1697 0.0849486C17.7185 0.11133 18.2378 0.341189 18.6263 0.729693C19.0148 1.1182 19.2446 1.63749 19.271 2.18628C19.2974 2.73508 19.1184 3.27402 18.769 3.698C16.059 7.008 14.124 9.319 12.965 10.633C11.987 11.741 10.965 12.544 9.89798 13.041C9.46798 14.339 8.60498 15.421 7.30798 16.29V16.291Z" fill="black"/>
</svg>
