<svg width="144" height="135" viewBox="0 0 144 135" fill="none" xmlns="http://www.w3.org/2000/svg">
<path d="M36 134L40.1538 126.824" stroke="#10226B"/>
<path d="M9.64624 107.715L16.8409 103.572" stroke="#10226B"/>
<path d="M0 71.8105H8.30769" stroke="#10226B"/>
<path d="M9.64624 35.9053L16.8409 40.0482" stroke="#10226B"/>
<path d="M36 9.62109L40.1538 16.7968" stroke="#10226B"/>
<path d="M72 0V8.28581" stroke="#10226B"/>
<path d="M108 9.62109L103.846 16.7968" stroke="#10226B"/>
<path d="M134.354 35.9053L127.159 40.0482" stroke="#10226B"/>
<path d="M144 71.8105H135.692" stroke="#10226B"/>
<path d="M134.354 107.715L127.159 103.572" stroke="#10226B"/>
<path d="M108 134L103.846 126.824" stroke="#10226B"/>
<path d="M29.6797 129.906L32.9351 125.438" stroke="#549ABF"/>
<path d="M23.8228 125.176L27.5287 121.071" stroke="#549ABF"/>
<path d="M18.4937 119.861L22.6095 116.165" stroke="#549ABF"/>
<path d="M13.751 114.019L18.2317 110.772" stroke="#549ABF"/>
<path d="M6.22461 101.018L11.2842 98.7715" stroke="#549ABF"/>
<path d="M3.52417 94.0009L8.79156 92.2939" stroke="#549ABF"/>
<path d="M1.57349 86.7403L6.99092 85.5918" stroke="#549ABF"/>
<path d="M0.394531 79.3167L5.90265 78.7393" stroke="#549ABF"/>
<path d="M0.394531 64.3047L5.90265 64.8821" stroke="#549ABF"/>
<path d="M1.57349 56.8809L6.99092 58.0293" stroke="#549ABF"/>
<path d="M3.52417 49.6201L8.79156 51.3271" stroke="#549ABF"/>
<path d="M6.22461 42.6025L11.2842 44.8493" stroke="#549ABF"/>
<path d="M13.751 29.6016L18.2317 32.8484" stroke="#549ABF"/>
<path d="M18.4937 23.7598L22.6095 27.456" stroke="#549ABF"/>
<path d="M23.8228 18.4453L27.5287 22.5504" stroke="#549ABF"/>
<path d="M29.6797 13.7148L32.9351 18.1838" stroke="#549ABF"/>
<path d="M42.7151 6.20898L44.9678 11.2553" stroke="#549ABF"/>
<path d="M49.751 3.51465L51.4625 8.76817" stroke="#549ABF"/>
<path d="M57.0305 1.56934L58.182 6.9725" stroke="#549ABF"/>
<path d="M64.4738 0.393555L65.0528 5.88717" stroke="#549ABF"/>
<path d="M79.5259 0.393555L78.947 5.88717" stroke="#549ABF"/>
<path d="M86.9696 1.56934L85.8181 6.9725" stroke="#549ABF"/>
<path d="M94.2491 3.51465L92.5376 8.76817" stroke="#549ABF"/>
<path d="M101.285 6.20898L99.0325 11.2553" stroke="#549ABF"/>
<path d="M114.32 13.7148L111.065 18.1838" stroke="#549ABF"/>
<path d="M120.178 18.4453L116.472 22.5504" stroke="#549ABF"/>
<path d="M125.506 23.7598L121.39 27.456" stroke="#549ABF"/>
<path d="M130.249 29.6016L125.769 32.8484" stroke="#549ABF"/>
<path d="M137.775 42.6025L132.716 44.8493" stroke="#549ABF"/>
<path d="M140.476 49.6201L135.209 51.3271" stroke="#549ABF"/>
<path d="M142.427 56.8809L137.009 58.0293" stroke="#549ABF"/>
<path d="M143.606 64.3047L138.097 64.8821" stroke="#549ABF"/>
<path d="M143.606 79.3167L138.097 78.7393" stroke="#549ABF"/>
<path d="M142.427 86.7403L137.009 85.5918" stroke="#549ABF"/>
<path d="M140.476 94.0009L135.209 92.2939" stroke="#549ABF"/>
<path d="M137.775 101.018L132.716 98.7715" stroke="#549ABF"/>
<path d="M130.249 114.019L125.769 110.772" stroke="#549ABF"/>
<path d="M125.506 119.861L121.39 116.165" stroke="#549ABF"/>
<path d="M120.178 125.176L116.472 121.071" stroke="#549ABF"/>
<path d="M114.32 129.906L111.065 125.438" stroke="#549ABF"/>
<path d="M46.5489 120.004V121.088C46.5489 121.671 46.4969 122.162 46.3927 122.562C46.2885 122.963 46.1388 123.285 45.9435 123.529C45.7482 123.773 45.5122 123.951 45.2355 124.062C44.962 124.169 44.6528 124.223 44.3077 124.223C44.0343 124.223 43.782 124.188 43.5509 124.12C43.3198 124.052 43.1114 123.943 42.9259 123.793C42.7436 123.64 42.5874 123.441 42.4571 123.197C42.3269 122.953 42.2277 122.657 42.1593 122.309C42.0909 121.96 42.0568 121.553 42.0568 121.088V120.004C42.0568 119.421 42.1088 118.933 42.213 118.539C42.3204 118.145 42.4718 117.829 42.6671 117.592C42.8624 117.351 43.0968 117.178 43.3702 117.074C43.6469 116.97 43.9562 116.918 44.298 116.918C44.5747 116.918 44.8286 116.952 45.0597 117.021C45.2941 117.086 45.5024 117.191 45.6847 117.338C45.867 117.481 46.0216 117.673 46.1486 117.914C46.2788 118.152 46.378 118.443 46.4464 118.788C46.5148 119.133 46.5489 119.538 46.5489 120.004ZM45.6407 121.234V119.853C45.6407 119.534 45.6212 119.254 45.5821 119.013C45.5463 118.769 45.4926 118.56 45.421 118.388C45.3494 118.215 45.2583 118.075 45.1476 117.968C45.0402 117.86 44.9148 117.782 44.7716 117.733C44.6316 117.681 44.4737 117.655 44.298 117.655C44.0831 117.655 43.8927 117.696 43.7267 117.777C43.5607 117.855 43.4207 117.981 43.3068 118.153C43.1961 118.326 43.1114 118.552 43.0528 118.832C42.9943 119.112 42.965 119.452 42.965 119.853V121.234C42.965 121.553 42.9829 121.835 43.0187 122.079C43.0577 122.323 43.1147 122.535 43.1896 122.714C43.2644 122.89 43.3556 123.035 43.463 123.148C43.5704 123.262 43.6941 123.347 43.8341 123.402C43.9773 123.454 44.1352 123.48 44.3077 123.48C44.5291 123.48 44.7228 123.438 44.8888 123.354C45.0548 123.269 45.1931 123.137 45.3038 122.958C45.4178 122.776 45.5024 122.543 45.5577 122.26C45.6131 121.973 45.6407 121.632 45.6407 121.234Z" fill="#333333"/>
<path d="M22.6624 96.7578V103.906H21.7591V97.8857L19.9378 98.5498V97.7344L22.5208 96.7578H22.6624ZM29.7816 99.7852V100.869C29.7816 101.452 29.7295 101.943 29.6253 102.344C29.5211 102.744 29.3714 103.066 29.1761 103.311C28.9808 103.555 28.7448 103.732 28.4681 103.843C28.1946 103.95 27.8854 104.004 27.5403 104.004C27.2669 104.004 27.0146 103.97 26.7835 103.901C26.5524 103.833 26.3441 103.724 26.1585 103.574C25.9762 103.421 25.82 103.223 25.6898 102.979C25.5595 102.734 25.4603 102.438 25.3919 102.09C25.3235 101.742 25.2894 101.335 25.2894 100.869V99.7852C25.2894 99.2025 25.3414 98.7142 25.4456 98.3203C25.553 97.9264 25.7044 97.6107 25.8997 97.373C26.095 97.1322 26.3294 96.9596 26.6028 96.8555C26.8795 96.7513 27.1888 96.6992 27.5306 96.6992C27.8073 96.6992 28.0612 96.7334 28.2923 96.8018C28.5267 96.8669 28.735 96.9727 28.9173 97.1191C29.0996 97.2624 29.2542 97.4544 29.3812 97.6953C29.5114 97.9329 29.6107 98.2243 29.679 98.5693C29.7474 98.9144 29.7816 99.3197 29.7816 99.7852ZM28.8733 101.016V99.6338C28.8733 99.3148 28.8538 99.0348 28.8148 98.7939C28.7789 98.5498 28.7252 98.3415 28.6536 98.1689C28.582 97.9964 28.4909 97.8564 28.3802 97.749C28.2728 97.6416 28.1474 97.5635 28.0042 97.5146C27.8642 97.4626 27.7064 97.4365 27.5306 97.4365C27.3157 97.4365 27.1253 97.4772 26.9593 97.5586C26.7933 97.6367 26.6533 97.762 26.5394 97.9346C26.4287 98.1071 26.3441 98.3333 26.2855 98.6133C26.2269 98.8932 26.1976 99.2334 26.1976 99.6338V101.016C26.1976 101.335 26.2155 101.616 26.2513 101.86C26.2903 102.104 26.3473 102.316 26.4222 102.495C26.497 102.671 26.5882 102.816 26.6956 102.93C26.803 103.044 26.9267 103.128 27.0667 103.184C27.2099 103.236 27.3678 103.262 27.5403 103.262C27.7617 103.262 27.9554 103.219 28.1214 103.135C28.2874 103.05 28.4258 102.918 28.5364 102.739C28.6504 102.557 28.735 102.324 28.7903 102.041C28.8457 101.755 28.8733 101.413 28.8733 101.016Z" fill="#333333"/>
<path d="M16.9317 75.5449V76.2871H12.2784V75.6377L14.6075 73.0449C14.8939 72.7259 15.1153 72.4557 15.2715 72.2344C15.431 72.0098 15.5417 71.8096 15.6036 71.6338C15.6687 71.4548 15.7012 71.2725 15.7012 71.0869C15.7012 70.8525 15.6524 70.641 15.5547 70.4521C15.4603 70.2601 15.3204 70.1071 15.1348 69.9932C14.9493 69.8792 14.7247 69.8223 14.461 69.8223C14.1452 69.8223 13.8816 69.8841 13.67 70.0078C13.4616 70.1283 13.3054 70.2975 13.2012 70.5156C13.0971 70.7337 13.045 70.9844 13.045 71.2676H12.1417C12.1417 70.8672 12.2295 70.501 12.4053 70.1689C12.5811 69.8369 12.8415 69.5732 13.1866 69.3779C13.5316 69.1794 13.9564 69.0801 14.461 69.0801C14.9102 69.0801 15.2943 69.1598 15.6133 69.3193C15.9323 69.4756 16.1765 69.6969 16.3458 69.9834C16.5183 70.2666 16.6045 70.5986 16.6045 70.9795C16.6045 71.1878 16.5687 71.3994 16.4971 71.6143C16.4288 71.8258 16.3327 72.0374 16.209 72.249C16.0886 72.4606 15.947 72.6689 15.7842 72.874C15.6247 73.0791 15.4538 73.2809 15.2715 73.4795L13.3672 75.5449H16.9317ZM22.3614 72.166V73.25C22.3614 73.8327 22.3093 74.3242 22.2051 74.7246C22.101 75.125 21.9512 75.4473 21.7559 75.6914C21.5606 75.9355 21.3246 76.113 21.0479 76.2236C20.7745 76.3311 20.4652 76.3848 20.1202 76.3848C19.8467 76.3848 19.5945 76.3506 19.3633 76.2822C19.1322 76.2139 18.9239 76.1048 18.7383 75.9551C18.556 75.8021 18.3998 75.6035 18.2696 75.3594C18.1394 75.1152 18.0401 74.819 17.9717 74.4707C17.9034 74.1224 17.8692 73.7155 17.8692 73.25V72.166C17.8692 71.5833 17.9213 71.0951 18.0254 70.7012C18.1329 70.3073 18.2842 69.9915 18.4795 69.7539C18.6749 69.513 18.9092 69.3405 19.1827 69.2363C19.4594 69.1322 19.7686 69.0801 20.1104 69.0801C20.3871 69.0801 20.641 69.1143 20.8721 69.1826C21.1065 69.2477 21.3148 69.3535 21.4971 69.5C21.6794 69.6432 21.834 69.8353 21.961 70.0762C22.0912 70.3138 22.1905 70.6051 22.2588 70.9502C22.3272 71.2952 22.3614 71.7005 22.3614 72.166ZM21.4532 73.3965V72.0146C21.4532 71.6956 21.4337 71.4157 21.3946 71.1748C21.3588 70.9307 21.3051 70.7223 21.2335 70.5498C21.1618 70.3773 21.0707 70.2373 20.96 70.1299C20.8526 70.0225 20.7273 69.9443 20.584 69.8955C20.4441 69.8434 20.2862 69.8174 20.1104 69.8174C19.8956 69.8174 19.7051 69.8581 19.5391 69.9395C19.3731 70.0176 19.2331 70.1429 19.1192 70.3154C19.0085 70.488 18.9239 70.7142 18.8653 70.9941C18.8067 71.2741 18.7774 71.6143 18.7774 72.0146V73.3965C18.7774 73.7155 18.7953 73.9971 18.8311 74.2412C18.8702 74.4854 18.9271 74.6969 19.002 74.876C19.0769 75.0518 19.168 75.1966 19.2754 75.3105C19.3829 75.4245 19.5066 75.5091 19.6465 75.5645C19.7898 75.6165 19.9476 75.6426 20.1202 75.6426C20.3415 75.6426 20.5352 75.6003 20.7012 75.5156C20.8672 75.431 21.0056 75.2992 21.1163 75.1201C21.2302 74.9378 21.3148 74.7051 21.3702 74.4219C21.4255 74.1354 21.4532 73.7936 21.4532 73.3965Z" fill="#333333"/>
<path d="M21.012 44.668H21.6566C21.9723 44.668 22.2327 44.6159 22.4378 44.5117C22.6461 44.4043 22.8008 44.2594 22.9017 44.0771C23.0058 43.8916 23.0579 43.6833 23.0579 43.4521C23.0579 43.1787 23.0123 42.9492 22.9212 42.7637C22.8301 42.5781 22.6933 42.4382 22.511 42.3438C22.3288 42.2493 22.0976 42.2021 21.8177 42.2021C21.5638 42.2021 21.3392 42.2526 21.1439 42.3535C20.9518 42.4512 20.8004 42.5911 20.6898 42.7734C20.5823 42.9557 20.5286 43.1706 20.5286 43.418H19.6253C19.6253 43.0566 19.7164 42.7279 19.8987 42.4316C20.081 42.1354 20.3366 41.8994 20.6653 41.7236C20.9974 41.5479 21.3815 41.46 21.8177 41.46C22.2474 41.46 22.6233 41.5365 22.9456 41.6895C23.2679 41.8392 23.5185 42.0638 23.6976 42.3633C23.8766 42.6595 23.9661 43.029 23.9661 43.4717C23.9661 43.6507 23.9238 43.8428 23.8392 44.0479C23.7578 44.2497 23.6292 44.4385 23.4534 44.6143C23.2809 44.79 23.0563 44.9349 22.7796 45.0488C22.5029 45.1595 22.1709 45.2148 21.7835 45.2148H21.012V44.668ZM21.012 45.4102V44.8682H21.7835C22.236 44.8682 22.6103 44.9219 22.9066 45.0293C23.2028 45.1367 23.4355 45.2799 23.6048 45.459C23.7773 45.638 23.8978 45.835 23.9661 46.0498C24.0377 46.2614 24.0735 46.473 24.0735 46.6846C24.0735 47.0166 24.0166 47.3112 23.9026 47.5684C23.792 47.8255 23.6341 48.0436 23.429 48.2227C23.2272 48.4017 22.9896 48.5368 22.7161 48.6279C22.4427 48.7191 22.1448 48.7646 21.8226 48.7646C21.5133 48.7646 21.222 48.7207 20.9485 48.6328C20.6784 48.5449 20.4391 48.418 20.2308 48.252C20.0224 48.0827 19.8597 47.876 19.7425 47.6318C19.6253 47.3844 19.5667 47.1029 19.5667 46.7871H20.47C20.47 47.0345 20.5237 47.251 20.6312 47.4365C20.7418 47.6221 20.8981 47.7669 21.0999 47.8711C21.305 47.972 21.5459 48.0225 21.8226 48.0225C22.0993 48.0225 22.3369 47.9753 22.5355 47.8809C22.7373 47.7832 22.8919 47.6367 22.9993 47.4414C23.11 47.2461 23.1653 47.0003 23.1653 46.7041C23.1653 46.4079 23.1035 46.1654 22.9798 45.9766C22.8561 45.7845 22.6803 45.6429 22.4524 45.5518C22.2278 45.4574 21.9625 45.4102 21.6566 45.4102H21.012ZM29.7816 44.5459V45.6299C29.7816 46.2126 29.7295 46.7041 29.6253 47.1045C29.5211 47.5049 29.3714 47.8271 29.1761 48.0713C28.9808 48.3154 28.7448 48.4928 28.4681 48.6035C28.1946 48.7109 27.8854 48.7646 27.5403 48.7646C27.2669 48.7646 27.0146 48.7305 26.7835 48.6621C26.5524 48.5938 26.3441 48.4847 26.1585 48.335C25.9762 48.182 25.82 47.9834 25.6898 47.7393C25.5595 47.4951 25.4603 47.1989 25.3919 46.8506C25.3235 46.5023 25.2894 46.0954 25.2894 45.6299V44.5459C25.2894 43.9632 25.3414 43.4749 25.4456 43.0811C25.553 42.6872 25.7044 42.3714 25.8997 42.1338C26.095 41.8929 26.3294 41.7204 26.6028 41.6162C26.8795 41.512 27.1888 41.46 27.5306 41.46C27.8073 41.46 28.0612 41.4941 28.2923 41.5625C28.5267 41.6276 28.735 41.7334 28.9173 41.8799C29.0996 42.0231 29.2542 42.2152 29.3812 42.4561C29.5114 42.6937 29.6107 42.985 29.679 43.3301C29.7474 43.6751 29.7816 44.0804 29.7816 44.5459ZM28.8733 45.7764V44.3945C28.8733 44.0755 28.8538 43.7956 28.8148 43.5547C28.7789 43.3105 28.7252 43.1022 28.6536 42.9297C28.582 42.7572 28.4909 42.6172 28.3802 42.5098C28.2728 42.4023 28.1474 42.3242 28.0042 42.2754C27.8642 42.2233 27.7064 42.1973 27.5306 42.1973C27.3157 42.1973 27.1253 42.238 26.9593 42.3193C26.7933 42.3975 26.6533 42.5228 26.5394 42.6953C26.4287 42.8678 26.3441 43.0941 26.2855 43.374C26.2269 43.654 26.1976 43.9941 26.1976 44.3945V45.7764C26.1976 46.0954 26.2155 46.377 26.2513 46.6211C26.2903 46.8652 26.3473 47.0768 26.4222 47.2559C26.497 47.4316 26.5882 47.5765 26.6956 47.6904C26.803 47.8044 26.9267 47.889 27.0667 47.9443C27.2099 47.9964 27.3678 48.0225 27.5403 48.0225C27.7617 48.0225 27.9554 47.9801 28.1214 47.8955C28.2874 47.8109 28.4258 47.679 28.5364 47.5C28.6504 47.3177 28.735 47.085 28.7903 46.8018C28.8457 46.5153 28.8733 46.1735 28.8733 45.7764Z" fill="#333333"/>
<path d="M44.7703 26.0557V26.7979H39.6336V26.2656L42.8172 21.3389H43.5545L42.7635 22.7646L40.659 26.0557H44.7703ZM43.7791 21.3389V28.4482H42.8758V21.3389H43.7791ZM50.0535 24.3271V25.4111C50.0535 25.9938 50.0014 26.4854 49.8973 26.8857C49.7931 27.2861 49.6434 27.6084 49.4481 27.8525C49.2527 28.0967 49.0167 28.2741 48.74 28.3848C48.4666 28.4922 48.1574 28.5459 47.8123 28.5459C47.5389 28.5459 47.2866 28.5117 47.0555 28.4434C46.8244 28.375 46.616 28.266 46.4305 28.1162C46.2482 27.9632 46.0919 27.7646 45.9617 27.5205C45.8315 27.2764 45.7322 26.9801 45.6639 26.6318C45.5955 26.2835 45.5613 25.8766 45.5613 25.4111V24.3271C45.5613 23.7445 45.6134 23.2562 45.7176 22.8623C45.825 22.4684 45.9764 22.1527 46.1717 21.915C46.367 21.6742 46.6014 21.5016 46.8748 21.3975C47.1515 21.2933 47.4607 21.2412 47.8025 21.2412C48.0792 21.2412 48.3331 21.2754 48.5643 21.3438C48.7986 21.4089 49.007 21.5146 49.1893 21.6611C49.3716 21.8044 49.5262 21.9964 49.6531 22.2373C49.7833 22.4749 49.8826 22.7663 49.951 23.1113C50.0193 23.4564 50.0535 23.8617 50.0535 24.3271ZM49.1453 25.5576V24.1758C49.1453 23.8568 49.1258 23.5768 49.0867 23.3359C49.0509 23.0918 48.9972 22.8835 48.9256 22.7109C48.854 22.5384 48.7628 22.3984 48.6522 22.291C48.5447 22.1836 48.4194 22.1055 48.2762 22.0566C48.1362 22.0046 47.9783 21.9785 47.8025 21.9785C47.5877 21.9785 47.3973 22.0192 47.2313 22.1006C47.0652 22.1787 46.9253 22.304 46.8113 22.4766C46.7007 22.6491 46.616 22.8753 46.5574 23.1553C46.4988 23.4352 46.4695 23.7754 46.4695 24.1758V25.5576C46.4695 25.8766 46.4874 26.1582 46.5232 26.4023C46.5623 26.6465 46.6193 26.8581 46.6941 27.0371C46.769 27.2129 46.8602 27.3577 46.9676 27.4717C47.075 27.5856 47.1987 27.6702 47.3387 27.7256C47.4819 27.7777 47.6398 27.8037 47.8123 27.8037C48.0337 27.8037 48.2274 27.7614 48.3934 27.6768C48.5594 27.5921 48.6977 27.4603 48.8084 27.2812C48.9223 27.099 49.007 26.8662 49.0623 26.583C49.1177 26.2965 49.1453 25.9548 49.1453 25.5576Z" fill="#333333"/>
<path d="M68.8007 17.6641L68.078 17.4785L68.4345 13.9385H72.0819V14.7734H69.2011L68.9862 16.707C69.1164 16.6322 69.2808 16.5622 69.4794 16.4971C69.6812 16.432 69.9123 16.3994 70.1728 16.3994C70.5015 16.3994 70.7961 16.4564 71.0565 16.5703C71.317 16.681 71.5383 16.8405 71.7206 17.0488C71.9062 17.2572 72.0478 17.5078 72.1454 17.8008C72.2431 18.0938 72.2919 18.4209 72.2919 18.7822C72.2919 19.124 72.2447 19.4382 72.1503 19.7246C72.0592 20.0111 71.9208 20.2617 71.7353 20.4766C71.5497 20.6882 71.3153 20.8525 71.0321 20.9697C70.7522 21.0869 70.4218 21.1455 70.0409 21.1455C69.7545 21.1455 69.4827 21.1064 69.2255 21.0283C68.9716 20.9469 68.7437 20.8249 68.5419 20.6621C68.3433 20.4961 68.1806 20.291 68.0536 20.0469C67.9299 19.7995 67.8518 19.5098 67.8192 19.1777H68.6786C68.7177 19.4447 68.7958 19.6693 68.913 19.8516C69.0302 20.0339 69.1832 20.1722 69.372 20.2666C69.564 20.3577 69.787 20.4033 70.0409 20.4033C70.2558 20.4033 70.4462 20.3659 70.6122 20.291C70.7782 20.2161 70.9182 20.1087 71.0321 19.9688C71.1461 19.8288 71.2323 19.6595 71.2909 19.4609C71.3528 19.2624 71.3837 19.0394 71.3837 18.792C71.3837 18.5674 71.3528 18.359 71.2909 18.167C71.2291 17.9749 71.1363 17.8073 71.0126 17.6641C70.8922 17.5208 70.744 17.4102 70.5683 17.332C70.3925 17.2507 70.1907 17.21 69.9628 17.21C69.6601 17.21 69.4306 17.2507 69.2743 17.332C69.1213 17.4134 68.9634 17.5241 68.8007 17.6641ZM77.746 16.9268V18.0107C77.746 18.5934 77.6939 19.085 77.5898 19.4854C77.4856 19.8857 77.3358 20.208 77.1405 20.4521C76.9452 20.6963 76.7092 20.8737 76.4325 20.9844C76.1591 21.0918 75.8498 21.1455 75.5048 21.1455C75.2314 21.1455 74.9791 21.1113 74.748 21.043C74.5168 20.9746 74.3085 20.8656 74.123 20.7158C73.9407 20.5628 73.7844 20.3643 73.6542 20.1201C73.524 19.876 73.4247 19.5798 73.3564 19.2314C73.288 18.8831 73.2538 18.4762 73.2538 18.0107V16.9268C73.2538 16.3441 73.3059 15.8558 73.4101 15.4619C73.5175 15.068 73.6689 14.7523 73.8642 14.5146C74.0595 14.2738 74.2939 14.1012 74.5673 13.9971C74.844 13.8929 75.1532 13.8408 75.495 13.8408C75.7717 13.8408 76.0256 13.875 76.2567 13.9434C76.4911 14.0085 76.6995 14.1143 76.8817 14.2607C77.064 14.404 77.2187 14.596 77.3456 14.8369C77.4758 15.0745 77.5751 15.3659 77.6435 15.7109C77.7118 16.056 77.746 16.4613 77.746 16.9268ZM76.8378 18.1572V16.7754C76.8378 16.4564 76.8183 16.1764 76.7792 15.9355C76.7434 15.6914 76.6897 15.4831 76.6181 15.3105C76.5465 15.138 76.4553 14.998 76.3446 14.8906C76.2372 14.7832 76.1119 14.7051 75.9687 14.6562C75.8287 14.6042 75.6708 14.5781 75.495 14.5781C75.2802 14.5781 75.0898 14.6188 74.9237 14.7002C74.7577 14.7783 74.6177 14.9036 74.5038 15.0762C74.3931 15.2487 74.3085 15.4749 74.2499 15.7549C74.1913 16.0348 74.162 16.375 74.162 16.7754V18.1572C74.162 18.4762 74.1799 18.7578 74.2157 19.002C74.2548 19.2461 74.3118 19.4577 74.3866 19.6367C74.4615 19.8125 74.5526 19.9574 74.6601 20.0713C74.7675 20.1852 74.8912 20.2699 75.0312 20.3252C75.1744 20.3773 75.3323 20.4033 75.5048 20.4033C75.7261 20.4033 75.9198 20.361 76.0858 20.2764C76.2519 20.1917 76.3902 20.0599 76.5009 19.8809C76.6148 19.6986 76.6995 19.4658 76.7548 19.1826C76.8101 18.8962 76.8378 18.5544 76.8378 18.1572Z" fill="#333333"/>
<path d="M98.8172 21.3291H98.8953V22.0957H98.8172C98.3387 22.0957 97.9383 22.1738 97.616 22.3301C97.2938 22.4831 97.0382 22.6898 96.8494 22.9502C96.6606 23.2074 96.5239 23.4971 96.4393 23.8193C96.3579 24.1416 96.3172 24.4688 96.3172 24.8008V25.8457C96.3172 26.1615 96.3546 26.4414 96.4295 26.6855C96.5044 26.9264 96.6069 27.1299 96.7371 27.2959C96.8673 27.4619 97.0138 27.5872 97.1766 27.6719C97.3426 27.7565 97.5151 27.7988 97.6941 27.7988C97.9025 27.7988 98.088 27.7598 98.2508 27.6816C98.4135 27.6003 98.5503 27.488 98.6609 27.3447C98.7749 27.1982 98.8611 27.0257 98.9197 26.8271C98.9783 26.6286 99.0076 26.4105 99.0076 26.1729C99.0076 25.9613 98.9816 25.7578 98.9295 25.5625C98.8774 25.3639 98.7977 25.1882 98.6902 25.0352C98.5828 24.8789 98.4477 24.7568 98.285 24.6689C98.1255 24.5778 97.935 24.5322 97.7137 24.5322C97.463 24.5322 97.2287 24.5941 97.0106 24.7178C96.7957 24.8382 96.6183 24.9977 96.4783 25.1963C96.3416 25.3916 96.2635 25.6048 96.244 25.8359L95.7654 25.8311C95.811 25.4665 95.8956 25.1556 96.0193 24.8984C96.1463 24.638 96.3025 24.4264 96.4881 24.2637C96.6769 24.0977 96.8869 23.9772 97.118 23.9023C97.3524 23.8242 97.5997 23.7852 97.8602 23.7852C98.215 23.7852 98.521 23.8519 98.7781 23.9854C99.0353 24.1188 99.2469 24.2979 99.4129 24.5225C99.5789 24.7438 99.701 24.9945 99.7791 25.2744C99.8605 25.5511 99.9012 25.8359 99.9012 26.1289C99.9012 26.4642 99.854 26.7783 99.7596 27.0713C99.6652 27.3643 99.5236 27.6214 99.3348 27.8428C99.1492 28.0641 98.9197 28.2367 98.6463 28.3604C98.3729 28.484 98.0555 28.5459 97.6941 28.5459C97.31 28.5459 96.9747 28.4678 96.6883 28.3115C96.4018 28.152 96.1642 27.9404 95.9754 27.6768C95.7866 27.4131 95.645 27.1201 95.5506 26.7979C95.4562 26.4756 95.409 26.1484 95.409 25.8164V25.3916C95.409 24.8903 95.4594 24.3988 95.5604 23.917C95.6613 23.4352 95.8354 22.999 96.0828 22.6084C96.3335 22.2178 96.6802 21.9069 97.1229 21.6758C97.5656 21.4447 98.1303 21.3291 98.8172 21.3291ZM105.438 24.3271V25.4111C105.438 25.9938 105.386 26.4854 105.282 26.8857C105.178 27.2861 105.028 27.6084 104.833 27.8525C104.638 28.0967 104.402 28.2741 104.125 28.3848C103.851 28.4922 103.542 28.5459 103.197 28.5459C102.924 28.5459 102.671 28.5117 102.44 28.4434C102.209 28.375 102.001 28.266 101.815 28.1162C101.633 27.9632 101.477 27.7646 101.346 27.5205C101.216 27.2764 101.117 26.9801 101.049 26.6318C100.98 26.2835 100.946 25.8766 100.946 25.4111V24.3271C100.946 23.7445 100.998 23.2562 101.102 22.8623C101.21 22.4684 101.361 22.1527 101.556 21.915C101.752 21.6742 101.986 21.5016 102.26 21.3975C102.536 21.2933 102.846 21.2412 103.187 21.2412C103.464 21.2412 103.718 21.2754 103.949 21.3438C104.183 21.4089 104.392 21.5146 104.574 21.6611C104.756 21.8044 104.911 21.9964 105.038 22.2373C105.168 22.4749 105.267 22.7663 105.336 23.1113C105.404 23.4564 105.438 23.8617 105.438 24.3271ZM104.53 25.5576V24.1758C104.53 23.8568 104.511 23.5768 104.471 23.3359C104.436 23.0918 104.382 22.8835 104.31 22.7109C104.239 22.5384 104.148 22.3984 104.037 22.291C103.929 22.1836 103.804 22.1055 103.661 22.0566C103.521 22.0046 103.363 21.9785 103.187 21.9785C102.972 21.9785 102.782 22.0192 102.616 22.1006C102.45 22.1787 102.31 22.304 102.196 22.4766C102.085 22.6491 102.001 22.8753 101.942 23.1553C101.884 23.4352 101.854 23.7754 101.854 24.1758V25.5576C101.854 25.8766 101.872 26.1582 101.908 26.4023C101.947 26.6465 102.004 26.8581 102.079 27.0371C102.154 27.2129 102.245 27.3577 102.352 27.4717C102.46 27.5856 102.583 27.6702 102.723 27.7256C102.867 27.7777 103.025 27.8037 103.197 27.8037C103.418 27.8037 103.612 27.7614 103.778 27.6768C103.944 27.5921 104.082 27.4603 104.193 27.2812C104.307 27.099 104.392 26.8662 104.447 26.583C104.502 26.2965 104.53 25.9548 104.53 25.5576Z" fill="#333333"/>
<path d="M120.217 41.5576V42.0654L117.273 48.667H116.321L119.26 42.2998H115.413V41.5576H120.217ZM125.711 44.5459V45.6299C125.711 46.2126 125.658 46.7041 125.554 47.1045C125.45 47.5049 125.3 47.8271 125.105 48.0713C124.91 48.3154 124.674 48.4928 124.397 48.6035C124.124 48.7109 123.814 48.7646 123.469 48.7646C123.196 48.7646 122.944 48.7305 122.712 48.6621C122.481 48.5938 122.273 48.4847 122.087 48.335C121.905 48.182 121.749 47.9834 121.619 47.7393C121.489 47.4951 121.389 47.1989 121.321 46.8506C121.252 46.5023 121.218 46.0954 121.218 45.6299V44.5459C121.218 43.9632 121.27 43.4749 121.375 43.0811C121.482 42.6872 121.633 42.3714 121.829 42.1338C122.024 41.8929 122.258 41.7204 122.532 41.6162C122.808 41.512 123.118 41.46 123.46 41.46C123.736 41.46 123.99 41.4941 124.221 41.5625C124.456 41.6276 124.664 41.7334 124.846 41.8799C125.029 42.0231 125.183 42.2152 125.31 42.4561C125.44 42.6937 125.54 42.985 125.608 43.3301C125.676 43.6751 125.711 44.0804 125.711 44.5459ZM124.802 45.7764V44.3945C124.802 44.0755 124.783 43.7956 124.744 43.5547C124.708 43.3105 124.654 43.1022 124.583 42.9297C124.511 42.7572 124.42 42.6172 124.309 42.5098C124.202 42.4023 124.076 42.3242 123.933 42.2754C123.793 42.2233 123.635 42.1973 123.46 42.1973C123.245 42.1973 123.054 42.238 122.888 42.3193C122.722 42.3975 122.582 42.5228 122.468 42.6953C122.358 42.8678 122.273 43.0941 122.214 43.374C122.156 43.654 122.127 43.9941 122.127 44.3945V45.7764C122.127 46.0954 122.144 46.377 122.18 46.6211C122.219 46.8652 122.276 47.0768 122.351 47.2559C122.426 47.4316 122.517 47.5765 122.625 47.6904C122.732 47.8044 122.856 47.889 122.996 47.9443C123.139 47.9964 123.297 48.0225 123.469 48.0225C123.691 48.0225 123.884 47.9801 124.05 47.8955C124.216 47.8109 124.355 47.679 124.465 47.5C124.579 47.3177 124.664 47.085 124.719 46.8018C124.775 46.5153 124.802 46.1735 124.802 45.7764Z" fill="#333333"/>
<path d="M127.525 74.3633C127.525 74.7962 127.424 75.1641 127.222 75.4668C127.024 75.7663 126.754 75.9941 126.412 76.1504C126.073 76.3066 125.691 76.3848 125.264 76.3848C124.838 76.3848 124.454 76.3066 124.112 76.1504C123.77 75.9941 123.5 75.7663 123.302 75.4668C123.103 75.1641 123.004 74.7962 123.004 74.3633C123.004 74.0801 123.057 73.8213 123.165 73.5869C123.276 73.3493 123.43 73.1426 123.629 72.9668C123.831 72.791 124.068 72.6559 124.342 72.5615C124.618 72.4639 124.923 72.415 125.255 72.415C125.691 72.415 126.08 72.4997 126.422 72.6689C126.763 72.835 127.032 73.0645 127.227 73.3574C127.426 73.6504 127.525 73.9857 127.525 74.3633ZM126.617 74.3438C126.617 74.0801 126.56 73.8473 126.446 73.6455C126.332 73.4404 126.173 73.2809 125.968 73.167C125.763 73.0531 125.525 72.9961 125.255 72.9961C124.978 72.9961 124.739 73.0531 124.537 73.167C124.338 73.2809 124.184 73.4404 124.073 73.6455C123.962 73.8473 123.907 74.0801 123.907 74.3438C123.907 74.6172 123.961 74.8516 124.068 75.0469C124.179 75.2389 124.335 75.387 124.537 75.4912C124.742 75.5921 124.985 75.6426 125.264 75.6426C125.544 75.6426 125.785 75.5921 125.987 75.4912C126.189 75.387 126.344 75.2389 126.451 75.0469C126.562 74.8516 126.617 74.6172 126.617 74.3438ZM127.359 71.0283C127.359 71.3734 127.268 71.6842 127.086 71.9609C126.903 72.2376 126.654 72.4557 126.339 72.6152C126.023 72.7747 125.665 72.8545 125.264 72.8545C124.858 72.8545 124.495 72.7747 124.176 72.6152C123.86 72.4557 123.612 72.2376 123.433 71.9609C123.254 71.6842 123.165 71.3734 123.165 71.0283C123.165 70.6149 123.254 70.2633 123.433 69.9736C123.616 69.6839 123.865 69.4626 124.18 69.3096C124.496 69.1566 124.856 69.0801 125.26 69.0801C125.666 69.0801 126.028 69.1566 126.344 69.3096C126.659 69.4626 126.907 69.6839 127.086 69.9736C127.268 70.2633 127.359 70.6149 127.359 71.0283ZM126.456 71.043C126.456 70.8053 126.405 70.5954 126.304 70.4131C126.204 70.2308 126.064 70.0876 125.885 69.9834C125.706 69.876 125.497 69.8223 125.26 69.8223C125.022 69.8223 124.814 69.8727 124.635 69.9736C124.459 70.0713 124.32 70.2113 124.22 70.3936C124.122 70.5758 124.073 70.7923 124.073 71.043C124.073 71.2871 124.122 71.5003 124.22 71.6826C124.32 71.8649 124.46 72.0065 124.639 72.1074C124.818 72.2083 125.027 72.2588 125.264 72.2588C125.502 72.2588 125.709 72.2083 125.885 72.1074C126.064 72.0065 126.204 71.8649 126.304 71.6826C126.405 71.5003 126.456 71.2871 126.456 71.043ZM133.131 72.166V73.25C133.131 73.8327 133.079 74.3242 132.974 74.7246C132.87 75.125 132.721 75.4473 132.525 75.6914C132.33 75.9355 132.094 76.113 131.817 76.2236C131.544 76.3311 131.235 76.3848 130.889 76.3848C130.616 76.3848 130.364 76.3506 130.133 76.2822C129.902 76.2139 129.693 76.1048 129.508 75.9551C129.325 75.8021 129.169 75.6035 129.039 75.3594C128.909 75.1152 128.809 74.819 128.741 74.4707C128.673 74.1224 128.638 73.7155 128.638 73.25V72.166C128.638 71.5833 128.691 71.0951 128.795 70.7012C128.902 70.3073 129.054 69.9915 129.249 69.7539C129.444 69.513 129.679 69.3405 129.952 69.2363C130.229 69.1322 130.538 69.0801 130.88 69.0801C131.156 69.0801 131.41 69.1143 131.641 69.1826C131.876 69.2477 132.084 69.3535 132.266 69.5C132.449 69.6432 132.603 69.8353 132.73 70.0762C132.86 70.3138 132.96 70.6051 133.028 70.9502C133.096 71.2952 133.131 71.7005 133.131 72.166ZM132.222 73.3965V72.0146C132.222 71.6956 132.203 71.4157 132.164 71.1748C132.128 70.9307 132.074 70.7223 132.003 70.5498C131.931 70.3773 131.84 70.2373 131.729 70.1299C131.622 70.0225 131.497 69.9443 131.353 69.8955C131.213 69.8434 131.055 69.8174 130.88 69.8174C130.665 69.8174 130.474 69.8581 130.308 69.9395C130.142 70.0176 130.002 70.1429 129.888 70.3154C129.778 70.488 129.693 70.7142 129.635 70.9941C129.576 71.2741 129.547 71.6143 129.547 72.0146V73.3965C129.547 73.7155 129.565 73.9971 129.6 74.2412C129.639 74.4854 129.696 74.6969 129.771 74.876C129.846 75.0518 129.937 75.1966 130.045 75.3105C130.152 75.4245 130.276 75.5091 130.416 75.5645C130.559 75.6165 130.717 75.6426 130.889 75.6426C131.111 75.6426 131.304 75.6003 131.471 75.5156C131.637 75.431 131.775 75.2992 131.886 75.1201C131.999 74.9378 132.084 74.7051 132.139 74.4219C132.195 74.1354 132.222 73.7936 132.222 73.3965Z" fill="#333333"/>
<path d="M116.521 103.149H116.614C117.135 103.149 117.558 103.076 117.883 102.93C118.209 102.783 118.46 102.586 118.635 102.339C118.811 102.091 118.932 101.813 118.997 101.504C119.062 101.191 119.094 100.871 119.094 100.542V99.4531C119.094 99.1309 119.057 98.8444 118.982 98.5938C118.91 98.3431 118.809 98.1331 118.679 97.9639C118.552 97.7946 118.407 97.666 118.245 97.5781C118.082 97.4902 117.909 97.4463 117.727 97.4463C117.519 97.4463 117.332 97.4886 117.166 97.5732C117.003 97.6546 116.864 97.7702 116.751 97.9199C116.64 98.0697 116.555 98.2454 116.497 98.4473C116.438 98.6491 116.409 98.8688 116.409 99.1064C116.409 99.318 116.435 99.5231 116.487 99.7217C116.539 99.9202 116.619 100.099 116.726 100.259C116.834 100.418 116.967 100.545 117.127 100.64C117.289 100.731 117.48 100.776 117.698 100.776C117.9 100.776 118.088 100.737 118.264 100.659C118.443 100.578 118.601 100.469 118.738 100.332C118.878 100.192 118.989 100.034 119.07 99.8584C119.155 99.6826 119.203 99.4987 119.216 99.3066H119.646C119.646 99.5768 119.592 99.8438 119.485 100.107C119.381 100.368 119.234 100.605 119.045 100.82C118.857 101.035 118.635 101.208 118.381 101.338C118.127 101.465 117.851 101.528 117.551 101.528C117.2 101.528 116.895 101.46 116.638 101.323C116.381 101.187 116.169 101.004 116.003 100.776C115.841 100.549 115.719 100.295 115.637 100.015C115.559 99.7314 115.52 99.445 115.52 99.1553C115.52 98.8167 115.567 98.4993 115.662 98.2031C115.756 97.9069 115.896 97.6465 116.082 97.4219C116.267 97.194 116.497 97.0166 116.77 96.8896C117.047 96.7627 117.366 96.6992 117.727 96.6992C118.134 96.6992 118.481 96.7806 118.767 96.9434C119.054 97.1061 119.286 97.3242 119.465 97.5977C119.648 97.8711 119.781 98.1787 119.866 98.5205C119.95 98.8623 119.993 99.2139 119.993 99.5752V99.9023C119.993 100.27 119.968 100.645 119.919 101.025C119.874 101.403 119.784 101.764 119.651 102.109C119.521 102.454 119.33 102.764 119.08 103.037C118.829 103.307 118.502 103.522 118.098 103.682C117.698 103.838 117.203 103.916 116.614 103.916H116.521V103.149ZM125.711 99.7852V100.869C125.711 101.452 125.658 101.943 125.554 102.344C125.45 102.744 125.3 103.066 125.105 103.311C124.91 103.555 124.674 103.732 124.397 103.843C124.124 103.95 123.814 104.004 123.469 104.004C123.196 104.004 122.944 103.97 122.712 103.901C122.481 103.833 122.273 103.724 122.087 103.574C121.905 103.421 121.749 103.223 121.619 102.979C121.489 102.734 121.389 102.438 121.321 102.09C121.252 101.742 121.218 101.335 121.218 100.869V99.7852C121.218 99.2025 121.27 98.7142 121.375 98.3203C121.482 97.9264 121.633 97.6107 121.829 97.373C122.024 97.1322 122.258 96.9596 122.532 96.8555C122.808 96.7513 123.118 96.6992 123.46 96.6992C123.736 96.6992 123.99 96.7334 124.221 96.8018C124.456 96.8669 124.664 96.9727 124.846 97.1191C125.029 97.2624 125.183 97.4544 125.31 97.6953C125.44 97.9329 125.54 98.2243 125.608 98.5693C125.676 98.9144 125.711 99.3197 125.711 99.7852ZM124.802 101.016V99.6338C124.802 99.3148 124.783 99.0348 124.744 98.7939C124.708 98.5498 124.654 98.3415 124.583 98.1689C124.511 97.9964 124.42 97.8564 124.309 97.749C124.202 97.6416 124.076 97.5635 123.933 97.5146C123.793 97.4626 123.635 97.4365 123.46 97.4365C123.245 97.4365 123.054 97.4772 122.888 97.5586C122.722 97.6367 122.582 97.762 122.468 97.9346C122.358 98.1071 122.273 98.3333 122.214 98.6133C122.156 98.8932 122.127 99.2334 122.127 99.6338V101.016C122.127 101.335 122.144 101.616 122.18 101.86C122.219 102.104 122.276 102.316 122.351 102.495C122.426 102.671 122.517 102.816 122.625 102.93C122.732 103.044 122.856 103.128 122.996 103.184C123.139 103.236 123.297 103.262 123.469 103.262C123.691 103.262 123.884 103.219 124.05 103.135C124.216 103.05 124.355 102.918 124.465 102.739C124.579 102.557 124.664 102.324 124.719 102.041C124.775 101.755 124.802 101.413 124.802 101.016Z" fill="#333333"/>
<path d="M94.122 116.977V124.125H93.2187V118.104L91.3974 118.769V117.953L93.9804 116.977H94.122ZM101.241 120.004V121.088C101.241 121.671 101.189 122.162 101.085 122.562C100.981 122.963 100.831 123.285 100.636 123.529C100.44 123.773 100.204 123.951 99.9277 124.062C99.6542 124.169 99.345 124.223 98.9999 124.223C98.7265 124.223 98.4742 124.188 98.2431 124.12C98.012 124.052 97.8036 123.943 97.6181 123.793C97.4358 123.64 97.2795 123.441 97.1493 123.197C97.0191 122.953 96.9198 122.657 96.8515 122.309C96.7831 121.96 96.7489 121.553 96.7489 121.088V120.004C96.7489 119.421 96.801 118.933 96.9052 118.539C97.0126 118.145 97.164 117.829 97.3593 117.592C97.5546 117.351 97.789 117.178 98.0624 117.074C98.3391 116.97 98.6484 116.918 98.9902 116.918C99.2669 116.918 99.5208 116.952 99.7519 117.021C99.9863 117.086 100.195 117.191 100.377 117.338C100.559 117.481 100.714 117.673 100.841 117.914C100.971 118.152 101.07 118.443 101.139 118.788C101.207 119.133 101.241 119.538 101.241 120.004ZM100.333 121.234V119.853C100.333 119.534 100.313 119.254 100.274 119.013C100.239 118.769 100.185 118.56 100.113 118.388C100.042 118.215 99.9504 118.075 99.8398 117.968C99.7323 117.86 99.607 117.782 99.4638 117.733C99.3238 117.681 99.1659 117.655 98.9902 117.655C98.7753 117.655 98.5849 117.696 98.4189 117.777C98.2529 117.855 98.1129 117.981 97.9989 118.153C97.8883 118.326 97.8036 118.552 97.745 118.832C97.6864 119.112 97.6572 119.452 97.6572 119.853V121.234C97.6572 121.553 97.6751 121.835 97.7109 122.079C97.7499 122.323 97.8069 122.535 97.8818 122.714C97.9566 122.89 98.0478 123.035 98.1552 123.148C98.2626 123.262 98.3863 123.347 98.5263 123.402C98.6695 123.454 98.8274 123.48 98.9999 123.48C99.2213 123.48 99.415 123.438 99.581 123.354C99.747 123.269 99.8853 123.137 99.996 122.958C100.11 122.776 100.195 122.543 100.25 122.26C100.305 121.973 100.333 121.632 100.333 121.234ZM106.866 120.004V121.088C106.866 121.671 106.814 122.162 106.71 122.562C106.606 122.963 106.456 123.285 106.261 123.529C106.065 123.773 105.829 123.951 105.553 124.062C105.279 124.169 104.97 124.223 104.625 124.223C104.351 124.223 104.099 124.188 103.868 124.12C103.637 124.052 103.429 123.943 103.243 123.793C103.061 123.64 102.905 123.441 102.774 123.197C102.644 122.953 102.545 122.657 102.476 122.309C102.408 121.96 102.374 121.553 102.374 121.088V120.004C102.374 119.421 102.426 118.933 102.53 118.539C102.638 118.145 102.789 117.829 102.984 117.592C103.18 117.351 103.414 117.178 103.687 117.074C103.964 116.97 104.273 116.918 104.615 116.918C104.892 116.918 105.146 116.952 105.377 117.021C105.611 117.086 105.82 117.191 106.002 117.338C106.184 117.481 106.339 117.673 106.466 117.914C106.596 118.152 106.695 118.443 106.764 118.788C106.832 119.133 106.866 119.538 106.866 120.004ZM105.958 121.234V119.853C105.958 119.534 105.938 119.254 105.899 119.013C105.864 118.769 105.81 118.56 105.738 118.388C105.667 118.215 105.575 118.075 105.465 117.968C105.357 117.86 105.232 117.782 105.089 117.733C104.949 117.681 104.791 117.655 104.615 117.655C104.4 117.655 104.21 117.696 104.044 117.777C103.878 117.855 103.738 117.981 103.624 118.153C103.513 118.326 103.429 118.552 103.37 118.832C103.311 119.112 103.282 119.452 103.282 119.853V121.234C103.282 121.553 103.3 121.835 103.336 122.079C103.375 122.323 103.432 122.535 103.507 122.714C103.582 122.89 103.673 123.035 103.78 123.148C103.888 123.262 104.011 123.347 104.151 123.402C104.295 123.454 104.452 123.48 104.625 123.48C104.846 123.48 105.04 123.438 105.206 123.354C105.372 123.269 105.51 123.137 105.621 122.958C105.735 122.776 105.82 122.543 105.875 122.26C105.93 121.973 105.958 121.632 105.958 121.234Z" fill="#333333"/>
<path fill-rule="evenodd" clip-rule="evenodd" d="M109.772 50.0604L58.1538 47.8916L85.8461 95.7298L109.772 50.0604Z" fill="#114F82"/>
<ellipse cx="71.9999" cy="71.8108" rx="27.6923" ry="27.6194" fill="white" stroke="#2D64B5"/>
</svg>
