<svg width="18" height="18" viewBox="0 0 18 18" fill="none" xmlns="http://www.w3.org/2000/svg">
<g clip-path="url(#clip0_335_9564)">
<path d="M9 16.875C6.91142 16.875 4.90838 16.0453 3.43153 14.5685C1.95468 13.0916 1.125 11.0886 1.125 9C1.125 6.91142 1.95468 4.90838 3.43153 3.43153C4.90838 1.95468 6.91142 1.125 9 1.125C11.0886 1.125 13.0916 1.95468 14.5685 3.43153C16.0453 4.90838 16.875 6.91142 16.875 9C16.875 11.0886 16.0453 13.0916 14.5685 14.5685C13.0916 16.0453 11.0886 16.875 9 16.875ZM9 18C11.3869 18 13.6761 17.0518 15.364 15.364C17.0518 13.6761 18 11.3869 18 9C18 6.61305 17.0518 4.32387 15.364 2.63604C13.6761 0.948212 11.3869 0 9 0C6.61305 0 4.32387 0.948212 2.63604 2.63604C0.948212 4.32387 0 6.61305 0 9C0 11.3869 0.948212 13.6761 2.63604 15.364C4.32387 17.0518 6.61305 18 9 18Z" fill="black"/>
<path d="M4 11.5C4 11.3674 4.06585 11.2402 4.18306 11.1464C4.30027 11.0527 4.45924 11 4.625 11H13.375C13.5408 11 13.6997 11.0527 13.8169 11.1464C13.9342 11.2402 14 11.3674 14 11.5C14 11.6326 13.9342 11.7598 13.8169 11.8536C13.6997 11.9473 13.5408 12 13.375 12H4.625C4.45924 12 4.30027 11.9473 4.18306 11.8536C4.06585 11.7598 4 11.6326 4 11.5ZM4 7.5C4 7.36739 4.06585 7.24021 4.18306 7.14645C4.30027 7.05268 4.45924 7 4.625 7H7.125C7.29076 7 7.44973 7.05268 7.56694 7.14645C7.68415 7.24021 7.75 7.36739 7.75 7.5C7.75 7.63261 7.68415 7.75979 7.56694 7.85355C7.44973 7.94732 7.29076 8 7.125 8H4.625C4.45924 8 4.30027 7.94732 4.18306 7.85355C4.06585 7.75979 4 7.63261 4 7.5ZM10.25 7.5C10.25 7.36739 10.3158 7.24021 10.4331 7.14645C10.5503 7.05268 10.7092 7 10.875 7H13.375C13.5408 7 13.6997 7.05268 13.8169 7.14645C13.9342 7.24021 14 7.36739 14 7.5C14 7.63261 13.9342 7.75979 13.8169 7.85355C13.6997 7.94732 13.5408 8 13.375 8H10.875C10.7092 8 10.5503 7.94732 10.4331 7.85355C10.3158 7.75979 10.25 7.63261 10.25 7.5Z" fill="black"/>
</g>
<defs>
<clipPath id="clip0_335_9564">
<rect width="18" height="18" fill="white"/>
</clipPath>
</defs>
</svg>
