<svg width="80" height="80" viewBox="0 0 80 80" fill="none" xmlns="http://www.w3.org/2000/svg">
<path d="M16 40.992V46.2C16 58.2 20.8 63 32.8 63H47.2C59.2 63 64 58.2 64 46.2V31.8C64 19.8 59.2 15 47.2 15H32.8C20.8 15 16 19.8 16 31.8" fill="none" stroke-width="3" stroke-linecap="round" stroke-linejoin="round"/>
<path d="M34 38H27.0079C25.3456 38 24 39.3035 24 40.9137V54H34V38Z" fill="none" stroke-width="2" stroke-miterlimit="10" stroke-linecap="round" stroke-linejoin="round"/>
<path d="M42.4222 26H37.6092C35.6145 26 34 27.3223 34 28.9556V54H46V28.9556C46 27.3223 44.4169 26 42.4222 26Z" fill="none" stroke-width="2" stroke-miterlimit="10" stroke-linecap="round" stroke-linejoin="round"/>
<path d="M52.9921 42H46V54H56V45.0066C55.9736 43.3451 54.628 42 52.9921 42Z" fill="none" stroke-width="2" stroke-miterlimit="10" stroke-linecap="round" stroke-linejoin="round"/>
<path d="M51.5833 39.1667C50.1592 39.1667 49 38.0075 49 36.5833C49 35.1592 50.1592 34 51.5833 34C53.0075 34 54.1667 35.1592 54.1667 36.5833C54.1556 38.0075 53.0075 39.1667 51.5833 39.1667ZM51.5833 35.656C51.0755 35.656 50.656 36.0755 50.656 36.5833C50.656 37.0912 51.0755 37.5107 51.5833 37.5107C52.0912 37.5107 52.5107 37.0912 52.5107 36.5833C52.4996 36.0755 52.0912 35.656 51.5833 35.656Z" stroke="none"/>
</svg>
