<svg width="80" height="80" viewBox="0 0 80 80" fill="none" xmlns="http://www.w3.org/2000/svg">
<path d="M40 32.25V42.5833" fill="none" stroke-width="3.5" stroke-linecap="round" stroke-linejoin="round"/>
<path d="M62.2535 42.4924L65.1159 47.2378C69.6525 54.8058 65.7099 61 56.3666 61H40.0023H23.638C14.2677 61 10.3521 54.8058 14.8888 47.2378L23.314 33.2008L31.2531 20.0132C36.0597 11.9956 43.9448 11.9956 48.7515 20.0132C48.7515 20.0132 53.5902 28.0661 56.6907 33.226" fill="none" stroke-width="3" stroke-linecap="round" stroke-linejoin="round"/>
<path d="M53.1872 42.5804L54.8835 45.5084C57.5719 50.178 55.2355 54 49.6987 54H40.0013H30.304C24.7512 54 22.4309 50.178 25.1193 45.5084L30.112 36.8473L34.8167 28.7103C37.665 23.7632 42.3377 23.7632 45.1861 28.7103C45.1861 28.7103 48.0535 33.6791 49.8908 36.8629" fill="none" stroke-width="2" stroke-linecap="round" stroke-linejoin="round"/>
<path d="M40 47.75H40.0233" fill="none" stroke-width="4" stroke-linecap="round" stroke-linejoin="round"/>
</svg>
