<svg width="80" height="80" viewBox="0 0 80 80" fill="none" xmlns="http://www.w3.org/2000/svg">
<path fill-rule="evenodd" clip-rule="evenodd" d="M12.8986 12.1219C11.2417 12.1219 9.89856 13.4651 9.89856 15.1219V31.7029C9.89856 33.3597 11.2417 34.7029 12.8986 34.7029H13.4163V36.9525C13.4163 37.5048 13.864 37.9525 14.4163 37.9525C14.9686 37.9525 15.4163 37.5048 15.4163 36.9525V34.7029H32.7639V36.9525C32.7639 37.5048 33.2117 37.9525 33.7639 37.9525C34.3162 37.9525 34.7639 37.5048 34.7639 36.9525V34.7029H35.2817C36.9386 34.7029 38.2817 33.3597 38.2817 31.7029V15.1219C38.2817 13.4651 36.9386 12.1219 35.2817 12.1219H12.8986ZM33.7667 32.7029H35.2817C35.834 32.7029 36.2817 32.2552 36.2817 31.7029V30.6616L17.9341 30.6616C17.5198 30.6616 17.1841 30.3258 17.1841 29.9116V17.9964V14.2051C17.1841 14.177 17.1856 14.1492 17.1886 14.1219H12.8986C12.3463 14.1219 11.8986 14.5696 11.8986 15.1219V31.7029C11.8986 32.2552 12.3463 32.7029 12.8986 32.7029H14.4135L14.4163 32.7029L14.4191 32.7029H33.7612L33.7639 32.7029L33.7667 32.7029ZM21.3915 18.7464H18.6841V19.6628H21.3915V18.7464ZM18.6841 29.1616V20.6628H21.4502C21.6308 21.2884 22.2077 21.746 22.8915 21.746H23.9362C24.1482 22.001 24.4433 22.1847 24.7799 22.2555C24.9421 22.7576 25.4134 23.1208 25.9696 23.1208H26.0844L26.4834 25.0869C26.5071 25.2035 26.6095 25.2872 26.7284 25.2872H28.4873C28.6062 25.2872 28.7087 25.2035 28.7323 25.0869L29.1314 23.1208H29.2462C29.8023 23.1208 30.2737 22.7576 30.4359 22.2555C31.1154 22.1125 31.6256 21.5096 31.6256 20.7876V20.6628H34.1434V29.1616H32.8845V28.2868H29.3668V29.1616H28.4873V28.2868H24.0901V29.1616H23.2107V28.2868H19.6929V29.1616H18.6841ZM30.6256 20.1628L30.6256 20.1588V17.3715C30.6256 17.0954 30.4018 16.8715 30.1256 16.8715H25.0901C24.814 16.8715 24.5901 17.0954 24.5901 17.3715V17.4504L24.5901 17.4547L24.5901 17.459V19.0796V20.7876C24.5901 21.0637 24.814 21.2876 25.0901 21.2876H30.1256C30.4018 21.2876 30.6256 21.0637 30.6256 20.7876V20.1667L30.6256 20.1628ZM34.1434 19.6628H31.6256V18.7464H34.1434V19.6628ZM34.1434 17.2464V14.1219H18.6795C18.6825 14.1492 18.6841 14.177 18.6841 14.2051V17.2464H21.7145C21.7977 17.2464 21.8777 17.2599 21.9525 17.2849C22.2096 17.0783 22.5361 16.9547 22.8915 16.9547H23.6488C23.8294 16.3291 24.4063 15.8715 25.0901 15.8715H30.1256C30.9119 15.8715 31.5569 16.4765 31.6205 17.2464H34.1434ZM35.1434 29.1616H36.2817V15.1219C36.2817 14.5696 35.834 14.1219 35.2817 14.1219H35.1434V29.1616ZM23.5901 20.746V19.0796V17.9547H22.8915C22.6154 17.9547 22.3915 18.1786 22.3915 18.4547V20.246C22.3915 20.5221 22.6154 20.746 22.8915 20.746H23.5901ZM28.6212 23.1208L28.283 24.7872H26.9328L26.5946 23.1208H28.6212ZM28.9222 22.6208H26.2935H26.2844H25.9696C25.7096 22.6208 25.4805 22.4885 25.346 22.2876H29.8698C29.7353 22.4885 29.5062 22.6208 29.2462 22.6208H28.9313H28.9222ZM14.2957 23.8708H13.6574V28.37H14.2957V23.8708ZM13.6574 22.8708H12.6574V23.8708V28.37V29.37H13.6574H14.2957H15.2957V28.37V23.8708V22.8708H14.2957H13.6574Z" stroke="none"/>
<path fill-rule="evenodd" clip-rule="evenodd" d="M13 43C11.3431 43 10 44.3431 10 46V62.5238C10 64.1807 11.3431 65.5238 13 65.5238H13.5178V67.7644C13.5178 68.3167 13.9655 68.7644 14.5178 68.7644C15.07 68.7644 15.5178 68.3167 15.5178 67.7644V65.5238H32.8654V67.7644C32.8654 68.3167 33.3131 68.7644 33.8654 68.7644C34.4177 68.7644 34.8654 68.3167 34.8654 67.7644V65.5238H35.3832C37.04 65.5238 38.3832 64.1807 38.3832 62.5238V46C38.3832 44.3431 37.04 43 35.3832 43H13ZM33.871 63.5238H35.3832C35.9354 63.5238 36.3832 63.0761 36.3832 62.5238V61.4931H18.0355C17.6213 61.4931 17.2855 61.1573 17.2855 60.7431V48.8609V45.0802C17.2855 45.0531 17.2869 45.0263 17.2897 45H13C12.4477 45 12 45.4477 12 46V62.5238C12 63.0761 12.4477 63.5238 13 63.5238H14.5122L14.5178 63.5238L14.5233 63.5238H33.8598L33.8654 63.5238L33.871 63.5238ZM21.493 49.6109H18.7855V50.5213H21.493V49.6109ZM18.7855 59.9931V51.5213H21.5525C21.7341 52.1454 22.3103 52.6015 22.993 52.6015H24.0389C24.2511 52.8561 24.546 53.0392 24.8824 53.1097C25.0456 53.6102 25.5161 53.9718 26.071 53.9718H26.1859L26.5849 55.9321C26.6086 56.0486 26.711 56.1322 26.8299 56.1322H28.5888C28.7076 56.1322 28.81 56.0486 28.8337 55.9321L29.2327 53.9718H29.3476C29.9026 53.9718 30.3731 53.6102 30.5363 53.1097C31.2164 52.9672 31.7271 52.3641 31.7271 51.6416V51.5213H34.2448V59.9931H32.986V59.1228H29.4682V59.9931H28.5888V59.1228H24.1916V59.9931H23.3121V59.1228H19.7944V59.9931H18.7855ZM30.7271 51.0213L30.7271 51.0174V48.2406C30.7271 47.9645 30.5032 47.7406 30.2271 47.7406H25.1916C24.9154 47.7406 24.6916 47.9645 24.6916 48.2406V48.3165L24.6916 48.3208L24.6916 48.3251V49.9411V51.6416C24.6916 51.9178 24.9154 52.1416 25.1916 52.1416H30.2271C30.5032 52.1416 30.7271 51.9178 30.7271 51.6416V51.0253L30.7271 51.0213ZM34.2448 50.5213H31.7271V49.6109H34.2448V50.5213ZM34.2448 48.1109V45H18.7813C18.7841 45.0263 18.7855 45.0531 18.7855 45.0802V48.1109H21.8159C21.8996 48.1109 21.9801 48.1246 22.0553 48.1499C22.3121 47.944 22.6382 47.8208 22.993 47.8208H23.7511C23.9327 47.1967 24.5089 46.7406 25.1916 46.7406H30.2271C31.0118 46.7406 31.6558 47.3432 31.7215 48.1109H34.2448ZM35.2448 59.9931H36.3832V46C36.3832 45.4477 35.9354 45 35.3832 45H35.2448V59.9931ZM23.6916 51.6015V49.9411V48.8208H22.993C22.7168 48.8208 22.493 49.0447 22.493 49.3208V51.1015C22.493 51.3777 22.7168 51.6015 22.993 51.6015H23.6916ZM28.7225 53.9718L28.3845 55.6322H27.0341L26.6962 53.9718H28.7225ZM29.0245 53.4718H26.3942H26.3867H26.071C25.8123 53.4718 25.5843 53.3409 25.4494 53.1416H29.9692C29.8344 53.3409 29.6063 53.4718 29.3476 53.4718H29.032H29.0245ZM14.3972 54.7218H13.7589V59.203H14.3972V54.7218ZM13.7589 53.7218H12.7589V54.7218V59.203V60.203H13.7589H14.3972H15.3972V59.203V54.7218V53.7218H14.3972H13.7589Z" stroke="none"/>
<path fill-rule="evenodd" clip-rule="evenodd" d="M45 43.1874C43.3431 43.1874 42 44.5305 42 46.1874V62.0276C42 63.6845 43.3431 65.0276 45 65.0276H45.5178V67.1603C45.5178 67.7125 45.9655 68.1603 46.5178 68.1603C47.07 68.1603 47.5178 67.7125 47.5178 67.1603V65.0276H64.8654V67.1603C64.8654 67.7125 65.3131 68.1603 65.8654 68.1603C66.4177 68.1603 66.8654 67.7125 66.8654 67.1603V65.0276H67.3832C69.04 65.0276 70.3832 63.6845 70.3832 62.0276V46.1874C70.3832 44.5305 69.04 43.1874 67.3832 43.1874H45ZM65.8693 63.0276H67.3832C67.9354 63.0276 68.3832 62.5799 68.3832 62.0276V61.1228L50.0355 61.1228C49.6213 61.1228 49.2855 60.787 49.2855 60.3728V48.8864V45.2316C49.2855 45.2167 49.2859 45.202 49.2868 45.1874H45C44.4477 45.1874 44 45.6351 44 46.1874V62.0276C44 62.5799 44.4477 63.0276 45 63.0276H46.5138L46.5178 63.0276L46.5217 63.0276H65.8614L65.8654 63.0276L65.8693 63.0276ZM53.493 49.6364H50.7855V50.4748H53.493V49.6364ZM50.7855 59.6228V51.4748H53.5532L53.5635 51.4747C53.7563 52.0804 54.3234 52.519 54.993 52.519H56.0541C56.2679 52.7675 56.5618 52.9452 56.8957 53.012C57.0701 53.4923 57.5305 53.8354 58.071 53.8354H58.1873L58.5853 55.7253C58.6096 55.841 58.7117 55.9238 58.8299 55.9238H60.5888C60.707 55.9238 60.809 55.841 60.8334 55.7253L61.2313 53.8354H61.3476C61.8882 53.8354 62.3486 53.4923 62.5229 53.012C63.2097 52.8746 63.7271 52.2683 63.7271 51.5412V51.4748H66.2448V59.6228H64.986V58.8065H61.4682V59.6228H60.5888V58.8065H56.1916V59.6228H55.3121V58.8065H51.7944V59.6228H50.7855ZM62.7271 50.9748L62.7271 50.9709V48.3201C62.7271 48.0439 62.5032 47.8201 62.2271 47.8201H57.1916C56.9154 47.8201 56.6916 48.0439 56.6916 48.3201V48.36L56.6916 48.3643L56.6916 48.3686V49.9306V51.5412C56.6916 51.8173 56.9154 52.0412 57.1916 52.0412H62.2271C62.5032 52.0412 62.7271 51.8173 62.7271 51.5412V50.9788L62.7271 50.9748ZM66.2448 50.4748H63.7271V49.6364H66.2448V50.4748ZM66.2448 48.1364V45.1874H50.7842C50.7851 45.202 50.7855 45.2167 50.7855 45.2316V48.1364H53.8159C53.9055 48.1364 53.9914 48.1521 54.0711 48.1809C54.3254 47.9825 54.6454 47.8643 54.993 47.8643H55.7621C55.955 47.2587 56.522 46.8201 57.1916 46.8201H62.2271C62.9933 46.8201 63.6254 47.3946 63.7159 48.1364H66.2448ZM67.2448 59.6228H68.3832V46.1874C68.3832 45.6351 67.9354 45.1874 67.3832 45.1874H67.2448V59.6228ZM55.6916 51.519V49.9306V48.8643H54.993C54.7168 48.8643 54.493 49.0881 54.493 49.3643V51.019C54.493 51.2952 54.7168 51.519 54.993 51.519H55.6916ZM60.7204 53.8354L60.3859 55.4238H59.0327L58.6983 53.8354H60.7204ZM61.0233 53.3354H58.3954H58.3855H58.071C57.8282 53.3354 57.6124 53.22 57.4753 53.0412H61.9433C61.8062 53.22 61.5904 53.3354 61.3476 53.3354H61.0332H61.0233ZM46.3972 54.5854H45.7589V58.8507H46.3972V54.5854ZM45.7589 53.5854H44.7589V54.5854V58.8507V59.8507H45.7589H46.3972H47.3972V58.8507V54.5854V53.5854H46.3972H45.7589Z" stroke="none"/>
<path fill-rule="evenodd" clip-rule="evenodd" d="M42 15C42 13.3431 43.3431 12 45 12H67.3832C69.04 12 70.3832 13.3431 70.3832 15V31.4975C70.3832 33.1543 69.04 34.4975 67.3832 34.4975H66.8654V36.7339C66.8654 37.2862 66.4177 37.7339 65.8654 37.7339C65.3131 37.7339 64.8654 37.2862 64.8654 36.7339V34.4975H47.5178V36.7339C47.5178 37.2862 47.07 37.7339 46.5178 37.7339C45.9655 37.7339 45.5178 37.2862 45.5178 36.7339V34.4975H45C43.3431 34.4975 42 33.1543 42 31.4975V15ZM67.3832 32.4975H65.8702L65.8654 32.4975L65.8606 32.4975H46.5226L46.5178 32.4975L46.5129 32.4975H45C44.4477 32.4975 44 32.0498 44 31.4975V15C44 14.4477 44.4477 14 45 14H49.2896C49.2869 14.0259 49.2855 14.0522 49.2855 14.0788V17.8547V29.7216C49.2855 30.1358 49.6213 30.4716 50.0355 30.4716L68.3832 30.4716V31.4975C68.3832 32.0498 67.9354 32.4975 67.3832 32.4975ZM53.5 16.7814V17.1047H50.7855V14.0788C50.7855 14.0522 50.7841 14.0259 50.7814 14H66.2448V17.1047H63.6668C63.6066 17.1047 63.5481 17.1118 63.492 17.1252C63.4138 16.3702 62.7757 15.7814 62 15.7814H54.5C53.9477 15.7814 53.5 16.2291 53.5 16.7814ZM50.7855 18.6047H53.5V19.5123H50.7855V18.6047ZM53.5532 20.5123C53.5973 20.5123 53.6401 20.5066 53.6808 20.4959C53.9347 20.9638 54.4303 21.2814 55 21.2814C55 21.8366 55.3016 22.3214 55.75 22.5807V24.2814V24.5314H56H57H57.1545L57.2236 24.3932L57.6545 23.5314H59.3455L59.7764 24.3932L59.8455 24.5314H60H61H61.25V24.2814V22.5807C61.6984 22.3214 62 21.8366 62 21.2814C62.5631 21.2814 63.0537 20.9712 63.3102 20.5123H66.2448V28.9716H64.986V28.1034H61.4682V28.9716H60.5888V28.1034H56.1916V28.9716H55.3121V28.1034H51.7944V28.9716H50.7855V20.5123H53.5532ZM61.5 20.2814H62C62.2761 20.2814 62.5 20.0575 62.5 19.7814V17.2814C62.5 17.0053 62.2761 16.7814 62 16.7814H54.5V19.7814C54.5 20.0575 54.7239 20.2814 55 20.2814H61.5ZM61 21.2814C61 21.5575 60.7761 21.7814 60.5 21.7814H56.5C56.2239 21.7814 56 21.5575 56 21.2814H61ZM60.75 22.7607C60.6687 22.7743 60.5852 22.7814 60.5 22.7814H56.5C56.4148 22.7814 56.3313 22.7743 56.25 22.7607V24.0314H56.8455L57.2764 23.1696L57.3455 23.0314H57.5H59.5H59.6545L59.7236 23.1696L60.1545 24.0314H60.75V22.7607ZM66.2448 19.5123H63.5V18.586C63.5536 18.5982 63.6095 18.6047 63.6668 18.6047H66.2448V19.5123ZM68.3832 28.9716H67.2448V14H67.3832C67.9354 14 68.3832 14.4477 68.3832 15V28.9716ZM45.7589 23.7093H46.3972V28.1822H45.7589V23.7093ZM44.7589 22.7093H45.7589H46.3972H47.3972V23.7093V28.1822V29.1822H46.3972H45.7589H44.7589V28.1822V23.7093V22.7093Z" stroke="none"/>
</svg>
