<svg width="80" height="80" viewBox="0 0 80 80" fill="none" xmlns="http://www.w3.org/2000/svg">
<path d="M33.35 53.1613H45.65C55.9 53.1613 60 49.5419 60 40.4935V29.6355C60 20.5871 55.9 16.9677 45.65 16.9677H33.35C23.1 16.9677 19 20.5871 19 29.6355V40.4935C19 49.5419 23.1 53.1613 33.35 53.1613Z" fill="none" stroke-width="3" stroke-linecap="round" stroke-linejoin="round"/>
<path d="M20 45H53" fill="none" stroke-linecap="round" stroke-linejoin="round"/>
<path d="M55 45H57" fill="none" stroke-linecap="round" stroke-linejoin="round"/>
<path d="M25 35.5V35.7C25 40.2 27.9 42 35.15 42H43.85C51.1 42 54 40.2 54 35.7V30.3C54 25.8 51.1 24 43.85 24H36.6" fill="none" stroke-width="1.5" stroke-linecap="round" stroke-linejoin="round"/>
<path d="M28 16.9677V11.4839" fill="none" stroke-width="2" stroke-linecap="round" stroke-linejoin="round"/>
<path d="M39 16.9677V11.4839" fill="none" stroke-width="2" stroke-linecap="round" stroke-linejoin="round"/>
<path d="M51 16.9677V11.4839" fill="none" stroke-width="2" stroke-linecap="round" stroke-linejoin="round"/>
<path d="M28 53.1613L30 59H48.5L51 53.1613" fill="none" stroke-width="3" stroke-linecap="round" stroke-linejoin="round"/>
<path d="M31.5 32C30.1218 32 29 30.8782 29 29.5C29 28.1218 30.1218 27 31.5 27C32.8782 27 34 28.1218 34 29.5C33.9893 30.8782 32.8782 32 31.5 32ZM31.5 28.6026C31.0085 28.6026 30.6026 29.0085 30.6026 29.5C30.6026 29.9915 31.0085 30.3974 31.5 30.3974C31.9914 30.3974 32.3974 29.9915 32.3974 29.5C32.3867 29.0085 31.9914 28.6026 31.5 28.6026Z" stroke="none"/>
<path d="M34.1594 39C33.2808 39 32.4178 38.5205 31.9472 37.6606L31.8373 37.4787C31.6647 37.1646 31.5235 37.0819 31.4922 37.0653C31.4765 37.0653 31.3196 37.1646 31.147 37.4787L31.0528 37.6441C30.3311 38.9504 28.7465 39.3803 27.5384 38.6197L26.1263 37.7598C25.4831 37.3795 25.0281 36.7512 24.8398 35.9905C24.6515 35.2464 24.7457 34.4527 25.1065 33.7913C25.2791 33.4771 25.2791 33.2952 25.2634 33.2622C25.2477 33.2456 25.1065 33.1629 24.7614 33.1629C23.2395 33.1629 22 31.8566 22 30.2692V28.7314C22 27.1275 23.2395 25.8377 24.7457 25.8377C25.0908 25.8377 25.232 25.7385 25.2634 25.7219C25.2634 25.7054 25.2634 25.5235 25.0908 25.2093C24.73 24.5314 24.6201 23.7542 24.8241 23.0101C25.0124 22.266 25.4674 21.6376 26.1107 21.2408L27.5384 20.3644C28.7308 19.6203 30.3154 20.0502 31.0215 21.34L31.1156 21.5219C31.2882 21.8361 31.4294 21.9187 31.4608 21.9353C31.4765 21.9353 31.6334 21.8361 31.8059 21.5219L31.9001 21.3565C32.6375 20.0502 34.2064 19.6203 35.4145 20.3809L36.8737 21.2243C37.5169 21.6046 37.9719 22.2329 38.1602 22.9936C38.3485 23.7377 38.2543 24.5314 37.8935 25.1928C37.7209 25.507 37.7209 25.6889 37.7366 25.7219C37.7523 25.7385 37.8935 25.8211 38.2386 25.8211C39.7605 25.8211 41 27.1275 41 28.7149V30.2527C41 31.8566 39.7605 33.1464 38.2543 33.1464C37.9092 33.1464 37.768 33.2456 37.7366 33.2622C37.7366 33.2787 37.7366 33.4606 37.9092 33.7748C38.27 34.4527 38.3799 35.2299 38.1759 35.974C37.9876 36.7181 37.5326 37.3464 36.8893 37.7433L35.4616 38.6197C35.038 38.8677 34.5987 39 34.1594 39ZM31.5078 34.585C32.4492 34.585 33.3121 35.1803 33.8926 36.2386L33.9868 36.4205C34.0339 36.5031 34.1594 36.5527 34.2535 36.4866L35.6969 35.6102C35.8225 35.5441 35.8695 35.4118 35.8852 35.3456C35.9009 35.2795 35.9166 35.1637 35.8538 35.0315C35.2733 33.9897 35.2263 32.8984 35.6969 32.0385C36.1676 31.1787 37.0933 30.6826 38.2386 30.6826C38.4583 30.6826 38.6466 30.4842 38.6466 30.2692V28.7314C38.6466 28.4999 38.4583 28.318 38.2543 28.318C37.109 28.318 36.1676 27.8219 35.7126 26.9621C35.2419 26.1022 35.3047 25.0109 35.8695 23.9692C35.948 23.8369 35.9323 23.7046 35.9009 23.655C35.8852 23.5888 35.8381 23.4731 35.7126 23.3904L34.2849 22.514C34.1751 22.4479 34.0495 22.4975 33.9868 22.5967L33.9083 22.7455C33.3278 23.8038 32.4649 24.3991 31.5235 24.3991C30.5822 24.3991 29.7192 23.8038 29.1387 22.7455L29.0446 22.5802C28.9975 22.481 28.8563 22.4479 28.7779 22.4975L27.3344 23.3739C27.2089 23.44 27.1618 23.5723 27.1462 23.6384C27.1305 23.7046 27.1148 23.8203 27.1775 23.9526C27.7581 24.9944 27.8051 26.0857 27.3344 26.9456C26.8637 27.8054 25.9381 28.3015 24.7927 28.3015C24.5731 28.3015 24.3848 28.4999 24.3848 28.7149V30.2527C24.3848 30.4842 24.5731 30.6661 24.777 30.6661C25.9224 30.6661 26.8637 31.1621 27.3187 32.022C27.7894 32.8818 27.7267 33.9732 27.1618 35.0149C27.0991 35.1472 27.1148 35.263 27.1305 35.3291C27.1462 35.3952 27.1932 35.511 27.3187 35.5937L28.7465 36.4701C28.8563 36.5362 28.9818 36.4866 29.0446 36.3874L29.123 36.222C29.6879 35.1803 30.5665 34.585 31.5078 34.585Z" stroke="none"/>
<path d="M22 10.4839C21.4477 10.4839 21 10.9316 21 11.4839C21 12.0361 21.4477 12.4839 22 12.4839V10.4839ZM57 12.4839C57.5523 12.4839 58 12.0361 58 11.4839C58 10.9316 57.5523 10.4839 57 10.4839V12.4839ZM22 12.4839H57V10.4839H22V12.4839Z" stroke="none"/>
<path d="M35 66.4L35 68.5M35 66.4L43 64M35 66.4L35 64.5M35 60L35 62.5M35 70.6V69.2L35 68.5M35 70.6L35 71.5L36.5 72H37.5M35 70.6L43 68M43 68V66M43 68V70M35 68.5L43 66M43 66V64M43 64V62M35 64.5L43 62M35 64.5V62.5M43 62V60L35 62.5M37.5 72L43 73.5V70M37.5 72L43 70" fill="none" stroke-linecap="round" stroke-linejoin="round"/>
<path d="M40 52V49" fill="none" stroke-width="2" stroke-linecap="round" stroke-linejoin="round"/>
</svg>
