<svg width="80" height="80" viewBox="0 0 80 80" fill="none" xmlns="http://www.w3.org/2000/svg">
<path fill-rule="evenodd" clip-rule="evenodd" d="M48.5834 40C48.5834 39.4477 48.1357 39 47.5834 39C47.0311 39 46.5834 39.4477 46.5834 40V40.6164C44.6337 40.9221 43.0476 41.5987 41.8648 42.7815C40.1511 44.4952 39.5 47.0556 39.5 50.3418V55.2251V57.9919C39.5 61.2781 40.1511 63.8386 41.8648 65.5522C43.5785 67.2659 46.1389 67.917 49.4251 67.917H57.0752C60.3614 67.917 62.9219 67.2659 64.6355 65.5522C66.3492 63.8386 67.0003 61.2781 67.0003 57.9919V50.3418C67.0003 47.0556 66.3492 44.4952 64.6355 42.7815C63.4528 41.5987 61.8666 40.9221 59.9169 40.6164V40C59.9169 39.4477 59.4692 39 58.9169 39C58.3646 39 57.9169 39.4477 57.9169 40V40.4318C57.6419 40.4216 57.3613 40.4167 57.0752 40.4167H54.2502V40C54.2502 39.4477 53.8024 39 53.2502 39C52.6979 39 52.2502 39.4477 52.2502 40V40.4167H49.4251C49.139 40.4167 48.8584 40.4216 48.5834 40.4318V40ZM46.5834 42.6449V44.2501C46.5834 44.8023 47.0311 45.2501 47.5834 45.2501C48.1357 45.2501 48.5834 44.8023 48.5834 44.2501V42.4332C48.8537 42.4222 49.1341 42.4167 49.4251 42.4167H52.2502V44.2501C52.2502 44.8023 52.6979 45.2501 53.2502 45.2501C53.8024 45.2501 54.2502 44.8023 54.2502 44.2501V42.4167H57.0752C57.3662 42.4167 57.6466 42.4222 57.9169 42.4332V44.2501C57.9169 44.8023 58.3646 45.2501 58.9169 45.2501C59.4692 45.2501 59.9169 44.8023 59.9169 44.2501V42.6449C61.4115 42.9222 62.4731 43.4475 63.2213 44.1957C64.3764 45.3508 65.0003 47.2529 65.0003 50.3418V57.9919C65.0003 61.0808 64.3764 62.9829 63.2213 64.138C62.0662 65.2931 60.1641 65.917 57.0752 65.917H49.4251C46.3362 65.917 44.4341 65.2931 43.279 64.138C42.1239 62.9829 41.5 61.0808 41.5 57.9919V55.2251V50.3418C41.5 47.2529 42.1239 45.3508 43.279 44.1957C44.0272 43.4475 45.0888 42.9222 46.5834 42.6449ZM47.0808 55.4464C46.2998 55.4464 45.6641 54.8107 45.6641 54.0297C45.6641 53.2488 46.2998 52.6131 47.0808 52.6131C47.8617 52.6131 48.4974 53.2488 48.4974 54.0297C48.4914 54.8107 47.8617 55.4464 47.0808 55.4464ZM47.0808 53.5212C46.8023 53.5212 46.5722 53.7513 46.5722 54.0297C46.5722 54.3082 46.8023 54.5383 47.0808 54.5383C47.3592 54.5383 47.5893 54.3082 47.5893 54.0297C47.5833 53.7513 47.3592 53.5212 47.0808 53.5212ZM47.2808 57.6806C47.4913 58.0653 47.8774 58.2798 48.2705 58.2798C48.467 58.2798 48.6635 58.2206 48.853 58.1097L49.4918 57.7176C49.7796 57.5401 49.9831 57.259 50.0674 56.9261C50.1586 56.5932 50.1095 56.2455 49.948 55.9422C49.8708 55.8016 49.8708 55.7203 49.8708 55.7129L49.8753 55.7104C49.8958 55.6985 49.9606 55.6611 50.1024 55.6611C50.7763 55.6611 51.3308 55.0841 51.3308 54.3665V53.6785C51.3308 52.9684 50.7763 52.3839 50.0954 52.3839C49.941 52.3839 49.8778 52.347 49.8708 52.3396C49.8638 52.3248 49.8638 52.2434 49.941 52.1028C50.1024 51.8069 50.1446 51.4518 50.0603 51.119C49.9761 50.7787 49.7725 50.4976 49.4848 50.3274L48.832 49.9501C48.2915 49.6098 47.5896 49.8022 47.2597 50.3866L47.2176 50.4606C47.1404 50.6011 47.0702 50.6455 47.0632 50.6455C47.0491 50.6381 46.986 50.6011 46.9088 50.4606L46.8666 50.3792C46.5508 49.8022 45.8419 49.6098 45.3084 49.9427L44.6697 50.3348C44.3819 50.5124 44.1783 50.7935 44.0941 51.1264C44.0029 51.4592 44.052 51.8069 44.2134 52.1102C44.2906 52.2508 44.2906 52.3322 44.2906 52.3396L44.2862 52.3421C44.2657 52.3539 44.2008 52.3913 44.059 52.3913C43.3852 52.3913 42.8307 52.9684 42.8307 53.6859V54.3739C42.8307 55.0841 43.3852 55.6685 44.066 55.6685C44.2205 55.6685 44.2836 55.7055 44.2906 55.7129C44.2977 55.7277 44.2977 55.809 44.2205 55.9496C44.059 56.2455 44.0169 56.6006 44.1011 56.9335C44.1854 57.2738 44.3889 57.5549 44.6767 57.725L45.3084 58.1097C45.8489 58.45 46.5578 58.2576 46.8807 57.6732L46.9228 57.5992C47 57.4587 47.0702 57.4143 47.0772 57.4143C47.0913 57.4217 47.1544 57.4587 47.2316 57.5992L47.2808 57.6806ZM48.1511 57.0444C47.8914 56.571 47.5054 56.3047 47.0842 56.3047C46.6631 56.3047 46.27 56.571 46.0173 57.037L45.9822 57.111C45.9542 57.1554 45.898 57.1776 45.8489 57.148L45.2101 56.7559C45.154 56.7189 45.1329 56.6672 45.1259 56.6376C45.1189 56.608 45.1119 56.5562 45.14 56.497C45.3926 56.031 45.4207 55.5427 45.2101 55.158C45.0066 54.7734 44.5854 54.5514 44.0731 54.5514C43.9818 54.5514 43.8976 54.4701 43.8976 54.3665V53.6785C43.8976 53.5824 43.9818 53.4936 44.0801 53.4936C44.5925 53.4936 45.0066 53.2717 45.2172 52.887C45.4277 52.5023 45.4067 52.0141 45.147 51.548C45.1189 51.4888 45.1259 51.4371 45.1329 51.4075C45.14 51.3779 45.161 51.3187 45.2172 51.2891L45.8629 50.897C45.898 50.8748 45.9612 50.8896 45.9822 50.934L46.0244 51.008C46.2841 51.4814 46.6701 51.7478 47.0913 51.7478C47.5124 51.7478 47.8985 51.4814 48.1582 51.008L48.1933 50.9414C48.2213 50.897 48.2775 50.8748 48.3266 50.9044L48.9654 51.2965C49.0215 51.3335 49.0426 51.3853 49.0496 51.4149C49.0636 51.4371 49.0706 51.4962 49.0355 51.5554C48.7829 52.0215 48.7548 52.5097 48.9654 52.8944C49.1689 53.2791 49.5901 53.501 50.1024 53.501C50.1937 53.501 50.2779 53.5824 50.2779 53.6859V54.3739C50.2779 54.4701 50.1937 54.5588 50.0954 54.5588C49.583 54.5588 49.1689 54.7808 48.9583 55.1654C48.7478 55.5501 48.7688 56.0384 49.0285 56.5044C49.0566 56.5636 49.0496 56.6154 49.0426 56.645C49.0355 56.6745 49.0145 56.7337 48.9583 56.7633L48.3126 57.1554C48.2705 57.185 48.2143 57.1628 48.1933 57.1258L48.1511 57.0444ZM51.6534 60.1992C51.6534 59.9231 51.8772 59.6992 52.1534 59.6992H60.6535C60.9296 59.6992 61.1535 59.9231 61.1535 60.1992C61.1535 60.4753 60.9296 60.6992 60.6535 60.6992H52.1534C51.8772 60.6992 51.6534 60.4753 51.6534 60.1992ZM52.1534 53.6669C51.8772 53.6669 51.6534 53.8907 51.6534 54.1669C51.6534 54.443 51.8772 54.6669 52.1534 54.6669H60.6535C60.9296 54.6669 61.1535 54.443 61.1535 54.1669C61.1535 53.8907 60.9296 53.6669 60.6535 53.6669H52.1534ZM51.6534 56.9088C51.6534 56.6327 51.8772 56.4088 52.1534 56.4088H60.6535C60.9296 56.4088 61.1535 56.6327 61.1535 56.9088C61.1535 57.185 60.9296 57.4088 60.6535 57.4088H52.1534C51.8772 57.4088 51.6534 57.185 51.6534 56.9088ZM52.1534 50.3765C51.8772 50.3765 51.6534 50.6003 51.6534 50.8765C51.6534 51.1526 51.8772 51.3765 52.1534 51.3765H60.6535C60.9296 51.3765 61.1535 51.1526 61.1535 50.8765C61.1535 50.6003 60.9296 50.3765 60.6535 50.3765H52.1534Z" stroke="none"/>
<path d="M41.1708 64H18C16.3431 64 15 62.6569 15 61V24C15 22.3431 16.3431 21 18 21H61C62.6569 21 64 22.3431 64 24V42.5" fill="none" stroke-width="3" stroke-linecap="round" stroke-linejoin="round"/>
<path d="M21 58.5V60" fill="none" stroke-width="1.5" stroke-linecap="round" stroke-linejoin="round"/>
<path d="M24 58.5V60" fill="none" stroke-width="1.5" stroke-linecap="round" stroke-linejoin="round"/>
<path d="M27 58.5V60" fill="none" stroke-width="1.5" stroke-linecap="round" stroke-linejoin="round"/>
<path d="M30 58.5V60" fill="none" stroke-width="1.5" stroke-linecap="round" stroke-linejoin="round"/>
<path d="M60 39.5V28C60 26.3431 58.6569 25 57 25H22C20.3431 25 19 26.3431 19 28V52C19 53.6569 20.3431 55 22 55H40" fill="none" stroke-width="1.5" stroke-linecap="round" stroke-linejoin="round"/>
<path d="M36.5 35V31C36.5 30.4477 36.0523 30 35.5 30H28H27C26.4477 30 26 30.4477 26 31V35C26 35.5523 26.4477 36 27 36H35.5C36.0523 36 36.5 35.5523 36.5 35Z" fill="none" stroke-width="1.5" stroke-linecap="round" stroke-linejoin="round"/>
<path d="M28 30L28.8944 28.2111C28.9639 28.0723 29 27.9192 29 27.7639V25" fill="none" stroke-width="1.5" stroke-linecap="round" stroke-linejoin="round"/>
<path d="M34 30L33.1056 28.2111C33.0361 28.0723 33 27.9192 33 27.7639V25" fill="none" stroke-width="1.5" stroke-linecap="round" stroke-linejoin="round"/>
<path d="M36.5 31.5H41C41.5523 31.5 42 31.9477 42 32.5V33.5C42 34.0523 41.5523 34.5 41 34.5H36.5" fill="none" stroke-width="1.5" stroke-linecap="round" stroke-linejoin="round"/>
<path d="M28 38H19" fill="none" stroke-width="1.5" stroke-linecap="round" stroke-linejoin="round"/>
<path d="M25.5 33.5H19.5" fill="none" stroke-width="2" stroke-linecap="round" stroke-linejoin="round"/>
<path d="M42.5 33.5H59.5" fill="none" stroke-width="2" stroke-linecap="round" stroke-linejoin="round"/>
<path d="M34 38H60" fill="none" stroke-width="1.5" stroke-linecap="round" stroke-linejoin="round"/>
<path d="M28 32V34" fill="none" stroke-width="1.5" stroke-linecap="round" stroke-linejoin="round"/>
<path d="M31 32V34" fill="none" stroke-width="1.5" stroke-linecap="round" stroke-linejoin="round"/>
<path d="M34 32V34" fill="none" stroke-width="1.5" stroke-linecap="round" stroke-linejoin="round"/>
<path d="M28 36V42C28 42.5523 28.4477 43 29 43H33C33.5523 43 34 42.5523 34 42V36" fill="none" stroke-width="1.5" stroke-linecap="round" stroke-linejoin="round"/>
<path d="M30 43V45C30 45.5523 30.4477 46 31 46V46C31.5523 46 32 45.5523 32 45V43.5" fill="none" stroke-width="1.5" stroke-linecap="round" stroke-linejoin="round"/>
<path d="M19 51H39" fill="none" stroke-width="1.5" stroke-linecap="round" stroke-linejoin="round"/>
<path d="M26 50.5V49C26 48.4477 26.4477 48 27 48H35C35.5523 48 36 48.4477 36 49V51" fill="none" stroke-width="1.5" stroke-linecap="round" stroke-linejoin="round"/>
</svg>
