<svg width="80" height="80" viewBox="0 0 80 80" fill="none" xmlns="http://www.w3.org/2000/svg">
<path fill-rule="evenodd" clip-rule="evenodd" d="M45.372 13.1353C45.9521 12.9549 46.5732 12.9549 47.1533 13.1353L64.711 18.5939C65.9655 18.984 66.8203 20.1449 66.8203 21.4587V53.4554C66.8203 53.806 66.7602 54.1426 66.6496 54.4554H68.0555C68.6078 54.4554 69.0555 54.9031 69.0555 55.4554C69.0555 56.0077 68.6078 56.4554 68.0555 56.4554L63.8203 56.4554L61.35 56.4554L61.3472 56.4554H61.2484L61.2324 56.4553V58.5225C61.2324 58.8731 61.1723 59.2097 61.0617 59.5225H61.9088C62.4611 59.5225 62.9088 59.9702 62.9088 60.5225C62.9088 61.0747 62.4611 61.5225 61.9088 61.5225H58.2324H55.8945V64.6029C55.8945 64.7729 55.8815 64.9399 55.8563 65.1029H56.8796C57.7081 65.1029 58.3796 65.7745 58.3796 66.6029C58.3796 67.4313 57.7081 68.1029 56.8796 68.1029H15.5291C14.7007 68.1029 14.0291 67.4313 14.0291 66.6029C14.0291 65.7745 14.7007 65.1029 15.5291 65.1029H16.5525C16.5274 64.9399 16.5143 64.7729 16.5143 64.6029V37.224C16.5143 35.8683 17.3558 34.655 18.6256 34.18L18.9995 34.0401V28.4839C18.9995 27.2201 19.7915 26.0918 20.9802 25.6624L25.7049 23.9556V21.4587C25.7049 20.1449 26.5598 18.984 27.8143 18.5939L45.372 13.1353ZM64.8203 53.4554C64.8203 54.0077 64.3726 54.4554 63.8203 54.4554L61.35 54.4554L61.2484 54.4554L61.2324 54.4555V29.4554C61.2324 28.2227 60.4783 27.1154 59.3313 26.6639L40.7055 19.332C40.0266 19.0647 39.2736 19.0541 38.5874 19.3019L27.7049 23.2331V21.4587C27.7049 21.0207 27.9899 20.6338 28.4081 20.5038L45.9658 15.0451C46.1591 14.985 46.3662 14.985 46.5595 15.0451L64.1172 20.5038C64.5354 20.6338 64.8203 21.0207 64.8203 21.4587V53.4554ZM55.8945 59.5225H58.2324C58.7847 59.5225 59.2324 59.0747 59.2324 58.5225V29.4554C59.2324 29.0445 58.9811 28.6754 58.5987 28.5249L39.973 21.193C39.7467 21.1039 39.4957 21.1003 39.2669 21.183L21.6597 27.5434C21.2635 27.6865 20.9995 28.0626 20.9995 28.4839V33.292L34.6327 28.1919C35.3505 27.9233 36.1402 27.9171 36.8622 28.1743L53.7353 34.1859C55.03 34.6472 55.8945 35.873 55.8945 37.2474V59.5225ZM53.3945 64.6029C53.3945 64.795 53.3223 64.9702 53.2036 65.1029H19.2053C19.0865 64.9702 19.0143 64.795 19.0143 64.6029V50.3749H53.3945V64.6029ZM35.5086 30.5334C35.6743 30.4714 35.8565 30.47 36.0231 30.5293L52.8963 36.5409C53.195 36.6473 53.3945 36.9302 53.3945 37.2474V48.3749H19.0143V37.224C19.0143 36.9111 19.2085 36.6312 19.5015 36.5215L35.5086 30.5334ZM31.9401 41.2408H40.4687C41.021 41.2408 41.4687 41.6886 41.4687 42.2408V43.3347C41.4687 43.887 41.021 44.3347 40.4687 44.3347H31.9401C31.3878 44.3347 30.9401 43.887 30.9401 43.3347V42.2408C30.9401 41.6886 31.3878 41.2408 31.9401 41.2408ZM28.9401 42.2408C28.9401 40.584 30.2833 39.2408 31.9401 39.2408H40.4687C42.1255 39.2408 43.4687 40.584 43.4687 42.2408V43.3347C43.4687 44.9916 42.1255 46.3347 40.4687 46.3347H31.9401C30.2833 46.3347 28.9401 44.9916 28.9401 43.3347V42.2408ZM28.7049 54.4152H43.7038V61.5627L28.7049 61.5627V54.4152ZM26.7049 54.4152C26.7049 53.3106 27.6004 52.4152 28.7049 52.4152H43.7038C44.8084 52.4152 45.7038 53.3106 45.7038 54.4152V61.5627C45.7038 62.6673 44.8084 63.5627 43.7038 63.5627H28.7049C27.6004 63.5627 26.7049 62.6673 26.7049 61.5627V54.4152ZM61.35 65.1029C60.5216 65.1029 59.85 65.7745 59.85 66.6029C59.85 67.4313 60.5216 68.1029 61.35 68.1029H64.144C64.9724 68.1029 65.644 67.4313 65.644 66.6029C65.644 65.7745 64.9724 65.1029 64.144 65.1029H61.35ZM63.7028 60.5225C63.7028 59.9702 64.1505 59.5225 64.7028 59.5225H65.8203C66.3726 59.5225 66.8203 59.9702 66.8203 60.5225C66.8203 61.0747 66.3726 61.5225 65.8203 61.5225H64.7028C64.1505 61.5225 63.7028 61.0747 63.7028 60.5225ZM10.5 65.1029C9.67157 65.1029 9 65.7745 9 66.6029C9 67.4313 9.67157 68.1029 10.5 68.1029H11.6176C12.446 68.1029 13.1176 67.4313 13.1176 66.6029C13.1176 65.7745 12.446 65.1029 11.6176 65.1029H10.5Z" stroke="none"/>
</svg>
