<svg width="20" height="19" viewBox="0 0 20 19" fill="none" xmlns="http://www.w3.org/2000/svg">
<path fill-rule="evenodd" clip-rule="evenodd" d="M6.36019 7.25787C7.23957 6.39809 7.91182 5.32381 8.40583 3.97863H9.71594V3.37855H6.20333V2H5.55472V3.37855H2.10108V3.97863H3.3548C3.83641 5.27581 4.49112 6.38103 5.363 7.27149C4.46178 7.98866 3.34966 8.51343 2 8.88466C2.13478 9.03062 2.33694 9.32255 2.40433 9.47662C3.77045 9.05029 4.90749 8.48229 5.84225 7.72028C6.77761 8.52259 7.93125 9.1126 9.3453 9.46851C9.44638 9.29011 9.64855 9.0144 9.80017 8.86844C8.42374 8.56011 7.28203 8.00922 6.36019 7.25787ZM7.67462 3.97863H4.04635C4.46665 5.07748 5.07139 6.03772 5.87341 6.82288C6.65217 6.06693 7.24493 5.12999 7.67462 3.97863Z" stroke="none"/>
<path fill-rule="evenodd" clip-rule="evenodd" d="M11.4932 11.1557L13.7553 16.9208H12.6695L12.1849 15.5706H9.86662L9.38318 16.9208H8.30145L10.5554 11.1557H11.4932ZM10.1488 14.7827H11.9022L11.0245 12.3369L10.1488 14.7827Z" stroke="none"/>
<path fill-rule="evenodd" clip-rule="evenodd" d="M16.8684 16.4979C16.8292 16.5392 16.7868 16.5799 16.7414 16.6199C16.6153 16.7308 16.4631 16.8218 16.2849 16.8931C16.1094 16.9644 15.9065 17 15.6761 17C15.3855 17 15.1264 16.9446 14.8988 16.8337C14.6712 16.7202 14.4929 16.5684 14.3641 16.3784C14.2352 16.1857 14.1708 15.9679 14.1708 15.725C14.1708 15.498 14.2146 15.2974 14.3024 15.1232C14.3929 14.9463 14.5245 14.7985 14.6972 14.6797C14.8727 14.5609 15.0866 14.4712 15.3389 14.4105C15.5911 14.3471 15.879 14.3154 16.2026 14.3154H16.836V14.0185C16.836 13.8654 16.8072 13.7334 16.7496 13.6225C16.6921 13.5116 16.6043 13.4259 16.4864 13.3651C16.3712 13.3044 16.2259 13.2741 16.0504 13.2741C15.8886 13.2741 15.7488 13.3005 15.6309 13.3533C15.513 13.4061 15.4211 13.4773 15.3553 13.5671C15.2895 13.6568 15.2566 13.7585 15.2566 13.872H14.2695C14.2695 13.703 14.312 13.5394 14.397 13.381C14.482 13.2226 14.6054 13.0814 14.7671 12.9573C14.9289 12.8332 15.1222 12.7356 15.3471 12.6643C15.5719 12.593 15.8242 12.5574 16.1039 12.5574C16.4384 12.5574 16.7346 12.6115 16.9923 12.7197C17.2528 12.828 17.4571 12.9916 17.6051 13.2107C17.756 13.4272 17.8314 13.6991 17.8314 14.0264V15.9309C17.8314 16.1263 17.8451 16.3018 17.8725 16.4575C17.9027 16.6106 17.9452 16.7439 18 16.8575V16.9208H16.9841C16.9375 16.8179 16.9004 16.6872 16.873 16.5288L16.8684 16.4979ZM16.836 15.7114C16.8159 15.7495 16.7912 15.7884 16.762 15.828C16.6742 15.9441 16.5536 16.0431 16.4 16.1249C16.2492 16.2041 16.0724 16.2437 15.8694 16.2437C15.7186 16.2437 15.5898 16.2173 15.4828 16.1645C15.3786 16.1117 15.2991 16.0392 15.2443 15.9468C15.1894 15.8517 15.162 15.7475 15.162 15.634C15.162 15.5205 15.1853 15.4188 15.2319 15.3291C15.2785 15.2393 15.3485 15.1628 15.4417 15.0994C15.5349 15.0361 15.6515 14.9886 15.7913 14.9569C15.9311 14.9226 16.0929 14.9054 16.2766 14.9054H16.836V15.7114Z" stroke="none"/>
<path d="M4.21361 11.2508C4.39637 11.0749 4.69267 11.0749 4.87542 11.2508L7.19177 13.4807L7.05941 12.5888C7.02286 12.3424 7.20064 12.1143 7.4565 12.0791C7.71235 12.0439 7.9494 12.215 7.98595 12.4613L8.31685 14.6912C8.33769 14.8316 8.28865 14.9732 8.18449 15.0735C8.08034 15.1738 7.93322 15.221 7.7874 15.2009L5.47106 14.8824C5.2152 14.8472 5.03742 14.619 5.07397 14.3727C5.11052 14.1264 5.34756 13.9552 5.60342 13.9904L6.52996 14.1178L4.21361 11.8879C4.03086 11.712 4.03086 11.4268 4.21361 11.2508Z" stroke="none"/>
<path d="M15.0102 8.7664C15.193 8.94233 15.4893 8.94233 15.6721 8.7664C15.8548 8.59046 15.8548 8.30522 15.6721 8.12928L13.3557 5.89938L14.2823 6.02681C14.5381 6.06199 14.7752 5.89085 14.8117 5.64454C14.8483 5.39823 14.6705 5.17003 14.4146 5.13485L12.0983 4.81629C11.9525 4.79624 11.8053 4.84344 11.7012 4.94371C11.597 5.04398 11.548 5.18561 11.5688 5.32598L11.8997 7.55588C11.9363 7.80219 12.1733 7.97333 12.4292 7.93815C12.685 7.90296 12.8628 7.67476 12.8263 7.42846L12.6939 6.5365L15.0102 8.7664Z" stroke="none"/>
<path fill-rule="evenodd" clip-rule="evenodd" d="M6.36019 7.25787C7.23957 6.39809 7.91182 5.32381 8.40583 3.97863H9.71594V3.37855H6.20333V2H5.55472V3.37855H2.10108V3.97863H3.3548C3.83641 5.27581 4.49112 6.38103 5.363 7.27149C4.46178 7.98866 3.34966 8.51343 2 8.88466C2.13478 9.03062 2.33694 9.32255 2.40433 9.47662C3.77045 9.05029 4.90749 8.48229 5.84225 7.72028C6.77761 8.52259 7.93125 9.1126 9.3453 9.46851C9.44638 9.29011 9.64855 9.0144 9.80017 8.86844C8.42374 8.56011 7.28203 8.00922 6.36019 7.25787ZM7.67462 3.97863H4.04635C4.46665 5.07748 5.07139 6.03772 5.87341 6.82288C6.65217 6.06693 7.24493 5.12999 7.67462 3.97863Z" fill="none" stroke-width="0.2" stroke-linecap="round" stroke-linejoin="round"/>
<path fill-rule="evenodd" clip-rule="evenodd" d="M11.4932 11.1557L13.7553 16.9208H12.6695L12.1849 15.5706H9.86662L9.38318 16.9208H8.30145L10.5554 11.1557H11.4932ZM10.1488 14.7827H11.9022L11.0245 12.3369L10.1488 14.7827Z" fill="none" stroke-width="0.2" stroke-linecap="round" stroke-linejoin="round"/>
<path fill-rule="evenodd" clip-rule="evenodd" d="M16.8684 16.4979C16.8292 16.5392 16.7868 16.5799 16.7414 16.6199C16.6153 16.7308 16.4631 16.8218 16.2849 16.8931C16.1094 16.9644 15.9065 17 15.6761 17C15.3855 17 15.1264 16.9446 14.8988 16.8337C14.6712 16.7202 14.4929 16.5684 14.3641 16.3784C14.2352 16.1857 14.1708 15.9679 14.1708 15.725C14.1708 15.498 14.2146 15.2974 14.3024 15.1232C14.3929 14.9463 14.5245 14.7985 14.6972 14.6797C14.8727 14.5609 15.0866 14.4712 15.3389 14.4105C15.5911 14.3471 15.879 14.3154 16.2026 14.3154H16.836V14.0185C16.836 13.8654 16.8072 13.7334 16.7496 13.6225C16.6921 13.5116 16.6043 13.4259 16.4864 13.3651C16.3712 13.3044 16.2259 13.2741 16.0504 13.2741C15.8886 13.2741 15.7488 13.3005 15.6309 13.3533C15.513 13.4061 15.4211 13.4773 15.3553 13.5671C15.2895 13.6568 15.2566 13.7585 15.2566 13.872H14.2695C14.2695 13.703 14.312 13.5394 14.397 13.381C14.482 13.2226 14.6054 13.0814 14.7671 12.9573C14.9289 12.8332 15.1222 12.7356 15.3471 12.6643C15.5719 12.593 15.8242 12.5574 16.1039 12.5574C16.4384 12.5574 16.7346 12.6115 16.9923 12.7197C17.2528 12.828 17.4571 12.9916 17.6051 13.2107C17.756 13.4272 17.8314 13.6991 17.8314 14.0264V15.9309C17.8314 16.1263 17.8451 16.3018 17.8725 16.4575C17.9027 16.6106 17.9452 16.7439 18 16.8575V16.9208H16.9841C16.9375 16.8179 16.9004 16.6872 16.873 16.5288L16.8684 16.4979ZM16.836 15.7114C16.8159 15.7495 16.7912 15.7884 16.762 15.828C16.6742 15.9441 16.5536 16.0431 16.4 16.1249C16.2492 16.2041 16.0724 16.2437 15.8694 16.2437C15.7186 16.2437 15.5898 16.2173 15.4828 16.1645C15.3786 16.1117 15.2991 16.0392 15.2443 15.9468C15.1894 15.8517 15.162 15.7475 15.162 15.634C15.162 15.5205 15.1853 15.4188 15.2319 15.3291C15.2785 15.2393 15.3485 15.1628 15.4417 15.0994C15.5349 15.0361 15.6515 14.9886 15.7913 14.9569C15.9311 14.9226 16.0929 14.9054 16.2766 14.9054H16.836V15.7114Z" fill="none" stroke-width="0.2" stroke-linecap="round" stroke-linejoin="round"/>
<path d="M4.21361 11.2508C4.39637 11.0749 4.69267 11.0749 4.87542 11.2508L7.19177 13.4807L7.05941 12.5888C7.02286 12.3424 7.20064 12.1143 7.4565 12.0791C7.71235 12.0439 7.9494 12.215 7.98595 12.4613L8.31685 14.6912C8.33769 14.8316 8.28865 14.9732 8.18449 15.0735C8.08034 15.1738 7.93322 15.221 7.7874 15.2009L5.47106 14.8824C5.2152 14.8472 5.03742 14.619 5.07397 14.3727C5.11052 14.1264 5.34756 13.9552 5.60342 13.9904L6.52996 14.1178L4.21361 11.8879C4.03086 11.712 4.03086 11.4268 4.21361 11.2508Z" fill="none" stroke-width="0.2" stroke-linecap="round" stroke-linejoin="round"/>
<path d="M15.0102 8.7664C15.193 8.94233 15.4893 8.94233 15.6721 8.7664C15.8548 8.59046 15.8548 8.30522 15.6721 8.12928L13.3557 5.89938L14.2823 6.02681C14.5381 6.06199 14.7752 5.89085 14.8117 5.64454C14.8483 5.39823 14.6705 5.17003 14.4146 5.13485L12.0983 4.81629C11.9525 4.79624 11.8053 4.84344 11.7012 4.94371C11.597 5.04398 11.548 5.18561 11.5688 5.32598L11.8997 7.55588C11.9363 7.80219 12.1733 7.97333 12.4292 7.93815C12.685 7.90296 12.8628 7.67476 12.8263 7.42846L12.6939 6.5365L15.0102 8.7664Z" fill="none" stroke-width="0.2" stroke-linecap="round" stroke-linejoin="round"/>
<rect x="0.5" y="0.5" width="19" height="18" rx="1.5" fill="none"/>
</svg>
