<svg width="85" height="25" viewBox="0 0 85 25" fill="none" xmlns="http://www.w3.org/2000/svg">
<g clip-path="url(#clip0_184_1048)">
<path fill-rule="evenodd" clip-rule="evenodd" d="M14.2701 10.7063C14.9297 10.0185 15.4339 9.15904 15.8044 8.0829H16.787V7.60284H14.1525V6.5H13.666V7.60284H11.0758V8.0829H12.0161C12.3773 9.12065 12.8683 10.0048 13.5223 10.7172C12.8463 11.2909 12.0122 11.7107 11 12.0077C11.1011 12.1245 11.2527 12.358 11.3032 12.4813C12.3278 12.1402 13.1806 11.6858 13.8817 11.0762C14.5832 11.7181 15.4484 12.1901 16.509 12.4748C16.5848 12.3321 16.7364 12.1115 16.8501 11.9948C15.8178 11.7481 14.9615 11.3074 14.2701 10.7063ZM15.256 8.0829H12.5348C12.85 8.96199 13.3035 9.73018 13.9051 10.3583C14.4891 9.75354 14.9337 9.00399 15.256 8.0829Z" fill="white"/>
<path fill-rule="evenodd" clip-rule="evenodd" d="M18.1199 13.8246L19.8165 18.4366H19.0021L18.6387 17.3565H16.9L16.5374 18.4366H15.7261L17.4165 13.8246H18.1199ZM17.1116 16.7261H18.4266L17.7683 14.7695L17.1116 16.7261Z" fill="white"/>
<path fill-rule="evenodd" clip-rule="evenodd" d="M22.1513 18.0984C22.1219 18.1314 22.0901 18.1639 22.0561 18.1959C21.9615 18.2846 21.8473 18.3575 21.7136 18.4145C21.582 18.4715 21.4298 18.5 21.2571 18.5C21.0391 18.5 20.8448 18.4557 20.6741 18.367C20.5034 18.2762 20.3697 18.1547 20.2731 18.0027C20.1764 17.8485 20.1281 17.6743 20.1281 17.48C20.1281 17.2984 20.161 17.1379 20.2268 16.9985C20.2946 16.8571 20.3934 16.7388 20.5229 16.6438C20.6545 16.5487 20.8149 16.4769 21.0041 16.4284C21.1933 16.3777 21.4093 16.3523 21.6519 16.3523H22.127V16.1148C22.127 15.9923 22.1054 15.8867 22.0622 15.798C22.019 15.7093 21.9532 15.6407 21.8648 15.5921C21.7784 15.5435 21.6694 15.5193 21.5378 15.5193C21.4165 15.5193 21.3116 15.5404 21.2232 15.5826C21.1347 15.6248 21.0658 15.6819 21.0165 15.7537C20.9671 15.8255 20.9425 15.9068 20.9425 15.9976H20.2021C20.2021 15.8624 20.234 15.7315 20.2977 15.6048C20.3615 15.4781 20.454 15.3651 20.5754 15.2658C20.6967 15.1666 20.8417 15.0885 21.0103 15.0314C21.179 14.9744 21.3682 14.9459 21.5779 14.9459C21.8288 14.9459 22.0509 14.9892 22.2442 15.0758C22.4396 15.1624 22.5928 15.2933 22.7039 15.4686C22.817 15.6417 22.8735 15.8593 22.8735 16.1211V17.6447C22.8735 17.801 22.8838 17.9414 22.9044 18.066C22.927 18.1885 22.9589 18.2952 23 18.386V18.4366H22.2381C22.2031 18.3543 22.1753 18.2498 22.1548 18.1231L22.1513 18.0984ZM22.127 17.4691C22.1119 17.4996 22.0934 17.5307 22.0715 17.5624C22.0057 17.6553 21.9152 17.7345 21.8 17.8C21.6869 17.8633 21.5543 17.895 21.4021 17.895C21.289 17.895 21.1923 17.8739 21.1121 17.8316C21.034 17.7894 20.9743 17.7313 20.9332 17.6574C20.8921 17.5814 20.8715 17.498 20.8715 17.4072C20.8715 17.3164 20.889 17.2351 20.9239 17.1633C20.9589 17.0915 21.0113 17.0302 21.0813 16.9795C21.1512 16.9289 21.2386 16.8908 21.3435 16.8655C21.4484 16.838 21.5697 16.8243 21.7075 16.8243H22.127V17.4691Z" fill="white"/>
<path d="M12.6602 13.9007C12.7973 13.7599 13.0195 13.7599 13.1566 13.9007L14.8938 15.6846L14.7946 14.971C14.7671 14.774 14.9005 14.5914 15.0924 14.5633C15.2843 14.5351 15.462 14.672 15.4895 14.8691L15.7376 16.653C15.7533 16.7653 15.7165 16.8786 15.6384 16.9588C15.5603 17.039 15.4499 17.0768 15.3406 17.0607L13.6033 16.8059C13.4114 16.7777 13.2781 16.5952 13.3055 16.3981C13.3329 16.2011 13.5107 16.0642 13.7026 16.0923L14.3975 16.1943L12.6602 14.4103C12.5231 14.2696 12.5231 14.0414 12.6602 13.9007Z" fill="white"/>
<path d="M20.7577 11.9131C20.8948 12.0539 21.117 12.0539 21.254 11.9131C21.3911 11.7724 21.3911 11.5442 21.254 11.4034L19.5168 9.61951L20.2117 9.72144C20.4036 9.74959 20.5814 9.61268 20.6088 9.41563C20.6362 9.21858 20.5029 9.03603 20.311 9.00788L18.5737 8.75303C18.4643 8.73699 18.354 8.77476 18.2759 8.85497C18.1978 8.93518 18.161 9.04848 18.1766 9.16078L18.4248 10.9447C18.4522 11.1417 18.63 11.2787 18.8219 11.2505C19.0138 11.2224 19.1471 11.0398 19.1197 10.8428L19.0204 10.1292L20.7577 11.9131Z" fill="white"/>
<path fill-rule="evenodd" clip-rule="evenodd" d="M14.2701 10.7063C14.9297 10.0185 15.4339 9.15904 15.8044 8.0829H16.787V7.60284H14.1525V6.5H13.666V7.60284H11.0758V8.0829H12.0161C12.3773 9.12065 12.8683 10.0048 13.5223 10.7172C12.8463 11.2909 12.0122 11.7107 11 12.0077C11.1011 12.1245 11.2527 12.358 11.3032 12.4813C12.3278 12.1402 13.1806 11.6858 13.8817 11.0762C14.5832 11.7181 15.4484 12.1901 16.509 12.4748C16.5848 12.3321 16.7364 12.1115 16.8501 11.9948C15.8178 11.7481 14.9615 11.3074 14.2701 10.7063ZM15.256 8.0829H12.5348C12.85 8.96199 13.3035 9.73018 13.9051 10.3583C14.4891 9.75354 14.9337 9.00399 15.256 8.0829Z" stroke="white" stroke-width="0.2" stroke-linecap="round" stroke-linejoin="round"/>
<path fill-rule="evenodd" clip-rule="evenodd" d="M18.1199 13.8246L19.8165 18.4366H19.0021L18.6387 17.3565H16.9L16.5374 18.4366H15.7261L17.4165 13.8246H18.1199ZM17.1116 16.7261H18.4266L17.7683 14.7695L17.1116 16.7261Z" stroke="white" stroke-width="0.2" stroke-linecap="round" stroke-linejoin="round"/>
<path fill-rule="evenodd" clip-rule="evenodd" d="M22.1513 18.0984C22.1219 18.1314 22.0901 18.1639 22.0561 18.1959C21.9615 18.2846 21.8473 18.3575 21.7136 18.4145C21.582 18.4715 21.4298 18.5 21.2571 18.5C21.0391 18.5 20.8448 18.4557 20.6741 18.367C20.5034 18.2762 20.3697 18.1547 20.2731 18.0027C20.1764 17.8485 20.1281 17.6743 20.1281 17.48C20.1281 17.2984 20.161 17.1379 20.2268 16.9985C20.2946 16.8571 20.3934 16.7388 20.5229 16.6438C20.6545 16.5487 20.8149 16.4769 21.0041 16.4284C21.1933 16.3777 21.4093 16.3523 21.6519 16.3523H22.127V16.1148C22.127 15.9923 22.1054 15.8867 22.0622 15.798C22.019 15.7093 21.9532 15.6407 21.8648 15.5921C21.7784 15.5435 21.6694 15.5193 21.5378 15.5193C21.4165 15.5193 21.3116 15.5404 21.2232 15.5826C21.1347 15.6248 21.0658 15.6819 21.0165 15.7537C20.9671 15.8255 20.9425 15.9068 20.9425 15.9976H20.2021C20.2021 15.8624 20.234 15.7315 20.2977 15.6048C20.3615 15.4781 20.454 15.3651 20.5754 15.2658C20.6967 15.1666 20.8417 15.0885 21.0103 15.0314C21.179 14.9744 21.3682 14.9459 21.5779 14.9459C21.8288 14.9459 22.0509 14.9892 22.2442 15.0758C22.4396 15.1624 22.5928 15.2933 22.7039 15.4686C22.817 15.6417 22.8735 15.8593 22.8735 16.1211V17.6447C22.8735 17.801 22.8838 17.9414 22.9044 18.066C22.927 18.1885 22.9589 18.2952 23 18.386V18.4366H22.2381C22.2031 18.3543 22.1753 18.2498 22.1548 18.1231L22.1513 18.0984ZM22.127 17.4691C22.1119 17.4996 22.0934 17.5307 22.0715 17.5624C22.0057 17.6553 21.9152 17.7345 21.8 17.8C21.6869 17.8633 21.5543 17.895 21.4021 17.895C21.289 17.895 21.1923 17.8739 21.1121 17.8316C21.034 17.7894 20.9743 17.7313 20.9332 17.6574C20.8921 17.5814 20.8715 17.498 20.8715 17.4072C20.8715 17.3164 20.889 17.2351 20.9239 17.1633C20.9589 17.0915 21.0113 17.0302 21.0813 16.9795C21.1512 16.9289 21.2386 16.8908 21.3435 16.8655C21.4484 16.838 21.5697 16.8243 21.7075 16.8243H22.127V17.4691Z" stroke="white" stroke-width="0.2" stroke-linecap="round" stroke-linejoin="round"/>
<path d="M12.6602 13.9007C12.7973 13.7599 13.0195 13.7599 13.1566 13.9007L14.8938 15.6846L14.7946 14.971C14.7671 14.774 14.9005 14.5914 15.0924 14.5633C15.2843 14.5351 15.462 14.672 15.4895 14.8691L15.7376 16.653C15.7533 16.7653 15.7165 16.8786 15.6384 16.9588C15.5603 17.039 15.4499 17.0768 15.3406 17.0607L13.6033 16.8059C13.4114 16.7777 13.2781 16.5952 13.3055 16.3981C13.3329 16.2011 13.5107 16.0642 13.7026 16.0923L14.3975 16.1943L12.6602 14.4103C12.5231 14.2696 12.5231 14.0414 12.6602 13.9007Z" stroke="white" stroke-width="0.2" stroke-linecap="round" stroke-linejoin="round"/>
<path d="M20.7577 11.9131C20.8948 12.0539 21.117 12.0539 21.254 11.9131C21.3911 11.7724 21.3911 11.5442 21.254 11.4034L19.5168 9.61951L20.2117 9.72144C20.4036 9.74959 20.5814 9.61268 20.6088 9.41563C20.6362 9.21858 20.5029 9.03603 20.311 9.00788L18.5737 8.75303C18.4643 8.73699 18.354 8.77476 18.2759 8.85497C18.1978 8.93518 18.161 9.04848 18.1766 9.16078L18.4248 10.9447C18.4522 11.1417 18.63 11.2787 18.8219 11.2505C19.0138 11.2224 19.1471 11.0398 19.1197 10.8428L19.0204 10.1292L20.7577 11.9131Z" stroke="white" stroke-width="0.2" stroke-linecap="round" stroke-linejoin="round"/>
<rect x="9.5" y="5" width="15" height="15" rx="1.5" stroke="white"/>
<path d="M36.5674 15.9004V17.5H31.2695V15.9004H36.5674ZM31.9395 7.54688V17.5H29.8887V7.54688H31.9395ZM35.877 11.6006V13.1592H31.2695V11.6006H35.877ZM36.5605 7.54688V9.15332H31.2695V7.54688H36.5605ZM39.5684 11.6826V17.5H37.5996V10.1035H39.4453L39.5684 11.6826ZM39.2812 13.542H38.748C38.748 12.9951 38.8187 12.5029 38.96 12.0654C39.1012 11.6234 39.2995 11.2474 39.5547 10.9375C39.8099 10.623 40.113 10.3838 40.4639 10.2197C40.8193 10.0511 41.2158 9.9668 41.6533 9.9668C41.9997 9.9668 42.3164 10.0169 42.6035 10.1172C42.8906 10.2174 43.1367 10.377 43.3418 10.5957C43.5514 10.8145 43.7109 11.1038 43.8203 11.4639C43.9342 11.8239 43.9912 12.2637 43.9912 12.7832V17.5H42.0088V12.7764C42.0088 12.4482 41.9632 12.193 41.8721 12.0107C41.7809 11.8285 41.6465 11.7008 41.4688 11.6279C41.2956 11.5505 41.0814 11.5117 40.8262 11.5117C40.5618 11.5117 40.3317 11.5641 40.1357 11.6689C39.9443 11.7738 39.7848 11.9196 39.6572 12.1064C39.5342 12.2887 39.4408 12.5029 39.377 12.749C39.3132 12.9951 39.2812 13.2594 39.2812 13.542ZM50.1709 10.1035H51.9551V17.2539C51.9551 17.9284 51.8047 18.5003 51.5039 18.9697C51.2077 19.4437 50.793 19.8014 50.2598 20.043C49.7266 20.2891 49.1068 20.4121 48.4004 20.4121C48.0905 20.4121 47.7624 20.3711 47.416 20.2891C47.0742 20.207 46.7461 20.0794 46.4316 19.9062C46.1217 19.7331 45.862 19.5143 45.6523 19.25L46.5205 18.0879C46.7484 18.3522 47.0127 18.5573 47.3135 18.7031C47.6143 18.8535 47.9469 18.9287 48.3115 18.9287C48.667 18.9287 48.9678 18.8626 49.2139 18.7305C49.46 18.6029 49.6491 18.4137 49.7812 18.1631C49.9134 17.917 49.9795 17.6185 49.9795 17.2676V11.8125L50.1709 10.1035ZM45.1943 13.8906V13.7471C45.1943 13.182 45.2627 12.6693 45.3994 12.209C45.5407 11.7441 45.7389 11.3454 45.9941 11.0127C46.2539 10.68 46.5684 10.4225 46.9375 10.2402C47.3066 10.0579 47.7236 9.9668 48.1885 9.9668C48.6807 9.9668 49.0931 10.0579 49.4258 10.2402C49.7585 10.4225 50.0319 10.6823 50.2461 11.0195C50.4603 11.3522 50.6266 11.7464 50.7451 12.2021C50.8682 12.6533 50.9639 13.1478 51.0322 13.6855V14C50.9639 14.515 50.8613 14.9935 50.7246 15.4355C50.5879 15.8776 50.4079 16.265 50.1846 16.5977C49.9613 16.9258 49.6833 17.181 49.3506 17.3633C49.0225 17.5456 48.6305 17.6367 48.1748 17.6367C47.7191 17.6367 47.3066 17.5433 46.9375 17.3564C46.5729 17.1696 46.2607 16.9076 46.001 16.5703C45.7412 16.2331 45.5407 15.8366 45.3994 15.3809C45.2627 14.9251 45.1943 14.4284 45.1943 13.8906ZM47.1631 13.7471V13.8906C47.1631 14.196 47.1927 14.4808 47.252 14.7451C47.3112 15.0094 47.4023 15.2441 47.5254 15.4492C47.653 15.6497 47.8102 15.807 47.9971 15.9209C48.1885 16.0303 48.4141 16.085 48.6738 16.085C49.0339 16.085 49.3278 16.0098 49.5557 15.8594C49.7835 15.7044 49.9544 15.4925 50.0684 15.2236C50.1823 14.9548 50.2484 14.6449 50.2666 14.2939V13.3984C50.2575 13.1113 50.2188 12.8538 50.1504 12.626C50.082 12.3936 49.9863 12.1953 49.8633 12.0312C49.7402 11.8672 49.5807 11.7396 49.3848 11.6484C49.1888 11.5573 48.9564 11.5117 48.6875 11.5117C48.4277 11.5117 48.2021 11.571 48.0107 11.6895C47.8239 11.8034 47.6667 11.9606 47.5391 12.1611C47.416 12.3617 47.3226 12.5986 47.2588 12.8721C47.195 13.141 47.1631 13.4326 47.1631 13.7471ZM55.5645 7V17.5H53.5889V7H55.5645ZM59.2695 10.1035V17.5H57.2939V10.1035H59.2695ZM57.1709 8.17578C57.1709 7.88867 57.2712 7.65169 57.4717 7.46484C57.6722 7.27799 57.9411 7.18457 58.2783 7.18457C58.611 7.18457 58.8776 7.27799 59.0781 7.46484C59.2832 7.65169 59.3857 7.88867 59.3857 8.17578C59.3857 8.46289 59.2832 8.69987 59.0781 8.88672C58.8776 9.07357 58.611 9.16699 58.2783 9.16699C57.9411 9.16699 57.6722 9.07357 57.4717 8.88672C57.2712 8.69987 57.1709 8.46289 57.1709 8.17578ZM64.8955 15.4561C64.8955 15.3148 64.8545 15.1872 64.7725 15.0732C64.6904 14.9593 64.5378 14.8545 64.3145 14.7588C64.0957 14.6585 63.779 14.5674 63.3643 14.4854C62.9906 14.4033 62.6419 14.3008 62.3184 14.1777C61.9993 14.0501 61.7214 13.8975 61.4844 13.7197C61.252 13.542 61.0697 13.3324 60.9375 13.0908C60.8053 12.8447 60.7393 12.5645 60.7393 12.25C60.7393 11.9401 60.8053 11.6484 60.9375 11.375C61.0742 11.1016 61.2679 10.86 61.5186 10.6504C61.7738 10.4362 62.0837 10.2699 62.4482 10.1514C62.8174 10.0283 63.2321 9.9668 63.6924 9.9668C64.335 9.9668 64.8864 10.0693 65.3467 10.2744C65.8115 10.4795 66.167 10.762 66.4131 11.1221C66.6637 11.4775 66.7891 11.8831 66.7891 12.3389H64.8203C64.8203 12.1475 64.7793 11.9766 64.6973 11.8262C64.6198 11.6712 64.4967 11.5505 64.3281 11.4639C64.1641 11.3727 63.9499 11.3271 63.6855 11.3271C63.4668 11.3271 63.2777 11.3659 63.1182 11.4434C62.9587 11.5163 62.8356 11.6165 62.749 11.7441C62.667 11.8672 62.626 12.0039 62.626 12.1543C62.626 12.2682 62.6488 12.3708 62.6943 12.4619C62.7445 12.5485 62.8242 12.6283 62.9336 12.7012C63.043 12.7741 63.1842 12.8424 63.3574 12.9062C63.5352 12.9655 63.7539 13.0202 64.0137 13.0703C64.5469 13.1797 65.0231 13.3232 65.4424 13.501C65.8617 13.6742 66.1943 13.9111 66.4404 14.2119C66.6865 14.5081 66.8096 14.8978 66.8096 15.3809C66.8096 15.709 66.7367 16.0098 66.5908 16.2832C66.445 16.5566 66.2354 16.7959 65.9619 17.001C65.6885 17.2015 65.3604 17.3587 64.9775 17.4727C64.5993 17.582 64.1732 17.6367 63.6992 17.6367C63.0111 17.6367 62.4277 17.5137 61.9492 17.2676C61.4753 17.0215 61.1152 16.7093 60.8691 16.3311C60.6276 15.9482 60.5068 15.5563 60.5068 15.1553H62.373C62.3822 15.4242 62.4505 15.6406 62.5781 15.8047C62.7103 15.9688 62.8766 16.0872 63.0771 16.1602C63.2822 16.2331 63.5033 16.2695 63.7402 16.2695C63.9954 16.2695 64.2074 16.2354 64.376 16.167C64.5446 16.0941 64.6722 15.9984 64.7588 15.8799C64.8499 15.7568 64.8955 15.6156 64.8955 15.4561ZM70.0088 7V17.5H68.04V7H70.0088ZM69.7285 13.542H69.1885C69.193 13.027 69.2614 12.5531 69.3936 12.1201C69.5257 11.6826 69.7148 11.3044 69.9609 10.9854C70.207 10.6618 70.501 10.4111 70.8428 10.2334C71.1891 10.0557 71.5719 9.9668 71.9912 9.9668C72.3558 9.9668 72.6862 10.0192 72.9824 10.124C73.2832 10.2243 73.5407 10.3883 73.7549 10.6162C73.9736 10.8395 74.1423 11.1335 74.2607 11.498C74.3792 11.8626 74.4385 12.3047 74.4385 12.8242V17.5H72.4561V12.8105C72.4561 12.4824 72.4082 12.2249 72.3125 12.0381C72.2214 11.8467 72.0869 11.7122 71.9092 11.6348C71.736 11.5527 71.5218 11.5117 71.2666 11.5117C70.984 11.5117 70.7425 11.5641 70.542 11.6689C70.346 11.7738 70.1888 11.9196 70.0703 12.1064C69.9518 12.2887 69.8652 12.5029 69.8105 12.749C69.7559 12.9951 69.7285 13.2594 69.7285 13.542Z" fill="white"/>
<path d="M6 0.5H79V-1.5H6V0.5ZM80 1.5V23.5H82V1.5H80ZM79 24.5H6V26.5H79V24.5ZM5 23.5V1.5H3V23.5H5ZM6 24.5C5.44772 24.5 5 24.0523 5 23.5H3C3 25.1569 4.34315 26.5 6 26.5V24.5ZM80 23.5C80 24.0523 79.5523 24.5 79 24.5V26.5C80.6569 26.5 82 25.1569 82 23.5H80ZM79 0.5C79.5523 0.5 80 0.947716 80 1.5H82C82 -0.156855 80.6569 -1.5 79 -1.5V0.5ZM6 -1.5C4.34315 -1.5 3 -0.156854 3 1.5H5C5 0.947715 5.44772 0.5 6 0.5V-1.5Z" fill="#DCE7F3"/>
</g>
<defs>
<clipPath id="clip0_184_1048">
<rect width="85" height="25" rx="2" fill="white"/>
</clipPath>
</defs>
</svg>
