<svg width="25" height="25" viewBox="0 0 25 25" fill="none" xmlns="http://www.w3.org/2000/svg">
<path d="M0 0H25V25H0V0Z" fill="url(#paint0_linear_1076_11952)"/>
<path d="M4 5.11133V18.4111C4 19.8129 5.139 20.9444 6.55 20.9444H21" stroke="black" stroke-width="1.5" stroke-miterlimit="10" stroke-linecap="round" stroke-linejoin="round"/>
<path d="M6 14L9.98944 10.8101C10.2824 10.5759 10.6818 10.5253 11.024 10.6791L14.5503 12.2644C14.9552 12.4464 15.4316 12.3397 15.7202 12.0024L20 7" stroke="#FFA800" stroke-width="1.5" stroke-linecap="round"/>
<path d="M6 8L9.30714 15.0867C9.54198 15.59 10.1419 15.8055 10.6433 15.5667L13.424 14.2426C13.7401 14.092 14.112 14.1178 14.4043 14.3106L20 18" stroke="#DD1C1F" stroke-width="1.5" stroke-linecap="round"/>
<path d="M0 0V-1H-1V0H0ZM25 0H26V-1H25V0ZM25 25V26H26V25H25ZM0 25H-1V26H0V25ZM0 1H25V-1H0V1ZM24 0V25H26V0H24ZM25 24H0V26H25V24ZM1 25V0H-1V25H1Z" fill="#3D5D7A"/>
<defs>
<linearGradient id="paint0_linear_1076_11952" x1="12.5" y1="0" x2="12.5" y2="25" gradientUnits="userSpaceOnUse">
<stop stop-color="#EBF4FC"/>
<stop offset="1" stop-color="#9BB2CD"/>
</linearGradient>
</defs>
</svg>
