<svg viewBox="0 0 21 21" fill="none" xmlns="http://www.w3.org/2000/svg">
<path fill-rule="evenodd" clip-rule="evenodd" d="M10.5 2.4375C11.3284 2.4375 12 3.10907 12 3.9375V4.69454C12 4.75959 11.9959 4.82367 11.9878 4.88653C14.9122 5.65014 17.093 8.59073 17.093 11.7735V14.5428H17.8256C18.1259 14.5428 18.375 14.9948 18.375 15.3003C18.375 15.6058 18.1259 16.0578 17.8256 16.0578L11.9317 16.0578C11.9317 16.8945 11.2907 17.5729 10.4999 17.5729C9.70913 17.5729 9.06808 16.8945 9.06808 16.0578L3.17442 16.0578C2.87407 16.0578 2.625 15.6058 2.625 15.3003C2.625 14.9948 2.87407 14.5428 3.17442 14.5428H3.90698V11.7735C3.90698 8.59072 6.08775 5.65014 9.01217 4.88653C9.00414 4.82367 9 4.75959 9 4.69454V3.9375C9 3.10907 9.67157 2.4375 10.5 2.4375Z" fill="#FFA800"/>
<circle cx="15.5" cy="7.5" r="2.5" />
</svg>
