<svg xmlns="http://www.w3.org/2000/svg" width="441.414" height="155.421" viewBox="0 0 441.414 155.421">
  <g id="operating-mode_copy" data-name="operating-mode copy" transform="translate(80.707 17.044)">
    <path id="Path_34" data-name="Path 34" d="M-72.4,79.243-50.2,66.9H87.755" transform="translate(264.648 4.419)" fill="none" stroke="#10226b" stroke-width="1"/>
    <path id="Path_33" data-name="Path 33" d="M-8.707,108.727H152" transform="translate(208.707 6.62)" fill="none" stroke="#10226b" stroke-width="1"/>
    <path id="Path_35" data-name="Path 35" d="M87.755,79.243,65.551,66.9H-72.4" transform="translate(0 4.418)" fill="none" stroke="#10226b" stroke-width="1"/>
    <path id="Path_36" data-name="Path 36" d="M-61.583,57.644l13.059-23.313H109.959" transform="translate(231.624 2.704)" fill="none" stroke="#10226b" stroke-width="1"/>
    <path id="Path_37" data-name="Path 37" d="M140,20V65.954" transform="translate(0 -13.834)" fill="none" stroke="#10226b" stroke-width="1"/>
    <path id="Path_38" data-name="Path 38" d="M246.409,20H110" transform="translate(-38.205 -13.834)" fill="none" stroke="#10226b" stroke-width="1"/>
    <path id="Path_39" data-name="Path 39" d="M109.959,57.644,96.9,34.331H-61.583" transform="translate(0 2.704)" fill="none" stroke="#10226b" stroke-width="1"/>
    <path id="Path_40" data-name="Path 40" d="M-8.707,108.727H152" transform="translate(-72 6.62)" fill="none" stroke="#10226b" stroke-width="1"/>
    <path id="Path_41" data-name="Path 41" d="M207.546,101.508l-5.2.574" transform="translate(0 6.24)" fill="none" stroke="#549abf" stroke-width="1"/>
    <path id="Path_42" data-name="Path 42" d="M206.434,94.5l-5.11,1.14" transform="translate(0 5.871)" fill="none" stroke="#549abf" stroke-width="1"/>
    <path id="Path_43" data-name="Path 43" d="M204.594,87.655l-4.969,1.695" transform="translate(0 5.511)" fill="none" stroke="#549abf" stroke-width="1"/>
    <path id="Path_44" data-name="Path 44" d="M202.046,81.035l-4.772,2.231" transform="translate(0 5.162)" fill="none" stroke="#549abf" stroke-width="1"/>
    <path id="Path_45" data-name="Path 45" d="M194.947,68.77l-4.227,3.224" transform="translate(0 4.517)" fill="none" stroke="#549abf" stroke-width="1"/>
    <path id="Path_46" data-name="Path 46" d="M190.473,63.26l-3.883,3.671" transform="translate(0 4.227)" fill="none" stroke="#549abf" stroke-width="1"/>
    <path id="Path_47" data-name="Path 47" d="M185.446,58.246l-3.5,4.077" transform="translate(0 3.963)" fill="none" stroke="#549abf" stroke-width="1"/>
    <path id="Path_48" data-name="Path 48" d="M179.921,53.783l-3.07,4.439" transform="translate(0 3.728)" fill="none" stroke="#549abf" stroke-width="1"/>
    <path id="Path_49" data-name="Path 49" d="M167.625,46.7,165.5,51.713" transform="translate(0 3.355)" fill="none" stroke="#549abf" stroke-width="1"/>
    <path id="Path_50" data-name="Path 50" d="M160.988,44.16l-1.615,5.217" transform="translate(0 3.221)" fill="none" stroke="#549abf" stroke-width="1"/>
    <path id="Path_51" data-name="Path 51" d="M154.121,42.325l-1.087,5.368" transform="translate(0 3.125)" fill="none" stroke="#549abf" stroke-width="1"/>
    <path id="Path_52" data-name="Path 52" d="M147.1,41.216l-.546,5.456" transform="translate(0 3.067)" fill="none" stroke="#549abf" stroke-width="1"/>
    <path id="Path_53" data-name="Path 53" d="M132.9,41.216l.547,5.456" transform="translate(0 3.067)" fill="none" stroke="#549abf" stroke-width="1"/>
    <path id="Path_54" data-name="Path 54" d="M125.878,42.325l1.087,5.368" transform="translate(0 3.125)" fill="none" stroke="#549abf" stroke-width="1"/>
    <path id="Path_55" data-name="Path 55" d="M119.011,44.16l1.615,5.217" transform="translate(0 3.221)" fill="none" stroke="#549abf" stroke-width="1"/>
    <path id="Path_56" data-name="Path 56" d="M112.375,46.7l2.125,5.012" transform="translate(0 3.355)" fill="none" stroke="#549abf" stroke-width="1"/>
    <path id="Path_57" data-name="Path 57" d="M100.078,53.783l3.071,4.439" transform="translate(0 3.728)" fill="none" stroke="#549abf" stroke-width="1"/>
    <path id="Path_58" data-name="Path 58" d="M94.554,58.246l3.5,4.077" transform="translate(0 3.963)" fill="none" stroke="#549abf" stroke-width="1"/>
    <path id="Path_59" data-name="Path 59" d="M89.527,63.26l3.883,3.671" transform="translate(0 4.227)" fill="none" stroke="#549abf" stroke-width="1"/>
    <path id="Path_60" data-name="Path 60" d="M85.053,68.77l4.227,3.224" transform="translate(0 4.517)" fill="none" stroke="#549abf" stroke-width="1"/>
    <path id="Path_61" data-name="Path 61" d="M77.953,81.035l4.773,2.231" transform="translate(0 5.162)" fill="none" stroke="#549abf" stroke-width="1"/>
    <path id="Path_62" data-name="Path 62" d="M75.406,87.655l4.969,1.695" transform="translate(0 5.511)" fill="none" stroke="#549abf" stroke-width="1"/>
    <path id="Path_63" data-name="Path 63" d="M73.566,94.5l5.11,1.14" transform="translate(0 5.871)" fill="none" stroke="#549abf" stroke-width="1"/>
    <path id="Path_64" data-name="Path 64" d="M72.453,101.508l5.2.574" transform="translate(0 6.24)" fill="none" stroke="#549abf" stroke-width="1"/>
    <g id="Group_1" data-name="Group 1">
      <path id="Mode_1" data-name="Subtraction 1" d="M-312.72-331.247h0L-327-352.99l25.8-3.639a32.608,32.608,0,0,0-11.519,25.378Z" transform="translate(567.464 183.405) rotate(-39)" fill="none"/>
      <path id="Mode_3" data-name="Subtraction 1" d="M-312.72-331.247h0L-327-352.99l25.8-3.639a32.608,32.608,0,0,0-11.519,25.378Z" transform="matrix(0.995, -0.105, 0.105, 0.995, 453.804, 403.006)" fill="none"/>
      <path id="Mode_10" data-name="Subtraction 1" d="M-312.72-331.247h0L-327-352.99l25.8-3.639a32.608,32.608,0,0,0-11.519,25.378Z" transform="matrix(0.866, 0.5, -0.5, 0.866, 216.476, 531.544)" fill="none"/>
      <path id="Mode_0" data-name="Subtraction 1" d="M-312.72-331.246h0L-327-352.989l25.8-3.639a32.612,32.612,0,0,0-11.52,25.378Z" transform="matrix(0.423, 0.906, -0.906, 0.423, -42.159, 496.227)" fill="none"/>
      <path id="Mode_4" data-name="Subtraction 1" d="M14.28,0h0L0,21.743l25.8,3.639A32.608,32.608,0,0,1,14.28,0Z" transform="translate(181.244 79.211) rotate(151)" fill="none"/>
      <path id="Mode_5" data-name="Subtraction 1" d="M14.28,0h0L0,21.743l25.8,3.639A32.608,32.608,0,0,1,14.28,0Z" transform="matrix(-0.995, -0.105, 0.105, -0.995, 187.544, 106.695)" fill="none"/>
      <path id="Mode_9" data-name="Subtraction 1" d="M14.28,0h0L0,21.743l25.8,3.639A32.608,32.608,0,0,1,14.28,0Z" transform="matrix(-0.788, -0.616, 0.616, -0.788, 177.393, 131.463)" fill="none"/>
      <ellipse id="Ellipse_3" data-name="Ellipse 3" cx="32.838" cy="32.756" rx="32.838" ry="32.756" transform="matrix(-0.995, 0.098, -0.099, -0.995, 177.041, 131.394)" fill="#fff" stroke="#2d64b5" stroke-width="1"/>
    </g>
    <g id="English_Language" transform="translate(-76 -14.939)">
      <text id="Mode_1" data-name="Mode 1" transform="translate(0 123.316)" font-size="16" font-family="SegoeUI, Segoe UI"><tspan x="0" y="0">Memory Execution</tspan></text>
      <text id="Mode_3" data-name="Mode 3" transform="translate(9 80.158)" font-size="16" font-family="SegoeUI, Segoe UI"><tspan x="0" y="0">Program Editor</tspan></text>
      <text id="Mode_10" data-name="Mode 10" transform="translate(19 45.421)" font-size="16" font-family="SegoeUI, Segoe UI"><tspan x="0" y="0">Paper Tape Execution</tspan></text>
      <text id="Mode_0" data-name="Mode 0" transform="translate(151 17)" font-size="16" font-family="SegoeUI, Segoe UI"><tspan x="0" y="0">Manual Command</tspan></text>
      <text id="Mode_4" data-name="Mode 4" transform="translate(334 46.474)" font-size="16" font-family="SegoeUI, Segoe UI"><tspan x="0" y="0">Handwheel</tspan></text>
      <text id="Mode_5" data-name="Mode 5" transform="translate(394 80.158)" font-size="16" font-family="SegoeUI, Segoe UI"><tspan x="0" y="0">Inch</tspan></text>
      <text id="Mode_9" data-name="Mode 9" transform="translate(310.5 123.316)" font-size="16" font-family="SegoeUI, Segoe UI"><tspan x="0" y="0">Return to Origin</tspan></text>
    </g>
    <g id="Chinese_Language" transform="translate(-75 -17.044)">
      <text id="Mode_1-2" data-name="Mode 1" transform="translate(0 125.421)" font-size="16" font-family="MicrosoftJhengHeiUIRegular, Microsoft JhengHei UI"><tspan x="0" y="0">记忆执</tspan><tspan y="0" font-family="YuGothicUI-Regular, Yu Gothic UI">行</tspan></text>
      <text id="Mode_3-2" data-name="Mode 3" transform="translate(8 81.211)" font-size="16" font-family="YuGothicUI-Regular, Yu Gothic UI"><tspan x="0" y="0">程序</tspan><tspan y="0" font-family="MicrosoftJhengHeiUIRegular, Microsoft JhengHei UI">编辑</tspan></text>
      <text id="Mode_10-2" data-name="Mode 10" transform="translate(19 47.526)" font-size="16" font-family="MicrosoftJhengHeiUIRegular, Microsoft JhengHei UI"><tspan x="0" y="0">纸带执</tspan><tspan y="0" font-family="YuGothicUI-Regular, Yu Gothic UI">行</tspan></text>
      <text id="Mode_0-2" data-name="Mode 0" transform="translate(183 17)" font-size="16" font-family="YuGothicUI-Regular, Yu Gothic UI"><tspan x="0" y="0">手</tspan><tspan y="0" font-family="MicrosoftJhengHeiUIRegular, Microsoft JhengHei UI">动</tspan><tspan y="0">指令</tspan></text>
      <text id="Mode_4-2" data-name="Mode 4" transform="translate(379.5 47.526)" font-size="16" font-family="YuGothicUI-Regular, Yu Gothic UI"><tspan x="0" y="0">手</tspan><tspan y="0" font-family="MicrosoftJhengHeiUIRegular, Microsoft JhengHei UI">轮</tspan></text>
      <text id="Mode_5-2" data-name="Mode 5" transform="translate(391 82.263)" font-size="16" font-family="YuGothicUI-Regular, Yu Gothic UI"><tspan x="0" y="0">寸</tspan><tspan y="0" font-family="MicrosoftJhengHeiUIRegular, Microsoft JhengHei UI">动</tspan></text>
      <text id="Mode_9-2" data-name="Mode 9" transform="translate(366 125.421)" font-size="16" font-family="YuGothicUI-Regular, Yu Gothic UI"><tspan x="0" y="0">原点复原</tspan></text>
    </g>
  </g>
</svg>
