<svg xmlns="http://www.w3.org/2000/svg" width="280" height="136.897" viewBox="0 0 280 136.897">
  <g id="operating-mode_copy" data-name="operating-mode copy" transform="translate(0 -1.478)">
    <path id="Path_33" data-name="Path 33" d="M280,108.726H200" fill="none" stroke="#10226b" stroke-width="1"/>
    <path id="Path_34" data-name="Path 34" d="M192.245,78.626l22.2-11.725H248" fill="none" stroke="#10226b" stroke-width="1"/>
    <path id="Path_35" data-name="Path 35" d="M87.755,78.626,65.551,66.9H4" fill="none" stroke="#10226b" stroke-width="1"/>
    <path id="Path_36" data-name="Path 36" d="M170.041,56.478,183.1,34.331H217" fill="none" stroke="#10226b" stroke-width="1"/>
    <path id="Path_37" data-name="Path 37" d="M140,20V48.661" fill="none" stroke="#10226b" stroke-width="1"/>
    <path id="Path_38" data-name="Path 38" d="M170,20H110" fill="none" stroke="#10226b" stroke-width="1"/>
    <path id="Path_39" data-name="Path 39" d="M109.959,56.478,96.9,34.331H35" fill="none" stroke="#10226b" stroke-width="1"/>
    <path id="Path_40" data-name="Path 40" d="M0,108.727H80" fill="none" stroke="#10226b" stroke-width="1"/>
    <path id="Path_41" data-name="Path 41" d="M207.546,101.508l-5.2.545" fill="none" stroke="#549abf" stroke-width="1"/>
    <path id="Path_42" data-name="Path 42" d="M206.434,94.5l-5.11,1.083" fill="none" stroke="#549abf" stroke-width="1"/>
    <path id="Path_43" data-name="Path 43" d="M204.594,87.655l-4.969,1.61" fill="none" stroke="#549abf" stroke-width="1"/>
    <path id="Path_44" data-name="Path 44" d="M202.046,81.035l-4.772,2.119" fill="none" stroke="#549abf" stroke-width="1"/>
    <path id="Path_45" data-name="Path 45" d="M194.947,68.77l-4.227,3.063" fill="none" stroke="#549abf" stroke-width="1"/>
    <path id="Path_46" data-name="Path 46" d="M190.473,63.26l-3.883,3.487" fill="none" stroke="#549abf" stroke-width="1"/>
    <path id="Path_47" data-name="Path 47" d="M185.446,58.246l-3.5,3.873" fill="none" stroke="#549abf" stroke-width="1"/>
    <path id="Path_48" data-name="Path 48" d="M179.921,53.783,176.851,58" fill="none" stroke="#549abf" stroke-width="1"/>
    <path id="Path_49" data-name="Path 49" d="M167.625,46.7,165.5,51.462" fill="none" stroke="#549abf" stroke-width="1"/>
    <path id="Path_50" data-name="Path 50" d="M160.988,44.16l-1.615,4.956" fill="none" stroke="#549abf" stroke-width="1"/>
    <path id="Path_51" data-name="Path 51" d="M154.121,42.325l-1.087,5.1" fill="none" stroke="#549abf" stroke-width="1"/>
    <path id="Path_52" data-name="Path 52" d="M147.1,41.216l-.546,5.183" fill="none" stroke="#549abf" stroke-width="1"/>
    <path id="Path_53" data-name="Path 53" d="M132.9,41.216l.547,5.183" fill="none" stroke="#549abf" stroke-width="1"/>
    <path id="Path_54" data-name="Path 54" d="M125.878,42.325l1.087,5.1" fill="none" stroke="#549abf" stroke-width="1"/>
    <path id="Path_55" data-name="Path 55" d="M119.011,44.16l1.615,4.956" fill="none" stroke="#549abf" stroke-width="1"/>
    <path id="Path_56" data-name="Path 56" d="M112.375,46.7l2.125,4.761" fill="none" stroke="#549abf" stroke-width="1"/>
    <path id="Path_57" data-name="Path 57" d="M100.078,53.783,103.149,58" fill="none" stroke="#549abf" stroke-width="1"/>
    <path id="Path_58" data-name="Path 58" d="M94.554,58.246l3.5,3.873" fill="none" stroke="#549abf" stroke-width="1"/>
    <path id="Path_59" data-name="Path 59" d="M89.527,63.26l3.883,3.487" fill="none" stroke="#549abf" stroke-width="1"/>
    <path id="Path_60" data-name="Path 60" d="M85.053,68.77l4.227,3.063" fill="none" stroke="#549abf" stroke-width="1"/>
    <path id="Path_61" data-name="Path 61" d="M77.953,81.035l4.773,2.119" fill="none" stroke="#549abf" stroke-width="1"/>
    <path id="Path_62" data-name="Path 62" d="M75.406,87.655l4.969,1.61" fill="none" stroke="#549abf" stroke-width="1"/>
    <path id="Path_63" data-name="Path 63" d="M73.566,94.5l5.11,1.083" fill="none" stroke="#549abf" stroke-width="1"/>
    <path id="Path_64" data-name="Path 64" d="M72.453,101.508l5.2.545" fill="none" stroke="#549abf" stroke-width="1"/>
    <path id="Path_66" data-name="Path 66" d="M123.522,2.22a5.383,5.383,0,0,1,.812,1.386q-.042.084-.336.028a2.034,2.034,0,0,0-.448-.028q-.224.014-.8.056-1.834.154-2.87.2V5.776h2.03a15.259,15.259,0,0,0,1.722-.084V6.868a8.723,8.723,0,0,0-1.694-.084h-2.058v1.75h2.954a19.747,19.747,0,0,0,2.352-.112V9.64a.843.843,0,0,1-.126-.014,13.414,13.414,0,0,0-2.17-.1h-3.01v3.108q.028.91-.476,1.176a4.823,4.823,0,0,1-2.1.322,6.052,6.052,0,0,0-.42-1.33,3.755,3.755,0,0,0,1.6-.014q.322-.1.294-.84V9.528H114.94a11.144,11.144,0,0,0-2.156.112V8.422a17.786,17.786,0,0,0,2.184.112h3.808V6.812h-2.6q-.994,0-1.414.042c-.112.009-.205.014-.28.014V5.748q.491.042,1.75.056h2.548V3.942q-.378.014-1.4.07-2.044.112-3.206.126a4.079,4.079,0,0,0-.56-1.19,51.985,51.985,0,0,0,5.712-.084A21.73,21.73,0,0,0,123.522,2.22Zm10.948-.532a3.46,3.46,0,0,1,1.75.336.469.469,0,0,1-.112.238,1.014,1.014,0,0,0-.168.378,16.415,16.415,0,0,0-.224,2.226h1.512a12.315,12.315,0,0,0,1.582-.084.136.136,0,0,1,.168.084q-.644,8.736-.924,8.274-.35.686-2.31.854a2.63,2.63,0,0,0-.434-1.414q1.5.168,1.722-.336.364-.252.63-6.356h-1.974q-.168,6.734-4.046,8.554a3.027,3.027,0,0,0-1.358-.994q4.172-.994,4.242-7.532h-.644a6.1,6.1,0,0,0-1.106.1c-.065.009-.1.014-.112.014V7.162a1.181,1.181,0,0,1-.126-.014,11.961,11.961,0,0,0-1.68-.1h-.392a18.531,18.531,0,0,1-1.806,4.088l2.73-.756q-.308-.658-.7-1.358l.98-.462a16.118,16.118,0,0,1,1.386,2.828l-1.078.644a3.362,3.362,0,0,0-.252-.728,38.34,38.34,0,0,0-3.836,1.19,1.389,1.389,0,0,1-.392.112l-.616-1.218a.464.464,0,0,1,.126-.07q1.063-.322,2.212-4.242h-.532a13.821,13.821,0,0,0-1.708.1q-.14.014-.168.014V5.944c.019,0,.065,0,.14.014a14.262,14.262,0,0,0,1.708.1h2.086a7.932,7.932,0,0,0,1.386-.1.722.722,0,0,1,.084-.014V4.782a2.414,2.414,0,0,1,.252.028,12.742,12.742,0,0,0,1.4.084h.742q0-1.442-.028-2.1A6.234,6.234,0,0,0,134.47,1.688ZM127.414,3c.019,0,.079,0,.182.014a14.335,14.335,0,0,0,1.764.1h1.078a14.8,14.8,0,0,0,1.792-.1c.1-.009.163-.014.182-.014V4.25a1.5,1.5,0,0,1-.154-.014,12.176,12.176,0,0,0-1.764-.1H129.3a13.451,13.451,0,0,0-1.666.1c-.121.009-.2.014-.224.014Zm15.358-1.26a3.929,3.929,0,0,1,1.4.168.183.183,0,0,1-.028.126,2.911,2.911,0,0,0-.2,1.218v1.33h.574c.037,0,.154,0,.35-.014q.378-.028.63-.042V5.636a8.2,8.2,0,0,0-1.008-.056h-.546V7.89q.658-.224,1.176-.448c.131-.065.21-.093.238-.084l.056,1.12a13.544,13.544,0,0,0-1.47.378v3.416q.042,1.316-.28,1.568-.252.35-1.694.574a4.126,4.126,0,0,0-.532-1.358q1.372.126,1.386-.224V9.192c-.121.056-.369.173-.742.35q-.924.434-1.064.49l-.462-1.288a12.3,12.3,0,0,0,2.268-.546V5.58h-.714a6.508,6.508,0,0,0-1.3.056V4.5a6.785,6.785,0,0,0,1.274.084h.742V3.256q0-.756-.056-1.33Q142.744,1.73,142.772,1.744Zm3.346.084a7.135,7.135,0,0,1,1.47.056.184.184,0,0,1-.014.154,6.149,6.149,0,0,0-.21,1.932,18.55,18.55,0,0,0,4.83-1.582q.826,1.2.756,1.386a.854.854,0,0,1-.392.07,6.718,6.718,0,0,0-1.33.182q-.937.224-3.388.714c-.215.047-.373.079-.476.1a2.223,2.223,0,0,0,.14.994q.112.238.546.224h3.122q.979-.028.994-1.246.868.77,1.246.714-.616,1.708-1.722,1.582h-3.878a1.591,1.591,0,0,1-1.246-.392,2.111,2.111,0,0,1-.322-1.414V3.774a9.953,9.953,0,0,0-.126-1.806A.309.309,0,0,1,146.118,1.828Zm1.792,6.146h2.674a17.364,17.364,0,0,0,1.848-.084h.042a.114.114,0,0,1-.014.042,8.318,8.318,0,0,0-.1,1.372v3.164a11.054,11.054,0,0,0,.112,1.834H151.2l.056-.938h-4l.056.938h-1.246a16.071,16.071,0,0,0,.07-1.918V9.248a10.7,10.7,0,0,0-.07-1.358h.042A17.4,17.4,0,0,0,147.91,7.974Zm-.658.938v1.232h4V8.912Zm0,2.17v1.33h4v-1.33Zm13.244-9.6q1.4.294,1.47.462c0,.047-.047.1-.14.154a.645.645,0,0,0-.266.21,8.539,8.539,0,0,0,6.1,3.92,4.832,4.832,0,0,0-.994,1.358A10.585,10.585,0,0,1,161,2.976,16.718,16.718,0,0,1,155.526,8,6.753,6.753,0,0,0,154.5,6.91,10.378,10.378,0,0,0,160.5,1.478Zm.756,3.71a13.165,13.165,0,0,1,.742,2.086l-1.274.28a8.4,8.4,0,0,0-.714-2.17Zm-4.97,3.038a9.038,9.038,0,0,0,1.89.112h5.306a16.416,16.416,0,0,0,2.044-.112,51.5,51.5,0,0,1-3.584,4.41c.047.028.121.07.224.126q1.12.63,1.554.826l-1.05,1.078a23.338,23.338,0,0,0-4.83-3.052l.8-.9q.91.574,1.876,1.106l.434.238a29.52,29.52,0,0,0,2.2-2.548c.056-.075.1-.135.14-.182h-5.11a18.876,18.876,0,0,0-1.89.112Z"/>
    <path id="Path_67" data-name="Path 67" d="M227.614,96.524v1.26h5.026v-1.26Zm0,2.058v1.3h5.026v-1.3Zm-.28,2.856,1.162.7a13.445,13.445,0,0,1-2.408,2.59,2.31,2.31,0,0,0-1.12-.644A9.785,9.785,0,0,0,227.334,101.438Zm5.082.056a27.4,27.4,0,0,1,2.534,2.338l-1.148.784a13.74,13.74,0,0,0-2.268-2.45Zm2.226-8.33v1.218a15.747,15.747,0,0,0-2.17-.1h-3.22q1.162.266,1.162.462c-.009.028-.042.051-.1.07a.468.468,0,0,0-.238.182c-.047.075-.107.182-.182.322-.093.159-.159.266-.2.322h2.94q.224,0,.9-.07l.322-.042a3.139,3.139,0,0,0-.112,1.078v3.416a4,4,0,0,0,.084.868,4.2,4.2,0,0,0-1.274-.112h-1.862v3.668q-.14.8-2.17.91a3.238,3.238,0,0,0-.406-1.274q1.331.252,1.442-.308v-3h-2.338a3.674,3.674,0,0,0-.84.112,1.217,1.217,0,0,1,.014-.154,9.025,9.025,0,0,0,.1-1.078V96.412a4.991,4.991,0,0,0-.112-.882,7.832,7.832,0,0,0,1.288.112h1.022a4.9,4.9,0,0,0,.392-1.358h-3.836a46.108,46.108,0,0,1-.266,6.622,11.527,11.527,0,0,1-1.344,3.962,3.673,3.673,0,0,0-1.3-.476,7.442,7.442,0,0,0,1.61-3.948q.154-1.33.2-3.542.042-2.17-.056-3.682a5.683,5.683,0,0,0,1.358.084h6.972A22.239,22.239,0,0,0,234.642,93.164Zm7.084-.546a4.819,4.819,0,0,1,1.638.182.448.448,0,0,1-.07.182,1.672,1.672,0,0,0-.21.826v.8h2.576q1.26,0,1.778-.028a5.058,5.058,0,0,0,.9-.112v1.288a4,4,0,0,0-.812-.084q-.518-.028-1.862-.028h-2.6v1.582h1.414a20.21,20.21,0,0,0,2.7-.112,12.039,12.039,0,0,0-.14,2.226,9.679,9.679,0,0,0,.112,2.268,4.865,4.865,0,0,0-.9-.112c-.187-.009-.406-.019-.658-.028h-4.144q-1.512,0-1.988.014a7.489,7.489,0,0,0-.98.1,8.34,8.34,0,0,0,.14-2.184v-.266a9.057,9.057,0,0,0-.112-2.016,6.919,6.919,0,0,0,.938.1c.187,0,.4,0,.644.014h1.75V93.7A3,3,0,0,0,241.726,92.618Zm-1.946,5.656v2.142h6.076V98.274Zm7.476,3.78a18.458,18.458,0,0,1,1.806,2.73l-1.344.574a11.61,11.61,0,0,0-1.666-2.912Zm-9.17.056a5.61,5.61,0,0,1,1.33.5c0,.037-.047.1-.14.2a1.777,1.777,0,0,0-.392.518,18.872,18.872,0,0,1-1.218,2.226,3.4,3.4,0,0,0-1.19-.5A6.734,6.734,0,0,0,238.086,102.11Zm6.384.28a18.746,18.746,0,0,1,.9,2.632l-1.4.14a6.5,6.5,0,0,0-.77-2.548Zm-2.8.168a19.09,19.09,0,0,1,.546,2.576l-1.358.168a9.058,9.058,0,0,0-.476-2.6Zm12.74-9.87a4.927,4.927,0,0,1,1.568.364c0,.028-.051.079-.154.154A3.356,3.356,0,0,0,255,94h4.62a20.266,20.266,0,0,0,2.856-.112v1.19a3.58,3.58,0,0,0-.812-.1q-.294,0-.742-.014h-6.608a7.247,7.247,0,0,0-.672.672,5.533,5.533,0,0,0,.84.07q.336,0,.826.014h2.744q1.638,0,2.324-.028a6.342,6.342,0,0,0,1.092-.112,8.277,8.277,0,0,0-.1,1.694v.714a10.539,10.539,0,0,0,.1,1.946,23.841,23.841,0,0,0-2.94-.14h-2.548c-.075.084-.177.2-.308.364-.149.177-.308.355-.476.532h2.394q1.834,0,2.464-.014a10.966,10.966,0,0,0,1.2-.07,9.516,9.516,0,0,1-2.814,2.856,10.4,10.4,0,0,0,2.31.364,15.01,15.01,0,0,0,2.6-.028,3.066,3.066,0,0,0-1.022,1.414,20.152,20.152,0,0,1-5.054-1.106,24.61,24.61,0,0,1-5.5,1.3,3.061,3.061,0,0,0-.91-1.19,15.726,15.726,0,0,0,5.376-.7,6.557,6.557,0,0,1-1.96-1.862,15.3,15.3,0,0,1-2.086,1.582,2.832,2.832,0,0,0-1.176-.77A8.124,8.124,0,0,0,254.69,99.8a8.494,8.494,0,0,0-1.666.112,11.038,11.038,0,0,0,.112-1.974q0-.91-.014-1.19a2.084,2.084,0,0,0-.07-.532q-.336.336-.812.826l-.294.294a2.474,2.474,0,0,0-1.134-.644A8.756,8.756,0,0,0,254.41,92.688Zm5.894,3.864h-6.1v.784h6.1Zm-6.1,1.61v.812h6.1v-.812Zm4.97,3.36h-3.92a4.646,4.646,0,0,0,2.086,1.484A6.547,6.547,0,0,0,259.17,101.522Zm10.444-5v1.26h5.026v-1.26Zm0,2.058v1.3h5.026v-1.3Zm-.28,2.856,1.162.7a13.445,13.445,0,0,1-2.408,2.59,2.31,2.31,0,0,0-1.12-.644A9.785,9.785,0,0,0,269.334,101.438Zm5.082.056a27.406,27.406,0,0,1,2.534,2.338l-1.148.784a13.74,13.74,0,0,0-2.268-2.45Zm2.226-8.33v1.218a15.747,15.747,0,0,0-2.17-.1h-3.22q1.162.266,1.162.462c-.009.028-.042.051-.1.07a.468.468,0,0,0-.238.182c-.047.075-.107.182-.182.322-.093.159-.159.266-.2.322h2.94q.223,0,.9-.07l.322-.042a3.138,3.138,0,0,0-.112,1.078v3.416a4,4,0,0,0,.084.868,4.2,4.2,0,0,0-1.274-.112h-1.862v3.668q-.139.8-2.17.91a3.238,3.238,0,0,0-.406-1.274q1.33.252,1.442-.308v-3h-2.338a3.674,3.674,0,0,0-.84.112,1.217,1.217,0,0,1,.014-.154,9.024,9.024,0,0,0,.1-1.078V96.412a4.99,4.99,0,0,0-.112-.882,7.832,7.832,0,0,0,1.288.112h1.022a4.9,4.9,0,0,0,.392-1.358h-3.836a46.1,46.1,0,0,1-.266,6.622,11.527,11.527,0,0,1-1.344,3.962,3.673,3.673,0,0,0-1.3-.476,7.442,7.442,0,0,0,1.61-3.948q.154-1.33.2-3.542.042-2.17-.056-3.682a5.683,5.683,0,0,0,1.358.084h6.972A22.239,22.239,0,0,0,276.642,93.164Z"/>
    <path id="Path_68" data-name="Path 68" d="M17.635,54.344V51.78h-4.2v2.563Zm1.018-3.473v4.368H12.481V50.871ZM11.92,57.953l-.629.827a7.984,7.984,0,0,0-.54-.8q-.376-.506-.732-.937v6H9.008V56.846a20.466,20.466,0,0,1-.964,2.044,9.493,9.493,0,0,1-1.066,1.627,2.337,2.337,0,0,0-.232-.492q-.157-.273-.28-.458a8.777,8.777,0,0,0,.882-1.21A16.094,16.094,0,0,0,8.194,56.8a16.394,16.394,0,0,0,.677-1.62H6.725V54.2H9.008V52.074q-.513.1-1.039.191l-1,.157a2.481,2.481,0,0,0-.137-.4,3.526,3.526,0,0,0-.185-.41q.786-.123,1.613-.294t1.565-.383a9.607,9.607,0,0,0,1.244-.437l.731.779a11.351,11.351,0,0,1-1.777.561V54.2h1.75v.984h-1.75v.854q.164.137.438.4t.567.574q.3.3.547.56T11.92,57.953Zm4.115,3.808h3.4V62.7H11.332v-.937H15v-1.8H12.289v-.909H15V57.379H11.961v-.923h7.171v.923h-3.1v1.668h2.789v.909H16.035ZM32.3,57.3l.2-.068.738.321q-.567.793-1.183,1.6a11.12,11.12,0,0,1-1.2,1.354l-.814-.41a10.551,10.551,0,0,0,.793-.882q.417-.506.793-1.032H28.627v3.712a1.372,1.372,0,0,1-.144.7.788.788,0,0,1-.52.349,3.416,3.416,0,0,1-1.012.144q-.636.014-1.593.014a3.3,3.3,0,0,0-.349-.971q.766.034,1.395.034t.848,0a.519.519,0,0,0,.253-.082.242.242,0,0,0,.068-.2v-3.7H23.247V57.3h5.038q-.69-.376-1.518-.759t-1.545-.684l.615-.6q.485.191,1.032.424t1.08.472a10.417,10.417,0,0,0,1.128-.69q.567-.4,1.032-.793H24.047V53.8h7l.239-.055.684.513a11.066,11.066,0,0,1-1.435,1.258,13.591,13.591,0,0,1-1.675,1.066q.718.349,1.21.649l-.075.068Zm-4.368-5.448h5.339v.971H22.741V55.7q0,.813-.055,1.771T22.5,59.423a14.5,14.5,0,0,1-.417,1.948,8.025,8.025,0,0,1-.718,1.736,2.51,2.51,0,0,0-.417-.314q-.273-.178-.451-.273a7.049,7.049,0,0,0,.677-1.613,11.6,11.6,0,0,0,.369-1.777q.123-.916.157-1.791t.041-1.641V51.849h5.141V50.3h1.059Zm8.442,6.187,2.311-.472q0,.212.021.451t.048.39q-1.155.267-1.859.438t-1.087.28q-.376.109-.554.178a2.607,2.607,0,0,0-.28.123,4.357,4.357,0,0,0-.116-.431,3.884,3.884,0,0,0-.178-.479.882.882,0,0,0,.438-.287,6.8,6.8,0,0,0,.533-.636q.164-.2.506-.7t.752-1.183q-.752.11-1.155.178T35.176,56a1.3,1.3,0,0,0-.267.1q-.041-.15-.15-.451t-.185-.485a.708.708,0,0,0,.355-.287q.178-.239.39-.595.1-.178.308-.574t.465-.957q.26-.554.513-1.183a12.4,12.4,0,0,0,.431-1.278l1,.362q-.431,1.142-.984,2.27a20.544,20.544,0,0,1-1.142,2.044l1.538-.171q.212-.376.417-.779t.4-.813l.834.485q-.574,1.148-1.278,2.276A23.68,23.68,0,0,1,36.379,58.035Zm2.3,1.654.185.841-2.1.861-1.894.779-.253-.971q.759-.239,1.839-.649T38.676,59.689Zm7.2-7.014H40.761v1.5h5.113Zm.964,2.379H40.761q-.007.854-.068,1.853t-.226,2.044A14.591,14.591,0,0,1,40.009,61a8.825,8.825,0,0,1-.786,1.846,2.906,2.906,0,0,0-.383-.321,2.64,2.64,0,0,0-.417-.267,8.4,8.4,0,0,0,.752-1.8,13.683,13.683,0,0,0,.417-1.955q.137-1,.178-1.941t.041-1.743V51.794h3.247q-.116-.314-.273-.656a7.036,7.036,0,0,0-.328-.643l.978-.294a6.646,6.646,0,0,1,.424.807,7.04,7.04,0,0,1,.308.786h2.673Zm-1.723,4.088h1.039V57.1H45.115Zm-1.709,0h1.012V57.1H43.406Zm-1.846,0h1.148V57.1H41.561Zm4.594-2.912h.807v5.838a1.4,1.4,0,0,1-.062.451.5.5,0,0,1-.246.294.968.968,0,0,1-.437.116q-.253.021-.608.021a3.247,3.247,0,0,0-.253-.752h.656a.127.127,0,0,0,.144-.144V59.983H45.115V62.6h-.7V59.983H43.406v2.632h-.7V59.983H41.561V62.95h-.827V56.244h5.421Zm13.269-3.3v-1.4H55.711v1.4Zm1.012-2.187v2.974H54.747V50.741ZM53.92,58.712l.075.909q-.4.075-.8.157l-.786.164v3.083h-.964V60.141q-.718.137-1.381.267t-1.224.246l-.239-1,1.313-.219q.731-.123,1.531-.273v-2H50.181a3.1,3.1,0,0,0-.636.062.77.77,0,0,0-.369.137q-.041-.157-.137-.444a3.21,3.21,0,0,0-.185-.479.632.632,0,0,0,.328-.355q.15-.3.328-.766.109-.253.308-.9t.424-1.47H48.711v-.991h1.75q.1-.41.178-.82t.137-.834l1.019.212q-.075.355-.15.718t-.171.725h2.311v.991H51.206q-.239.882-.526,1.716T50.1,56.2h1.347V54.077h.964V56.2h1.271v.95H52.409v1.825Zm1.921.684V60.77q.807-.055,1.7-.123t1.832-.13V59.4ZM59.368,55.4H55.841v1.21h3.527Zm-3.527,1.989v1.217h3.527V57.393Zm5.544,2.967v.868l-1.039.089V63.08h-.978V61.4q-1.552.123-3.021.246t-2.577.2l-.171-.937,1.278-.082V55.4h-.943v-.868H61.3V55.4h-.957v5.045Z"/>
    <path id="Path_69" data-name="Path 69" d="M5.22,93.024A20.512,20.512,0,0,1,6.662,95.39L5.3,95.922A7.694,7.694,0,0,0,4,93.584Zm8.974.812A6.24,6.24,0,0,0,14.11,95V98.33a5.665,5.665,0,0,0,.112,1.582h-1.33A3.306,3.306,0,0,0,13,99.086H9.364v3.92q-.1,1.079.938.994h2.422q1.176.042,1.26-1.666a.608.608,0,0,0,.014-.112,5.842,5.842,0,0,0,1.33.784q-.252,2.087-1.694,2.044H9.644q-1.386-.029-1.4-1.274V99.282a8.308,8.308,0,0,0-.084-1.316,5.968,5.968,0,0,0,1.484.112H13V94.914H9.728a5.657,5.657,0,0,0-1.75.112V93.808a7.176,7.176,0,0,0,1.75.112h3.108A10.938,10.938,0,0,0,14.194,93.836Zm-11.55,3.08a10.394,10.394,0,0,0,1.526.112h.574a7.036,7.036,0,0,0,1.148-.084,5.991,5.991,0,0,0-.084,1.106v4.48a19.925,19.925,0,0,0,1.526-1.414l.476,1.246a17.052,17.052,0,0,0-2.646,2.17L4.422,103.5a1.449,1.449,0,0,0,.322-1.05V98.022H4.2a4.356,4.356,0,0,0-1.554.112Zm16.156-4.2q1.694.07,1.568.2a.372.372,0,0,1-.07.168A2.487,2.487,0,0,0,20,94.41v8.344a23.889,23.889,0,0,0,.084,2.618v.042H18.8a19.885,19.885,0,0,0,.084-2.688V94.494A11.7,11.7,0,0,0,18.8,92.716Zm9.366,1.316v1.5q-3.444,2.086-5.446,7.5c.019.271.233.457.644.56a4.552,4.552,0,0,0,.756.1q.42.013,1.218,0,1.848,0,2.072-.28.392-.2.588-1.638a.573.573,0,0,1,.112.112,2.1,2.1,0,0,0,1.162.672,3.38,3.38,0,0,1-.84,1.792,2.278,2.278,0,0,1-1.652.406H24.358a4.227,4.227,0,0,1-2.338-.406q-.616-.392-.462-1.54A20.843,20.843,0,0,1,26.5,95.166H23.42a9.115,9.115,0,0,0-1.722.084V94.032a9.956,9.956,0,0,0,1.666.084h3.08A9.115,9.115,0,0,0,28.166,94.032ZM21.138,95.5a13.826,13.826,0,0,1,1.106,2.31l-1.162.406a10.645,10.645,0,0,0-.882-2.324Zm-4.06.084,1.176.14a20.514,20.514,0,0,1-.644,4.158l-1.19-.322A15.783,15.783,0,0,0,17.078,95.586Zm20.482-2.73A2.862,2.862,0,0,1,39,93.164a.268.268,0,0,1-.056.182,1.381,1.381,0,0,0-.14.434q-.056.574-.056,1.274v.812a21.77,21.77,0,0,0,3.08-.448q-.238,1.61-.364,2.94a17.144,17.144,0,0,0-.014,3.864q.238,1.554.8,1.722.364-.084.42-1.47a1.528,1.528,0,0,0,1.05.658q-.322,1.9-1.19,2.17-1.792-.029-2.142-3.584a13.649,13.649,0,0,1-.014-1.68q.028-1.092.182-3.43-.308.028-1.428.154-.294.028-.406.042a27.186,27.186,0,0,1-.28,3.332,13.228,13.228,0,0,1,1.19,1.2l-.686.742a6.1,6.1,0,0,0-.644-.742l-.112-.112a8.988,8.988,0,0,1-2.8,4.074,3.426,3.426,0,0,0-1.19-.91,5.98,5.98,0,0,0,3.136-3.864,6.993,6.993,0,0,0-1.526-.994l.574-.784a12,12,0,0,1,1.148.784q.126-1.008.168-2.59-1.372.168-1.89.28l-.14-1.19q.588,0,2.03-.056V95A11.159,11.159,0,0,0,37.56,92.856Zm-4.76.056q1.316.028,1.456.224a.4.4,0,0,1-.1.168.537.537,0,0,0-.154.308.231.231,0,0,1-.014.07,9.024,9.024,0,0,0-.07,1.148v1.148q.616-.014,1.5-.112v1.162a14.352,14.352,0,0,0-1.5-.084v1.862l1.47-.588.2,1.148q-1.148.448-1.638.686a35.68,35.68,0,0,1-.112,4.48q-.434.686-1.974.714a2.225,2.225,0,0,0-.672-1.386,3,3,0,0,0,1.526-.084,12.206,12.206,0,0,0,.14-3.01v-.294q-.63.28-1.456.686c-.131.065-.229.117-.294.154l-.322-1.4,2.1-.714V96.944h-.252a11.986,11.986,0,0,0-1.792.112V95.894q1.134.07,1.75.084h.294V94.662q0-.728-.014-1.05A5.224,5.224,0,0,0,32.8,92.912Zm14.98-.2.966.9a31.224,31.224,0,0,1-3.5,3.528,2.7,2.7,0,0,0-.77-.924A16.23,16.23,0,0,0,47.78,92.716Zm8.582.924v1.246q-1.274-.07-2.114-.084h-1.5a21.347,21.347,0,0,0-2.282.084V93.64q1.2.1,2.254.112h1.47Q55.592,93.71,56.362,93.64ZM48.312,95.7q1.232.784,1.218.938a7.01,7.01,0,0,0-1.75,1.806v4.564q0,1.484.056,2.352H46.562q.084-.785.1-2.324V99.59q-.784.9-1.386,1.61a2.722,2.722,0,0,0-.826-.952A26.412,26.412,0,0,0,48.312,95.7Zm8.96,1.554v1.274a21.53,21.53,0,0,0-2.212-.112h-.448v5.866a.792.792,0,0,1-.364.784,4.059,4.059,0,0,1-1.554.35,3.48,3.48,0,0,0-.588-1.358q1.386.126,1.344-.392v-5.25H52.106a22.892,22.892,0,0,0-2.38.112V97.28q1.008.07,2.38.084h2.87Q56.558,97.336,57.272,97.252Z"/>
    <path id="Path_70" data-name="Path 70" d="M37.882,30.239l-.2-1.025q.9-.178,2.2-.465t2.646-.581l.1.868Zm1.668-4.191,3.09-.574a3.651,3.651,0,0,0-.014.458q.007.253.014.41-1.429.294-2.29.479t-1.326.294q-.458.109-.663.178a1.933,1.933,0,0,0-.308.13q-.048-.144-.144-.437a4.434,4.434,0,0,0-.185-.485,1.125,1.125,0,0,0,.485-.287,6.456,6.456,0,0,0,.581-.608,9.221,9.221,0,0,0,.622-.732q.41-.519.9-1.217-.916.123-1.395.205t-.67.13a2.02,2.02,0,0,0-.3.1q-.041-.171-.144-.479a3.194,3.194,0,0,0-.2-.506.747.747,0,0,0,.4-.274,5.511,5.511,0,0,0,.431-.595q.123-.171.355-.574t.526-.95q.287-.554.574-1.183t.52-1.251l.95.431a23.211,23.211,0,0,1-1.087,2.222,20.11,20.11,0,0,1-1.251,2l1.9-.2q.232-.349.444-.711t.41-.731l.854.533q-.69,1.135-1.477,2.229A22.848,22.848,0,0,1,39.55,26.049Zm4.635-2.365h2.461q-.1-1.736-.123-3.719-.588.1-1.176.191t-1.162.157Zm5.892.971H47.712a26.059,26.059,0,0,0,.335,2.789,8.117,8.117,0,0,0,.519,1.839q.3.65.656.649.178,0,.273-.533a11.267,11.267,0,0,0,.13-1.682,3,3,0,0,0,.4.308,1.9,1.9,0,0,0,.438.212,9.436,9.436,0,0,1-.219,1.641,1.536,1.536,0,0,1-.417.82,1.015,1.015,0,0,1-.7.239,1.385,1.385,0,0,1-1.189-.8,7.26,7.26,0,0,1-.772-2.215,28.059,28.059,0,0,1-.451-3.268H44.185V29.6l2.392-.759q.007.2.041.472t.068.424q-1.073.369-1.729.6t-1.019.369q-.355.144-.526.232a1.821,1.821,0,0,0-.267.171,2.6,2.6,0,0,0-.2-.444,2,2,0,0,0-.246-.383,1.388,1.388,0,0,0,.328-.328A1.079,1.079,0,0,0,43.2,29.3V19.555q1.046-.137,2.146-.321t2.092-.4q.991-.212,1.7-.437l.738.841q-1.053.308-2.338.56-.007,1.053.021,2.03t.075,1.859h2.44ZM52.135,25.8V22.959H63.879V25.8H62.833V23.854H58.479v1.579h4.088v3.281a1.486,1.486,0,0,1-.1.615.66.66,0,0,1-.39.335,2.306,2.306,0,0,1-.779.144q-.479.021-1.2.021a2.93,2.93,0,0,0-.349-.923q.547.021.971.027t.567-.014a.315.315,0,0,0,.191-.048.216.216,0,0,0,.048-.157V26.363H58.479V31.08H57.426V26.363H54.7v3.466H53.659v-4.4h3.767V23.854H53.14V25.8Zm9.9-5.838h2.208v.9H62.033v1.456H61.008V20.86H58.479v1.381H57.453V20.86H55.061v1.415H54.035V20.86H51.772v-.9h2.263v-1.6h1.025v1.6h2.393V18.352h1.025v1.613h2.529v-1.6h1.025ZM70.2,25.3l-1.682.533v4.061a1.446,1.446,0,0,1-.116.656.744.744,0,0,1-.376.349,1.816,1.816,0,0,1-.69.157q-.431.034-1.114.027a2.168,2.168,0,0,0-.13-.458,4.837,4.837,0,0,0-.191-.465q.472.007.854.007t.52-.007q.267,0,.267-.253V26.138q-.485.157-.943.294t-.868.267l-.273-1.012q.431-.116.964-.267t1.121-.321V22.063H65.629v-.971h1.907V18.3h.978v2.8h1.538v.971H68.514v2.755l1.538-.444ZM76.7,30.014h.656q.123,0,.185-.178a2.743,2.743,0,0,0,.082-.67q.027-.492.041-1.422A3.181,3.181,0,0,0,78.1,28a2.765,2.765,0,0,0,.479.184,14.464,14.464,0,0,1-.15,1.661,1.691,1.691,0,0,1-.335.854.838.838,0,0,1-.65.253h-.909a1.061,1.061,0,0,1-.861-.294,1.978,1.978,0,0,1-.232-1.148v-7.15H73.593q-.041.861-.123,1.675a14.714,14.714,0,0,1-.226,1.559q.547.369,1.012.738a7.553,7.553,0,0,1,.793.7l-.629.882a8.039,8.039,0,0,0-.622-.581q-.362-.315-.793-.649a9.518,9.518,0,0,1-1.087,2.5,6.479,6.479,0,0,1-1.894,1.935,2.76,2.76,0,0,0-.342-.417,2.325,2.325,0,0,0-.41-.355A5.842,5.842,0,0,0,71.111,28.5a8.681,8.681,0,0,0,1.012-2.427q-.458-.307-.937-.6a10.148,10.148,0,0,0-.937-.52l.6-.772q.355.191.725.4t.745.438q.1-.629.164-1.285t.1-1.374H70.435V21.332h2.181q.021-.731.021-1.483t.007-1.552h1.025q0,1.565-.041,3.035h2.81v8.176a1.1,1.1,0,0,0,.048.417A.237.237,0,0,0,76.7,30.014ZM91.92,19.138v.978H85.091v-.978Zm-9.167-.854.991.39a13.116,13.116,0,0,1-1.053,1.251q-.595.629-1.251,1.21a15.458,15.458,0,0,1-1.278,1.012q-.116-.171-.3-.424a4.221,4.221,0,0,0-.314-.4,12.964,12.964,0,0,0,1.189-.909,15.026,15.026,0,0,0,1.135-1.073A8.837,8.837,0,0,0,82.753,18.283Zm.574,2.981.964.362a12.553,12.553,0,0,1-.718,1.073q-.39.526-.82,1.046v7.362H81.714V24.887q-.4.41-.793.786t-.786.67q-.116-.157-.349-.431t-.383-.437a12.355,12.355,0,0,0,1.442-1.189A16.407,16.407,0,0,0,82.2,22.829,13.347,13.347,0,0,0,83.327,21.264Zm9,1.7v.991H90.211v5.783a1.632,1.632,0,0,1-.137.745.792.792,0,0,1-.479.39,3.66,3.66,0,0,1-.978.137q-.622.021-1.654.021a2.87,2.87,0,0,0-.123-.506,3.31,3.31,0,0,0-.212-.506q.745.02,1.36.021t.827-.007a.473.473,0,0,0,.273-.068.3.3,0,0,0,.075-.239V23.95H84.489v-.991Z"/>
    <path id="Path_71" data-name="Path 71" d="M198.522,19.22a5.383,5.383,0,0,1,.812,1.386q-.042.084-.336.028a2.035,2.035,0,0,0-.448-.028q-.224.014-.8.056-1.834.154-2.87.2v1.918h2.03a15.259,15.259,0,0,0,1.722-.084v1.176a8.723,8.723,0,0,0-1.694-.084h-2.058v1.75h2.954a19.741,19.741,0,0,0,2.352-.112V26.64a.847.847,0,0,1-.126-.014,13.418,13.418,0,0,0-2.17-.1h-3.01v3.108q.028.91-.476,1.176a4.823,4.823,0,0,1-2.1.322,6.052,6.052,0,0,0-.42-1.33,3.755,3.755,0,0,0,1.6-.014q.323-.1.294-.84V26.528H189.94a11.146,11.146,0,0,0-2.156.112V25.422a17.78,17.78,0,0,0,2.184.112h3.808V23.812h-2.6q-.994,0-1.414.042c-.112.009-.205.014-.28.014v-1.12q.49.042,1.75.056h2.548V20.942q-.378.014-1.4.07-2.045.112-3.206.126a4.079,4.079,0,0,0-.56-1.19,51.97,51.97,0,0,0,5.712-.084A21.731,21.731,0,0,0,198.522,19.22Zm5.81-.588q1.722.476,1.582.532.014.07-.126.2a1.4,1.4,0,0,0-.378.476c-.019.047-.051.117-.1.21q-.308.644-.42.924h1.274q.308,0,1.19-.042c.168-.009.3-.014.392-.014v1.092a4.447,4.447,0,0,0-.5-.042q-.154-.014-.378-.014h-2.338a23.755,23.755,0,0,1-1.358,3h1.386v-1.19a6.872,6.872,0,0,0-.084-.9c.056,0,.145,0,.266.014q1.246.07,1.176.182a.229.229,0,0,1-.042.154,4.091,4.091,0,0,0-.266,1.736h.672c.187,0,.5-.014.938-.042a1.9,1.9,0,0,1,.2-.014v1.134a5.719,5.719,0,0,0-1.106-.084h-.7v1.61q.6-.154,1.918-.392l.252-.042-.112,1.19-2.058.364v1.386q0,.434.1,1.33a.633.633,0,0,1,.014.112h-1.246a.4.4,0,0,1,.014-.084q.071-.8.07-1.358V28.838q-1.961.448-2.688.574l-.336-1.246q1.037-.126,3.024-.448V25.94h-1.5q-.252.042-1.092.168l-.266-1.274q.6.1,1.568-2.506c.065-.168.117-.294.154-.378h-.5a7.928,7.928,0,0,0-1.274.056v-1.12a10,10,0,0,0,1.414.084h.63A11.263,11.263,0,0,0,204.332,18.632Zm5.278.168a6.317,6.317,0,0,1,1.722.588q.028.056-.084.14a1.12,1.12,0,0,0-.364.42,6.662,6.662,0,0,0,3.836,3.64q.028.056-.126.2-.42.42-.924,1.022a8.578,8.578,0,0,1-3.416-4.116,20.1,20.1,0,0,1-3.01,3.892,2.758,2.758,0,0,0-1.162-.672A8.345,8.345,0,0,0,209.61,18.8Zm-1.022,4.76q1.457.042,1.47.2a.281.281,0,0,1-.084.2,1.53,1.53,0,0,0-.28.938v1.722a13.381,13.381,0,0,0,2.674-1.666q.979.966.994,1.218c-.009.037-.1.065-.28.084a2.761,2.761,0,0,0-.8.168q-1.2.476-2.59,1.162v1.26q-.014.84.2,1.022.2.238.994.224a5.859,5.859,0,0,0,.882-.042.91.91,0,0,0,.448-.21,2.09,2.09,0,0,0,.392-1.358c.009-.009.033,0,.07.028a5.778,5.778,0,0,0,1.246.686,3.377,3.377,0,0,1-.686,1.6,1.761,1.761,0,0,1-1.316.434h-1.638a5.077,5.077,0,0,1-.966-.056.686.686,0,0,1-.434-.28,1.485,1.485,0,0,1-.2-.658q-.042-.42-.042-1.47V25Q208.644,24.106,208.588,23.56Z"/>
    <path id="Path_72" data-name="Path 72" d="M226.526,50.8q1.456-.042,1.582.14c.019.047-.005.107-.07.182a.982.982,0,0,0-.238.658v2.17h1.26a13.534,13.534,0,0,0,2-.112v1.33a13.787,13.787,0,0,0-2.03-.112H227.8v6.72a1.015,1.015,0,0,1-.476,1.092,5.133,5.133,0,0,1-2.1.462,4.016,4.016,0,0,0-.462-1.218,2.333,2.333,0,0,1-.154-.28,3.754,3.754,0,0,0,1.666-.014.524.524,0,0,0,.294-.266,1.032,1.032,0,0,0,.07-.518V55.056H221a12.114,12.114,0,0,0-2.128.112v-1.33a13.1,13.1,0,0,0,2.1.112h5.67V51.78q0-.168-.07-.714Q226.539,50.9,226.526,50.8Zm-4.242,5.166a21.068,21.068,0,0,1,2.044,3.122l-1.3.63a14.435,14.435,0,0,0-1.918-3.164Zm18.186-5.278a3.46,3.46,0,0,1,1.75.336.469.469,0,0,1-.112.238,1.014,1.014,0,0,0-.168.378,16.416,16.416,0,0,0-.224,2.226h1.512a12.315,12.315,0,0,0,1.582-.084.136.136,0,0,1,.168.084q-.644,8.736-.924,8.274-.35.686-2.31.854a2.63,2.63,0,0,0-.434-1.414q1.5.168,1.722-.336.364-.252.63-6.356h-1.974q-.168,6.734-4.046,8.554a3.027,3.027,0,0,0-1.358-.994q4.172-.994,4.242-7.532h-.644a6.1,6.1,0,0,0-1.106.1c-.065.009-.1.014-.112.014v1.134a1.189,1.189,0,0,1-.126-.014,11.965,11.965,0,0,0-1.68-.1h-.392a18.531,18.531,0,0,1-1.806,4.088l2.73-.756q-.308-.658-.7-1.358l.98-.462a16.119,16.119,0,0,1,1.386,2.828l-1.078.644a3.362,3.362,0,0,0-.252-.728,38.341,38.341,0,0,0-3.836,1.19,1.389,1.389,0,0,1-.392.112l-.616-1.218a.464.464,0,0,1,.126-.07q1.063-.322,2.212-4.242h-.532a13.827,13.827,0,0,0-1.708.1q-.14.014-.168.014V54.944c.019,0,.065,0,.14.014a14.269,14.269,0,0,0,1.708.1h2.086a7.935,7.935,0,0,0,1.386-.1.729.729,0,0,1,.084-.014V53.782a2.4,2.4,0,0,1,.252.028,12.742,12.742,0,0,0,1.4.084h.742q0-1.442-.028-2.1A6.234,6.234,0,0,0,240.47,50.688ZM233.414,52c.019,0,.079,0,.182.014a14.341,14.341,0,0,0,1.764.1h1.078a14.81,14.81,0,0,0,1.792-.1c.1-.009.163-.014.182-.014V53.25a1.508,1.508,0,0,1-.154-.014,12.18,12.18,0,0,0-1.764-.1H235.3a13.457,13.457,0,0,0-1.666.1c-.121.009-.2.014-.224.014Z"/>
    <g id="Group_1" data-name="Group 1">
      <path id="Subtraction_1" data-name="Subtraction 1" d="M-312.72-331.247l0,0L-327-352.99l25.8-3.639a32.608,32.608,0,0,0-11.519,25.378Z" transform="translate(421.014 433.723)" fill="#114f82"/>
      <ellipse id="Ellipse_3" data-name="Ellipse 3" cx="32.838" cy="32.756" rx="32.838" ry="32.756" transform="matrix(-0.995, 0.098, -0.099, -0.995, 177.041, 131.394)" fill="#fff" stroke="#2d64b5" stroke-width="1"/>
    </g>
  </g>
</svg>
