<svg width="18" height="18" viewBox="0 0 22 22" fill="none" xmlns="http://www.w3.org/2000/svg">
<path d="M18.1151 11.0203L10.1482 2.84095C9.85501 2.5293 9.69278 2.1119 9.69645 1.67865C9.70012 1.24539 9.86938 0.830953 10.1678 0.524586C10.4662 0.218218 10.8699 0.0444372 11.2919 0.0406723C11.7139 0.0369075 12.1204 0.20346 12.424 0.504457L21.5288 9.85206C21.8305 10.1619 22 10.5821 22 11.0203C22 11.4585 21.8305 11.8787 21.5288 12.1885L12.424 21.5362C12.1204 21.8372 11.7139 22.0037 11.2919 21.9999C10.8699 21.9962 10.4662 21.8224 10.1678 21.516C9.86938 21.2097 9.70012 20.7952 9.69645 20.362C9.69278 19.9287 9.85501 19.5113 10.1482 19.1997L18.1151 11.0203ZM8.45824 11.0203L0.491353 2.84095C0.337632 2.68852 0.215019 2.50618 0.130668 2.30458C0.0463171 2.10299 0.0019178 1.88616 6.07685e-05 1.66675C-0.00179627 1.44735 0.0389261 1.22976 0.119852 1.02669C0.200778 0.823617 0.320286 0.639123 0.471404 0.483976C0.622521 0.328828 0.802222 0.206132 1.00002 0.123048C1.19782 0.0399643 1.40975 -0.00184417 1.62346 6.23891e-05C1.83716 0.00196895 2.04836 0.0475523 2.24472 0.134153C2.44108 0.220753 2.61868 0.346636 2.76715 0.504457L11.8719 9.85206C12.1737 10.1619 12.3432 10.5821 12.3432 11.0203C12.3432 11.4585 12.1737 11.8787 11.8719 12.1885L2.76715 21.5362C2.4636 21.8372 2.05704 22.0037 1.63504 21.9999C1.21304 21.9962 0.809368 21.8224 0.510959 21.516C0.212549 21.2097 0.0432829 20.7952 0.0396158 20.362C0.0359488 19.9287 0.198175 19.5113 0.491353 19.1997L8.45824 11.0203Z" fill="white"/>
</svg>
