<svg width="18" height="18" viewBox="0 0 22 22" fill="none" xmlns="http://www.w3.org/2000/svg">
<path d="M3.88492 11.0203L11.8518 2.84095C12.145 2.5293 12.3072 2.1119 12.3035 1.67865C12.2999 1.24539 12.1306 0.830953 11.8322 0.524586C11.5338 0.218218 11.1301 0.0444372 10.7081 0.0406723C10.2861 0.0369075 9.87957 0.20346 9.57602 0.504457L0.47123 9.85206C0.1695 10.1619 0 10.5821 0 11.0203C0 11.4585 0.1695 11.8787 0.47123 12.1885L9.57602 21.5362C9.87957 21.8372 10.2861 22.0037 10.7081 21.9999C11.1301 21.9962 11.5338 21.8224 11.8322 21.516C12.1306 21.2097 12.2999 20.7952 12.3035 20.362C12.3072 19.9287 12.145 19.5113 11.8518 19.1997L3.88492 11.0203ZM13.5418 11.0203L21.5086 2.84095C21.6624 2.68852 21.785 2.50618 21.8693 2.30458C21.9537 2.10299 21.9981 1.88616 21.9999 1.66675C22.0018 1.44735 21.9611 1.22976 21.8801 1.02669C21.7992 0.823617 21.6797 0.639123 21.5286 0.483976C21.3775 0.328828 21.1978 0.206132 21 0.123048C20.8022 0.0399643 20.5902 -0.00184417 20.3765 6.23891e-05C20.1628 0.00196895 19.9516 0.0475523 19.7553 0.134153C19.5589 0.220753 19.3813 0.346636 19.2329 0.504457L10.1281 9.85206C9.82634 10.1619 9.65683 10.5821 9.65683 11.0203C9.65683 11.4585 9.82634 11.8787 10.1281 12.1885L19.2329 21.5362C19.5364 21.8372 19.943 22.0037 20.365 21.9999C20.787 21.9962 21.1906 21.8224 21.489 21.516C21.7875 21.2097 21.9567 20.7952 21.9604 20.362C21.9641 19.9287 21.8018 19.5113 21.5086 19.1997L13.5418 11.0203Z" fill="white"/>
</svg>
