<svg width="185" height="30" viewBox="0 0 185 30" fill="none" xmlns="http://www.w3.org/2000/svg">
<circle cx="15" cy="15" r="14.5" stroke="#BADEFF"/>
<path d="M38.9355 11.749L36.2285 20H34.0479L37.7461 10.0469H39.1338L38.9355 11.749ZM41.1846 20L38.4707 11.749L38.252 10.0469H39.6533L43.3721 20H41.1846ZM41.0615 16.2949V17.9014H35.8047V16.2949H41.0615ZM48.1641 18.332V15.0371C48.1641 14.8001 48.1253 14.5973 48.0479 14.4287C47.9704 14.2555 47.8496 14.1211 47.6855 14.0254C47.526 13.9297 47.3187 13.8818 47.0635 13.8818C46.8447 13.8818 46.6556 13.9206 46.4961 13.998C46.3366 14.071 46.2135 14.1781 46.127 14.3193C46.0404 14.4561 45.9971 14.6178 45.9971 14.8047H44.0283C44.0283 14.4902 44.1012 14.1917 44.2471 13.9092C44.3929 13.6266 44.6048 13.3783 44.8828 13.1641C45.1608 12.9453 45.4912 12.7744 45.874 12.6514C46.2614 12.5283 46.6943 12.4668 47.1729 12.4668C47.7471 12.4668 48.2575 12.5625 48.7041 12.7539C49.1507 12.9453 49.5016 13.2324 49.7568 13.6152C50.0166 13.998 50.1465 14.4766 50.1465 15.0508V18.2158C50.1465 18.6214 50.1715 18.9541 50.2217 19.2139C50.2718 19.4691 50.3447 19.6924 50.4404 19.8838V20H48.4512C48.3555 19.7995 48.2826 19.5488 48.2324 19.248C48.1868 18.9427 48.1641 18.6374 48.1641 18.332ZM48.4238 15.4951L48.4375 16.6094H47.3369C47.0771 16.6094 46.8516 16.639 46.6602 16.6982C46.4688 16.7575 46.3115 16.8418 46.1885 16.9512C46.0654 17.056 45.9743 17.179 45.915 17.3203C45.8604 17.4616 45.833 17.6165 45.833 17.7852C45.833 17.9538 45.8717 18.1064 45.9492 18.2432C46.0267 18.3753 46.1383 18.4801 46.2842 18.5576C46.43 18.6305 46.6009 18.667 46.7969 18.667C47.0931 18.667 47.3506 18.6077 47.5693 18.4893C47.7881 18.3708 47.9567 18.2249 48.0752 18.0518C48.1982 17.8786 48.262 17.7145 48.2666 17.5596L48.7861 18.3936C48.7132 18.5804 48.613 18.7741 48.4854 18.9746C48.3623 19.1751 48.2051 19.3643 48.0137 19.542C47.8223 19.7152 47.5921 19.8587 47.3232 19.9727C47.0544 20.082 46.7354 20.1367 46.3662 20.1367C45.8968 20.1367 45.4707 20.0433 45.0879 19.8564C44.7096 19.665 44.4089 19.403 44.1855 19.0703C43.9668 18.7331 43.8574 18.3503 43.8574 17.9219C43.8574 17.5345 43.9303 17.1904 44.0762 16.8896C44.222 16.5889 44.4362 16.3359 44.7188 16.1309C45.0059 15.9212 45.3636 15.764 45.792 15.6592C46.2204 15.5498 46.7171 15.4951 47.2822 15.4951H48.4238ZM55.6562 18.332V15.0371C55.6562 14.8001 55.6175 14.5973 55.54 14.4287C55.4626 14.2555 55.3418 14.1211 55.1777 14.0254C55.0182 13.9297 54.8109 13.8818 54.5557 13.8818C54.3369 13.8818 54.1478 13.9206 53.9883 13.998C53.8288 14.071 53.7057 14.1781 53.6191 14.3193C53.5326 14.4561 53.4893 14.6178 53.4893 14.8047H51.5205C51.5205 14.4902 51.5934 14.1917 51.7393 13.9092C51.8851 13.6266 52.097 13.3783 52.375 13.1641C52.653 12.9453 52.9834 12.7744 53.3662 12.6514C53.7536 12.5283 54.1865 12.4668 54.665 12.4668C55.2393 12.4668 55.7497 12.5625 56.1963 12.7539C56.6429 12.9453 56.9938 13.2324 57.249 13.6152C57.5088 13.998 57.6387 14.4766 57.6387 15.0508V18.2158C57.6387 18.6214 57.6637 18.9541 57.7139 19.2139C57.764 19.4691 57.8369 19.6924 57.9326 19.8838V20H55.9434C55.8477 19.7995 55.7747 19.5488 55.7246 19.248C55.679 18.9427 55.6562 18.6374 55.6562 18.332ZM55.916 15.4951L55.9297 16.6094H54.8291C54.5693 16.6094 54.3438 16.639 54.1523 16.6982C53.9609 16.7575 53.8037 16.8418 53.6807 16.9512C53.5576 17.056 53.4665 17.179 53.4072 17.3203C53.3525 17.4616 53.3252 17.6165 53.3252 17.7852C53.3252 17.9538 53.3639 18.1064 53.4414 18.2432C53.5189 18.3753 53.6305 18.4801 53.7764 18.5576C53.9222 18.6305 54.0931 18.667 54.2891 18.667C54.5853 18.667 54.8428 18.6077 55.0615 18.4893C55.2803 18.3708 55.4489 18.2249 55.5674 18.0518C55.6904 17.8786 55.7542 17.7145 55.7588 17.5596L56.2783 18.3936C56.2054 18.5804 56.1051 18.7741 55.9775 18.9746C55.8545 19.1751 55.6973 19.3643 55.5059 19.542C55.3145 19.7152 55.0843 19.8587 54.8154 19.9727C54.5465 20.082 54.2275 20.1367 53.8584 20.1367C53.389 20.1367 52.9629 20.0433 52.5801 19.8564C52.2018 19.665 51.901 19.403 51.6777 19.0703C51.459 18.7331 51.3496 18.3503 51.3496 17.9219C51.3496 17.5345 51.4225 17.1904 51.5684 16.8896C51.7142 16.5889 51.9284 16.3359 52.2109 16.1309C52.498 15.9212 52.8558 15.764 53.2842 15.6592C53.7126 15.5498 54.2093 15.4951 54.7744 15.4951H55.916ZM63.1484 18.332V15.0371C63.1484 14.8001 63.1097 14.5973 63.0322 14.4287C62.9548 14.2555 62.834 14.1211 62.6699 14.0254C62.5104 13.9297 62.3031 13.8818 62.0479 13.8818C61.8291 13.8818 61.64 13.9206 61.4805 13.998C61.321 14.071 61.1979 14.1781 61.1113 14.3193C61.0247 14.4561 60.9814 14.6178 60.9814 14.8047H59.0127C59.0127 14.4902 59.0856 14.1917 59.2314 13.9092C59.3773 13.6266 59.5892 13.3783 59.8672 13.1641C60.1452 12.9453 60.4756 12.7744 60.8584 12.6514C61.2458 12.5283 61.6787 12.4668 62.1572 12.4668C62.7314 12.4668 63.2419 12.5625 63.6885 12.7539C64.1351 12.9453 64.486 13.2324 64.7412 13.6152C65.001 13.998 65.1309 14.4766 65.1309 15.0508V18.2158C65.1309 18.6214 65.1559 18.9541 65.2061 19.2139C65.2562 19.4691 65.3291 19.6924 65.4248 19.8838V20H63.4355C63.3398 19.7995 63.2669 19.5488 63.2168 19.248C63.1712 18.9427 63.1484 18.6374 63.1484 18.332ZM63.4082 15.4951L63.4219 16.6094H62.3213C62.0615 16.6094 61.8359 16.639 61.6445 16.6982C61.4531 16.7575 61.2959 16.8418 61.1729 16.9512C61.0498 17.056 60.9587 17.179 60.8994 17.3203C60.8447 17.4616 60.8174 17.6165 60.8174 17.7852C60.8174 17.9538 60.8561 18.1064 60.9336 18.2432C61.0111 18.3753 61.1227 18.4801 61.2686 18.5576C61.4144 18.6305 61.5853 18.667 61.7812 18.667C62.0775 18.667 62.335 18.6077 62.5537 18.4893C62.7725 18.3708 62.9411 18.2249 63.0596 18.0518C63.1826 17.8786 63.2464 17.7145 63.251 17.5596L63.7705 18.3936C63.6976 18.5804 63.5973 18.7741 63.4697 18.9746C63.3467 19.1751 63.1895 19.3643 62.998 19.542C62.8066 19.7152 62.5765 19.8587 62.3076 19.9727C62.0387 20.082 61.7197 20.1367 61.3506 20.1367C60.8812 20.1367 60.4551 20.0433 60.0723 19.8564C59.694 19.665 59.3932 19.403 59.1699 19.0703C58.9512 18.7331 58.8418 18.3503 58.8418 17.9219C58.8418 17.5345 58.9147 17.1904 59.0605 16.8896C59.2064 16.5889 59.4206 16.3359 59.7031 16.1309C59.9902 15.9212 60.348 15.764 60.7764 15.6592C61.2048 15.5498 61.7015 15.4951 62.2666 15.4951H63.4082ZM70.6406 18.332V15.0371C70.6406 14.8001 70.6019 14.5973 70.5244 14.4287C70.4469 14.2555 70.3262 14.1211 70.1621 14.0254C70.0026 13.9297 69.7952 13.8818 69.54 13.8818C69.3213 13.8818 69.1322 13.9206 68.9727 13.998C68.8132 14.071 68.6901 14.1781 68.6035 14.3193C68.5169 14.4561 68.4736 14.6178 68.4736 14.8047H66.5049C66.5049 14.4902 66.5778 14.1917 66.7236 13.9092C66.8695 13.6266 67.0814 13.3783 67.3594 13.1641C67.6374 12.9453 67.9678 12.7744 68.3506 12.6514C68.738 12.5283 69.1709 12.4668 69.6494 12.4668C70.2236 12.4668 70.734 12.5625 71.1807 12.7539C71.6273 12.9453 71.9782 13.2324 72.2334 13.6152C72.4932 13.998 72.623 14.4766 72.623 15.0508V18.2158C72.623 18.6214 72.6481 18.9541 72.6982 19.2139C72.7484 19.4691 72.8213 19.6924 72.917 19.8838V20H70.9277C70.832 19.7995 70.7591 19.5488 70.709 19.248C70.6634 18.9427 70.6406 18.6374 70.6406 18.332ZM70.9004 15.4951L70.9141 16.6094H69.8135C69.5537 16.6094 69.3281 16.639 69.1367 16.6982C68.9453 16.7575 68.7881 16.8418 68.665 16.9512C68.542 17.056 68.4508 17.179 68.3916 17.3203C68.3369 17.4616 68.3096 17.6165 68.3096 17.7852C68.3096 17.9538 68.3483 18.1064 68.4258 18.2432C68.5033 18.3753 68.6149 18.4801 68.7607 18.5576C68.9066 18.6305 69.0775 18.667 69.2734 18.667C69.5697 18.667 69.8271 18.6077 70.0459 18.4893C70.2646 18.3708 70.4333 18.2249 70.5518 18.0518C70.6748 17.8786 70.7386 17.7145 70.7432 17.5596L71.2627 18.3936C71.1898 18.5804 71.0895 18.7741 70.9619 18.9746C70.8389 19.1751 70.6816 19.3643 70.4902 19.542C70.2988 19.7152 70.0687 19.8587 69.7998 19.9727C69.5309 20.082 69.2119 20.1367 68.8428 20.1367C68.3734 20.1367 67.9473 20.0433 67.5645 19.8564C67.1862 19.665 66.8854 19.403 66.6621 19.0703C66.4434 18.7331 66.334 18.3503 66.334 17.9219C66.334 17.5345 66.4069 17.1904 66.5527 16.8896C66.6986 16.5889 66.9128 16.3359 67.1953 16.1309C67.4824 15.9212 67.8402 15.764 68.2686 15.6592C68.6969 15.5498 69.1937 15.4951 69.7588 15.4951H70.9004ZM78.1328 18.332V15.0371C78.1328 14.8001 78.0941 14.5973 78.0166 14.4287C77.9391 14.2555 77.8184 14.1211 77.6543 14.0254C77.4948 13.9297 77.2874 13.8818 77.0322 13.8818C76.8135 13.8818 76.6243 13.9206 76.4648 13.998C76.3053 14.071 76.1823 14.1781 76.0957 14.3193C76.0091 14.4561 75.9658 14.6178 75.9658 14.8047H73.9971C73.9971 14.4902 74.07 14.1917 74.2158 13.9092C74.3617 13.6266 74.5736 13.3783 74.8516 13.1641C75.1296 12.9453 75.46 12.7744 75.8428 12.6514C76.2301 12.5283 76.6631 12.4668 77.1416 12.4668C77.7158 12.4668 78.2262 12.5625 78.6729 12.7539C79.1195 12.9453 79.4704 13.2324 79.7256 13.6152C79.9854 13.998 80.1152 14.4766 80.1152 15.0508V18.2158C80.1152 18.6214 80.1403 18.9541 80.1904 19.2139C80.2406 19.4691 80.3135 19.6924 80.4092 19.8838V20H78.4199C78.3242 19.7995 78.2513 19.5488 78.2012 19.248C78.1556 18.9427 78.1328 18.6374 78.1328 18.332ZM78.3926 15.4951L78.4062 16.6094H77.3057C77.0459 16.6094 76.8203 16.639 76.6289 16.6982C76.4375 16.7575 76.2803 16.8418 76.1572 16.9512C76.0342 17.056 75.943 17.179 75.8838 17.3203C75.8291 17.4616 75.8018 17.6165 75.8018 17.7852C75.8018 17.9538 75.8405 18.1064 75.918 18.2432C75.9954 18.3753 76.1071 18.4801 76.2529 18.5576C76.3988 18.6305 76.5697 18.667 76.7656 18.667C77.0618 18.667 77.3193 18.6077 77.5381 18.4893C77.7568 18.3708 77.9255 18.2249 78.0439 18.0518C78.167 17.8786 78.2308 17.7145 78.2354 17.5596L78.7549 18.3936C78.682 18.5804 78.5817 18.7741 78.4541 18.9746C78.3311 19.1751 78.1738 19.3643 77.9824 19.542C77.791 19.7152 77.5609 19.8587 77.292 19.9727C77.0231 20.082 76.7041 20.1367 76.335 20.1367C75.8656 20.1367 75.4395 20.0433 75.0566 19.8564C74.6784 19.665 74.3776 19.403 74.1543 19.0703C73.9355 18.7331 73.8262 18.3503 73.8262 17.9219C73.8262 17.5345 73.8991 17.1904 74.0449 16.8896C74.1908 16.5889 74.4049 16.3359 74.6875 16.1309C74.9746 15.9212 75.3324 15.764 75.7607 15.6592C76.1891 15.5498 76.6859 15.4951 77.251 15.4951H78.3926ZM85.625 18.332V15.0371C85.625 14.8001 85.5863 14.5973 85.5088 14.4287C85.4313 14.2555 85.3105 14.1211 85.1465 14.0254C84.987 13.9297 84.7796 13.8818 84.5244 13.8818C84.3057 13.8818 84.1165 13.9206 83.957 13.998C83.7975 14.071 83.6745 14.1781 83.5879 14.3193C83.5013 14.4561 83.458 14.6178 83.458 14.8047H81.4893C81.4893 14.4902 81.5622 14.1917 81.708 13.9092C81.8538 13.6266 82.0658 13.3783 82.3438 13.1641C82.6217 12.9453 82.9521 12.7744 83.335 12.6514C83.7223 12.5283 84.1553 12.4668 84.6338 12.4668C85.208 12.4668 85.7184 12.5625 86.165 12.7539C86.6117 12.9453 86.9626 13.2324 87.2178 13.6152C87.4775 13.998 87.6074 14.4766 87.6074 15.0508V18.2158C87.6074 18.6214 87.6325 18.9541 87.6826 19.2139C87.7327 19.4691 87.8057 19.6924 87.9014 19.8838V20H85.9121C85.8164 19.7995 85.7435 19.5488 85.6934 19.248C85.6478 18.9427 85.625 18.6374 85.625 18.332ZM85.8848 15.4951L85.8984 16.6094H84.7979C84.5381 16.6094 84.3125 16.639 84.1211 16.6982C83.9297 16.7575 83.7725 16.8418 83.6494 16.9512C83.5264 17.056 83.4352 17.179 83.376 17.3203C83.3213 17.4616 83.2939 17.6165 83.2939 17.7852C83.2939 17.9538 83.3327 18.1064 83.4102 18.2432C83.4876 18.3753 83.5993 18.4801 83.7451 18.5576C83.891 18.6305 84.0618 18.667 84.2578 18.667C84.554 18.667 84.8115 18.6077 85.0303 18.4893C85.249 18.3708 85.4176 18.2249 85.5361 18.0518C85.6592 17.8786 85.723 17.7145 85.7275 17.5596L86.2471 18.3936C86.1742 18.5804 86.0739 18.7741 85.9463 18.9746C85.8232 19.1751 85.666 19.3643 85.4746 19.542C85.2832 19.7152 85.0531 19.8587 84.7842 19.9727C84.5153 20.082 84.1963 20.1367 83.8271 20.1367C83.3577 20.1367 82.9316 20.0433 82.5488 19.8564C82.1706 19.665 81.8698 19.403 81.6465 19.0703C81.4277 18.7331 81.3184 18.3503 81.3184 17.9219C81.3184 17.5345 81.3913 17.1904 81.5371 16.8896C81.6829 16.5889 81.8971 16.3359 82.1797 16.1309C82.4668 15.9212 82.8245 15.764 83.2529 15.6592C83.6813 15.5498 84.1781 15.4951 84.7432 15.4951H85.8848ZM93.1172 18.332V15.0371C93.1172 14.8001 93.0785 14.5973 93.001 14.4287C92.9235 14.2555 92.8027 14.1211 92.6387 14.0254C92.4792 13.9297 92.2718 13.8818 92.0166 13.8818C91.7979 13.8818 91.6087 13.9206 91.4492 13.998C91.2897 14.071 91.1667 14.1781 91.0801 14.3193C90.9935 14.4561 90.9502 14.6178 90.9502 14.8047H88.9814C88.9814 14.4902 89.0544 14.1917 89.2002 13.9092C89.346 13.6266 89.5579 13.3783 89.8359 13.1641C90.1139 12.9453 90.4443 12.7744 90.8271 12.6514C91.2145 12.5283 91.6475 12.4668 92.126 12.4668C92.7002 12.4668 93.2106 12.5625 93.6572 12.7539C94.1038 12.9453 94.4548 13.2324 94.71 13.6152C94.9697 13.998 95.0996 14.4766 95.0996 15.0508V18.2158C95.0996 18.6214 95.1247 18.9541 95.1748 19.2139C95.2249 19.4691 95.2979 19.6924 95.3936 19.8838V20H93.4043C93.3086 19.7995 93.2357 19.5488 93.1855 19.248C93.14 18.9427 93.1172 18.6374 93.1172 18.332ZM93.377 15.4951L93.3906 16.6094H92.29C92.0303 16.6094 91.8047 16.639 91.6133 16.6982C91.4219 16.7575 91.2646 16.8418 91.1416 16.9512C91.0186 17.056 90.9274 17.179 90.8682 17.3203C90.8135 17.4616 90.7861 17.6165 90.7861 17.7852C90.7861 17.9538 90.8249 18.1064 90.9023 18.2432C90.9798 18.3753 91.0915 18.4801 91.2373 18.5576C91.3831 18.6305 91.554 18.667 91.75 18.667C92.0462 18.667 92.3037 18.6077 92.5225 18.4893C92.7412 18.3708 92.9098 18.2249 93.0283 18.0518C93.1514 17.8786 93.2152 17.7145 93.2197 17.5596L93.7393 18.3936C93.6663 18.5804 93.5661 18.7741 93.4385 18.9746C93.3154 19.1751 93.1582 19.3643 92.9668 19.542C92.7754 19.7152 92.5452 19.8587 92.2764 19.9727C92.0075 20.082 91.6885 20.1367 91.3193 20.1367C90.8499 20.1367 90.4238 20.0433 90.041 19.8564C89.6628 19.665 89.362 19.403 89.1387 19.0703C88.9199 18.7331 88.8105 18.3503 88.8105 17.9219C88.8105 17.5345 88.8835 17.1904 89.0293 16.8896C89.1751 16.5889 89.3893 16.3359 89.6719 16.1309C89.959 15.9212 90.3167 15.764 90.7451 15.6592C91.1735 15.5498 91.6702 15.4951 92.2354 15.4951H93.377ZM100.609 18.332V15.0371C100.609 14.8001 100.571 14.5973 100.493 14.4287C100.416 14.2555 100.295 14.1211 100.131 14.0254C99.9714 13.9297 99.764 13.8818 99.5088 13.8818C99.29 13.8818 99.1009 13.9206 98.9414 13.998C98.7819 14.071 98.6589 14.1781 98.5723 14.3193C98.4857 14.4561 98.4424 14.6178 98.4424 14.8047H96.4736C96.4736 14.4902 96.5465 14.1917 96.6924 13.9092C96.8382 13.6266 97.0501 13.3783 97.3281 13.1641C97.6061 12.9453 97.9365 12.7744 98.3193 12.6514C98.7067 12.5283 99.1396 12.4668 99.6182 12.4668C100.192 12.4668 100.703 12.5625 101.149 12.7539C101.596 12.9453 101.947 13.2324 102.202 13.6152C102.462 13.998 102.592 14.4766 102.592 15.0508V18.2158C102.592 18.6214 102.617 18.9541 102.667 19.2139C102.717 19.4691 102.79 19.6924 102.886 19.8838V20H100.896C100.801 19.7995 100.728 19.5488 100.678 19.248C100.632 18.9427 100.609 18.6374 100.609 18.332ZM100.869 15.4951L100.883 16.6094H99.7822C99.5225 16.6094 99.2969 16.639 99.1055 16.6982C98.9141 16.7575 98.7568 16.8418 98.6338 16.9512C98.5107 17.056 98.4196 17.179 98.3604 17.3203C98.3057 17.4616 98.2783 17.6165 98.2783 17.7852C98.2783 17.9538 98.3171 18.1064 98.3945 18.2432C98.472 18.3753 98.5837 18.4801 98.7295 18.5576C98.8753 18.6305 99.0462 18.667 99.2422 18.667C99.5384 18.667 99.7959 18.6077 100.015 18.4893C100.233 18.3708 100.402 18.2249 100.521 18.0518C100.644 17.8786 100.707 17.7145 100.712 17.5596L101.231 18.3936C101.159 18.5804 101.058 18.7741 100.931 18.9746C100.808 19.1751 100.65 19.3643 100.459 19.542C100.268 19.7152 100.037 19.8587 99.7686 19.9727C99.4997 20.082 99.1807 20.1367 98.8115 20.1367C98.3421 20.1367 97.916 20.0433 97.5332 19.8564C97.1549 19.665 96.8542 19.403 96.6309 19.0703C96.4121 18.7331 96.3027 18.3503 96.3027 17.9219C96.3027 17.5345 96.3757 17.1904 96.5215 16.8896C96.6673 16.5889 96.8815 16.3359 97.1641 16.1309C97.4512 15.9212 97.8089 15.764 98.2373 15.6592C98.6657 15.5498 99.1624 15.4951 99.7275 15.4951H100.869ZM108.102 18.332V15.0371C108.102 14.8001 108.063 14.5973 107.985 14.4287C107.908 14.2555 107.787 14.1211 107.623 14.0254C107.464 13.9297 107.256 13.8818 107.001 13.8818C106.782 13.8818 106.593 13.9206 106.434 13.998C106.274 14.071 106.151 14.1781 106.064 14.3193C105.978 14.4561 105.935 14.6178 105.935 14.8047H103.966C103.966 14.4902 104.039 14.1917 104.185 13.9092C104.33 13.6266 104.542 13.3783 104.82 13.1641C105.098 12.9453 105.429 12.7744 105.812 12.6514C106.199 12.5283 106.632 12.4668 107.11 12.4668C107.685 12.4668 108.195 12.5625 108.642 12.7539C109.088 12.9453 109.439 13.2324 109.694 13.6152C109.954 13.998 110.084 14.4766 110.084 15.0508V18.2158C110.084 18.6214 110.109 18.9541 110.159 19.2139C110.209 19.4691 110.282 19.6924 110.378 19.8838V20H108.389C108.293 19.7995 108.22 19.5488 108.17 19.248C108.124 18.9427 108.102 18.6374 108.102 18.332ZM108.361 15.4951L108.375 16.6094H107.274C107.015 16.6094 106.789 16.639 106.598 16.6982C106.406 16.7575 106.249 16.8418 106.126 16.9512C106.003 17.056 105.912 17.179 105.853 17.3203C105.798 17.4616 105.771 17.6165 105.771 17.7852C105.771 17.9538 105.809 18.1064 105.887 18.2432C105.964 18.3753 106.076 18.4801 106.222 18.5576C106.368 18.6305 106.538 18.667 106.734 18.667C107.031 18.667 107.288 18.6077 107.507 18.4893C107.726 18.3708 107.894 18.2249 108.013 18.0518C108.136 17.8786 108.2 17.7145 108.204 17.5596L108.724 18.3936C108.651 18.5804 108.55 18.7741 108.423 18.9746C108.3 19.1751 108.143 19.3643 107.951 19.542C107.76 19.7152 107.53 19.8587 107.261 19.9727C106.992 20.082 106.673 20.1367 106.304 20.1367C105.834 20.1367 105.408 20.0433 105.025 19.8564C104.647 19.665 104.346 19.403 104.123 19.0703C103.904 18.7331 103.795 18.3503 103.795 17.9219C103.795 17.5345 103.868 17.1904 104.014 16.8896C104.16 16.5889 104.374 16.3359 104.656 16.1309C104.943 15.9212 105.301 15.764 105.729 15.6592C106.158 15.5498 106.655 15.4951 107.22 15.4951H108.361ZM116.175 10.0469V20H114.131V10.0469H116.175ZM119.237 10.0469V11.6533H111.116V10.0469H119.237ZM123.236 18.332V15.0371C123.236 14.8001 123.198 14.5973 123.12 14.4287C123.043 14.2555 122.922 14.1211 122.758 14.0254C122.598 13.9297 122.391 13.8818 122.136 13.8818C121.917 13.8818 121.728 13.9206 121.568 13.998C121.409 14.071 121.286 14.1781 121.199 14.3193C121.113 14.4561 121.069 14.6178 121.069 14.8047H119.101C119.101 14.4902 119.174 14.1917 119.319 13.9092C119.465 13.6266 119.677 13.3783 119.955 13.1641C120.233 12.9453 120.563 12.7744 120.946 12.6514C121.334 12.5283 121.767 12.4668 122.245 12.4668C122.819 12.4668 123.33 12.5625 123.776 12.7539C124.223 12.9453 124.574 13.2324 124.829 13.6152C125.089 13.998 125.219 14.4766 125.219 15.0508V18.2158C125.219 18.6214 125.244 18.9541 125.294 19.2139C125.344 19.4691 125.417 19.6924 125.513 19.8838V20H123.523C123.428 19.7995 123.355 19.5488 123.305 19.248C123.259 18.9427 123.236 18.6374 123.236 18.332ZM123.496 15.4951L123.51 16.6094H122.409C122.149 16.6094 121.924 16.639 121.732 16.6982C121.541 16.7575 121.384 16.8418 121.261 16.9512C121.138 17.056 121.047 17.179 120.987 17.3203C120.933 17.4616 120.905 17.6165 120.905 17.7852C120.905 17.9538 120.944 18.1064 121.021 18.2432C121.099 18.3753 121.211 18.4801 121.356 18.5576C121.502 18.6305 121.673 18.667 121.869 18.667C122.165 18.667 122.423 18.6077 122.642 18.4893C122.86 18.3708 123.029 18.2249 123.147 18.0518C123.271 17.8786 123.334 17.7145 123.339 17.5596L123.858 18.3936C123.785 18.5804 123.685 18.7741 123.558 18.9746C123.435 19.1751 123.277 19.3643 123.086 19.542C122.895 19.7152 122.664 19.8587 122.396 19.9727C122.127 20.082 121.808 20.1367 121.438 20.1367C120.969 20.1367 120.543 20.0433 120.16 19.8564C119.782 19.665 119.481 19.403 119.258 19.0703C119.039 18.7331 118.93 18.3503 118.93 17.9219C118.93 17.5345 119.003 17.1904 119.148 16.8896C119.294 16.5889 119.508 16.3359 119.791 16.1309C120.078 15.9212 120.436 15.764 120.864 15.6592C121.293 15.5498 121.789 15.4951 122.354 15.4951H123.496ZM128.814 12.6035V20H126.839V12.6035H128.814ZM126.716 10.6758C126.716 10.3887 126.816 10.1517 127.017 9.96484C127.217 9.77799 127.486 9.68457 127.823 9.68457C128.156 9.68457 128.423 9.77799 128.623 9.96484C128.828 10.1517 128.931 10.3887 128.931 10.6758C128.931 10.9629 128.828 11.1999 128.623 11.3867C128.423 11.5736 128.156 11.667 127.823 11.667C127.486 11.667 127.217 11.5736 127.017 11.3867C126.816 11.1999 126.716 10.9629 126.716 10.6758ZM133.497 18.5986C133.739 18.5986 133.953 18.5531 134.14 18.4619C134.326 18.3662 134.472 18.234 134.577 18.0654C134.687 17.8923 134.743 17.6895 134.748 17.457H136.601C136.596 17.9766 136.457 18.4391 136.184 18.8447C135.91 19.2458 135.543 19.5625 135.083 19.7949C134.623 20.0228 134.108 20.1367 133.538 20.1367C132.964 20.1367 132.463 20.041 132.034 19.8496C131.61 19.6582 131.257 19.3939 130.975 19.0566C130.692 18.7148 130.48 18.3184 130.339 17.8672C130.198 17.4115 130.127 16.9238 130.127 16.4043V16.2061C130.127 15.682 130.198 15.1943 130.339 14.7432C130.48 14.2874 130.692 13.891 130.975 13.5537C131.257 13.2119 131.61 12.9453 132.034 12.7539C132.458 12.5625 132.955 12.4668 133.524 12.4668C134.131 12.4668 134.661 12.583 135.117 12.8154C135.577 13.0479 135.938 13.3805 136.197 13.8135C136.462 14.2419 136.596 14.75 136.601 15.3379H134.748C134.743 15.0918 134.691 14.8685 134.591 14.668C134.495 14.4674 134.354 14.3079 134.167 14.1895C133.985 14.0664 133.759 14.0049 133.49 14.0049C133.203 14.0049 132.968 14.0664 132.786 14.1895C132.604 14.3079 132.463 14.472 132.362 14.6816C132.262 14.8867 132.191 15.1214 132.15 15.3857C132.114 15.6455 132.096 15.9189 132.096 16.2061V16.4043C132.096 16.6914 132.114 16.9671 132.15 17.2314C132.187 17.4958 132.255 17.7305 132.355 17.9355C132.46 18.1406 132.604 18.3024 132.786 18.4209C132.968 18.5394 133.205 18.5986 133.497 18.5986ZM141.734 18.332V15.0371C141.734 14.8001 141.696 14.5973 141.618 14.4287C141.541 14.2555 141.42 14.1211 141.256 14.0254C141.096 13.9297 140.889 13.8818 140.634 13.8818C140.415 13.8818 140.226 13.9206 140.066 13.998C139.907 14.071 139.784 14.1781 139.697 14.3193C139.611 14.4561 139.567 14.6178 139.567 14.8047H137.599C137.599 14.4902 137.672 14.1917 137.817 13.9092C137.963 13.6266 138.175 13.3783 138.453 13.1641C138.731 12.9453 139.062 12.7744 139.444 12.6514C139.832 12.5283 140.265 12.4668 140.743 12.4668C141.317 12.4668 141.828 12.5625 142.274 12.7539C142.721 12.9453 143.072 13.2324 143.327 13.6152C143.587 13.998 143.717 14.4766 143.717 15.0508V18.2158C143.717 18.6214 143.742 18.9541 143.792 19.2139C143.842 19.4691 143.915 19.6924 144.011 19.8838V20H142.021C141.926 19.7995 141.853 19.5488 141.803 19.248C141.757 18.9427 141.734 18.6374 141.734 18.332ZM141.994 15.4951L142.008 16.6094H140.907C140.647 16.6094 140.422 16.639 140.23 16.6982C140.039 16.7575 139.882 16.8418 139.759 16.9512C139.636 17.056 139.545 17.179 139.485 17.3203C139.431 17.4616 139.403 17.6165 139.403 17.7852C139.403 17.9538 139.442 18.1064 139.52 18.2432C139.597 18.3753 139.709 18.4801 139.854 18.5576C140 18.6305 140.171 18.667 140.367 18.667C140.663 18.667 140.921 18.6077 141.14 18.4893C141.358 18.3708 141.527 18.2249 141.646 18.0518C141.769 17.8786 141.832 17.7145 141.837 17.5596L142.356 18.3936C142.284 18.5804 142.183 18.7741 142.056 18.9746C141.933 19.1751 141.775 19.3643 141.584 19.542C141.393 19.7152 141.162 19.8587 140.894 19.9727C140.625 20.082 140.306 20.1367 139.937 20.1367C139.467 20.1367 139.041 20.0433 138.658 19.8564C138.28 19.665 137.979 19.403 137.756 19.0703C137.537 18.7331 137.428 18.3503 137.428 17.9219C137.428 17.5345 137.501 17.1904 137.646 16.8896C137.792 16.5889 138.007 16.3359 138.289 16.1309C138.576 15.9212 138.934 15.764 139.362 15.6592C139.791 15.5498 140.287 15.4951 140.853 15.4951H141.994ZM147.162 14.1826V20H145.193V12.6035H147.039L147.162 14.1826ZM146.875 16.042H146.342C146.342 15.4951 146.412 15.0029 146.554 14.5654C146.695 14.1234 146.893 13.7474 147.148 13.4375C147.404 13.123 147.707 12.8838 148.058 12.7197C148.413 12.5511 148.81 12.4668 149.247 12.4668C149.593 12.4668 149.91 12.5169 150.197 12.6172C150.484 12.7174 150.73 12.877 150.936 13.0957C151.145 13.3145 151.305 13.6038 151.414 13.9639C151.528 14.3239 151.585 14.7637 151.585 15.2832V20H149.603V15.2764C149.603 14.9482 149.557 14.693 149.466 14.5107C149.375 14.3285 149.24 14.2008 149.062 14.1279C148.889 14.0505 148.675 14.0117 148.42 14.0117C148.156 14.0117 147.925 14.0641 147.729 14.1689C147.538 14.2738 147.379 14.4196 147.251 14.6064C147.128 14.7887 147.035 15.0029 146.971 15.249C146.907 15.4951 146.875 15.7594 146.875 16.042ZM157.765 12.6035H159.549V19.7539C159.549 20.4284 159.398 21.0003 159.098 21.4697C158.801 21.9437 158.387 22.3014 157.854 22.543C157.32 22.7891 156.701 22.9121 155.994 22.9121C155.684 22.9121 155.356 22.8711 155.01 22.7891C154.668 22.707 154.34 22.5794 154.025 22.4062C153.715 22.2331 153.456 22.0143 153.246 21.75L154.114 20.5879C154.342 20.8522 154.606 21.0573 154.907 21.2031C155.208 21.3535 155.541 21.4287 155.905 21.4287C156.261 21.4287 156.562 21.3626 156.808 21.2305C157.054 21.1029 157.243 20.9137 157.375 20.6631C157.507 20.417 157.573 20.1185 157.573 19.7676V14.3125L157.765 12.6035ZM152.788 16.3906V16.2471C152.788 15.682 152.856 15.1693 152.993 14.709C153.134 14.2441 153.333 13.8454 153.588 13.5127C153.848 13.18 154.162 12.9225 154.531 12.7402C154.9 12.5579 155.317 12.4668 155.782 12.4668C156.274 12.4668 156.687 12.5579 157.02 12.7402C157.352 12.9225 157.626 13.1823 157.84 13.5195C158.054 13.8522 158.22 14.2464 158.339 14.7021C158.462 15.1533 158.558 15.6478 158.626 16.1855V16.5C158.558 17.015 158.455 17.4935 158.318 17.9355C158.182 18.3776 158.002 18.765 157.778 19.0977C157.555 19.4258 157.277 19.681 156.944 19.8633C156.616 20.0456 156.224 20.1367 155.769 20.1367C155.313 20.1367 154.9 20.0433 154.531 19.8564C154.167 19.6696 153.854 19.4076 153.595 19.0703C153.335 18.7331 153.134 18.3366 152.993 17.8809C152.856 17.4251 152.788 16.9284 152.788 16.3906ZM154.757 16.2471V16.3906C154.757 16.696 154.786 16.9808 154.846 17.2451C154.905 17.5094 154.996 17.7441 155.119 17.9492C155.247 18.1497 155.404 18.307 155.591 18.4209C155.782 18.5303 156.008 18.585 156.268 18.585C156.628 18.585 156.922 18.5098 157.149 18.3594C157.377 18.2044 157.548 17.9925 157.662 17.7236C157.776 17.4548 157.842 17.1449 157.86 16.7939V15.8984C157.851 15.6113 157.812 15.3538 157.744 15.126C157.676 14.8936 157.58 14.6953 157.457 14.5312C157.334 14.3672 157.174 14.2396 156.979 14.1484C156.783 14.0573 156.55 14.0117 156.281 14.0117C156.021 14.0117 155.796 14.071 155.604 14.1895C155.418 14.3034 155.26 14.4606 155.133 14.6611C155.01 14.8617 154.916 15.0986 154.853 15.3721C154.789 15.641 154.757 15.9326 154.757 16.2471Z" fill="white"/>
<path d="M170.842 17.5L170.842 18.7872C171.126 21.4211 172.716 22.5 176.173 22.5H176.284C180.128 22.5 181.667 21.1682 181.667 17.8423V12.9911C181.667 9.66519 180.128 8.33334 176.284 8.33334H176.173C172.69 8.33334 171.1 9.42709 170.833 12.1057L170.842 15" stroke="#98DAFF" stroke-width="1.5" stroke-linecap="round" stroke-linejoin="round"/>
<path d="M168.333 15H176.15" stroke="#98DAFF" stroke-width="1.5" stroke-linecap="round" stroke-linejoin="round"/>
<path d="M174.292 12.2083L177.083 14.9999L174.292 17.7916" stroke="#98DAFF" stroke-width="1.5" stroke-linecap="round" stroke-linejoin="round"/>
</svg>
