<svg width="35" height="35" viewBox="-5 0 46 37" fill="none" xmlns="http://www.w3.org/2000/svg">
<path d="M0 16C0 7.16344 7.16344 0 16 0H21C29.8366 0 37 7.16344 37 16V21C37 29.8366 29.8366 37 21 37H16C7.16344 37 0 29.8366 0 21V16Z" fill="white"/>
<path fill-rule="evenodd" clip-rule="evenodd" d="M21.3636 6C21.3636 5.44772 20.9159 5 20.3636 5H17.6364C17.0841 5 16.6364 5.44772 16.6364 6V14.6364C16.6364 15.1886 16.1886 15.6364 15.6364 15.6364H7C6.44772 15.6364 6 16.0841 6 16.6364V19.3636C6 19.9159 6.44772 20.3636 7 20.3636H15.6364C16.1886 20.3636 16.6364 20.8114 16.6364 21.3636V30C16.6364 30.5523 17.0841 31 17.6364 31H20.3636C20.9159 31 21.3636 30.5523 21.3636 30V21.3636C21.3636 20.8114 21.8114 20.3636 22.3636 20.3636H31C31.5523 20.3636 32 19.9159 32 19.3636V16.6364C32 16.0841 31.5523 15.6364 31 15.6364H22.3636C21.8114 15.6364 21.3636 15.1886 21.3636 14.6364V6Z" fill="#184267"/>
<path d="M16 1H21V-1H16V1ZM36 16V21H38V16H36ZM21 36H16V38H21V36ZM1 21V16H-1V21H1ZM16 36C7.71573 36 1 29.2843 1 21H-1C-1 30.3888 6.61116 38 16 38V36ZM36 21C36 29.2843 29.2843 36 21 36V38C30.3888 38 38 30.3888 38 21H36ZM21 1C29.2843 1 36 7.71573 36 16H38C38 6.61116 30.3888 -1 21 -1V1ZM16 -1C6.61116 -1 -1 6.61116 -1 16H1C1 7.71573 7.71573 1 16 1V-1Z" fill="#10226B"/>
</svg>
