<svg width="30" height="30" viewBox="0 0 30 30" fill="none" xmlns="http://www.w3.org/2000/svg">
<path d="M0 2C0 0.89543 0.895431 0 2 0H28C29.1046 0 30 0.895431 30 2V28C30 29.1046 29.1046 30 28 30H2C0.89543 30 0 29.1046 0 28V2Z" fill="white"/>
<path fill-rule="evenodd" clip-rule="evenodd" d="M10.1282 5.10421C10.6229 4.62272 11.4143 4.63346 11.8958 5.12819C12.3773 5.62293 12.3665 6.41431 11.8718 6.8958L8.93907 9.75H17.997C19.846 9.75 21.4361 10.7281 22.5246 12.1422C23.6121 13.5552 24.25 15.4539 24.25 17.5C24.25 19.5462 23.6121 21.4448 22.5246 22.8578C21.4361 24.272 19.8459 25.25 17.997 25.25H10.0051C9.31472 25.25 8.75508 24.6904 8.75508 24C8.75508 23.3096 9.31472 22.75 10.0051 22.75H17.997C18.9094 22.75 19.8208 22.2719 20.5435 21.333C21.267 20.3929 21.75 19.0415 21.75 17.5C21.75 15.9586 21.267 14.6072 20.5435 13.6671C19.8208 12.7282 18.9094 12.25 17.997 12.25H9.09266L11.8955 15.1279C12.3771 15.6224 12.3667 16.4138 11.8721 16.8955C11.3776 17.3771 10.5862 17.3667 10.1045 16.8721L5.10452 11.7382C4.87316 11.5007 4.74567 11.1809 4.75011 10.8494C4.75455 10.5178 4.89056 10.2016 5.12819 9.97032L10.1282 5.10421Z" fill="black"/>
<path d="M2 1H28V-1H2V1ZM29 2V28H31V2H29ZM28 29H2V31H28V29ZM1 28V2H-1V28H1ZM2 29C1.44772 29 1 28.5523 1 28H-1C-1 29.6569 0.343146 31 2 31V29ZM29 28C29 28.5523 28.5523 29 28 29V31C29.6569 31 31 29.6569 31 28H29ZM28 1C28.5523 1 29 1.44772 29 2H31C31 0.343146 29.6569 -1 28 -1V1ZM2 -1C0.343146 -1 -1 0.343146 -1 2H1C1 1.44772 1.44772 1 2 1V-1Z" fill="#184267"/>
</svg>
