<svg width="16" height="16" viewBox="0 0 16 16" fill="none" xmlns="http://www.w3.org/2000/svg">
<rect width="16" height="16" fill="#AEC4DA"/>
<path d="M10.4536 9.47343H9.93743L9.75447 9.297C10.3948 8.55208 10.7804 7.585 10.7804 6.53297C10.7804 4.18714 8.87887 2.28564 6.53304 2.28564C4.18721 2.28564 2.28571 4.18714 2.28571 6.53297C2.28571 8.8788 4.18721 10.7803 6.53304 10.7803C7.58507 10.7803 8.55215 10.3948 9.29707 9.7544L9.47349 9.93736V10.4536L12.7407 13.7142L13.7143 12.7406L10.4536 9.47343ZM6.53304 9.47343C4.90599 9.47343 3.59258 8.16002 3.59258 6.53297C3.59258 4.90592 4.90599 3.59251 6.53304 3.59251C8.16009 3.59251 9.47349 4.90592 9.47349 6.53297C9.47349 8.16002 8.16009 9.47343 6.53304 9.47343Z" fill="#184267"/>
</svg>
