<svg width="115" height="115" viewBox="0 0 115 115" fill="none" xmlns="http://www.w3.org/2000/svg">
<path d="M41.0339 36.7663L72.5909 46.1694L40.0165 69.6787L41.0339 36.7663Z" fill="#124CBD"/>
<ellipse cx="56.3037" cy="57.9241" rx="20.2941" ry="20.2941" transform="rotate(-35.8184 56.3037 57.9241)" fill="white" stroke="#2D64B5"/>
<path d="M44.5 41.5L48 45.9999" stroke="#2D64B5" stroke-linecap="round" stroke-linejoin="round"/>
<path d="M43.9 108L45.4111 102.377" stroke="#10226B"/>
<path d="M18.4506 92.4502L22.7894 88.5549" stroke="#10226B"/>
<path d="M5.60077 65.5886L11.3673 64.678" stroke="#10226B"/>
<path d="M9.4967 36.0826L14.8304 38.4504" stroke="#10226B"/>
<path d="M28.8813 13.4524L32.0611 18.3346" stroke="#10226B"/>
<path d="M57.4999 5V10.8214" stroke="#10226B"/>
<path d="M86.1186 13.4524L82.9387 18.3346" stroke="#10226B"/>
<path d="M105.503 36.0826L100.169 38.4504" stroke="#10226B"/>
<path d="M109.399 65.5886L103.632 64.678" stroke="#10226B"/>
<path d="M96.5493 92.4502L92.2105 88.5549" stroke="#10226B"/>
<path d="M71.0998 108L69.5887 102.377" stroke="#10226B"/>
<path d="M38.1565 106.106L39.5894 102.498" stroke="#549ABF"/>
<path d="M32.6693 103.566L34.5087 100.146" stroke="#549ABF"/>
<path d="M27.5112 100.415L29.7326 97.2279" stroke="#549ABF"/>
<path d="M22.7507 96.6929L25.3247 93.7817" stroke="#549ABF"/>
<path d="M14.6682 87.7428L17.841 85.4946" stroke="#549ABF"/>
<path d="M11.4535 82.6328L14.8644 80.7632" stroke="#549ABF"/>
<path d="M8.84915 77.1885L12.4529 75.7222" stroke="#549ABF"/>
<path d="M6.88959 71.482L10.6385 70.4384" stroke="#549ABF"/>
<path d="M5 59.5866L8.88889 59.4241" stroke="#549ABF"/>
<path d="M5.09503 53.5554L8.97688 53.8397" stroke="#549ABF"/>
<path d="M5.88467 47.5752L9.70803 48.3024" stroke="#549ABF"/>
<path d="M7.35837 41.725L11.0726 42.8855" stroke="#549ABF"/>
<path d="M12.2714 30.7225L15.6216 32.6981" stroke="#549ABF"/>
<path d="M15.6454 25.7161L18.7458 28.0625" stroke="#549ABF"/>
<path d="M19.5743 21.1294L22.3836 23.8156" stroke="#549ABF"/>
<path d="M24.0059 17.0234L26.4869 20.0137" stroke="#549ABF"/>
<path d="M34.1362 10.4639L35.8668 13.9401" stroke="#549ABF"/>
<path d="M39.7007 8.09741L41.0191 11.7489" stroke="#549ABF"/>
<path d="M45.5011 6.38416L46.3899 10.1626" stroke="#549ABF"/>
<path d="M51.4605 5.34717L51.9079 9.20238" stroke="#549ABF"/>
<path d="M63.5395 5.34717L63.0921 9.20238" stroke="#549ABF"/>
<path d="M69.4989 6.38416L68.6101 10.1626" stroke="#549ABF"/>
<path d="M75.2994 8.09741L73.9809 11.7489" stroke="#549ABF"/>
<path d="M80.8638 10.4639L79.1331 13.9401" stroke="#549ABF"/>
<path d="M90.9941 17.0234L88.5131 20.0137" stroke="#549ABF"/>
<path d="M95.4257 21.1294L92.6164 23.8156" stroke="#549ABF"/>
<path d="M99.3545 25.7161L96.2542 28.0625" stroke="#549ABF"/>
<path d="M102.729 30.7225L99.3784 32.6981" stroke="#549ABF"/>
<path d="M107.642 41.725L103.927 42.8855" stroke="#549ABF"/>
<path d="M109.115 47.5752L105.292 48.3024" stroke="#549ABF"/>
<path d="M109.905 53.5554L106.023 53.8397" stroke="#549ABF"/>
<path d="M110 59.5866L106.111 59.4241" stroke="#549ABF"/>
<path d="M108.11 71.482L104.362 70.4384" stroke="#549ABF"/>
<path d="M106.151 77.1885L102.547 75.7222" stroke="#549ABF"/>
<path d="M103.546 82.6328L100.136 80.7632" stroke="#549ABF"/>
<path d="M100.332 87.7428L97.159 85.4946" stroke="#549ABF"/>
<path d="M92.2493 96.6929L89.6753 93.7817" stroke="#549ABF"/>
<path d="M87.4888 100.415L85.2674 97.2279" stroke="#549ABF"/>
<path d="M82.3307 103.566L80.4914 100.146" stroke="#549ABF"/>
<path d="M76.8435 106.106L75.4106 102.498" stroke="#549ABF"/>
<path d="M41.7057 95.5487L40.983 95.3632L41.3395 91.8231H44.987V92.6581H42.1061L41.8913 94.5917C42.0215 94.5168 42.1858 94.4468 42.3844 94.3817C42.5862 94.3166 42.8174 94.2841 43.0778 94.2841C43.4066 94.2841 43.7011 94.341 43.9616 94.455C44.222 94.5656 44.4433 94.7251 44.6256 94.9335C44.8112 95.1418 44.9528 95.3925 45.0504 95.6854C45.1481 95.9784 45.1969 96.3055 45.1969 96.6669C45.1969 97.0087 45.1497 97.3228 45.0553 97.6093C44.9642 97.8957 44.8258 98.1464 44.6403 98.3612C44.4547 98.5728 44.2204 98.7372 43.9371 98.8544C43.6572 98.9716 43.3268 99.0302 42.9459 99.0302C42.6595 99.0302 42.3877 98.9911 42.1305 98.913C41.8766 98.8316 41.6487 98.7095 41.4469 98.5468C41.2483 98.3807 41.0856 98.1757 40.9586 97.9315C40.8349 97.6841 40.7568 97.3944 40.7243 97.0624H41.5836C41.6227 97.3293 41.7008 97.5539 41.818 97.7362C41.9352 97.9185 42.0882 98.0568 42.277 98.1512C42.4691 98.2424 42.692 98.288 42.9459 98.288C43.1608 98.288 43.3512 98.2505 43.5172 98.1757C43.6832 98.1008 43.8232 97.9934 43.9371 97.8534C44.0511 97.7134 44.1373 97.5441 44.1959 97.3456C44.2578 97.147 44.2887 96.924 44.2887 96.6766C44.2887 96.452 44.2578 96.2437 44.1959 96.0516C44.1341 95.8596 44.0413 95.6919 43.9176 95.5487C43.7972 95.4055 43.6491 95.2948 43.4733 95.2167C43.2975 95.1353 43.0957 95.0946 42.8678 95.0946C42.5651 95.0946 42.3356 95.1353 42.1793 95.2167C42.0263 95.2981 41.8685 95.4087 41.7057 95.5487ZM50.651 94.8114V95.8954C50.651 96.4781 50.5989 96.9696 50.4948 97.37C50.3906 97.7704 50.2409 98.0927 50.0455 98.3368C49.8502 98.5809 49.6142 98.7583 49.3375 98.869C49.0641 98.9764 48.7549 99.0302 48.4098 99.0302C48.1364 99.0302 47.8841 98.996 47.653 98.9276C47.4218 98.8593 47.2135 98.7502 47.028 98.6005C46.8457 98.4475 46.6894 98.2489 46.5592 98.0048C46.429 97.7606 46.3297 97.4644 46.2614 97.1161C46.193 96.7678 46.1588 96.3609 46.1588 95.8954V94.8114C46.1588 94.2287 46.2109 93.7404 46.3151 93.3466C46.4225 92.9527 46.5739 92.6369 46.7692 92.3993C46.9645 92.1584 47.1989 91.9859 47.4723 91.8817C47.749 91.7775 48.0582 91.7255 48.4 91.7255C48.6767 91.7255 48.9306 91.7596 49.1618 91.828C49.3961 91.8931 49.6045 91.9989 49.7868 92.1454C49.9691 92.2886 50.1237 92.4807 50.2506 92.7216C50.3808 92.9592 50.4801 93.2505 50.5485 93.5956C50.6168 93.9406 50.651 94.3459 50.651 94.8114ZM49.7428 96.0419V94.66C49.7428 94.341 49.7233 94.0611 49.6842 93.8202C49.6484 93.576 49.5947 93.3677 49.5231 93.1952C49.4515 93.0227 49.3603 92.8827 49.2496 92.7753C49.1422 92.6678 49.0169 92.5897 48.8737 92.5409C48.7337 92.4888 48.5758 92.4628 48.4 92.4628C48.1852 92.4628 47.9948 92.5035 47.8288 92.5848C47.6627 92.663 47.5228 92.7883 47.4088 92.9608C47.2982 93.1333 47.2135 93.3596 47.1549 93.6395C47.0963 93.9195 47.067 94.2596 47.067 94.66V96.0419C47.067 96.3609 47.0849 96.6425 47.1207 96.8866C47.1598 97.1307 47.2168 97.3423 47.2916 97.5214C47.3665 97.6971 47.4577 97.842 47.5651 97.9559C47.6725 98.0699 47.7962 98.1545 47.9362 98.2098C48.0794 98.2619 48.2373 98.288 48.4098 98.288C48.6312 98.288 48.8248 98.2456 48.9909 98.161C49.1569 98.0764 49.2952 97.9445 49.4059 97.7655C49.5198 97.5832 49.6045 97.3505 49.6598 97.0673C49.7151 96.7808 49.7428 96.439 49.7428 96.0419Z" fill="#333333"/>
<path d="M24.7225 79.7191H24.8006V80.4857H24.7225C24.244 80.4857 23.8436 80.5638 23.5213 80.7201C23.199 80.8731 22.9435 81.0798 22.7547 81.3402C22.5659 81.5974 22.4292 81.8871 22.3445 82.2094C22.2632 82.5316 22.2225 82.8588 22.2225 83.1908V84.2357C22.2225 84.5515 22.2599 84.8314 22.3348 85.0756C22.4096 85.3164 22.5122 85.5199 22.6424 85.6859C22.7726 85.8519 22.9191 85.9773 23.0818 86.0619C23.2479 86.1465 23.4204 86.1888 23.5994 86.1888C23.8078 86.1888 23.9933 86.1498 24.1561 86.0717C24.3188 85.9903 24.4555 85.878 24.5662 85.7347C24.6802 85.5883 24.7664 85.4157 24.825 85.2172C24.8836 85.0186 24.9129 84.8005 24.9129 84.5629C24.9129 84.3513 24.8869 84.1478 24.8348 83.9525C24.7827 83.7539 24.7029 83.5782 24.5955 83.4252C24.4881 83.2689 24.353 83.1469 24.1902 83.059C24.0307 82.9678 23.8403 82.9222 23.619 82.9222C23.3683 82.9222 23.1339 82.9841 22.9158 83.1078C22.701 83.2282 22.5236 83.3877 22.3836 83.5863C22.2469 83.7816 22.1688 83.9948 22.1492 84.226L21.6707 84.2211C21.7163 83.8565 21.8009 83.5456 21.9246 83.2885C22.0516 83.028 22.2078 82.8164 22.3934 82.6537C22.5822 82.4877 22.7921 82.3672 23.0233 82.2924C23.2576 82.2142 23.505 82.1752 23.7654 82.1752C24.1203 82.1752 24.4262 82.2419 24.6834 82.3754C24.9406 82.5088 25.1522 82.6879 25.3182 82.9125C25.4842 83.1338 25.6063 83.3845 25.6844 83.6644C25.7658 83.9411 25.8065 84.226 25.8065 84.5189C25.8065 84.8542 25.7593 85.1683 25.6649 85.4613C25.5705 85.7543 25.4289 86.0114 25.2401 86.2328C25.0545 86.4541 24.825 86.6267 24.5516 86.7504C24.2781 86.8741 23.9608 86.9359 23.5994 86.9359C23.2153 86.9359 22.88 86.8578 22.5936 86.7015C22.3071 86.542 22.0695 86.3304 21.8807 86.0668C21.6919 85.8031 21.5503 85.5101 21.4559 85.1879C21.3615 84.8656 21.3143 84.5385 21.3143 84.2064V83.7816C21.3143 83.2803 21.3647 82.7888 21.4656 82.307C21.5665 81.8252 21.7407 81.389 21.9881 80.9984C22.2387 80.6078 22.5854 80.2969 23.0281 80.0658C23.4708 79.8347 24.0356 79.7191 24.7225 79.7191ZM28.0233 83.4545L27.3006 83.2689L27.657 79.7289H31.3045V80.5638H28.4236L28.2088 82.4974C28.339 82.4226 28.5034 82.3526 28.702 82.2875C28.9038 82.2224 29.1349 82.1898 29.3953 82.1898C29.7241 82.1898 30.0187 82.2468 30.2791 82.3607C30.5395 82.4714 30.7609 82.6309 30.9432 82.8392C31.1287 83.0476 31.2703 83.2982 31.368 83.5912C31.4656 83.8842 31.5145 84.2113 31.5145 84.5726C31.5145 84.9144 31.4673 85.2286 31.3729 85.515C31.2817 85.8015 31.1434 86.0521 30.9578 86.267C30.7723 86.4786 30.5379 86.6429 30.2547 86.7601C29.9748 86.8773 29.6443 86.9359 29.2635 86.9359C28.977 86.9359 28.7052 86.8969 28.4481 86.8187C28.1942 86.7373 27.9663 86.6153 27.7645 86.4525C27.5659 86.2865 27.4031 86.0814 27.2762 85.8373C27.1525 85.5899 27.0744 85.3002 27.0418 84.9681H27.9012C27.9402 85.2351 28.0184 85.4597 28.1356 85.642C28.2527 85.8243 28.4057 85.9626 28.5945 86.057C28.7866 86.1482 29.0096 86.1937 29.2635 86.1937C29.4783 86.1937 29.6688 86.1563 29.8348 86.0814C30.0008 86.0066 30.1408 85.8991 30.2547 85.7592C30.3686 85.6192 30.4549 85.4499 30.5135 85.2513C30.5753 85.0528 30.6063 84.8298 30.6063 84.5824C30.6063 84.3578 30.5753 84.1495 30.5135 83.9574C30.4516 83.7653 30.3589 83.5977 30.2352 83.4545C30.1147 83.3112 29.9666 83.2006 29.7908 83.1224C29.6151 83.0411 29.4132 83.0004 29.1854 83.0004C28.8826 83.0004 28.6531 83.0411 28.4969 83.1224C28.3439 83.2038 28.186 83.3145 28.0233 83.4545Z" fill="#333333"/>
<path d="M15.7438 64.0221C15.7438 64.455 15.6429 64.8229 15.4411 65.1256C15.2425 65.4251 14.9723 65.653 14.6305 65.8092C14.292 65.9655 13.9095 66.0436 13.4831 66.0436C13.0566 66.0436 12.6725 65.9655 12.3307 65.8092C11.9889 65.653 11.7187 65.4251 11.5202 65.1256C11.3216 64.8229 11.2223 64.455 11.2223 64.0221C11.2223 63.7389 11.276 63.4801 11.3835 63.2457C11.4941 63.0081 11.6488 62.8014 11.8473 62.6256C12.0491 62.4498 12.2868 62.3147 12.5602 62.2203C12.8369 62.1227 13.1413 62.0739 13.4733 62.0739C13.9095 62.0739 14.2985 62.1585 14.6403 62.3278C14.9821 62.4938 15.2506 62.7233 15.446 63.0162C15.6445 63.3092 15.7438 63.6445 15.7438 64.0221ZM14.8356 64.0026C14.8356 63.7389 14.7786 63.5061 14.6647 63.3043C14.5508 63.0992 14.3913 62.9397 14.1862 62.8258C13.9811 62.7119 13.7435 62.6549 13.4733 62.6549C13.1966 62.6549 12.9573 62.7119 12.7555 62.8258C12.557 62.9397 12.4023 63.0992 12.2917 63.3043C12.181 63.5061 12.1256 63.7389 12.1256 64.0026C12.1256 64.276 12.1794 64.5104 12.2868 64.7057C12.3975 64.8977 12.5537 65.0459 12.7555 65.15C12.9606 65.2509 13.2031 65.3014 13.4831 65.3014C13.763 65.3014 14.0039 65.2509 14.2057 65.15C14.4075 65.0459 14.5622 64.8977 14.6696 64.7057C14.7803 64.5104 14.8356 64.276 14.8356 64.0026ZM15.5778 60.6871C15.5778 61.0322 15.4866 61.3431 15.3044 61.6198C15.1221 61.8964 14.873 62.1145 14.5573 62.274C14.2415 62.4336 13.8835 62.5133 13.4831 62.5133C13.0762 62.5133 12.7132 62.4336 12.3942 62.274C12.0784 62.1145 11.831 61.8964 11.652 61.6198C11.473 61.3431 11.3835 61.0322 11.3835 60.6871C11.3835 60.2737 11.473 59.9222 11.652 59.6324C11.8343 59.3427 12.0833 59.1214 12.3991 58.9684C12.7148 58.8154 13.0745 58.7389 13.4782 58.7389C13.8851 58.7389 14.2464 58.8154 14.5622 58.9684C14.8779 59.1214 15.1253 59.3427 15.3044 59.6324C15.4866 59.9222 15.5778 60.2737 15.5778 60.6871ZM14.6745 60.7018C14.6745 60.4642 14.624 60.2542 14.5231 60.0719C14.4222 59.8896 14.2822 59.7464 14.1032 59.6422C13.9241 59.5348 13.7158 59.4811 13.4782 59.4811C13.2405 59.4811 13.0322 59.5315 12.8532 59.6324C12.6774 59.7301 12.5391 59.8701 12.4381 60.0524C12.3405 60.2347 12.2917 60.4511 12.2917 60.7018C12.2917 60.9459 12.3405 61.1591 12.4381 61.3414C12.5391 61.5237 12.679 61.6653 12.8581 61.7662C13.0371 61.8671 13.2454 61.9176 13.4831 61.9176C13.7207 61.9176 13.9274 61.8671 14.1032 61.7662C14.2822 61.6653 14.4222 61.5237 14.5231 61.3414C14.624 61.1591 14.6745 60.9459 14.6745 60.7018ZM21.3493 61.8248V62.9088C21.3493 63.4915 21.2972 63.983 21.193 64.3834C21.0889 64.7838 20.9391 65.1061 20.7438 65.3502C20.5485 65.5944 20.3125 65.7718 20.0358 65.8824C19.7624 65.9899 19.4531 66.0436 19.1081 66.0436C18.8346 66.0436 18.5823 66.0094 18.3512 65.941C18.1201 65.8727 17.9118 65.7636 17.7262 65.6139C17.5439 65.4609 17.3877 65.2623 17.2575 65.0182C17.1273 64.774 17.028 64.4778 16.9596 64.1295C16.8913 63.7812 16.8571 63.3743 16.8571 62.9088V61.8248C16.8571 61.2421 16.9092 60.7539 17.0133 60.36C17.1208 59.9661 17.2721 59.6503 17.4674 59.4127C17.6628 59.1718 17.8971 58.9993 18.1706 58.8951C18.4473 58.791 18.7565 58.7389 19.0983 58.7389C19.375 58.7389 19.6289 58.7731 19.86 58.8414C20.0944 58.9065 20.3027 59.0123 20.485 59.1588C20.6673 59.302 20.8219 59.4941 20.9489 59.735C21.0791 59.9726 21.1784 60.264 21.2467 60.609C21.3151 60.9541 21.3493 61.3593 21.3493 61.8248ZM20.4411 63.0553V61.6735C20.4411 61.3545 20.4215 61.0745 20.3825 60.8336C20.3467 60.5895 20.293 60.3811 20.2213 60.2086C20.1497 60.0361 20.0586 59.8961 19.9479 59.7887C19.8405 59.6813 19.7152 59.6031 19.5719 59.5543C19.432 59.5022 19.2741 59.4762 19.0983 59.4762C18.8835 59.4762 18.693 59.5169 18.527 59.5983C18.361 59.6764 18.221 59.8017 18.1071 59.9742C17.9964 60.1468 17.9118 60.373 17.8532 60.653C17.7946 60.9329 17.7653 61.2731 17.7653 61.6735V63.0553C17.7653 63.3743 17.7832 63.6559 17.819 63.9C17.8581 64.1442 17.915 64.3558 17.9899 64.5348C18.0648 64.7106 18.1559 64.8554 18.2633 64.9694C18.3708 65.0833 18.4945 65.1679 18.6344 65.2233C18.7777 65.2753 18.9355 65.3014 19.1081 65.3014C19.3294 65.3014 19.5231 65.2591 19.6891 65.1744C19.8551 65.0898 19.9935 64.958 20.1042 64.7789C20.2181 64.5966 20.3027 64.3639 20.3581 64.0807C20.4134 63.7942 20.4411 63.4524 20.4411 63.0553Z" fill="#333333"/>
<path d="M16.522 42.24H16.6148C17.1356 42.24 17.5588 42.1667 17.8843 42.0203C18.2098 41.8738 18.4605 41.6768 18.6363 41.4294C18.812 41.182 18.9325 40.9037 18.9976 40.5945C19.0627 40.282 19.0952 39.9613 19.0952 39.6326V38.5437C19.0952 38.2214 19.0578 37.935 18.9829 37.6843C18.9113 37.4337 18.8104 37.2237 18.6802 37.0544C18.5533 36.8852 18.4084 36.7566 18.2456 36.6687C18.0829 36.5808 17.9103 36.5369 17.7281 36.5369C17.5197 36.5369 17.3326 36.5792 17.1665 36.6638C17.0038 36.7452 16.8654 36.8608 16.7515 37.0105C16.6408 37.1602 16.5562 37.336 16.4976 37.5378C16.439 37.7397 16.4097 37.9594 16.4097 38.197C16.4097 38.4086 16.4357 38.6137 16.4878 38.8123C16.5399 39.0108 16.6197 39.1899 16.7271 39.3494C16.8345 39.5089 16.968 39.6358 17.1275 39.7302C17.2902 39.8214 17.4807 39.8669 17.6988 39.8669C17.9006 39.8669 18.0894 39.8279 18.2652 39.7498C18.4442 39.6684 18.6021 39.5593 18.7388 39.4226C18.8788 39.2826 18.9895 39.1248 19.0708 38.949C19.1555 38.7732 19.2043 38.5893 19.2173 38.3972H19.647C19.647 38.6674 19.5933 38.9343 19.4859 39.198C19.3817 39.4584 19.2352 39.696 19.0464 39.9109C18.8576 40.1257 18.6363 40.2983 18.3824 40.4285C18.1284 40.5554 17.8518 40.6189 17.5523 40.6189C17.2007 40.6189 16.8964 40.5505 16.6392 40.4138C16.382 40.2771 16.1704 40.0948 16.0044 39.8669C15.8417 39.6391 15.7196 39.3852 15.6382 39.1052C15.5601 38.822 15.521 38.5356 15.521 38.2458C15.521 37.9073 15.5682 37.5899 15.6626 37.2937C15.757 36.9975 15.897 36.7371 16.0826 36.5125C16.2681 36.2846 16.4976 36.1072 16.771 35.9802C17.0477 35.8533 17.3667 35.7898 17.7281 35.7898C18.135 35.7898 18.4816 35.8712 18.7681 36.0339C19.0546 36.1967 19.2873 36.4148 19.4663 36.6882C19.6486 36.9617 19.7821 37.2693 19.8667 37.6111C19.9514 37.9529 19.9937 38.3044 19.9937 38.6658V38.9929C19.9937 39.3608 19.9693 39.7351 19.9204 40.116C19.8749 40.4936 19.7853 40.8549 19.6519 41.2C19.5217 41.545 19.3312 41.8542 19.0806 42.1277C18.8299 42.3979 18.5028 42.6127 18.0992 42.7722C17.6988 42.9285 17.204 43.0066 16.6148 43.0066H16.522V42.24ZM22.3911 39.613L21.6685 39.4275L22.0249 35.8875H25.6724V36.7224H22.7915L22.5767 38.656C22.7069 38.5811 22.8713 38.5111 23.0699 38.446C23.2717 38.3809 23.5028 38.3484 23.7632 38.3484C24.092 38.3484 24.3866 38.4054 24.647 38.5193C24.9074 38.63 25.1288 38.7895 25.3111 38.9978C25.4966 39.2061 25.6382 39.4568 25.7359 39.7498C25.8335 40.0427 25.8824 40.3699 25.8824 40.7312C25.8824 41.073 25.8352 41.3871 25.7408 41.6736C25.6496 41.96 25.5113 42.2107 25.3257 42.4255C25.1402 42.6371 24.9058 42.8015 24.6226 42.9187C24.3426 43.0359 24.0122 43.0945 23.6314 43.0945C23.3449 43.0945 23.0731 43.0554 22.8159 42.9773C22.562 42.8959 22.3342 42.7738 22.1324 42.6111C21.9338 42.4451 21.771 42.24 21.6441 41.9958C21.5204 41.7485 21.4423 41.4587 21.4097 41.1267H22.2691C22.3081 41.3936 22.3863 41.6182 22.5034 41.8005C22.6206 41.9828 22.7736 42.1212 22.9624 42.2156C23.1545 42.3067 23.3775 42.3523 23.6314 42.3523C23.8462 42.3523 24.0367 42.3149 24.2027 42.24C24.3687 42.1651 24.5087 42.0577 24.6226 41.9177C24.7365 41.7778 24.8228 41.6085 24.8814 41.4099C24.9432 41.2113 24.9742 40.9884 24.9742 40.741C24.9742 40.5164 24.9432 40.308 24.8814 40.116C24.8195 39.9239 24.7268 39.7563 24.6031 39.613C24.4826 39.4698 24.3345 39.3591 24.1587 39.281C23.9829 39.1996 23.7811 39.1589 23.5533 39.1589C23.2505 39.1589 23.021 39.1996 22.8648 39.281C22.7118 39.3624 22.5539 39.4731 22.3911 39.613Z" fill="#333333"/>
<path d="M31.0786 18.2471V25.3955H30.1752V19.375L28.3539 20.0391V19.2236L30.937 18.2471H31.0786ZM36.7036 18.2471V25.3955H35.8002V19.375L33.9789 20.0391V19.2236L36.562 18.2471H36.7036ZM43.8227 21.2744V22.3584C43.8227 22.9411 43.7706 23.4326 43.6664 23.833C43.5623 24.2334 43.4125 24.5557 43.2172 24.7998C43.0219 25.0439 42.7859 25.2214 42.5092 25.332C42.2358 25.4395 41.9265 25.4932 41.5815 25.4932C41.308 25.4932 41.0558 25.459 40.8246 25.3906C40.5935 25.3223 40.3852 25.2132 40.1996 25.0635C40.0174 24.9105 39.8611 24.7119 39.7309 24.4678C39.6007 24.2236 39.5014 23.9274 39.433 23.5791C39.3647 23.2308 39.3305 22.8239 39.3305 22.3584V21.2744C39.3305 20.6917 39.3826 20.2035 39.4868 19.8096C39.5942 19.4157 39.7455 19.0999 39.9409 18.8623C40.1362 18.6214 40.3705 18.4489 40.644 18.3447C40.9207 18.2406 41.2299 18.1885 41.5717 18.1885C41.8484 18.1885 42.1023 18.2227 42.3334 18.291C42.5678 18.3561 42.7761 18.4619 42.9584 18.6084C43.1407 18.7516 43.2953 18.9437 43.4223 19.1846C43.5525 19.4222 43.6518 19.7135 43.7202 20.0586C43.7885 20.4036 43.8227 20.8089 43.8227 21.2744ZM42.9145 22.5049V21.123C42.9145 20.804 42.895 20.5241 42.8559 20.2832C42.8201 20.0391 42.7664 19.8307 42.6948 19.6582C42.6231 19.4857 42.532 19.3457 42.4213 19.2383C42.3139 19.1309 42.1886 19.0527 42.0453 19.0039C41.9054 18.9518 41.7475 18.9258 41.5717 18.9258C41.3569 18.9258 41.1664 18.9665 41.0004 19.0479C40.8344 19.126 40.6944 19.2513 40.5805 19.4238C40.4698 19.5964 40.3852 19.8226 40.3266 20.1025C40.268 20.3825 40.2387 20.7227 40.2387 21.123V22.5049C40.2387 22.8239 40.2566 23.1055 40.2924 23.3496C40.3315 23.5938 40.3884 23.8053 40.4633 23.9844C40.5382 24.1602 40.6293 24.305 40.7368 24.4189C40.8442 24.5329 40.9679 24.6175 41.1078 24.6729C41.2511 24.7249 41.409 24.751 41.5815 24.751C41.8028 24.751 41.9965 24.7087 42.1625 24.624C42.3286 24.5394 42.4669 24.4076 42.5776 24.2285C42.6915 24.0462 42.7761 23.8135 42.8315 23.5303C42.8868 23.2438 42.9145 22.902 42.9145 22.5049Z" fill="#333333"/>
<path d="M53.3375 11.673V18.8214H52.4342V12.8009L50.6129 13.465V12.6495L53.1959 11.673H53.3375ZM60.6519 18.0792V18.8214H55.9986V18.172L58.3277 15.5792C58.6142 15.2602 58.8355 14.99 58.9918 14.7687C59.1513 14.5441 59.262 14.3439 59.3238 14.1681C59.3889 13.9891 59.4215 13.8068 59.4215 13.6212C59.4215 13.3868 59.3727 13.1753 59.275 12.9865C59.1806 12.7944 59.0406 12.6414 58.8551 12.5275C58.6695 12.4135 58.4449 12.3566 58.1812 12.3566C57.8655 12.3566 57.6018 12.4184 57.3902 12.5421C57.1819 12.6626 57.0256 12.8318 56.9215 13.0499C56.8173 13.268 56.7652 13.5187 56.7652 13.8019H55.8619C55.8619 13.4015 55.9498 13.0353 56.1256 12.7032C56.3014 12.3712 56.5618 12.1075 56.9068 11.9122C57.2519 11.7137 57.6767 11.6144 58.1812 11.6144C58.6305 11.6144 59.0146 11.6941 59.3336 11.8536C59.6526 12.0099 59.8967 12.2312 60.066 12.5177C60.2385 12.8009 60.3248 13.1329 60.3248 13.5138C60.3248 13.7221 60.289 13.9337 60.2174 14.1486C60.149 14.3601 60.053 14.5717 59.9293 14.7833C59.8088 14.9949 59.6672 15.2032 59.5045 15.4083C59.345 15.6134 59.1741 15.8152 58.9918 16.0138L57.0875 18.0792H60.6519ZM62.7613 15.4376L62.0387 15.2521L62.3951 11.712H66.0426V12.547H63.1617L62.9469 14.4806C63.0771 14.4057 63.2415 14.3357 63.44 14.2706C63.6419 14.2055 63.873 14.173 64.1334 14.173C64.4622 14.173 64.7568 14.2299 65.0172 14.3439C65.2776 14.4545 65.499 14.6141 65.6812 14.8224C65.8668 15.0307 66.0084 15.2814 66.106 15.5743C66.2037 15.8673 66.2525 16.1945 66.2525 16.5558C66.2525 16.8976 66.2053 17.2117 66.1109 17.4982C66.0198 17.7846 65.8814 18.0353 65.6959 18.2501C65.5103 18.4617 65.276 18.6261 64.9928 18.7433C64.7128 18.8605 64.3824 18.9191 64.0016 18.9191C63.7151 18.9191 63.4433 18.88 63.1861 18.8019C62.9322 18.7205 62.7044 18.5984 62.5025 18.4357C62.304 18.2697 62.1412 18.0646 62.0143 17.8204C61.8906 17.573 61.8124 17.2833 61.7799 16.9513H62.6393C62.6783 17.2182 62.7564 17.4428 62.8736 17.6251C62.9908 17.8074 63.1438 17.9458 63.3326 18.0402C63.5247 18.1313 63.7477 18.1769 64.0016 18.1769C64.2164 18.1769 64.4068 18.1394 64.5728 18.0646C64.7389 17.9897 64.8788 17.8823 64.9928 17.7423C65.1067 17.6023 65.193 17.4331 65.2516 17.2345C65.3134 17.0359 65.3443 16.8129 65.3443 16.5656C65.3443 16.3409 65.3134 16.1326 65.2516 15.9406C65.1897 15.7485 65.0969 15.5809 64.9732 15.4376C64.8528 15.2944 64.7047 15.1837 64.5289 15.1056C64.3531 15.0242 64.1513 14.9835 63.9234 14.9835C63.6207 14.9835 63.3912 15.0242 63.235 15.1056C63.082 15.187 62.9241 15.2976 62.7613 15.4376Z" fill="#333333"/>
<path d="M75.5964 18.2471V25.3955H74.6931V19.375L72.8718 20.0391V19.2236L75.4548 18.2471H75.5964ZM83.0574 23.0029V23.7451H77.9207V23.2129L81.1042 18.2861H81.8416L81.0505 19.7119L78.946 23.0029H83.0574ZM82.0662 18.2861V25.3955H81.1628V18.2861H82.0662ZM88.3406 21.2744V22.3584C88.3406 22.9411 88.2885 23.4326 88.1843 23.833C88.0802 24.2334 87.9304 24.5557 87.7351 24.7998C87.5398 25.0439 87.3038 25.2214 87.0271 25.332C86.7537 25.4395 86.4444 25.4932 86.0994 25.4932C85.8259 25.4932 85.5736 25.459 85.3425 25.3906C85.1114 25.3223 84.9031 25.2132 84.7175 25.0635C84.5352 24.9105 84.379 24.7119 84.2488 24.4678C84.1186 24.2236 84.0193 23.9274 83.9509 23.5791C83.8826 23.2308 83.8484 22.8239 83.8484 22.3584V21.2744C83.8484 20.6917 83.9005 20.2035 84.0046 19.8096C84.1121 19.4157 84.2634 19.0999 84.4587 18.8623C84.6541 18.6214 84.8884 18.4489 85.1619 18.3447C85.4386 18.2406 85.7478 18.1885 86.0896 18.1885C86.3663 18.1885 86.6202 18.2227 86.8513 18.291C87.0857 18.3561 87.294 18.4619 87.4763 18.6084C87.6586 18.7516 87.8132 18.9437 87.9402 19.1846C88.0704 19.4222 88.1697 19.7135 88.238 20.0586C88.3064 20.4036 88.3406 20.8089 88.3406 21.2744ZM87.4324 22.5049V21.123C87.4324 20.804 87.4128 20.5241 87.3738 20.2832C87.338 20.0391 87.2843 19.8307 87.2126 19.6582C87.141 19.4857 87.0499 19.3457 86.9392 19.2383C86.8318 19.1309 86.7065 19.0527 86.5632 19.0039C86.4233 18.9518 86.2654 18.9258 86.0896 18.9258C85.8748 18.9258 85.6843 18.9665 85.5183 19.0479C85.3523 19.126 85.2123 19.2513 85.0984 19.4238C84.9877 19.5964 84.9031 19.8226 84.8445 20.1025C84.7859 20.3825 84.7566 20.7227 84.7566 21.123V22.5049C84.7566 22.8239 84.7745 23.1055 84.8103 23.3496C84.8494 23.5938 84.9063 23.8053 84.9812 23.9844C85.0561 24.1602 85.1472 24.305 85.2546 24.4189C85.3621 24.5329 85.4858 24.6175 85.6257 24.6729C85.769 24.7249 85.9268 24.751 86.0994 24.751C86.3207 24.751 86.5144 24.7087 86.6804 24.624C86.8464 24.5394 86.9848 24.4076 87.0955 24.2285C87.2094 24.0462 87.294 23.8135 87.3494 23.5303C87.4047 23.2438 87.4324 22.902 87.4324 22.5049Z" fill="#333333"/>
<path d="M87.3951 35.8484V42.9968H86.4918V36.9763L84.6705 37.6404V36.825L87.2535 35.8484H87.3951ZM91.194 39.613L90.4713 39.4275L90.8278 35.8875H94.4752V36.7224H91.5944L91.3795 38.656C91.5097 38.5811 91.6741 38.5111 91.8727 38.446C92.0745 38.3809 92.3056 38.3484 92.566 38.3484C92.8948 38.3484 93.1894 38.4054 93.4498 38.5193C93.7102 38.63 93.9316 38.7895 94.1139 38.9978C94.2994 39.2061 94.441 39.4568 94.5387 39.7498C94.6364 40.0427 94.6852 40.3699 94.6852 40.7312C94.6852 41.073 94.638 41.3871 94.5436 41.6736C94.4524 41.96 94.3141 42.2107 94.1285 42.4255C93.943 42.6371 93.7086 42.8015 93.4254 42.9187C93.1455 43.0359 92.8151 43.0945 92.4342 43.0945C92.1477 43.0945 91.8759 43.0554 91.6188 42.9773C91.3649 42.8959 91.137 42.7738 90.9352 42.6111C90.7366 42.4451 90.5739 42.24 90.4469 41.9958C90.3232 41.7485 90.2451 41.4587 90.2125 41.1267H91.0719C91.111 41.3936 91.1891 41.6182 91.3063 41.8005C91.4235 41.9828 91.5765 42.1212 91.7653 42.2156C91.9573 42.3067 92.1803 42.3523 92.4342 42.3523C92.649 42.3523 92.8395 42.3149 93.0055 42.24C93.1715 42.1651 93.3115 42.0577 93.4254 41.9177C93.5393 41.7778 93.6256 41.6085 93.6842 41.4099C93.7461 41.2113 93.777 40.9884 93.777 40.741C93.777 40.5164 93.7461 40.308 93.6842 40.116C93.6224 39.9239 93.5296 39.7563 93.4059 39.613C93.2854 39.4698 93.1373 39.3591 92.9615 39.281C92.7858 39.1996 92.5839 39.1589 92.3561 39.1589C92.0533 39.1589 91.8239 39.1996 91.6676 39.281C91.5146 39.3624 91.3567 39.4731 91.194 39.613ZM96.819 39.613L96.0963 39.4275L96.4528 35.8875H100.1V36.7224H97.2194L97.0045 38.656C97.1347 38.5811 97.2991 38.5111 97.4977 38.446C97.6995 38.3809 97.9306 38.3484 98.191 38.3484C98.5198 38.3484 98.8144 38.4054 99.0748 38.5193C99.3352 38.63 99.5566 38.7895 99.7389 38.9978C99.9244 39.2061 100.066 39.4568 100.164 39.7498C100.261 40.0427 100.31 40.3699 100.31 40.7312C100.31 41.073 100.263 41.3871 100.169 41.6736C100.077 41.96 99.9391 42.2107 99.7535 42.4255C99.568 42.6371 99.3336 42.8015 99.0504 42.9187C98.7705 43.0359 98.4401 43.0945 98.0592 43.0945C97.7727 43.0945 97.5009 43.0554 97.2438 42.9773C96.9899 42.8959 96.762 42.7738 96.5602 42.6111C96.3616 42.4451 96.1989 42.24 96.0719 41.9958C95.9482 41.7485 95.8701 41.4587 95.8375 41.1267H96.6969C96.736 41.3936 96.8141 41.6182 96.9313 41.8005C97.0485 41.9828 97.2015 42.1212 97.3903 42.2156C97.5823 42.3067 97.8053 42.3523 98.0592 42.3523C98.274 42.3523 98.4645 42.3149 98.6305 42.24C98.7965 42.1651 98.9365 42.0577 99.0504 41.9177C99.1643 41.7778 99.2506 41.6085 99.3092 41.4099C99.3711 41.2113 99.402 40.9884 99.402 40.741C99.402 40.5164 99.3711 40.308 99.3092 40.116C99.2474 39.9239 99.1546 39.7563 99.0309 39.613C98.9104 39.4698 98.7623 39.3591 98.5865 39.281C98.4108 39.1996 98.2089 39.1589 97.9811 39.1589C97.6783 39.1589 97.4489 39.1996 97.2926 39.281C97.1396 39.3624 96.9817 39.4731 96.819 39.613Z" fill="#333333"/>
<path d="M90.3144 58.7975V65.9459H89.4111V59.9254L87.5898 60.5895V59.774L90.1728 58.7975H90.3144ZM97.5654 58.8365V59.3444L94.621 65.9459H93.6689L96.6083 59.5787H92.7607V58.8365H97.5654ZM103.059 61.8248V62.9088C103.059 63.4915 103.006 63.983 102.902 64.3834C102.798 64.7838 102.648 65.1061 102.453 65.3502C102.258 65.5944 102.022 65.7718 101.745 65.8824C101.472 65.9899 101.162 66.0436 100.817 66.0436C100.544 66.0436 100.292 66.0094 100.06 65.941C99.8294 65.8727 99.621 65.7636 99.4355 65.6139C99.2532 65.4609 99.0969 65.2623 98.9667 65.0182C98.8365 64.774 98.7372 64.4778 98.6689 64.1295C98.6005 63.7812 98.5663 63.3743 98.5663 62.9088V61.8248C98.5663 61.2421 98.6184 60.7539 98.7226 60.36C98.83 59.9661 98.9814 59.6503 99.1767 59.4127C99.372 59.1718 99.6064 58.9993 99.8798 58.8951C100.157 58.791 100.466 58.7389 100.808 58.7389C101.084 58.7389 101.338 58.7731 101.569 58.8414C101.804 58.9065 102.012 59.0123 102.194 59.1588C102.377 59.302 102.531 59.4941 102.658 59.735C102.788 59.9726 102.888 60.264 102.956 60.609C103.024 60.9541 103.059 61.3593 103.059 61.8248ZM102.15 63.0553V61.6735C102.15 61.3545 102.131 61.0745 102.092 60.8336C102.056 60.5895 102.002 60.3811 101.931 60.2086C101.859 60.0361 101.768 59.8961 101.657 59.7887C101.55 59.6813 101.424 59.6031 101.281 59.5543C101.141 59.5022 100.983 59.4762 100.808 59.4762C100.593 59.4762 100.402 59.5169 100.236 59.5983C100.07 59.6764 99.9303 59.8017 99.8163 59.9742C99.7057 60.1468 99.621 60.373 99.5624 60.653C99.5038 60.9329 99.4745 61.2731 99.4745 61.6735V63.0553C99.4745 63.3743 99.4925 63.6559 99.5283 63.9C99.5673 64.1442 99.6243 64.3558 99.6992 64.5348C99.774 64.7106 99.8652 64.8554 99.9726 64.9694C100.08 65.0833 100.204 65.1679 100.344 65.2233C100.487 65.2753 100.645 65.3014 100.817 65.3014C101.039 65.3014 101.232 65.2591 101.398 65.1744C101.564 65.0898 101.703 64.958 101.813 64.7789C101.927 64.5966 102.012 64.3639 102.067 64.0807C102.123 63.7942 102.15 63.4524 102.15 63.0553Z" fill="#333333"/>
<path d="M81.5567 79.6898V86.8383H80.6534V80.8177L78.8321 81.4818V80.6664L81.4151 79.6898H81.5567ZM88.6953 84.9144C88.6953 85.3474 88.5944 85.7152 88.3926 86.0179C88.194 86.3174 87.9239 86.5453 87.5821 86.7015C87.2435 86.8578 86.861 86.9359 86.4346 86.9359C86.0082 86.9359 85.6241 86.8578 85.2823 86.7015C84.9405 86.5453 84.6703 86.3174 84.4717 86.0179C84.2731 85.7152 84.1739 85.3474 84.1739 84.9144C84.1739 84.6312 84.2276 84.3724 84.335 84.1381C84.4457 83.9004 84.6003 83.6937 84.7989 83.5179C85.0007 83.3422 85.2383 83.2071 85.5117 83.1127C85.7884 83.015 86.0928 82.9662 86.4248 82.9662C86.861 82.9662 87.25 83.0508 87.5918 83.2201C87.9336 83.3861 88.2022 83.6156 88.3975 83.9086C88.5961 84.2015 88.6953 84.5368 88.6953 84.9144ZM87.7871 84.8949C87.7871 84.6312 87.7302 84.3985 87.6162 84.1967C87.5023 83.9916 87.3428 83.8321 87.1377 83.7181C86.9326 83.6042 86.695 83.5472 86.4248 83.5472C86.1481 83.5472 85.9089 83.6042 85.7071 83.7181C85.5085 83.8321 85.3539 83.9916 85.2432 84.1967C85.1325 84.3985 85.0772 84.6312 85.0772 84.8949C85.0772 85.1683 85.1309 85.4027 85.2383 85.598C85.349 85.7901 85.5052 85.9382 85.7071 86.0424C85.9121 86.1433 86.1547 86.1937 86.4346 86.1937C86.7145 86.1937 86.9554 86.1433 87.1573 86.0424C87.3591 85.9382 87.5137 85.7901 87.6211 85.598C87.7318 85.4027 87.7871 85.1683 87.7871 84.8949ZM88.5293 81.5795C88.5293 81.9245 88.4382 82.2354 88.2559 82.5121C88.0736 82.7888 87.8246 83.0069 87.5088 83.1664C87.1931 83.3259 86.835 83.4056 86.4346 83.4056C86.0277 83.4056 85.6647 83.3259 85.3457 83.1664C85.03 83.0069 84.7826 82.7888 84.6035 82.5121C84.4245 82.2354 84.335 81.9245 84.335 81.5795C84.335 81.1661 84.4245 80.8145 84.6035 80.5248C84.7858 80.2351 85.0349 80.0137 85.3506 79.8607C85.6664 79.7077 86.0261 79.6312 86.4297 79.6312C86.8366 79.6312 87.1979 79.7077 87.5137 79.8607C87.8295 80.0137 88.0769 80.2351 88.2559 80.5248C88.4382 80.8145 88.5293 81.1661 88.5293 81.5795ZM87.626 81.5941C87.626 81.3565 87.5756 81.1465 87.4746 80.9642C87.3737 80.7819 87.2338 80.6387 87.0547 80.5345C86.8757 80.4271 86.6673 80.3734 86.4297 80.3734C86.1921 80.3734 85.9838 80.4239 85.8047 80.5248C85.6289 80.6224 85.4906 80.7624 85.3897 80.9447C85.292 81.127 85.2432 81.3435 85.2432 81.5941C85.2432 81.8383 85.292 82.0515 85.3897 82.2338C85.4906 82.4161 85.6306 82.5577 85.8096 82.6586C85.9886 82.7595 86.197 82.8099 86.4346 82.8099C86.6722 82.8099 86.8789 82.7595 87.0547 82.6586C87.2338 82.5577 87.3737 82.4161 87.4746 82.2338C87.5756 82.0515 87.626 81.8383 87.626 81.5941ZM90.9805 83.4545L90.2578 83.2689L90.6143 79.7289H94.2617V80.5638H91.3809L91.166 82.4974C91.2963 82.4226 91.4606 82.3526 91.6592 82.2875C91.861 82.2224 92.0922 82.1898 92.3526 82.1898C92.6813 82.1898 92.9759 82.2468 93.2364 82.3607C93.4968 82.4714 93.7181 82.6309 93.9004 82.8392C94.086 83.0476 94.2276 83.2982 94.3252 83.5912C94.4229 83.8842 94.4717 84.2113 94.4717 84.5726C94.4717 84.9144 94.4245 85.2286 94.3301 85.515C94.239 85.8015 94.1006 86.0521 93.9151 86.267C93.7295 86.4786 93.4951 86.6429 93.2119 86.7601C92.932 86.8773 92.6016 86.9359 92.2207 86.9359C91.9343 86.9359 91.6625 86.8969 91.4053 86.8187C91.1514 86.7373 90.9235 86.6153 90.7217 86.4525C90.5231 86.2865 90.3604 86.0814 90.2334 85.8373C90.1097 85.5899 90.0316 85.3002 89.9991 84.9681H90.8584C90.8975 85.2351 90.9756 85.4597 91.0928 85.642C91.21 85.8243 91.363 85.9626 91.5518 86.057C91.7438 86.1482 91.9668 86.1937 92.2207 86.1937C92.4356 86.1937 92.626 86.1563 92.792 86.0814C92.958 86.0066 93.098 85.8991 93.2119 85.7592C93.3259 85.6192 93.4121 85.4499 93.4707 85.2513C93.5326 85.0528 93.5635 84.8298 93.5635 84.5824C93.5635 84.3578 93.5326 84.1495 93.4707 83.9574C93.4089 83.7653 93.3161 83.5977 93.1924 83.4545C93.072 83.3112 92.9239 83.2006 92.7481 83.1224C92.5723 83.0411 92.3705 83.0004 92.1426 83.0004C91.8399 83.0004 91.6104 83.0411 91.4541 83.1224C91.3011 83.2038 91.1433 83.3145 90.9805 83.4545Z" fill="#333333"/>
<path d="M65.1181 98.1903V98.9325H60.4648V98.2831L62.7939 95.6903C63.0804 95.3713 63.3017 95.1011 63.458 94.8798C63.6175 94.6552 63.7281 94.455 63.79 94.2792C63.8551 94.1001 63.8876 93.9178 63.8876 93.7323C63.8876 93.4979 63.8388 93.2863 63.7412 93.0975C63.6468 92.9055 63.5068 92.7525 63.3212 92.6385C63.1357 92.5246 62.9111 92.4677 62.6474 92.4677C62.3317 92.4677 62.068 92.5295 61.8564 92.6532C61.6481 92.7736 61.4918 92.9429 61.3876 93.161C61.2835 93.3791 61.2314 93.6298 61.2314 93.913H60.3281C60.3281 93.5126 60.416 93.1464 60.5918 92.8143C60.7675 92.4823 61.0279 92.2186 61.373 92.0233C61.7181 91.8247 62.1429 91.7255 62.6474 91.7255C63.0966 91.7255 63.4807 91.8052 63.7998 91.9647C64.1188 92.121 64.3629 92.3423 64.5322 92.6288C64.7047 92.912 64.791 93.244 64.791 93.6249C64.791 93.8332 64.7552 94.0448 64.6835 94.2596C64.6152 94.4712 64.5192 94.6828 64.3955 94.8944C64.275 95.106 64.1334 95.3143 63.9707 95.5194C63.8112 95.7245 63.6403 95.9263 63.458 96.1249L61.5537 98.1903H65.1181ZM70.5478 94.8114V95.8954C70.5478 96.4781 70.4957 96.9696 70.3916 97.37C70.2874 97.7704 70.1376 98.0927 69.9423 98.3368C69.747 98.5809 69.511 98.7583 69.2343 98.869C68.9609 98.9764 68.6516 99.0302 68.3066 99.0302C68.0332 99.0302 67.7809 98.996 67.5498 98.9276C67.3186 98.8593 67.1103 98.7502 66.9248 98.6005C66.7425 98.4475 66.5862 98.2489 66.456 98.0048C66.3258 97.7606 66.2265 97.4644 66.1582 97.1161C66.0898 96.7678 66.0556 96.3609 66.0556 95.8954V94.8114C66.0556 94.2287 66.1077 93.7404 66.2119 93.3466C66.3193 92.9527 66.4707 92.6369 66.666 92.3993C66.8613 92.1584 67.0957 91.9859 67.3691 91.8817C67.6458 91.7775 67.955 91.7255 68.2968 91.7255C68.5735 91.7255 68.8274 91.7596 69.0585 91.828C69.2929 91.8931 69.5013 91.9989 69.6835 92.1454C69.8658 92.2886 70.0205 92.4807 70.1474 92.7216C70.2776 92.9592 70.3769 93.2505 70.4453 93.5956C70.5136 93.9406 70.5478 94.3459 70.5478 94.8114ZM69.6396 96.0419V94.66C69.6396 94.341 69.6201 94.0611 69.581 93.8202C69.5452 93.576 69.4915 93.3677 69.4199 93.1952C69.3483 93.0227 69.2571 92.8827 69.1464 92.7753C69.039 92.6678 68.9137 92.5897 68.7705 92.5409C68.6305 92.4888 68.4726 92.4628 68.2968 92.4628C68.082 92.4628 67.8916 92.5035 67.7255 92.5848C67.5595 92.663 67.4196 92.7883 67.3056 92.9608C67.1949 93.1333 67.1103 93.3596 67.0517 93.6395C66.9931 93.9195 66.9638 94.2596 66.9638 94.66V96.0419C66.9638 96.3609 66.9817 96.6425 67.0175 96.8866C67.0566 97.1307 67.1136 97.3423 67.1884 97.5214C67.2633 97.6971 67.3544 97.842 67.4619 97.9559C67.5693 98.0699 67.693 98.1545 67.833 98.2098C67.9762 98.2619 68.1341 98.288 68.3066 98.288C68.5279 98.288 68.7216 98.2456 68.8876 98.161C69.0537 98.0764 69.192 97.9445 69.3027 97.7655C69.4166 97.5832 69.5013 97.3505 69.5566 97.0673C69.6119 96.7808 69.6396 96.439 69.6396 96.0419ZM76.1728 94.8114V95.8954C76.1728 96.4781 76.1207 96.9696 76.0166 97.37C75.9124 97.7704 75.7626 98.0927 75.5673 98.3368C75.372 98.5809 75.136 98.7583 74.8593 98.869C74.5859 98.9764 74.2766 99.0302 73.9316 99.0302C73.6582 99.0302 73.4059 98.996 73.1748 98.9276C72.9436 98.8593 72.7353 98.7502 72.5498 98.6005C72.3675 98.4475 72.2112 98.2489 72.081 98.0048C71.9508 97.7606 71.8515 97.4644 71.7832 97.1161C71.7148 96.7678 71.6806 96.3609 71.6806 95.8954V94.8114C71.6806 94.2287 71.7327 93.7404 71.8369 93.3466C71.9443 92.9527 72.0957 92.6369 72.291 92.3993C72.4863 92.1584 72.7207 91.9859 72.9941 91.8817C73.2708 91.7775 73.58 91.7255 73.9218 91.7255C74.1985 91.7255 74.4524 91.7596 74.6835 91.828C74.9179 91.8931 75.1263 91.9989 75.3085 92.1454C75.4908 92.2886 75.6455 92.4807 75.7724 92.7216C75.9026 92.9592 76.0019 93.2505 76.0703 93.5956C76.1386 93.9406 76.1728 94.3459 76.1728 94.8114ZM75.2646 96.0419V94.66C75.2646 94.341 75.2451 94.0611 75.206 93.8202C75.1702 93.576 75.1165 93.3677 75.0449 93.1952C74.9733 93.0227 74.8821 92.8827 74.7714 92.7753C74.664 92.6678 74.5387 92.5897 74.3955 92.5409C74.2555 92.4888 74.0976 92.4628 73.9218 92.4628C73.707 92.4628 73.5166 92.5035 73.3505 92.5848C73.1845 92.663 73.0446 92.7883 72.9306 92.9608C72.8199 93.1333 72.7353 93.3596 72.6767 93.6395C72.6181 93.9195 72.5888 94.2596 72.5888 94.66V96.0419C72.5888 96.3609 72.6067 96.6425 72.6425 96.8866C72.6816 97.1307 72.7386 97.3423 72.8134 97.5214C72.8883 97.6971 72.9794 97.842 73.0869 97.9559C73.1943 98.0699 73.318 98.1545 73.458 98.2098C73.6012 98.2619 73.7591 98.288 73.9316 98.288C74.1529 98.288 74.3466 98.2456 74.5126 98.161C74.6787 98.0764 74.817 97.9445 74.9277 97.7655C75.0416 97.5832 75.1263 97.3505 75.1816 97.0673C75.2369 96.7808 75.2646 96.439 75.2646 96.0419Z" fill="#333333"/>
<circle cx="57.5" cy="57.5" r="52.2083" stroke="#3D5D7A"/>
<circle cx="57.5" cy="57.5" r="56.75" stroke="#184267" stroke-width="1.5"/>
</svg>
