<svg xmlns="http://www.w3.org/2000/svg" width="273.2" height="254" viewBox="0 0 273.2 254">
  <g id="spindle-2d" transform="translate(-79.4 -0.6)">
    <path id="Path_73" data-name="Path 73" d="M297.18,202.379,352,242v10a2,2,0,0,1-2,2H82a2,2,0,0,1-2-2V242l52.787-39.6a2,2,0,0,1,1.2-.4H296.008A2,2,0,0,1,297.18,202.379Z" fill="#dfe6ed"/>
    <path id="Path_74" data-name="Path 74" d="M80,242H352M80,242l52.787-39.6a2,2,0,0,1,1.2-.4H296.008a2,2,0,0,1,1.172.379L352,242M80,242v10a2,2,0,0,0,2,2H350a2,2,0,0,0,2-2V242" fill="none" stroke="#333" stroke-width="1.2"/>
    <path id="Path_75" data-name="Path 75" d="M255.171,208.757,268,224.923V228a2,2,0,0,1-2,2H204a2,2,0,0,1-2-2v-3.077l12.338-16.138a2,2,0,0,1,1.588-.785H253.6A2,2,0,0,1,255.171,208.757Z" fill="#fff"/>
    <path id="Path_76" data-name="Path 76" d="M202,224.923h66m-66,0,12.338-16.138a2,2,0,0,1,1.588-.785H253.6a2,2,0,0,1,1.566.757L268,224.923m-66,0V228a2,2,0,0,0,2,2h62a2,2,0,0,0,2-2v-3.077" fill="none" stroke="#184267" stroke-width="0.8"/>
    <path id="Path_77" data-name="Path 77" d="M194.147,222.652a32.057,32.057,0,0,1,0-5.526,35.814,35.814,0,0,1,0-6.316,41.088,41.088,0,0,1,0-6.315l-.005-.082a33.787,33.787,0,0,1,.005-5.865c-.174-4.551-.2-7.067,0-11.421l-.383-.79-.048-61.528H199.1l.049,61.134a3.939,3.939,0,0,0-.316.394,45.757,45.757,0,0,1,0,5.132l.006.119a35.909,35.909,0,0,1,.06,5.381,22.3,22.3,0,0,1,0,5.526,33.836,33.836,0,0,1,0,5.947,30.546,30.546,0,0,1-.017,5.526,25.8,25.8,0,0,1-.158,5.921v7.869c-.682-.564-1.418-.912-2.217-.369a3.015,3.015,0,0,0-2.741.369A29.961,29.961,0,0,1,194.147,222.652Z" fill="#fff"/>
    <path id="Path_78" data-name="Path 78" d="M193.764,227.758l.037.247h.011l.01,0Zm5.116-13.79-.248-.028a.245.245,0,0,0,0,.047Zm-2.375,13.421-.087.234a.25.25,0,0,0,.228-.027Zm2.217.369-.16.193a.251.251,0,0,0,.41-.193Zm.115-36.17-.249.014Zm-4.7,12.825.25-.014h0Zm2.567-14.128.228.1,0-.01,0-.01Zm-2.993-65.476v-.25h-.251v.25Zm5.382,0h.25v-.249h-.25Zm.049,61.134.2.151.051-.067v-.085Zm-5.383.394h-.25v.058l.025.051Zm.134,30.77a32.163,32.163,0,0,0,0,5.561l.5-.031a31.764,31.764,0,0,1,0-5.492Zm.488,5.618c1.481-4.894,2.386-9.6,4.733-14.169l-.445-.228c-2.375,4.618-3.3,9.42-4.766,14.252Zm4.76-14.265a33.955,33.955,0,0,0,0-5.983l-.5.036a33.536,33.536,0,0,1,0,5.912Zm-4.756,8.723a66.332,66.332,0,0,1,4.732-14.58l-.451-.215a66.762,66.762,0,0,0-4.767,14.681Zm-.491,5.435c-.113.806-.252,2.094-.342,3.177-.045.541-.078,1.035-.088,1.394,0,.178,0,.331,0,.441a.858.858,0,0,0,.025.161.351.351,0,0,0,.053.11.263.263,0,0,0,.251.1l-.073-.494a.233.233,0,0,1,.221.089.184.184,0,0,1,.023.039.138.138,0,0,1,.006.015.409.409,0,0,1-.007-.061c-.006-.084-.007-.215,0-.389.01-.346.042-.83.086-1.368.089-1.076.228-2.354.34-3.149Zm5.23-8.621a30.839,30.839,0,0,0,.016-5.586l-.5.063a30.38,30.38,0,0,1-.017,5.466Zm-5.307,14a.26.26,0,0,0,.119-.064.353.353,0,0,0,.036-.04.608.608,0,0,0,.037-.058c.02-.036.043-.082.067-.134.05-.106.115-.256.192-.443.155-.374.365-.9.611-1.538.492-1.269,1.128-2.959,1.757-4.659s1.251-3.408,1.714-4.716c.232-.653.424-1.207.558-1.609.067-.2.12-.366.156-.488.018-.06.032-.113.042-.155.005-.02.01-.041.013-.061a.357.357,0,0,0,.006-.086l-.5.037c0-.027,0-.044,0-.034a.152.152,0,0,1-.006.027c-.007.03-.019.073-.035.13-.034.114-.085.273-.151.472-.132.4-.324.948-.555,1.6-.462,1.3-1.084,3.012-1.712,4.71s-1.264,3.386-1.754,4.651c-.245.633-.454,1.159-.607,1.528-.076.185-.138.327-.183.423-.022.048-.039.08-.049.1s-.006.009,0,0a.25.25,0,0,1,.022-.024.237.237,0,0,1,.108-.057Zm5.148-8.084a25.991,25.991,0,0,0,.159-5.973l-.5.049a25.482,25.482,0,0,1-.158,5.868Zm-.493-.076c-.388,1.963-.564,3.079-.833,4.085a16.283,16.283,0,0,1-1.362,3.35l.447.226a16.893,16.893,0,0,0,1.4-3.447c.273-1.028.457-2.18.839-4.117Zm-1.831,7.755a1.132,1.132,0,0,1,.952-.195,2.52,2.52,0,0,1,.964.55l.319-.386a3.02,3.02,0,0,0-1.165-.65,1.631,1.631,0,0,0-1.351.267Zm-2.748-16.81a36.016,36.016,0,0,0,0,6.359l.5-.038a35.606,35.606,0,0,1,0-6.272Zm5.247-8.263a22.536,22.536,0,0,0,0-5.579l-.5.05a22.031,22.031,0,0,1,0,5.474Zm-4.754,8.341a59.3,59.3,0,0,1,4.733-13.792l-.455-.206a59.761,59.761,0,0,0-4.766,13.891Zm4.755-13.875a36.2,36.2,0,0,0-.059-5.415l-.5.028a35.738,35.738,0,0,1,.059,5.348Zm-.059-5.415-.007-.119-.5.028.007.119Zm-5.189,12.9a41.266,41.266,0,0,0,0,6.348l.5-.025a40.674,40.674,0,0,1,0-6.283Zm4.709-13.119a49.662,49.662,0,0,0-4.7,13.081l.486.116a49.157,49.157,0,0,1,4.664-12.972Zm-4.709,7.166a33.964,33.964,0,0,0,0,5.906l.5-.029a33.427,33.427,0,0,1,0-5.825Zm0,5.906,0,.081.5-.029-.005-.081Zm4.579,15.461v7.869h.5v-7.869ZM194.391,198.6a38.14,38.14,0,0,1,2.546-8.214l-.456-.2a38.562,38.562,0,0,0-2.578,8.313Zm-.675-73.542H199.1v-.5h-5.382Zm5.132-.25.049,61.134h.5l-.049-61.134Zm-2.255,102.346a3.262,3.262,0,0,0-2.958.389l.258.428a2.766,2.766,0,0,1,2.525-.349Zm-2.2-28.617c-.174-4.545-.2-7.054,0-11.4l-.5-.023c-.205,4.364-.174,6.887,0,11.443Zm-.162-11.177a1.307,1.307,0,0,1,.741-.1.881.881,0,0,1,.513.371,3.843,3.843,0,0,1,.491,1.011c.161.453.317,1.018.486,1.7l.486-.119c-.17-.691-.332-1.274-.5-1.751a4.3,4.3,0,0,0-.563-1.145,1.384,1.384,0,0,0-.8-.558,1.785,1.785,0,0,0-1.027.122Zm.137-.343-.383-.79-.45.218.383.79Zm-.358-.681-.048-61.529h-.5l.048,61.528Zm5.023.141a1.73,1.73,0,0,1,.159-.209,2.021,2.021,0,0,0,.15-.175l-.4-.3a1.33,1.33,0,0,1-.121.14,2.115,2.115,0,0,0-.2.266Zm.043,5a45.7,45.7,0,0,0,0-5.155l-.5.025a45.312,45.312,0,0,1,0,5.107Zm-2.135-1.113a9.11,9.11,0,0,1,2.065-3.855l-.358-.349a9.589,9.589,0,0,0-2.179,4.039Z" fill="#333"/>
    <path id="Path_79" data-name="Path 79" d="M177.567,113.63V27.939c2.355-3.621,35.325-3.621,37.68,0V113.63c-1.262,1.3-5.985,2.347-11.694,2.716v8.04c0,1.985-14.292,2.01-14.292,0v-8.04C182.98,116.024,179.516,115.006,177.567,113.63Z" fill="#fff"/>
    <path id="Path_80" data-name="Path 80" d="M177.567,27.939l-.336-.218a.4.4,0,0,0-.064.218Zm0,85.691h-.4a.4.4,0,0,0,.169.327Zm37.68,0,.287.28a.4.4,0,0,0,.113-.28Zm0-85.691h.4a.4.4,0,0,0-.064-.218Zm-25.986,88.407.02-.4Zm14.292,0-.025-.4ZM177.167,27.939V113.63h.8V27.939Zm38.48,85.691V27.939h-.8V113.63Zm-.735-85.909a1.722,1.722,0,0,1-.638.5,7.5,7.5,0,0,1-1.34.521,28.45,28.45,0,0,1-4.289.835,99.431,99.431,0,0,1-12.238.675,99.479,99.479,0,0,1-12.239-.675,28.459,28.459,0,0,1-4.288-.835,7.5,7.5,0,0,1-1.34-.521,1.722,1.722,0,0,1-.638-.5l-.671.436a2.476,2.476,0,0,0,.933.771,8.259,8.259,0,0,0,1.486.582,29.2,29.2,0,0,0,4.415.862,100.212,100.212,0,0,0,12.342.682,100.212,100.212,0,0,0,12.342-.682,29.188,29.188,0,0,0,4.415-.862,8.251,8.251,0,0,0,1.486-.582,2.475,2.475,0,0,0,.933-.771Zm-37.01.436a1.723,1.723,0,0,1,.638-.5,7.5,7.5,0,0,1,1.34-.521,28.458,28.458,0,0,1,4.288-.835,111.2,111.2,0,0,1,24.477,0,28.45,28.45,0,0,1,4.289.835,7.5,7.5,0,0,1,1.34.521,1.722,1.722,0,0,1,.638.5l.671-.436a2.476,2.476,0,0,0-.933-.771,8.258,8.258,0,0,0-1.486-.582,29.213,29.213,0,0,0-4.415-.862,111.967,111.967,0,0,0-24.684,0,29.214,29.214,0,0,0-4.415.862,8.259,8.259,0,0,0-1.486.582,2.476,2.476,0,0,0-.933.771Zm-.566,85.8c2.046,1.444,5.606,2.466,11.9,2.789l.041-.8c-6.264-.322-9.631-1.336-11.484-2.643Zm11.525,2.389v8.04h.8v-8.04Zm0,8.04a.9.9,0,0,0,.271.629,1.944,1.944,0,0,0,.569.39,7.141,7.141,0,0,0,1.72.5,32.816,32.816,0,0,0,9.972-.008,7.23,7.23,0,0,0,1.719-.5,1.968,1.968,0,0,0,.569-.386.9.9,0,0,0,.272-.627h-.8v0l0,.009a.229.229,0,0,1-.045.06,1.214,1.214,0,0,1-.338.22,6.536,6.536,0,0,1-1.52.435,32.055,32.055,0,0,1-9.68.007,6.422,6.422,0,0,1-1.519-.436,1.145,1.145,0,0,1-.337-.221.24.24,0,0,1-.046-.061.04.04,0,0,1,0-.016Zm.379-7.64a141.4,141.4,0,0,0,14.339,0l-.051-.8a140.748,140.748,0,0,1-14.247,0Zm14.339,0a49.144,49.144,0,0,0,7.578-1.02,18.108,18.108,0,0,0,2.683-.805,5.025,5.025,0,0,0,1.694-1.01l-.573-.559a4.3,4.3,0,0,1-1.42.827,17.344,17.344,0,0,1-2.563.767,48.474,48.474,0,0,1-7.45,1Zm.374,7.641v-8.04h-.8v8.04Z" fill="#184267"/>
    <path id="Path_81" data-name="Path 81" d="M214.593,28c-.093.5-9.093,2.5-18.093,2-9.5.5-18-1.1-18-2,.648-.9,8.338-2.5,18-2.5S214.739,27.217,214.593,28Z" fill="#dce7f3"/>
    <path id="Path_82" data-name="Path 82" d="M186.987,2.4c.628-1.871,18.212-1.871,18.84,0V27.884c0,1.835-18.84,1.835-18.84,0Z" fill="#fff"/>
    <path id="Path_83" data-name="Path 83" d="M205.827,2.4h.4a.394.394,0,0,0-.021-.127Zm-18.84,0-.379-.127a.394.394,0,0,0-.021.127Zm18.47-.15c.016-.041.022-.007-.122.067a2.977,2.977,0,0,1-.575.2,15.018,15.018,0,0,1-2.1.352,60.323,60.323,0,0,1-6.256.288,60.324,60.324,0,0,1-6.256-.288,15.018,15.018,0,0,1-2.1-.352,2.977,2.977,0,0,1-.575-.2c-.144-.074-.138-.109-.122-.067l-.741.3a1,1,0,0,0,.495.477,3.747,3.747,0,0,0,.736.267,15.746,15.746,0,0,0,2.216.374,61.107,61.107,0,0,0,6.344.293,61.107,61.107,0,0,0,6.344-.293,15.747,15.747,0,0,0,2.216-.374,3.747,3.747,0,0,0,.736-.267,1,1,0,0,0,.495-.477Zm-18.091.278a.434.434,0,0,1,.141-.117,2.651,2.651,0,0,1,.567-.244,12.588,12.588,0,0,1,2.086-.423,56.358,56.358,0,0,1,12.494,0,12.589,12.589,0,0,1,2.086.423,2.651,2.651,0,0,1,.567.244.458.458,0,0,1,.141.117l.758-.255a1.068,1.068,0,0,0-.475-.541,3.384,3.384,0,0,0-.745-.327A13.319,13.319,0,0,0,202.76.954a57.124,57.124,0,0,0-12.706,0,13.319,13.319,0,0,0-2.226.454,3.384,3.384,0,0,0-.745.327,1.063,1.063,0,0,0-.475.541Zm-.779-.127V27.884h.8V2.4Zm19.64,25.481V2.4h-.8V27.884Zm-19.64,0a.812.812,0,0,0,.376.646,2.641,2.641,0,0,0,.707.336,12.481,12.481,0,0,0,2.209.447,54.053,54.053,0,0,0,6.528.347,54.065,54.065,0,0,0,6.528-.347,12.48,12.48,0,0,0,2.209-.447,2.641,2.641,0,0,0,.707-.336.812.812,0,0,0,.376-.646h-.8c0-.074.049-.071-.047,0a1.872,1.872,0,0,1-.489.224,11.732,11.732,0,0,1-2.059.413,53.267,53.267,0,0,1-6.425.341,53.267,53.267,0,0,1-6.425-.341,11.731,11.731,0,0,1-2.059-.413,1.871,1.871,0,0,1-.489-.224c-.1-.07-.047-.073-.047,0Z" fill="#184267"/>
    <path id="Path_84" data-name="Path 84" d="M169,60.947l-.5-.063a.5.5,0,0,0,.066.318Zm54,0,.483.128a.5.5,0,0,0-.431-.625Zm-54.43.255a3.366,3.366,0,0,0,1.292,1.131,11.313,11.313,0,0,0,2.121.864,40.632,40.632,0,0,0,6.365,1.285A140.707,140.707,0,0,0,196.2,65.5a138.328,138.328,0,0,0,17.754-1.018A38.378,38.378,0,0,0,220.2,63.2a10.257,10.257,0,0,0,2.046-.869,2.978,2.978,0,0,0,1.205-1.159l-.9-.443a2.035,2.035,0,0,1-.818.741,9.284,9.284,0,0,1-1.843.778,37.417,37.417,0,0,1-6.073,1.247A137.335,137.335,0,0,1,196.2,64.5a139.735,139.735,0,0,1-17.718-1.009,39.7,39.7,0,0,1-6.2-1.248,10.4,10.4,0,0,1-1.931-.782,2.412,2.412,0,0,1-.919-.768Zm.926-.192a2,2,0,0,1,1.024-1.267,11.419,11.419,0,0,1,2.9-1.265l-.3-.955a12.379,12.379,0,0,0-3.166,1.39,2.95,2.95,0,0,0-1.459,1.972Zm53.021-.191-1.07,4.053.967.255,1.069-4.053Zm.535-.37L218.775,60l-.1.995,4.278.45Z" fill="#494949"/>
    <path id="Path_85" data-name="Path 85" d="M169,69.947l-.5-.063a.5.5,0,0,0,.066.318Zm54,0,.483.128a.5.5,0,0,0-.431-.625Zm-54.43.255a3.366,3.366,0,0,0,1.292,1.131,11.313,11.313,0,0,0,2.121.864,40.632,40.632,0,0,0,6.365,1.285A140.707,140.707,0,0,0,196.2,74.5a138.328,138.328,0,0,0,17.754-1.018A38.379,38.379,0,0,0,220.2,72.2a10.257,10.257,0,0,0,2.046-.869,2.978,2.978,0,0,0,1.205-1.159l-.9-.443a2.035,2.035,0,0,1-.818.741,9.284,9.284,0,0,1-1.843.778,37.416,37.416,0,0,1-6.073,1.247A137.335,137.335,0,0,1,196.2,73.5a139.736,139.736,0,0,1-17.718-1.009,39.7,39.7,0,0,1-6.2-1.248,10.4,10.4,0,0,1-1.931-.782,2.412,2.412,0,0,1-.919-.769Zm.926-.192a2,2,0,0,1,1.024-1.267,11.419,11.419,0,0,1,2.9-1.265l-.3-.955a12.379,12.379,0,0,0-3.166,1.39,2.95,2.95,0,0,0-1.459,1.972Zm53.021-.191-1.07,4.053.967.255,1.069-4.053Zm.535-.37L218.775,69l-.1.994,4.278.45Z" fill="#494949"/>
    <path id="Path_86" data-name="Path 86" d="M169,78.947l-.5-.063a.5.5,0,0,0,.066.318Zm54,0,.469.174a.5.5,0,0,0-.413-.67Zm-54.43.255a3.366,3.366,0,0,0,1.292,1.131,11.313,11.313,0,0,0,2.121.864,40.632,40.632,0,0,0,6.365,1.285A140.707,140.707,0,0,0,196.2,83.5a138.328,138.328,0,0,0,17.754-1.018A38.379,38.379,0,0,0,220.2,81.2a10.257,10.257,0,0,0,2.046-.869,2.978,2.978,0,0,0,1.205-1.159l-.9-.443a2.035,2.035,0,0,1-.818.741,9.284,9.284,0,0,1-1.843.778,37.416,37.416,0,0,1-6.073,1.247A137.335,137.335,0,0,1,196.2,82.5a139.736,139.736,0,0,1-17.718-1.009,39.7,39.7,0,0,1-6.2-1.248,10.4,10.4,0,0,1-1.931-.782,2.412,2.412,0,0,1-.919-.769Zm.926-.192a2,2,0,0,1,1.024-1.267,11.419,11.419,0,0,1,2.9-1.265l-.3-.955a12.379,12.379,0,0,0-3.166,1.39,2.95,2.95,0,0,0-1.459,1.972Zm53.035-.237-1.5,4.053.938.347,1.5-4.053Zm.525-.323-4-.447-.112.994,4,.447Z" fill="#494949"/>
    <path id="Path_87" data-name="Path 87" d="M173,192a15.647,15.647,0,0,0-9,3c9.968,4.626,13.315,8.647,19,16C179.577,203.183,177.774,198.7,173,192Z" fill="#fff" stroke="#184267" stroke-width="0.8"/>
    <path id="Path_88" data-name="Path 88" d="M181.022,186.426a20.079,20.079,0,0,0-4.356-4.865c2.506,6.875,2.629,9.646,2.683,14.449A33.786,33.786,0,0,0,181.022,186.426Z" fill="#fff" stroke="#184267" stroke-width="0.8"/>
    <path id="Path_94" data-name="Path 94" d="M228,162H215.429v35H206" fill="none" stroke="#3d5d7a" stroke-linecap="round" stroke-linejoin="round" stroke-width="1"/>
    <path id="Path_99" data-name="Path 99" d="M251,36H238.429V71H229" fill="none" stroke="#3d5d7a" stroke-linecap="round" stroke-linejoin="round" stroke-width="1"/>
    <path id="Path_104" data-name="Path 104" d="M145,154h12.571v35H167" fill="none" stroke="#3d5d7a" stroke-linecap="round" stroke-linejoin="round" stroke-width="1"/>
  </g>
</svg>
