<svg width="25" height="25" viewBox="0 0 25 25" fill="none" xmlns="http://www.w3.org/2000/svg">
<path d="M0 0H25V25H0V0Z" fill="url(#paint0_linear_1076_11953)"/>
<rect width="2.85" height="15" transform="translate(3.9502 4)" fill="#FFB71B"/>
<rect width="4.75" height="15" transform="translate(7.75 4)" fill="#34A53B"/>
<rect width="3.8" height="15" transform="translate(13.4502 4)" fill="#FF3F25"/>
<rect width="2.85" height="15" transform="translate(18.2002 4)" fill="#34A53B"/>
<path d="M3.9502 20.4167H21.0502" stroke="black" stroke-width="1.5" stroke-linecap="round"/>
<path d="M0 0V-1H-1V0H0ZM25 0H26V-1H25V0ZM25 25V26H26V25H25ZM0 25H-1V26H0V25ZM0 1H25V-1H0V1ZM24 0V25H26V0H24ZM25 24H0V26H25V24ZM1 25V0H-1V25H1Z" fill="#AEC4DA"/>
<defs>
<linearGradient id="paint0_linear_1076_11953" x1="12.5" y1="0" x2="12.5" y2="25" gradientUnits="userSpaceOnUse">
<stop stop-color="#FCFDFD"/>
<stop offset="1" stop-color="#D6E2E5"/>
</linearGradient>
</defs>
</svg>
