<svg  viewBox="0 0 25 28" fill="none" xmlns="http://www.w3.org/2000/svg">
<path fill-rule="evenodd" clip-rule="evenodd" d="M10.7664 1.5H14.5586C14.8347 1.5 15.0586 1.72386 15.0586 2V2.80008C15.0586 2.97901 14.9646 3.13599 14.8233 3.22434H10.5017C10.3603 3.13599 10.2664 2.97901 10.2664 2.80008V2C10.2664 1.72386 10.4902 1.5 10.7664 1.5ZM8.81145 3.22434C8.78191 3.0876 8.76636 2.94565 8.76636 2.80008V2C8.76636 0.895429 9.66179 0 10.7664 0H14.5586C15.6631 0 16.5586 0.895431 16.5586 2V2.80008C16.5586 2.94565 16.543 3.0876 16.5135 3.22434H23C24.1046 3.22434 25 4.11977 25 5.22434V8.01752C25 8.94944 24.3626 9.73249 23.5 9.95451V26.0006C23.5 27.1052 22.6046 28.0006 21.5 28.0006H18.75H15.0071L15 28.0006L14.9929 28.0006H10H6.25H3.5C2.39543 28.0006 1.5 27.1052 1.5 26.0006V9.95451C0.637386 9.73249 0 8.94944 0 8.01752V5.22434C0 4.11977 0.895431 3.22434 2 3.22434H8.81145ZM23 5.22434H2L2 8.01752H23V5.22434ZM21.5 26.0006H19.75V10.0175H21.5V26.0006ZM17.75 26.0006V10.0175H16V10.0176V26.0006H17.75ZM14 10.0175H11V26.0006H14V10.0176V10.0175ZM9 26.0006V10.0175H7.25V26.0006H9ZM5.25 10.0175V26.0006H3.5V10.0175H5.25Z" fill="black"/>
</svg>
